<?xml version="1.0" encoding="utf-8"?>
<!-- Generator: Adobe Illustrator 25.4.1, SVG Export Plug-In . SVG Version: 6.00 Build 0)  -->
<svg version="1.1" id="Layer_1" xmlns="http://www.w3.org/2000/svg" xmlns:xlink="http://www.w3.org/1999/xlink" x="0px" y="0px"
	 viewBox="0 0 1382.2 312.5" style="enable-background:new 0 0 1382.2 312.5;" xml:space="preserve">
<style type="text/css">
	.st0{fill:#357FE7;}
	.st1{fill:#0C1C2C;}
</style>
<g>
	<path class="st0" d="M323.8,164.1H347c10.2,0,18.3,2.6,24.2,7.9c5.9,5.3,8.8,12.1,8.8,20.5c0,7.9-2.9,14.4-8.8,19.6
		c-5.9,5.2-13.6,7.8-23.2,7.8h-13.6v32.5h-10.6V164.1z M334.4,210.9H348c6.6,0,11.8-1.7,15.6-5.2c3.8-3.4,5.6-7.8,5.6-13.2
		c0-5.9-1.9-10.7-5.8-14.1c-3.8-3.5-9.3-5.2-16.4-5.2h-12.7V210.9z"/>
	<path class="st0" d="M436.3,186h10.3v66.4h-10.3v-11.5c-3.5,8.2-10.4,12.3-20.8,12.3c-6.5,0-11.7-1.9-15.5-5.8
		c-3.8-3.9-5.7-9.1-5.7-15.7V186h10.3v43.1c0,4.8,1.2,8.5,3.7,11c2.4,2.5,5.8,3.8,10,3.8c5.5,0,9.9-1.9,13.2-5.8
		c3.3-3.8,4.9-9,4.9-15.6V186z"/>
	<path class="st0" d="M466.9,252.4v-92.6h10.3v92.6H466.9z"/>
	<path class="st0" d="M533.6,188.2v9.8c-4-2.4-9.5-3.7-16.5-3.7c-3.5,0-6.3,0.8-8.3,2.4c-2.1,1.6-3.1,3.7-3.1,6.2
		c0,1.6,0.3,2.9,0.9,4.1c0.6,1.2,1.8,2.3,3.6,3.5c1.8,1.1,3.1,1.9,3.9,2.3c0.8,0.4,2.6,1.2,5.4,2.4c5.6,2.3,10,4.8,13.1,7.7
		c3.1,2.9,4.7,6.8,4.7,11.7c0,5.7-2,10.2-6,13.5c-4,3.3-9.4,5-16.3,5c-8,0-14.5-1.4-19.5-4.1v-10.1c5.9,3.5,12.1,5.2,18.9,5.2
		c4,0,7.1-0.8,9.2-2.4c2.1-1.6,3.1-3.7,3.1-6.4c0-3.1-1.2-5.6-3.5-7.3c-2.3-1.7-6.2-3.7-11.6-5.9c-5-1.9-9-4.3-12-7.2
		c-3-2.9-4.5-6.8-4.5-11.7c0-5.5,2.1-9.9,6.2-13.2c4.1-3.3,9.3-4.9,15.5-4.9C523.9,185.4,529.4,186.3,533.6,188.2z"/>
	<path class="st0" d="M601.4,239.3v9.7c-5.2,2.7-11.4,4.1-18.9,4.1c-10,0-18.1-3.1-24.3-9.2c-6.2-6.2-9.2-14.3-9.2-24.4
		c0-10.6,2.8-18.9,8.3-25c5.5-6.1,12.6-9.2,21.2-9.2c8.3,0,14.9,2.7,19.8,8c4.9,5.3,7.3,12.9,7.3,22.7c0,2.8-0.2,5.4-0.7,7.7h-45.3
		c0.8,6.6,3.3,11.6,7.5,15.1c4.2,3.5,9.7,5.2,16.5,5.2C591,243.9,597,242.4,601.4,239.3z M595.3,215v-2.6c0-5.5-1.5-9.9-4.5-13.2
		c-3-3.3-7.1-4.9-12.3-4.9c-5,0-9.2,1.8-12.7,5.4c-3.5,3.6-5.5,8.7-6.2,15.3H595.3z"/>
</g>
<path class="st0" d="M603.7,312.5H323.3c-1.5,0-2.8-1.3-2.8-2.8v-9.4c0-1.5,1.3-2.8,2.8-2.8h280.4c1.5,0,2.8,1.3,2.8,2.8v9.4
	C606.5,311.2,605.2,312.5,603.7,312.5z"/>
<g>
	<g>
		<path class="st1" d="M179.4,196.9c0.2-2.1,2-3.7,4.1-3.7h73.7c8.4-17.6,13.1-37.2,13.1-58c0-8.3-0.7-16.4-2.2-24.2H223
			c-2.1,0-3.9-1.7-4-3.7c-0.3-3.8-0.7-7.6-1.1-11.3c-0.2-2.1,1.2-3.7,3.3-3.7h42.1C245.3,38.6,194.7,0,135.1,0c-2.7,0-5.3,0.1-8,0.2
			c-3.6,6-7.6,16.2-11.2,32.6c-0.4,1.9-0.8,3.9-1.2,5.9c-0.4,2-2.4,3.7-4.5,3.7H98.7c-2.1,0-3.5-1.7-3.1-3.7c0.6-3.4,1.3-6.7,2-9.9
			c2.2-9.8,4.6-18.2,7.4-25.4C71.5,11,42.8,31,23.9,58.4h64.9c2.1,0,3.5,1.7,3.3,3.7c-0.4,3.7-0.9,7.5-1.2,11.3
			c-0.2,2.1-2,3.7-4.1,3.7H13.1C4.7,94.7,0,114.4,0,135.1c0,8.3,0.7,16.4,2.2,24.2h45.1c2.1,0,3.9,1.7,4,3.7
			c0.3,3.8,0.7,7.6,1.1,11.3c0.2,2.1-1.2,3.7-3.3,3.7H7c18,53.5,68.5,92.1,128.1,92.1c2.7,0,5.3-0.1,8-0.2c3.6-6,7.6-16.2,11.2-32.6
			c0.4-1.9,0.8-3.9,1.2-5.9c0.4-2,2.4-3.7,4.5-3.7h11.6c2.1,0,3.5,1.7,3.1,3.7c-0.6,3.4-1.3,6.7-2,9.9c-2.2,9.8-4.6,18.2-7.4,25.4
			c33.4-7.6,62.1-27.6,81.1-55h-64.9c-2.1,0-3.5-1.7-3.3-3.7C178.6,204.5,179,200.7,179.4,196.9z M129.7,110.9
			c-2.1,0-3.7-1.7-3.6-3.8c0.2-3.8,0.4-7.6,0.6-11.3c0.1-2.1,1.9-3.7,4-3.7h64c2.1,0,4,1.7,4.2,3.7c0.5,3.7,0.9,7.5,1.2,11.3
			c0.2,2.1-1.4,3.7-3.5,3.7H129.7z M220,129.3c0,1.9,0,3.7,0,5.6c0,13.5-0.8,26.7-2.2,39.4c-0.2,2.1-2.1,3.7-4.2,3.7h-11.5
			c-2.1,0-3.5-1.7-3.3-3.7c1.6-12.7,2.4-26,2.4-39.4c0-1.9,0-3.8-0.1-5.6c0-2.1,1.6-3.8,3.7-3.8h11.3
			C218.3,125.6,220,127.2,220,129.3z M184.3,29.8c5.7,2.7,11.2,5.7,16.3,9.3c3.4,2.4,7.1,7.6,8.3,11.6c2.1,7.2,3.9,14.8,5.5,22.7
			c0.4,2-1,3.7-3.1,3.7h-11.6c-2.1,0-4.1-1.7-4.5-3.7c-3-14.4-7-27.6-12-38.9c-0.5-1.1-1-2.2-1.5-3.4
			C180.8,29.5,182.6,29,184.3,29.8z M109.7,73.4c0.4-3.9,0.8-7.6,1.3-11.3c0.3-2.1,2.2-3.7,4.2-3.7h56c2,0,3.7,1.5,4.1,3.4l2.6,11.7
			c0.4,2-1,3.7-3.1,3.7h-61.8C111,77.1,109.5,75.4,109.7,73.4z M89.1,95.9c0.1-2.1,1.9-3.7,4-3.7h11.3c2.1,0,3.6,1.7,3.5,3.7
			c-0.8,12.6-1.2,25.9-1.2,39.4c0,1.9,0,3.8,0,5.6c0,2.1-1.6,3.8-3.7,3.8H91.8c-2.1,0-3.8-1.7-3.8-3.8c0-1.9,0-3.7,0-5.6
			C87.9,121.8,88.3,108.6,89.1,95.9z M140.6,159.3c2.1,0,3.7,1.7,3.6,3.7c-0.2,3.8-0.4,7.6-0.6,11.3c-0.1,2.1-1.9,3.7-4,3.7h-64
			c-2.1,0-4-1.7-4.2-3.7c-0.5-3.7-0.9-7.5-1.2-11.3c-0.2-2.1,1.4-3.7,3.5-3.7H140.6z M50.2,140.9c0-1.9,0-3.7,0-5.6
			c0-13.5,0.8-26.7,2.2-39.4c0.2-2.1,2.1-3.7,4.2-3.7h11.5c2.1,0,3.5,1.7,3.3,3.7c-1.6,12.7-2.4,26-2.4,39.4c0,1.9,0,3.8,0.1,5.6
			c0,2.1-1.6,3.8-3.7,3.8H54C52,144.7,50.2,143,50.2,140.9z M85.9,240.4c-5.7-2.7-11.2-5.7-16.3-9.3c-3.4-2.4-7.1-7.6-8.3-11.6
			c-2.1-7.2-3.9-14.8-5.5-22.7c-0.4-2,1-3.7,3.1-3.7h11.6c2.1,0,4.1,1.7,4.5,3.7c3,14.4,7,27.6,12,38.9c0.5,1.1,1,2.2,1.5,3.4
			C89.4,240.7,87.7,241.3,85.9,240.4z M159.3,208.2c-0.3,2.1-2.2,3.7-4.2,3.7H99c-1.9,0-3.7-1.5-4.1-3.4l-2.6-11.7
			c-0.4-2,1-3.7,3.1-3.7h61.8c2.1,0,3.6,1.7,3.4,3.7C160.2,200.7,159.7,204.5,159.3,208.2z M177.2,178.1h-11.3
			c-2.1,0-3.6-1.7-3.5-3.7c0.8-12.6,1.2-25.9,1.2-39.4c0-1.9,0-3.8,0-5.6c0-2.1,1.6-3.8,3.7-3.8h11.3c2.1,0,3.8,1.7,3.8,3.8
			c0,1.9,0,3.7,0,5.6c0,13.5-0.4,26.7-1.1,39.4C181.1,176.4,179.3,178.1,177.2,178.1z M496.2,120c-8.8,0-16-3.1-21.1-8.8
			c-4.1-4.5-6.1-11-6.1-19.8V59.8h-10.5c-1.7,0-2.7-1.7-3-3c0,0-1.2-7.4-1.6-9.2c-0.4-1.8,0.4-3,3-3H469V27.8c0-1.7,1.3-3,3-3h10.7
			c1.7,0,3.1,1.4,3.1,3v16.8h16.5c2.6,0,3.4,1.2,3,3c-0.4,1.8-1.6,9.2-1.6,9.2c-0.3,1.3-1.4,3-3,3h-15v32.4c0,3.7,0.3,6.6,1.8,8.4
			c1.7,2,5.3,3.4,9,3.4c0.9,0,2-0.1,3.1-0.2c1.7-0.1,3,1,3,2.6l-0.1,10.1c0,1.6-1.4,3.2-3.1,3.3C498.4,120,497.3,120,496.2,120z
			 M398.4,115.4V68.6c3.7-4.4,8.5-9.5,17.9-9.5c5.5,0,9.2,2.3,12.3,6.6c2.3,3.2,4,6.3,4,15.9v33.9c0,1.7,1.4,3,3,3h10.7
			c1.7,0,3-1.3,3-3V82.3c0-11.9-2.2-19.7-7.3-26.2c-6.5-8.3-14.8-13.1-25.4-13.1c-9.8,0-15,4.1-18.8,7v-2.8c0-1.5-1.4-2.7-3-2.7
			h-10.2c-1.7,0-3,1.3-3,3v67.8c0,1.7,1.3,3,3,3h10.7C397,118.5,398.4,117.1,398.4,115.4z M322.4,118.5h16H349h16c1.7,0,3-1.3,3-3
			v-9.2c0-1.7-1.3-3-3-3h-13V32.4h12.2c1.6,0,3-1.4,3-3v-9.3c0-1.7-1.4-3-3-3H349h-10.6h-15.5c-1.7,0-3.1,1.3-3.1,3v9.3
			c0,1.7,1.4,3,3.1,3h12.5v70.8h-13c-1.7,0-3,1.4-3,3v9.2C319.3,117.1,320.7,118.5,322.4,118.5z M597.6,118.5h10.7c1.7,0,3-1.3,3-3
			V70.2c4-6.6,11.4-11.2,18.2-11.2c1.2,0,2.5,0.1,3.7,0.2c1.6,0.2,2.9-0.6,2.9-2.3V46.4c0-1.7-1.1-3.2-2.5-3.3
			c-0.9,0-1.8-0.1-2.5-0.1c-9.2,0-16.2,3.7-20.3,7.8v-3.3c0-1.7-1.4-3-3-3h-10.2c-1.7,0-3,1.3-3,3v67.8
			C594.6,117.1,595.9,118.5,597.6,118.5z M847.4,59.8c1.7,0,3-1.3,3-3v-9.2c0-1.7-1.3-3-3-3h-14V27.8c0-1.7-1.4-3-3.1-3h-10.7
			c-1.7,0-3,1.4-3,3v16.8h-12.1c-2.6,0-3.4,1.2-3,3c0.4,1.8,1.6,9.2,1.6,9.2c0.3,1.3,1.4,3,3,3h10.5v31.6c0,8.8,2,15.3,6.1,19.8
			c5.1,5.7,12.3,8.8,21.1,8.8c1,0,2.2,0,3.3-0.1c1.7-0.1,3-1.6,3.1-3.3l0.1-10.1c0-1.6-1.3-2.8-3-2.6c-1.1,0.1-2.2,0.2-3.1,0.2
			c-3.7,0-7.3-1.4-9-3.4c-1.6-1.8-1.8-4.7-1.8-8.4V59.8H847.4z M797.9,81.6c0,0.3,0,1.2-0.1,2.1c-0.1,1.1-1.5,2-3.2,2h-51.9
			c1.3,11,10.7,19.4,21.9,19.4c8.6,0,14-3.4,18.5-8c1.2-1.2,3-1.3,4.3-0.2l6.6,6.3c1.2,1.2,1.4,3.2,0.3,4.4
			c-4.8,5.2-14,12.4-29.8,12.4c-21.7,0-38.1-16.5-38.1-38.4c0-22.3,15.1-38.5,36-38.5C782.6,43.1,797.9,59.6,797.9,81.6z
			 M782.2,72.6C779.5,64.1,771.5,58,763,58c-9.3,0-17.5,5.9-20.5,14.6H782.2z M682.8,43.2c-9.7,0-15.2,4-18.9,6.9v-2.8
			c0-1.5-1.3-2.7-3.1-2.7h-10.2c-1.7,0-3,1.3-3,3v67.8c0,1.7,1.3,3,3,3h10.7c1.7,0,3-1.3,3-3V68.6c3.7-4.4,8.5-9.5,17.9-9.5
			c5.4,0,9.1,2.4,12.3,6.6c2.1,2.7,4,6.3,4,15.9v33.9c0,1.7,1.3,3,3,3h10.7c1.7,0,3-1.3,3-3V82.3c0-11.9-1.6-20.3-6.6-26.7
			C702.2,47.3,693.4,43.2,682.8,43.2z M582.2,81.6c0,0.3,0,1.2,0,2.1c-0.1,1.1-1.6,2-3.2,2h-51.9c1.3,11,10.7,19.4,21.9,19.4
			c8.6,0,14-3.4,18.4-8c1.1-1.2,3-1.3,4.2-0.2l6.7,6.3c1.2,1.2,1.3,3.2,0.2,4.4c-4.7,5.2-13.9,12.4-29.7,12.4
			c-21.7,0-38.2-16.5-38.2-38.4c0-22.3,15.2-38.5,36-38.5C566.9,43.1,582.2,59.6,582.2,81.6z M566.5,72.6
			c-2.7-8.4-10.6-14.6-19.2-14.6c-9.3,0-17.4,5.9-20.5,14.6H566.5z M1053.2,81.6c0,21.9-16.4,38.4-38.2,38.4
			c-21.7,0-38.1-16.5-38.1-38.4c0-21.9,16.4-38.4,38.1-38.4C1036.7,43.1,1053.2,59.6,1053.2,81.6z M1036.4,81.6
			c0-12.8-9.2-22.5-21.4-22.5c-12.2,0-21.4,9.7-21.4,22.5c0,12.8,9.2,22.5,21.4,22.5C1027.2,104,1036.4,94.4,1036.4,81.6z M954.1,67
			c-4.3-2.9-9.9-5.1-14.9-7.2c-9.7-4.1-18.2-7.4-18.2-15.1c0-8,7.2-12.3,14.8-12.3c5.3,0,10.5,1.8,15.6,5c1.3,0.8,2.9,0.8,3.9-0.4
			l6.1-7.6c1-1.2,0.8-3-0.4-3.9c-8-6.1-16.6-9-25.8-9c-17.3,0-30.9,11.9-30.9,27.2c0,9.3,4.4,16.8,13,22.6c4.2,2.8,9.2,4.8,14,6.8
			c10,4.1,18.8,8.1,18.8,17.7c0,7.9-6.2,13.1-15.4,13.1c-9.7,0-16.8-5.1-22.2-10.4c-1.1-1.1-2.7-1.2-3.8-0.2l-7.2,7.1
			c-1.1,1.1-1.2,2.9-0.2,4.1c9.2,10.2,21.2,15.4,34.1,15.4c18.3,0,31.6-12.4,31.6-29.6C966.9,80.7,962.9,72.8,954.1,67z M1132.9,100
			l-8-5.8c-1.3-1-3.1-0.7-4.3,0.6c-5.3,6.2-11.6,9.2-18.6,9.2c-13.3,0-22.6-9.3-22.6-22.5c0-12.8,9.3-22.5,21.8-22.5
			c8.3,0,14.2,4.6,17.8,8.9c1.1,1.3,2.9,1.5,4.1,0.5l7.8-6.6c1.3-1.1,1.6-3.1,0.5-4.3c-7.6-9.3-18.7-14.4-30.2-14.4
			c-21.9,0-38.5,16.5-38.5,38.4c0,21.9,16.9,38.4,39.4,38.4c12.4,0,24.9-6,31.7-15.6C1134.7,103,1134.2,101,1132.9,100z
			 M1296.5,47.5c-0.3-1.1-1.3-2.8-3.3-2.8l-13,0V27.9c0-1.7-1.4-3-3.1-3h-10.7c-1.7,0-3,1.4-3,3v16.8h-12.1c-2.6,0-3.4,1.2-3,3
			c0.4,1.8,1.6,9.2,1.6,9.2c0.3,1.3,1.4,3,3,3h10.5v31.6c0,8.8,2,15.3,6.1,19.8c5.1,5.7,12.3,8.8,21.1,8.8c1,0,2.2,0,3.3-0.1
			c1.7-0.1,3-1.6,3.1-3.3l0.1-10.1c0-1.6-1.3-2.8-3-2.6c-1.1,0.1-2.2,0.2-3.1,0.2c-3.7,0-7.3-1.4-9-3.4c-1.6-1.8-1.8-4.7-1.8-8.4
			V59.9l16.8-0.1c1.5,0,3.4-0.6,2.8-2.8L1296.5,47.5z M1159.1,44.7h-10.7c-1.7,0-3.1,1.3-3.1,3v67.8c0,1.7,1.3,3,3.1,3h10.7
			c1.7,0,3-1.3,3-3V47.6C1162.1,46,1160.8,44.7,1159.1,44.7z M1153.7,10.1c-5.9,0-10.6,4.7-10.6,10.7c0,5.9,4.6,10.6,10.6,10.6
			c6,0,10.7-4.7,10.7-10.6C1164.4,14.9,1159.6,10.1,1153.7,10.1z M1245.3,81.6c0,0.3,0,1.1,0,2.1c0,1.1-1.5,2.1-3.2,2.1h-51.9
			c1.3,11,10.7,19.3,21.9,19.3c8.6,0,14-3.5,18.4-8c1.2-1.2,3-1.3,4.2-0.2l6.6,6.3c1.2,1.1,1.4,3.2,0.3,4.4
			c-4.8,5.2-14,12.4-29.7,12.4c-21.8,0-38.2-16.5-38.2-38.4c0-22.3,15.2-38.4,36-38.4C1230.1,43.1,1245.3,59.6,1245.3,81.6z
			 M1229.6,72.6c-2.6-8.5-10.6-14.6-19.1-14.6c-9.3,0-17.5,5.9-20.5,14.6H1229.6z M1380.2,44.7h-11.6c-1.7,0-3.6,1.2-4.2,2.7
			l-18.6,42.8l-20.4-42.9c-0.7-1.5-2.7-2.7-4.3-2.7l-12.3,0c-1.5,0-2.3,1.1-1.6,2.5l30,62.7l-15.7,35.7c-0.7,1.5,0.1,2.8,1.8,2.8
			h11.8c1.7,0,3.6-1.2,4.3-2.8l42.7-98.2C1382.7,45.9,1381.9,44.7,1380.2,44.7z"/>
	</g>
</g>
</svg>
