<svg width="111" height="28" fill="none" xmlns="http://www.w3.org/2000/svg"><g clip-path="url(#a)" fill="#000" fill-opacity=".25"><path d="M19.029 14.037a5.016 5.016 0 0 1-5.01 5.01 5.016 5.016 0 0 1-5.011-5.01 5.016 5.016 0 0 1 5.01-5.01 5.016 5.016 0 0 1 5.01 5.01Zm-10.795 5.01a5.016 5.016 0 0 1-5.01-5.01 5.016 5.016 0 0 1 5.01-5.01v10.02Zm11.587 5.527V19.82h4.753a4.752 4.752 0 0 1-4.753 4.753ZM8.234 3.482v4.752h-4.77c.018-2.616 2.154-4.752 4.77-4.752Zm0 21.092V19.82h-4.77c.018 2.616 2.154 4.753 4.77 4.753Zm17.371-6.245V9.726a4.976 4.976 0 0 1 2.45 4.31 5.007 5.007 0 0 1-2.45 4.293ZM9.726 2.45h8.603A4.976 4.976 0 0 0 14.019 0a5.048 5.048 0 0 0-4.293 2.45Zm8.548 23.155H9.653a4.976 4.976 0 0 0 4.31 2.45 5.022 5.022 0 0 0 4.31-2.45Zm.755-5.784a5.016 5.016 0 0 1-5.01 5.01 5.016 5.016 0 0 1-5.011-5.01h10.02Zm.792-.774a5.016 5.016 0 0 0 5.01-5.01 5.016 5.016 0 0 0-5.01-5.01v10.02Zm-.792-10.794a5.016 5.016 0 0 0-5.01-5.01 5.016 5.016 0 0 0-5.011 5.01h10.02ZM2.45 18.329V9.726A4.976 4.976 0 0 0 0 14.036c0 1.825.995 3.427 2.45 4.293ZM24.574 8.253H19.82V3.5a4.752 4.752 0 0 1 4.753 4.753ZM46.845 28.037c-7.977 0-13.908-6.153-13.908-13.945v-.074C32.937 6.318 38.74 0 47.066 0c5.12 0 8.179 1.713 10.684 4.182l-3.795 4.384c-2.1-1.898-4.218-3.058-6.926-3.058-4.569 0-7.866 3.795-7.866 8.437v.073c0 4.642 3.224 8.53 7.866 8.53 3.095 0 4.992-1.235 7.129-3.17l3.795 3.832c-2.782 2.985-5.877 4.827-11.108 4.827Zm30.818-8.53c0-1.878-1.4-3.039-4.568-3.039h-7.13v6.172h7.332c2.727 0 4.366-.958 4.366-3.04v-.092ZM76.097 8.29c0-1.842-1.436-2.892-4.052-2.892h-6.098v5.932h5.692c2.727 0 4.44-.884 4.44-2.966V8.29h.018Zm-2.8 19.748H59.961V0h13.023c5.73 0 9.248 2.837 9.248 7.258v.074c0 3.168-1.677 4.918-3.685 6.042 3.242 1.234 5.25 3.131 5.25 6.89v.073c0 5.14-4.163 7.7-10.5 7.7Zm26.121 0c-7.976 0-13.908-6.153-13.908-13.945v-.074C85.51 6.318 91.313 0 99.64 0c5.12 0 8.178 1.713 10.684 4.182l-3.795 4.384c-2.1-1.898-4.218-3.058-6.926-3.058-4.569 0-7.866 3.795-7.866 8.437v.073c0 4.642 3.224 8.53 7.866 8.53 3.094 0 4.992-1.235 7.129-3.17l3.794 3.832c-2.781 2.985-5.876 4.827-11.108 4.827Z"/></g><defs><clipPath id="a"><path fill="#fff" d="M0 0h110.526v28H0z"/></clipPath></defs></svg>