<svg version="1.1" xmlns="http://www.w3.org/2000/svg" xmlns:xlink="http://www.w3.org/1999/xlink" fill="#fff" preserveAspectRatio="xMidYMid meet" height="20" width="20" viewBox="0 0 40 40" style="vertical-align: middle;">
  <g>
    <path d="M 17.207031 0.03125 C 15.089844 0.160156 13.003906 0.648438 11.070312 1.460938 C 10.257812 1.804688 8.734375 2.605469 8.253906 2.949219 C 8.1875 2.988281 7.945312 3.164062 7.707031 3.328125 C 7.195312 3.683594 6.660156 4.101562 6.214844 4.488281 C 5.75 4.894531 5.144531 5.457031 5.078125 5.542969 C 5.046875 5.585938 4.898438 5.75 4.75 5.910156 C 1.25 9.6875 -0.445312 14.78125 0.101562 19.882812 C 0.539062 23.988281 2.378906 27.785156 5.351562 30.710938 C 7.253906 32.578125 9.4375 33.960938 11.972656 34.890625 C 13.136719 35.3125 14.449219 35.644531 15.703125 35.816406 C 16.679688 35.953125 17.164062 35.984375 18.277344 35.984375 C 19.347656 35.984375 19.761719 35.960938 20.59375 35.855469 C 20.839844 35.824219 21.117188 35.792969 21.210938 35.785156 C 21.304688 35.777344 21.554688 35.734375 21.769531 35.6875 C 23.789062 35.238281 24.90625 34.863281 26.414062 34.128906 C 27.519531 33.59375 28.339844 33.101562 29.277344 32.410156 C 30.023438 31.855469 30.089844 31.78125 29.953125 31.644531 C 29.90625 31.597656 29.832031 31.589844 29.289062 31.574219 C 24.304688 31.433594 19.601562 29.214844 16.289062 25.453125 C 12.902344 21.605469 11.375 16.4375 12.132812 11.363281 C 12.753906 7.160156 14.902344 3.335938 18.207031 0.539062 C 18.539062 0.257812 18.535156 0.261719 18.535156 0.164062 C 18.535156 0.0195312 18.472656 0 18.003906 0.00390625 C 17.769531 0.00390625 17.410156 0.0195312 17.207031 0.03125 Z M 17.207031 0.03125"></path>
  </g>
</svg>