<svg width="105" height="28" fill="none" xmlns="http://www.w3.org/2000/svg"><g clip-path="url(#a)"><path d="M14.896 19.531h-6.85V8.688h6.85c3.055 0 6.187 1.536 6.187 5.422 0 3.885-3.132 5.421-6.187 5.421ZM14.12 3.076C8.058 3.076 3.144 7.99 3.144 14.05c0 6.062 4.914 10.975 10.975 10.975s10.975-4.913 10.975-10.975c0-6.061-4.914-10.975-10.975-10.975Z" fill="#fff"/><path d="M14.48 11.845h-3.02v4.53h3.02c2.194 0 2.97-.911 2.97-2.265s-.781-2.265-2.97-2.265ZM38.349 14.415 36.535 9.46h-2.467l-1.815 4.954L30.8 9.46h-3.24l3.05 9.554h2.748l1.928-4.625 1.96 4.625h2.748l3.051-9.554h-3.24l-1.455 4.954Z" fill="#fff"/><path d="M39.994 19.014h-2.748l-1.961-4.625-1.927 4.625h-2.749L27.56 9.46h3.24l1.455 4.954 1.814-4.954h2.466l1.815 4.954 1.454-4.954h3.242l-3.051 9.553Zm-25.875 6.013c-6.061 0-10.975-4.915-10.975-10.976 0-6.061 4.914-10.975 10.975-10.975S25.094 7.99 25.094 14.051 20.18 25.027 14.119 25.027ZM34.888 0c-4.151 0-7.88 1.807-10.444 4.676A13.966 13.966 0 0 0 14 0C6.268 0 0 6.268 0 14s6.268 14 14 14c4.15 0 7.88-1.807 10.444-4.677A13.964 13.964 0 0 0 34.888 28c7.732 0 14-6.268 14-14s-6.268-14-14-14Z" fill="#000" fill-opacity=".25"/><path d="M14.48 16.375h-3.02v-4.53h3.02c2.189 0 2.97.911 2.97 2.265s-.776 2.265-2.97 2.265Zm.416-7.687h-6.85v10.843h6.85c3.055 0 6.187-1.536 6.187-5.421 0-3.886-3.132-5.422-6.187-5.422Z" fill="#000" fill-opacity=".25"/><path fill-rule="evenodd" clip-rule="evenodd" d="M73.198 7.003h1.614v5.936h-1.338l-.116-.445c-.502.29-1.073.537-1.61.537-1.471 0-2.2-.724-2.2-2.492V7.003h1.58v3.281c0 1 .37 1.273 1.142 1.273.244 0 .622-.13.928-.307V7.003Zm-12.831 1.95c0 1.4-.733 2.32-2.341 2.32h-1.167v-4.64h1.221c1.62 0 2.287.756 2.287 2.32Zm1.797 0c0-2.915-1.643-3.985-3.92-3.985h-3.17v7.97h3.056c2.184 0 4.034-1.184 4.034-3.985Zm28.67-.329c-.388-.278-.775-.419-1.224-.419-.825 0-1.284.813-1.309 1.64-.026.86.415 1.734 1.396 1.734.41 0 .754-.079 1.22-.43l.825.99c-.607.551-1.294.883-2.091.883-2.015 0-2.97-1.611-2.94-3.195.03-1.535.984-3.043 2.804-3.043.828 0 1.556.27 2.06.759l-.74 1.081Zm3.383 4.272h-1.593V4.708h1.593v2.43c.398-.173 1.001-.354 1.448-.354 1.472 0 2.287.723 2.287 2.491v3.62h-1.6V9.53c0-1-.393-1.273-1.165-1.273-.244 0-.664.13-.97.307v4.332Zm-28.343-6.11c-1.55 0-2.633 1.289-2.615 3.125.02 1.894 1.015 3.115 2.856 3.115.816 0 1.672-.355 2.155-.97l-.808-.799s-.522.389-1.226.417c-.85.034-1.366-.466-1.432-1.288h3.512c.373-2.433-.744-3.6-2.442-3.6Zm1.097 2.52h-2.182c.04-.655.445-1.23 1.07-1.23 1.095 0 1.108.93 1.112 1.23Zm12.694 2.038s-.31.147-.595.147c-.375 0-.58-.106-.58-.675V8.2h1.434V6.975h-1.435v-1.43h-1.283l-.224 1.43h-1.065V8.2h1.022l-.02 2.993c0 1.048.477 1.799 1.667 1.799.618 0 1.045-.244 1.524-.585l-.445-1.064Zm22.055-4.558c-1.55 0-2.633 1.289-2.614 3.125.02 1.894 1.014 3.115 2.856 3.115.816 0 1.672-.355 2.154-.97l-.808-.799s-.521.389-1.225.417c-.85.034-1.366-.466-1.433-1.288h3.512c.374-2.433-.744-3.6-2.442-3.6Zm1.097 2.52h-2.182c.04-.655.445-1.23 1.07-1.23 1.095 0 1.109.93 1.112 1.23ZM85.22 8.58l.478-1.208s-1.06-.597-2.216-.58c-1.454.023-2.35.602-2.373 1.694-.014.673.307 1.25 1.086 1.66.582.306 1.124.486 1.658.686.273.102.462.256.406.512-.046.215-.282.3-.458.326-.716.102-1.582-.172-2.325-.489l-.487 1.145s1.065.694 2.435.694c1.077 0 2.388-.32 2.485-1.658.063-.845-.306-1.39-1.194-1.757a87.418 87.418 0 0 0-1.543-.594c-.36-.13-.482-.33-.438-.545.07-.347.593-.338.999-.306.821.065 1.487.42 1.487.42ZM75.882 15.214H74.29v8.189h1.593v-8.189Zm-11.723.745h-1.72l-.73 3.451c-.074.377-.202 1.44-.238 1.77-.06-.33-.264-1.382-.361-1.77l-.956-3.451H58.55l-.943 3.451c-.097.388-.3 1.44-.362 1.77a37.71 37.71 0 0 0-.258-1.77l-.71-3.451h-1.745l1.744 7.486h1.668l1.076-3.965c.122-.467.26-1.228.296-1.524.048.296.185 1.047.307 1.524l1.052 3.965h1.742l1.742-7.486Zm8.546-.745h-1.592v8.189h1.592v-8.189Zm-5.38 2.073c-1.55 0-2.633 1.289-2.614 3.126.019 1.893 1.015 3.114 2.856 3.114.815 0 1.671-.354 2.155-.97l-.81-.798s-.52.388-1.224.416c-.85.034-1.367-.466-1.433-1.287h3.512c.373-2.434-.744-3.6-2.442-3.6Zm1.097 2.52H66.24c.04-.655.445-1.23 1.07-1.23 1.096 0 1.108.93 1.112 1.23Zm11.33-2.52c-1.55 0-2.634 1.289-2.615 3.126.02 1.893 1.015 3.114 2.855 3.114.816 0 1.673-.354 2.155-.97l-.808-.798s-.521.388-1.225.416c-.85.034-1.367-.466-1.433-1.287h3.512c.374-2.434-.744-3.6-2.442-3.6Zm1.096 2.52h-2.182c.04-.655.445-1.23 1.07-1.23 1.095 0 1.109.93 1.112 1.23Z" fill="#000" fill-opacity=".25"/></g><defs><clipPath id="a"><path fill="#fff" d="M0 0h104.234v28H0z"/></clipPath></defs></svg>