<svg width="1440" height="3668" viewBox="0 0 1440 3668" fill="none" xmlns="http://www.w3.org/2000/svg">
<rect width="1440" height="3668" fill="url(#paint0_linear_3_516)"/>
<path fill-rule="evenodd" clip-rule="evenodd" d="M1712.48 169.192C1697.47 93.5582 1637.21 -19.9224 1551.61 -29.2522C1432.16 -42.2742 1322.79 66.9749 1285.1 170.899C1256.79 248.994 1255.97 342.334 1196.84 400.677C1109.58 486.786 955.168 441.273 849.951 504.212C782.305 544.672 745.85 631.178 764.139 707.854C776.99 761.729 813.794 810.931 810.178 866.201C802.894 977.618 693.448 1104.5 813.198 1202.86C1190.1 1512.42 1271.66 1466.6 1448.32 1557.6C1692.17 1429.95 1855.85 1327.88 1974.64 1068.01C1974.64 1068.01 1753.83 372.863 1712.48 169.192Z" fill="#E7F5FF"/>
<path fill-rule="evenodd" clip-rule="evenodd" d="M-1364.89 -338.097C-1396.43 -428.647 -1403.31 -588.272 -1317.41 -652.195C-1197.53 -741.4 -1011.45 -693.158 -905.587 -605.468C-826.042 -539.569 -766.371 -440.007 -666.219 -414.699C-518.418 -377.341 -381.529 -523.401 -229.073 -522.193C-131.058 -521.422 -37.4823 -451.636 -8.79449 -357.904C11.363 -292.046 2.89338 -216.11 41.5849 -159.127C119.575 -44.2561 316.845 22.8468 250.403 203.731C41.2826 773.049 -75.0221 775.294 -207.117 984.137C-548.976 1000.88 -788.761 994.538 -1079.82 790.734C-1079.82 790.734 -1280.93 -93.6796 -1364.89 -338.097Z" fill="#E7F5FF"/>
<path d="M1374.94 818.68C1404.99 831.52 1417.77 858.455 1432.27 889.778C1436.17 898 1441.17 907.088 1449.83 909.234C1458.77 911.246 1467.45 905.392 1474.45 899.643C1478.73 896.223 1482.75 892.237 1484.96 887.37C1490.11 875.547 1479.3 855.671 1473.33 846.001C1465.59 833.347 1455.59 821.769 1449.98 807.756C1438.36 779.581 1477.55 764.82 1494.86 749.321C1499.29 745.484 1513.69 734.836 1513.13 727.807C1512.77 718.255 1499.59 724.155 1493.04 722.053C1502.74 708.079 1510.75 694.211 1513.77 677.15C1514.74 671.134 1515.15 664.686 1513.6 658.478C1511.76 652.404 1508.09 646.853 1502.25 644.064C1481.38 635.207 1475.62 675.791 1472.69 688.643C1467.62 709.451 1463.93 731.691 1451.2 749.532C1447.44 754.787 1441.86 759.864 1435.44 758.045C1430.28 756.674 1427.32 750.436 1427.86 744.973C1428.39 739.511 1431.02 734.793 1433.51 729.792C1448.24 703.01 1460.07 674.483 1468.55 644.764C1476.73 615.88 1486.59 587.593 1483.16 556.922C1480.43 532.863 1469.84 509.061 1451.36 493.516C1440.88 484.595 1420.32 480.797 1424.39 501.094C1429.33 526.883 1441.89 550.445 1449.64 575.592C1457.68 600.604 1460.87 629.304 1448.05 652.055C1444.54 658.579 1423.52 616.452 1422.7 615.453C1420.12 611.469 1415.3 607.157 1411.04 609.174C1405.52 611.444 1406.9 619.474 1409.32 624.577C1415.79 637.485 1426.75 650.347 1424.48 664.616C1412.88 662.128 1409.95 641.293 1398.12 643.432C1390.65 644.54 1388.46 655.302 1392.54 661.703C1396.33 668.239 1403.84 671.624 1410.22 675.547C1416.59 679.47 1423.21 685.363 1423.19 692.662C1423.41 702.632 1411.62 709.263 1401.98 707.237C1392.33 705.211 1384.91 697.617 1379.04 689.634C1363.48 668.535 1354.25 640.27 1364.3 616.057C1372.29 596.293 1391.53 582.658 1400.77 563.342C1403.41 557.923 1405.38 551.086 1403.11 545.564C1400.99 539.625 1393.63 535.822 1388.23 539.078C1386.09 540.437 1384.93 542.377 1383.48 544.452C1378.54 552.35 1373.89 560.113 1368.95 568.01C1360.25 561.372 1364.04 548.117 1367.2 537.936C1374.41 515.068 1375 487.008 1357.95 470.089C1356.71 468.94 1355.33 467.508 1353.51 467.329C1348.9 466.391 1345.42 471.512 1344.07 475.975C1337.84 498.723 1350.82 522.435 1353.15 544.942C1355.37 566.463 1354.57 591.15 1345.31 611.169C1339.29 624.096 1330.96 619.711 1324.74 608.072C1318.93 597.283 1319.21 583.955 1320.87 572.058C1322.86 557.222 1326.41 541.997 1323.06 527.61C1319.44 512.656 1308.06 499.645 1306.7 484.317C1305.81 472.93 1310.54 461.659 1309.79 450.555C1309.19 439.033 1298.78 426.604 1288.3 430.876C1277.69 434.866 1278.22 449.895 1281.36 460.909C1290.78 493.95 1305.68 526.124 1305.95 560.377C1279.41 547.611 1283.8 505.595 1261.03 486.872C1255.92 482.695 1246.85 480.4 1243.49 486.505C1242.18 488.864 1242.4 491.536 1242.63 494.207C1244.53 510.669 1255.34 523.949 1266.03 536.243C1276.17 548.105 1280.35 562.79 1286.94 576.683C1301.59 607.588 1319.37 637.014 1339.56 664.947C1355.12 686.046 1372.23 706.756 1378.58 731.873C1379.75 736.529 1379.9 742.708 1375.65 744.725C1373.1 745.935 1370.17 744.891 1367.81 743.578C1354.9 736.852 1348.47 721.839 1342.44 708.379C1336.54 695.202 1327.28 681.534 1317.96 670.672C1308.09 659.377 1293.21 666.084 1284.81 652.013C1277.89 640.358 1274.8 627.24 1271.28 613.973C1264.74 591.378 1256.22 569.023 1245.86 547.893C1239.66 535.552 1213.31 493.174 1195.23 512.166C1189.2 518.496 1189.13 528.601 1192.19 536.525C1195.39 544.733 1201.57 551.178 1207.34 557.475C1218.45 569.918 1228.99 582.631 1239.1 595.895C1246.34 605.311 1265.9 629.721 1250.94 640.637C1238.25 649.776 1215.47 631.755 1204.78 626.058C1193.39 620.346 1178.06 615.113 1169.72 624.623C1162.1 633.447 1167.56 647.176 1174.82 655.89C1191.4 675.466 1216.57 686.8 1242.27 686.074C1249.43 685.802 1256.89 684.695 1263.73 686.662C1270.85 688.496 1277.61 693.971 1277.6 701.269C1270.45 700.839 1263.04 706.439 1261.49 713.425C1260.07 720.694 1264.54 728.647 1271.22 731.033C1280.42 734.313 1290.22 728.623 1299.8 726.858C1314.46 724.076 1329.75 731.414 1340.77 741.469C1348.07 748.078 1354.46 757.897 1351.73 767.525C1349.91 773.943 1344.62 778.886 1338.53 781.425C1321.38 789.208 1300.47 782.455 1285.7 770.356C1271.07 758.54 1260.88 742.186 1248.42 727.609C1236.37 713.18 1220.93 699.664 1202.32 697.029C1200.08 696.702 1197.55 696.508 1195.15 697.3C1187.94 699.676 1186.33 709.468 1189.84 716.138C1193.35 722.809 1200.3 726.463 1206.67 730.386C1225.11 741.438 1241.81 754.701 1256.94 769.755C1261.48 774.201 1265.94 782.154 1261.08 786.544C1258.93 788.605 1255.42 788.532 1252.35 787.906C1230.53 784.362 1215.92 764.546 1198.23 751.404C1195.05 749.092 1191.17 746.765 1187.23 747.244C1178.78 748.471 1177 760.084 1180.06 768.008C1184.73 779.334 1195.51 787.42 1206.5 792.281C1216.23 796.696 1226.88 797.901 1236.62 801.613C1253.06 807.712 1243.36 808.491 1242.38 821.805C1241.38 835.821 1254.26 830.756 1264.86 827.468C1302.85 816.051 1336 801.725 1374.94 818.68Z" fill="#94D1FF"/>
<circle cx="1219.84" cy="219.342" r="8.40626" fill="white"/>
<circle cx="1254.82" cy="184.616" r="13.45" fill="white"/>
<circle cx="1220.18" cy="125.185" r="21.1848" fill="white"/>
<circle cx="5" cy="5" r="5" transform="matrix(-1 0 0 1 898.875 407.379)" fill="white"/>
<circle cx="8" cy="8" r="8" transform="matrix(-1 0 0 1 894.875 381.735)" fill="white"/>
<path fill-rule="evenodd" clip-rule="evenodd" d="M-320.919 884.378C-316.193 838.699 -285.767 769.055 -233.387 760.962C-160.294 749.667 -86.0666 811.801 -56.4988 872.855C-34.2835 918.734 -28.1524 974.539 11.9354 1007.7C71.0933 1056.64 163.848 1024.89 232.714 1059.44C276.989 1081.66 304.749 1132.33 298.058 1178.73C293.357 1211.33 273.56 1241.84 279.127 1274.79C290.346 1341.22 365.681 1413.9 297.547 1476.24C83.1001 1672.46 29.899 1647.45 -73.8755 1707.06C-232.383 1637.88 -339.762 1581.63 -428.892 1429.68C-428.892 1429.68 -334.218 1007.41 -320.919 884.378Z" fill="#E7F5FF"/>
<path fill-rule="evenodd" clip-rule="evenodd" d="M-667.404 3083.9C-683.823 3039.54 -687.402 2961.35 -642.689 2930.04C-580.295 2886.34 -483.439 2909.97 -428.338 2952.93C-386.935 2985.21 -355.876 3033.98 -303.747 3046.37C-226.817 3064.67 -155.567 2993.13 -76.2136 2993.72C-25.1973 2994.1 23.5089 3028.28 38.4409 3074.2C48.9328 3106.46 44.5244 3143.65 64.6633 3171.57C105.257 3227.84 207.935 3260.71 173.352 3349.31C64.5059 3628.19 3.96956 3629.29 -64.7853 3731.6C-242.722 3739.8 -367.53 3736.69 -519.026 3636.86C-519.026 3636.86 -623.704 3203.63 -667.404 3083.9Z" fill="#E7F5FF"/>
<path d="M1291.65 3448.11C1291.65 3447.62 1292.04 3447.23 1292.52 3447.25C1294.86 3447.35 1297.16 3447.87 1299.32 3448.78C1301.75 3449.8 1303.96 3451.3 1305.82 3453.19C1305.93 3453.3 1306.04 3453.41 1306.14 3453.52C1316.22 3454.84 1324 3463.59 1324 3474.17C1324 3477.13 1323.39 3479.95 1322.3 3482.49H1323.13C1323.61 3482.49 1324 3482.89 1323.96 3483.38C1323.17 3491.58 1311.4 3494.99 1304.37 3494.99C1304.3 3494.99 1304.22 3494.99 1304.14 3494.99C1303.92 3495 1303.7 3495 1303.48 3495C1294.54 3495 1286.93 3489.19 1284.12 3481.08C1284.02 3481.19 1283.92 3481.3 1283.81 3481.41C1282.82 3482.41 1281.64 3483.21 1280.35 3483.75C1279.32 3484.18 1278.24 3484.45 1277.13 3484.54C1276.66 3484.58 1276.27 3484.18 1276.27 3483.69V3463.8C1276.27 3463.31 1276.66 3462.91 1277.13 3462.95C1278.24 3463.05 1279.32 3463.31 1280.35 3463.74C1281.64 3464.29 1282.82 3465.08 1283.81 3466.09C1283.99 3466.28 1284.17 3466.47 1284.34 3466.67C1285.81 3462.81 1288.38 3459.51 1291.65 3457.16V3448.11Z" fill="#94D1FF"/>
<path d="M1248.88 3427.58C1248.88 3427.25 1249.14 3426.99 1249.46 3427C1251.02 3427.07 1252.55 3427.41 1254 3428.02C1255.62 3428.7 1257.09 3429.7 1258.33 3430.96C1258.41 3431.04 1258.48 3431.11 1258.55 3431.19C1265.27 3432.07 1270.46 3437.9 1270.46 3444.96C1270.46 3446.94 1270.05 3448.81 1269.32 3450.52H1269.88C1270.2 3450.52 1270.46 3450.78 1270.43 3451.1C1269.9 3456.57 1262.06 3458.85 1257.37 3458.85C1257.31 3458.85 1257.26 3458.85 1257.21 3458.85C1257.07 3458.86 1256.92 3458.86 1256.77 3458.86C1250.8 3458.86 1245.73 3454.98 1243.86 3449.57C1243.79 3449.64 1243.72 3449.72 1243.65 3449.79C1242.99 3450.46 1242.2 3450.99 1241.34 3451.36C1240.65 3451.64 1239.93 3451.82 1239.19 3451.88C1238.88 3451.91 1238.61 3451.64 1238.61 3451.32V3438.04C1238.61 3437.72 1238.88 3437.45 1239.19 3437.48C1239.93 3437.54 1240.65 3437.72 1241.34 3438C1242.2 3438.37 1242.99 3438.9 1243.65 3439.57C1243.77 3439.7 1243.89 3439.82 1244 3439.96C1244.98 3437.38 1246.69 3435.18 1248.88 3433.61V3427.58Z" fill="#94D1FF"/>
<path d="M1238.59 3468.16C1238.59 3467.92 1238.78 3467.72 1239.02 3467.73C1240.17 3467.78 1241.3 3468.04 1242.37 3468.49C1243.57 3468.99 1244.66 3469.73 1245.57 3470.66C1245.63 3470.72 1245.68 3470.77 1245.73 3470.83C1250.7 3471.48 1254.54 3475.79 1254.54 3481.01C1254.54 3482.47 1254.24 3483.86 1253.7 3485.11H1254.11C1254.34 3485.11 1254.54 3485.31 1254.52 3485.55C1254.13 3489.59 1248.32 3491.28 1244.86 3491.28C1244.82 3491.28 1244.78 3491.27 1244.74 3491.27C1244.64 3491.28 1244.53 3491.28 1244.42 3491.28C1240.01 3491.28 1236.26 3488.41 1234.87 3484.41C1234.82 3484.47 1234.77 3484.52 1234.72 3484.58C1234.23 3485.07 1233.65 3485.47 1233.01 3485.73C1232.51 3485.95 1231.97 3486.08 1231.43 3486.12C1231.19 3486.14 1231 3485.95 1231 3485.71V3475.9C1231 3475.66 1231.19 3475.46 1231.43 3475.48C1231.97 3475.52 1232.51 3475.65 1233.01 3475.87C1233.65 3476.14 1234.23 3476.53 1234.72 3477.02C1234.81 3477.12 1234.9 3477.21 1234.98 3477.31C1235.71 3475.41 1236.97 3473.78 1238.59 3472.62V3468.16Z" fill="#94D1FF"/>
<path d="M208.001 3642.03C206.622 3625.89 196.398 3610.78 181.923 3603.45C166.988 3595.9 150.331 3597.39 136.2 3605.86C134.132 3594.75 131.145 3583.65 125.631 3573.69C110.582 3546.68 84.1591 3530.42 53.371 3527.44C43.8358 3526.53 33.956 3526.87 24.8804 3529.96C17.0685 3532.71 10.1757 3537.4 3.74232 3542.67C-3.38031 3548.62 -9.92854 3555.26 -15.2131 3562.82C-42.5393 3601.88 -37.5865 3640.76 -39.999 3668H208.001L208.001 3642.03Z" fill="#94D1FF"/>
<path d="M1216 3643.51C1217.31 3628.28 1226.99 3614.03 1240.71 3607.12C1254.86 3599.99 1270.65 3601.39 1284.04 3609.38C1286 3598.91 1288.83 3588.44 1294.05 3579.04C1308.31 3553.56 1333.35 3538.23 1362.52 3535.42C1371.56 3534.56 1380.92 3534.88 1389.52 3537.79C1396.92 3540.39 1403.46 3544.81 1409.55 3549.78C1416.3 3555.4 1422.51 3561.66 1427.51 3568.78C1453.41 3605.64 1448.71 3642.3 1451 3668H1216L1216 3643.51Z" fill="#94D1FF"/>
<path d="M146.969 2280.19C146.969 2278.89 148.038 2277.81 149.293 2278.14C149.695 2278.24 150.09 2278.38 150.475 2278.54C151.587 2279 152.597 2279.67 153.448 2280.52C154.299 2281.37 154.974 2282.38 155.434 2283.5C155.895 2284.61 156.132 2285.8 156.132 2287C156.132 2288.21 155.895 2289.4 155.434 2290.51C154.974 2291.62 154.299 2292.63 153.448 2293.48C152.597 2294.33 151.587 2295.01 150.475 2295.47C150.09 2295.63 149.695 2295.76 149.293 2295.87C148.038 2296.19 146.969 2295.11 146.969 2293.82V2280.19Z" fill="#FD7E14"/>
<path d="M151.148 2295.17C150.047 2292.65 149.436 2289.88 149.436 2286.95C149.436 2284.07 150.031 2281.33 151.106 2278.84C151.97 2279.27 152.761 2279.85 153.448 2280.53C154.299 2281.38 154.974 2282.4 155.434 2283.51C155.895 2284.62 156.132 2285.81 156.132 2287.01C156.132 2288.22 155.895 2289.41 155.434 2290.52C154.974 2291.63 154.299 2292.64 153.448 2293.49C152.772 2294.17 151.996 2294.73 151.148 2295.17Z" fill="#F76707"/>
<path d="M160.217 2266.55C160.217 2265.26 161.274 2264.19 162.56 2264.37C164.014 2264.56 165.441 2264.95 166.803 2265.51C168.891 2266.38 170.788 2267.65 172.387 2269.25C173.985 2270.84 175.252 2272.74 176.117 2274.83C176.982 2276.92 177.427 2279.15 177.427 2281.41C177.427 2283.67 176.982 2285.91 176.117 2288C175.252 2290.09 173.985 2291.99 172.387 2293.58C170.788 2295.18 168.891 2296.45 166.803 2297.31C165.441 2297.88 164.014 2298.26 162.56 2298.46C161.274 2298.64 160.217 2297.57 160.217 2296.27L160.217 2266.55Z" fill="#FD7E14"/>
<path d="M168.186 2266.16C169.732 2266.97 171.149 2268.01 172.387 2269.25C173.985 2270.84 175.252 2272.74 176.117 2274.83C176.982 2276.92 177.427 2279.15 177.427 2281.41C177.427 2283.67 176.982 2285.91 176.117 2288C175.252 2290.09 173.985 2291.99 172.387 2293.58C170.788 2295.18 168.891 2296.45 166.803 2297.31C165.441 2297.88 164.014 2298.26 162.56 2298.46C161.274 2298.64 160.217 2297.57 160.217 2296.27L160.217 2268.55C162.624 2267.24 165.321 2266.41 168.186 2266.16Z" fill="#F76707"/>
<path fill-rule="evenodd" clip-rule="evenodd" d="M186.283 2294.6C187.383 2292.3 188 2289.72 188 2287C188 2277.27 180.111 2269.38 170.379 2269.38C160.647 2269.38 152.758 2277.27 152.758 2287C152.758 2296.73 160.647 2304.62 170.379 2304.62C170.566 2304.62 170.752 2304.62 170.937 2304.61C171.005 2304.62 171.074 2304.62 171.142 2304.62C176.324 2304.62 184.502 2302.49 187.145 2297.5C187.749 2296.36 187.25 2295.24 186.283 2294.6Z" fill="#FD7E14"/>
<path d="M154.52 2287C153.547 2287 152.749 2286.21 152.846 2285.24C153.018 2283.53 153.439 2281.85 154.099 2280.26C154.985 2278.12 156.283 2276.18 157.919 2274.54C159.555 2272.91 161.498 2271.61 163.636 2270.72C165.23 2270.06 166.909 2269.64 168.62 2269.47C169.588 2269.37 170.379 2270.17 170.379 2271.14C170.379 2272.12 169.587 2272.89 168.621 2273.02C167.374 2273.17 166.151 2273.5 164.984 2273.98C163.274 2274.69 161.72 2275.73 160.411 2277.03C159.102 2278.34 158.064 2279.9 157.355 2281.61C156.872 2282.77 156.549 2284 156.392 2285.24C156.271 2286.21 155.493 2287 154.52 2287Z" fill="#FF922B"/>
<circle cx="9.51526" cy="9.51526" r="9.51526" transform="matrix(-1 0 0 1 181.891 2277.13)" fill="white"/>
<path fill-rule="evenodd" clip-rule="evenodd" d="M171.362 2282.07C172.368 2282.84 172.58 2284.28 171.829 2285.31C171.067 2286.35 169.605 2286.57 168.563 2285.81C168.275 2285.6 168.05 2285.34 167.89 2285.04C167.191 2286.95 167.801 2289.17 169.52 2290.42C171.604 2291.95 174.529 2291.49 176.051 2289.41C177.575 2287.33 177.118 2284.4 175.035 2282.88C173.936 2282.08 172.601 2281.82 171.362 2282.07Z" fill="#343A40"/>
<path d="M50.9036 2301.38C50.9036 2299.34 52.5828 2297.64 54.5551 2298.16C55.1866 2298.33 55.8076 2298.53 56.4134 2298.78C58.1603 2299.51 59.7475 2300.57 61.0844 2301.91C62.4214 2303.24 63.4819 2304.83 64.2055 2306.58C64.9291 2308.32 65.3015 2310.2 65.3015 2312.09C65.3015 2313.98 64.9291 2315.85 64.2055 2317.6C63.4819 2319.34 62.4214 2320.93 61.0844 2322.27C59.7475 2323.6 58.1603 2324.67 56.4134 2325.39C55.8076 2325.64 55.1867 2325.85 54.5551 2326.01C52.5828 2326.53 50.9036 2324.83 50.9036 2322.79V2301.38Z" fill="#F03E3E"/>
<path d="M57.4696 2324.92C55.7398 2320.97 54.78 2316.6 54.78 2312.01C54.78 2307.48 55.7155 2303.17 57.4039 2299.26C58.7621 2299.94 60.0049 2300.84 61.0844 2301.92C62.4214 2303.26 63.4819 2304.85 64.2055 2306.59C64.9291 2308.34 65.3015 2310.21 65.3015 2312.1C65.3015 2313.99 64.9291 2315.87 64.2055 2317.61C63.4819 2319.36 62.4214 2320.95 61.0844 2322.28C60.0223 2323.35 58.8022 2324.23 57.4696 2324.92Z" fill="#E03131"/>
<path d="M71.7213 2279.96C71.7213 2277.92 73.3817 2276.24 75.4016 2276.52C77.6875 2276.83 79.9288 2277.44 82.0699 2278.32C85.3508 2279.68 88.3319 2281.67 90.843 2284.18C93.3541 2286.7 95.346 2289.68 96.705 2292.96C98.064 2296.24 98.7634 2299.76 98.7634 2303.31C98.7634 2306.86 98.064 2310.37 96.705 2313.66C95.346 2316.94 93.3541 2319.92 90.843 2322.43C88.3319 2324.94 85.3508 2326.93 82.0699 2328.29C79.9288 2329.18 77.6875 2329.78 75.4016 2330.1C73.3817 2330.37 71.7213 2328.7 71.7213 2326.66L71.7213 2279.96Z" fill="#F03E3E"/>
<path d="M84.2426 2279.34C86.6719 2280.61 88.8984 2282.24 90.843 2284.18C93.3541 2286.7 95.346 2289.68 96.705 2292.96C98.064 2296.24 98.7634 2299.76 98.7634 2303.31C98.7634 2306.86 98.064 2310.37 96.705 2313.66C95.346 2316.94 93.3541 2319.92 90.843 2322.43C88.3319 2324.94 85.3508 2326.93 82.0699 2328.29C79.9288 2329.18 77.6875 2329.78 75.4016 2330.1C73.3817 2330.37 71.7213 2328.7 71.7213 2326.66L71.7213 2283.09C75.5027 2281.04 79.7403 2279.73 84.2426 2279.34Z" fill="#E03131"/>
<path fill-rule="evenodd" clip-rule="evenodd" d="M112.678 2324.02C114.408 2320.41 115.376 2316.36 115.376 2312.09C115.376 2296.8 102.98 2284.4 87.6882 2284.4C72.3964 2284.4 60 2296.8 60 2312.09C60 2327.38 72.3964 2339.77 87.6882 2339.77C87.9815 2339.77 88.2737 2339.77 88.5648 2339.76C88.6721 2339.76 88.7799 2339.76 88.888 2339.76C97.0303 2339.76 109.88 2336.42 114.034 2328.58C114.982 2326.79 114.198 2325.03 112.678 2324.02Z" fill="#F03E3E"/>
<path d="M62.7688 2312.09C61.2396 2312.09 59.9856 2310.84 60.1383 2309.32C60.408 2306.63 61.0701 2304 62.1076 2301.49C63.4991 2298.13 65.5386 2295.08 68.1097 2292.51C70.6807 2289.94 73.7331 2287.9 77.0924 2286.51C79.5972 2285.47 82.2361 2284.81 84.9239 2284.54C86.4455 2284.38 87.6882 2285.64 87.6882 2287.17C87.6882 2288.7 86.4438 2289.92 84.9265 2290.11C82.9666 2290.36 81.0442 2290.86 79.2115 2291.62C76.5241 2292.74 74.0822 2294.37 72.0254 2296.42C69.9685 2298.48 68.3369 2300.92 67.2237 2303.61C66.4646 2305.44 65.9567 2307.37 65.7104 2309.33C65.5198 2310.84 64.298 2312.09 62.7688 2312.09Z" fill="#FA5252"/>
<circle cx="14.9516" cy="14.9516" r="14.9516" transform="matrix(-1 0 0 1 105.778 2296.57)" fill="white"/>
<path fill-rule="evenodd" clip-rule="evenodd" d="M89.2335 2304.34C90.8139 2305.55 91.1468 2307.81 89.9664 2309.42C88.7703 2311.06 86.4718 2311.41 84.8349 2310.22C84.3829 2309.89 84.0285 2309.47 83.7775 2309.01C82.6785 2312.01 83.6371 2315.49 86.3388 2317.46C89.6126 2319.86 94.2095 2319.14 96.6017 2315.87C98.995 2312.6 98.2778 2308 95.004 2305.61C93.2775 2304.34 91.1806 2303.95 89.2335 2304.34Z" fill="#343A40"/>
<circle cx="118.11" cy="2283.76" r="2.73414" fill="white"/>
<circle cx="121.938" cy="2271.37" r="4.37462" fill="white"/>
<path fill-rule="evenodd" clip-rule="evenodd" d="M147.667 2887.37C153.203 2883.14 161.399 2884.24 165.657 2889.81C169.974 2895.46 168.918 2903.52 163.3 2907.81C158.046 2911.65 153.201 2908.39 149.422 2911.79C148.798 2912.36 148.296 2913.07 147.958 2913.88C147.568 2914.76 147.189 2916.21 146.739 2917.94C145.935 2921.02 144.904 2924.97 143.179 2928.09C144.55 2929.45 145.904 2931 146.666 2933.06C147.515 2935.35 148.093 2941.75 142.311 2945.39C141.88 2945.66 141.317 2945.53 141.006 2945.13C140.656 2944.67 140.749 2944.02 141.15 2943.61C144.172 2940.51 143.736 2935.22 140.107 2931.87C133.775 2936.73 123.039 2931.49 128.231 2922.34C128.556 2921.76 129.355 2921.74 129.757 2922.27C129.964 2922.54 130.01 2922.9 129.905 2923.22C128.619 2927.17 130.77 2929.84 134.49 2929.65C135.312 2929.61 136.034 2929.4 136.672 2929.06C134.26 2927.09 132.175 2924.97 131.816 2921.09C131.506 2917.75 133.442 2913.04 138.095 2908.81C137.57 2908.75 137.027 2908.68 136.47 2908.61C130.404 2907.86 122.776 2906.91 121.08 2912.11C119.925 2915.66 121.935 2918.43 126.086 2918.22C126.425 2918.21 126.759 2918.35 126.966 2918.62C127.368 2919.14 127.136 2919.91 126.499 2920.07C115.84 2922.81 113.874 2909.85 121.337 2905.49C122.583 2904.77 124.067 2904.28 125.651 2903.96C122.347 2901.48 119.84 2897.87 119.459 2893.56C118.865 2886.83 124.783 2881.44 130.291 2882.52C133.461 2883.14 139.347 2887.8 134.415 2894.78C134.053 2895.29 133.3 2895.28 132.918 2894.78C132.676 2894.47 132.655 2894.04 132.825 2893.68C135.946 2887.13 126.419 2883.04 124.509 2891.26C123.279 2896.56 129.152 2901.75 137.796 2900.59C138.686 2900.47 139.519 2900.16 140.24 2899.69C144.418 2896.95 142.761 2891.12 147.667 2887.37ZM141.984 2915.15C141.958 2915.34 141.931 2915.53 141.904 2915.71C141.473 2918.73 140.988 2922.13 139.934 2924.82C139.372 2924.1 138.974 2923.37 138.855 2922.57C138.515 2920.26 139.585 2917.91 141.984 2915.15Z" fill="#94D1FF"/>
<path fill-rule="evenodd" clip-rule="evenodd" d="M1520.84 1780.98C1509.26 1748.65 1476.09 1703.17 1439.57 1705.91C1388.63 1709.74 1350.45 1766.97 1341.93 1816.08C1335.54 1852.99 1341.72 1894.44 1321.03 1925.06C1290.5 1970.26 1222.64 1962.49 1182.96 1998.86C1157.46 2022.23 1148.24 2063.52 1161.26 2096.05C1170.41 2118.91 1189.27 2137.77 1191.62 2162.56C1196.36 2212.55 1159.39 2277.61 1216.43 2311.6C1395.96 2418.57 1426.92 2391.7 1507.29 2417.85C1600.51 2341.65 1661.93 2283.23 1693.52 2158.46C1693.52 2158.46 1552.41 1867.96 1520.84 1780.98Z" fill="#E7F5FF"/>
<defs>
<linearGradient id="paint0_linear_3_516" x1="720" y1="0" x2="720" y2="3668" gradientUnits="userSpaceOnUse">
<stop offset="0.28" stop-color="#C9E8FF"/>
<stop offset="0.47" stop-color="#94D1FF"/>
<stop offset="0.945" stop-color="#015A99"/>
</linearGradient>
</defs>
</svg>
