<svg width="382" height="485" viewBox="0 0 382 485" fill="none" xmlns="http://www.w3.org/2000/svg">
<path d="M163.255 62.2243C155.061 58.9309 132.55 84.4111 128.308 92.0831C118.473 110.166 112.614 130.563 111.358 151.38C110.103 140.656 109.056 129.932 108.428 119.208C114.288 96.4988 119.938 73.1585 117.845 49.8183C117.055 40.4494 114.952 31.0805 111.627 22.255C109.888 17.6405 104.316 16.2322 102.001 20.5835C100.892 22.6674 100.063 24.9274 99.4302 27.1089C89.6389 58.5446 94.7242 100.058 102.716 119.208C103.553 133.086 104.453 141.077 106.127 154.955C101.314 141.287 95.0358 128.25 87.2931 115.634C76.7288 98.4561 61.4043 82.6959 42.2906 76.4833C39.5753 75.6008 36.8651 77.635 37.2424 80.4774C38.1033 86.9646 41.1607 93.2108 44.6035 98.8118C62.1815 126.568 91.6875 145.492 108.638 173.458C110.73 186.285 113.242 199.112 116.171 211.938C105.29 197.43 92.9431 183.762 79.5503 171.356C66.8674 159.549 52.3559 148.577 35.7194 144.395C32.0233 143.466 27.9812 145.417 28.0003 149.246C28.0775 164.766 53.0388 186.724 61.9723 192.593C69.2965 197.43 77.4577 200.584 85.4097 204.369C96.2913 209.625 107.591 213.2 118.055 219.508C122.868 238.853 128.518 257.988 135.214 276.702C128.308 266.399 120.356 256.726 111.567 247.474C97.3554 233.001 79.2656 221.007 59.2393 219.132C56.3901 218.865 54.1831 221.457 55.1738 224.154C57.4382 230.32 61.774 235.71 66.3669 240.325C88.7579 262.824 120.356 274.81 142.748 296.888C148.816 312.449 155.722 327.588 163.255 342.518C150.281 329.06 136.26 316.654 121.193 305.72C106.803 295.309 90.4776 285.958 73.0233 284.152C70.4124 283.882 68.216 286.037 68.6792 288.633C72.1879 308.297 96.2871 324.011 106.336 329.06C114.079 333.055 122.658 335.158 131.029 337.892C142.538 341.887 154.257 344.2 165.557 349.036C165.976 349.246 166.603 349.457 167.022 349.667C175.183 365.647 184.181 381.208 194.017 396.347C186.274 388.147 177.904 380.577 168.696 373.428C152.262 360.846 132.17 351.573 111.84 352.996C109.582 353.154 108.127 355.41 109.104 357.462C112.099 363.755 117.516 368.816 123.077 373.007C149.653 392.983 184.6 399.922 210.339 420.529C220.593 435.037 223.075 438.001 234.585 451.458C215.961 438.632 204.48 438.822 183.554 430.622C166.542 423.864 147.847 418.609 129.943 421.606C128.061 421.921 126.534 423.474 126.806 425.372C127.677 431.435 133.845 436.243 139.399 439.663C150.49 446.813 162 453.962 174.765 456.695C183.344 458.588 192.133 458.588 200.922 459.219C213.06 460.27 224.988 459.639 237.125 461.742C239.427 462.163 241.729 462.583 244.03 463.214C249.89 469.943 255.958 476.671 262.027 483.19C264.538 485.923 269.142 482.349 266.421 479.615C261.238 474.17 256.341 468.471 251.233 462.958C242.863 432.889 258.679 403.707 260.981 372.586C261.608 364.176 261.399 355.554 257.632 347.985C257.005 346.513 255.54 345.041 254.075 345.461C253.447 345.672 252.819 346.092 252.401 346.723C238.59 362.073 231.475 382.68 231.056 403.286C230.638 420.108 234.823 436.72 242.147 452.069C231.893 439.663 222.058 426.837 212.85 413.8C209.711 380.997 224.569 348.826 226.034 315.813C226.243 310.136 226.034 304.038 223.523 298.991C223.104 297.94 222.267 296.888 221.012 296.678C220.175 296.468 219.337 297.099 218.5 297.519C206.154 306.14 201.132 321.911 199.039 337.05C195.9 359.55 198.621 382.89 206.154 404.338C194.645 387.306 184.181 369.643 174.555 351.559C174.974 321.49 194.435 295.206 204.061 266.399C206.572 258.409 208.456 249.998 206.782 241.797C206.363 240.325 205.526 238.433 203.852 238.433C203.224 238.433 202.596 238.853 201.969 239.274C185.018 250.628 172.881 268.922 167.65 288.898C163.674 303.407 163.255 318.757 165.557 333.476C159.07 320.018 153.211 306.351 147.77 292.473C153.211 260.932 174.765 233.596 183.972 202.686C185.646 197.219 186.902 191.332 185.646 185.654C185.437 184.603 185.018 183.341 183.763 182.921C182.926 182.5 182.089 182.921 181.252 183.131C167.231 188.598 158.442 202.686 152.792 216.564C144.84 236.75 141.492 258.619 143.166 280.277C136.679 262.824 129.459 240.142 124.645 222.059C127.784 191.359 152.792 173.458 165.976 143.81C169.533 136.24 172.253 128.04 171.416 119.629C171.207 117.947 170.579 116.054 168.905 115.844C151.001 113.595 121.193 157.877 121.193 211.938C119.101 202.056 115.753 178.715 114.288 168.832C123.077 137.081 148.398 112.269 161.372 81.7797C162.74 78.6563 168.781 64.4453 163.255 62.2243Z" fill="#94D1FF"/>
<path d="M244.539 129.212H138.041L139.414 130.985C148.04 142.127 149.104 157.375 142.079 169.59L181.15 176.585C187.857 177.786 194.723 177.786 201.43 176.585L240.502 169.59C233.476 157.375 234.54 142.127 243.167 130.985L244.539 129.212Z" fill="#0588CB"/>
<path fill-rule="evenodd" clip-rule="evenodd" d="M237.852 140.743C223.975 156.569 203.607 166.562 180.904 166.562C168.396 166.562 156.596 163.529 146.2 158.157C147.816 148.726 145.492 138.836 139.414 130.985L138.041 129.212H244.539L243.167 130.985C240.843 133.986 239.068 137.285 237.852 140.743Z" fill="#0F77B8"/>
<path d="M267 75.71C267 117.523 233.104 151.42 191.29 151.42C149.477 151.42 115.58 117.523 115.58 75.71C115.58 33.8965 149.477 0 191.29 0C233.104 0 267 33.8965 267 75.71Z" fill="#0588CB"/>
<circle cx="191.29" cy="75.7099" r="40.8834" fill="white"/>
<path fill-rule="evenodd" clip-rule="evenodd" d="M194.108 62.843C191.284 65.0056 190.689 69.0424 192.799 71.9279C194.936 74.8532 199.044 75.4886 201.97 73.3497C202.778 72.7591 203.411 72.0176 203.86 71.1922C205.824 76.5473 204.111 82.7708 199.282 86.3009C193.431 90.5788 185.215 89.308 180.939 83.4574C176.662 77.6069 177.944 69.3903 183.795 65.1113C186.881 62.8565 190.628 62.1478 194.108 62.843Z" fill="#343A40"/>
<path d="M267 75.71C267 65.7676 265.042 55.9226 261.237 46.737C257.432 37.5515 251.855 29.2053 244.825 22.1749C237.795 15.1446 229.449 9.56786 220.263 5.76308C213.414 2.92605 206.198 1.11565 198.848 0.378236C194.688 -0.0392075 191.29 3.38965 191.29 7.571C191.29 11.7523 194.693 15.0933 198.841 15.6146C204.201 16.288 209.457 17.6767 214.468 19.7525C221.817 22.7963 228.494 27.2577 234.118 32.8819C239.742 38.5062 244.204 45.1832 247.248 52.5316C250.291 59.88 251.858 67.7561 251.858 75.71H267Z" fill="#37A6ED"/>
<path d="M139.303 75.2052L116.59 75.2052" stroke="#343A40" stroke-width="7.571" stroke-linecap="round"/>
<path d="M266.495 75.2052L243.782 75.2052" stroke="#343A40" stroke-width="7.571" stroke-linecap="round"/>
<circle cx="191.542" cy="75.4576" r="52.4922" stroke="#343A40" stroke-width="7.571"/>
<circle cx="191.542" cy="75.4576" r="41.1357" stroke="#FAB005" stroke-width="15.142"/>
<path d="M236.173 75.4576C238.424 75.4576 240.267 73.6294 240.079 71.3861C239.659 66.3849 238.468 61.4701 236.542 56.8183C234.094 50.909 230.506 45.5396 225.983 41.0167C221.46 36.4939 216.091 32.9062 210.182 30.4584C205.53 28.5316 200.615 27.3409 195.614 26.9213C193.371 26.7331 191.542 28.5759 191.542 30.8271C191.542 33.0784 193.372 34.8821 195.612 35.108C199.541 35.5044 203.399 36.4734 207.062 37.9904C211.982 40.0284 216.453 43.0156 220.219 46.7814C223.984 50.5472 226.972 55.0179 229.01 59.9382C230.527 63.6005 231.496 67.4586 231.892 71.3882C232.118 73.6281 233.922 75.4576 236.173 75.4576Z" fill="#FCC419"/>
<path d="M381.55 63.8765C382.703 67.4627 379.902 70.9979 376.135 70.9978C373.843 70.9977 371.797 69.6392 370.628 67.6669C361.11 51.6021 340.593 45.7092 327.153 64.4296C301.943 99.5447 372.121 162.955 318.564 207.923C279.568 240.665 201.132 220.298 201.132 169.523L240.501 169.523C255.406 191.502 293.377 188.396 304.922 171.545C318.564 151.632 298.996 113.027 295.827 87.6716C289.477 36.8563 362.04 3.18983 381.55 63.8765Z" fill="#0588CB"/>
<path d="M184.638 318.647C182.963 315.157 185.651 311.287 189.522 311.287C191.48 311.287 193.268 312.336 194.437 313.907C209.553 334.215 245.221 333.248 248.615 307.249C253.038 273.357 181.448 248.766 181.448 169.523H220.817C220.817 205.929 249.444 234.991 269.056 268.704C306.313 332.747 215.043 381.989 184.638 318.647Z" fill="#0588CB"/>
<path d="M27.4388 308.263C26.9516 311.616 24.2535 314.382 20.8653 314.382C17.8555 314.382 15.2581 312.184 14.9841 309.187C11.3083 268.984 43.2909 248.713 57.0318 244.476C87.3156 235.138 116.338 253.309 134.003 243.466C151.295 233.832 158.483 210.154 161.764 169.523H201.133C204.918 221.51 186.761 258.168 166.053 271.227C138.041 288.892 114.319 276.526 87.3156 271.227C58.17 265.506 31.1707 282.577 27.4388 308.263Z" fill="#0588CB"/>
<path d="M0.809296 63.8765C-0.343582 67.4627 2.45689 70.9979 6.22383 70.9978C8.51637 70.9977 10.5622 69.6392 11.7308 67.6669C21.2489 51.6021 41.766 45.7092 55.2061 64.4296C80.4167 99.5447 10.2381 162.955 63.7955 207.923C102.791 240.665 181.448 220.298 181.448 169.523H142.079C127.173 191.502 88.9826 188.396 77.4375 171.545C63.7955 151.632 83.3637 113.027 86.5322 87.6716C92.8825 36.8563 20.3188 3.18983 0.809296 63.8765Z" fill="#0588CB"/>
</svg>
