<svg width="300" height="277" fill="none" xmlns="http://www.w3.org/2000/svg"><path d="M205.03 125.75H131.7l.95 1.22a23.93 23.93 0 0 1 1.83 26.58l26.9 4.81c4.62.83 9.34.83 13.96 0l26.9-4.81a23.93 23.93 0 0 1 1.83-26.58l.95-1.22Z" fill="#F03E3E"/><path fill-rule="evenodd" clip-rule="evenodd" d="M200.42 133.7a52 52 0 0 1-39.2 17.77 51.89 51.89 0 0 1-23.89-5.8c1.11-6.48-.49-13.3-4.67-18.7l-.95-1.22h73.32l-.95 1.22a23.93 23.93 0 0 0-3.66 6.72Z" fill="#E03131"/><path d="M220.49 88.92a52.12 52.12 0 1 1-104.24 0 52.12 52.12 0 0 1 104.24 0Z" fill="#F03E3E"/><circle cx="168.37" cy="88.92" r="28.14" fill="#fff"/><path fill-rule="evenodd" clip-rule="evenodd" d="M160.57 76.66a6.26 6.26 0 1 0 9.3 7.96 12.52 12.52 0 1 1-9.3-7.96Z" fill="#343A40"/><path d="M215.28 88.92c2.87 0 5.23-2.34 4.95-5.2a52.13 52.13 0 0 0-46.66-46.65c-2.86-.29-5.2 2.07-5.2 4.95 0 2.88 2.34 5.18 5.2 5.54a41.7 41.7 0 0 1 36.17 36.17c.36 2.85 2.66 5.2 5.54 5.2Z" fill="#FA5252"/><path d="M299.34 80.78c.8 2.47-1.13 4.9-3.73 4.9a4.48 4.48 0 0 1-3.79-2.3c-6.55-11.05-20.67-15.1-29.92-2.22-17.36 24.17 30.95 67.82-5.92 98.78-26.84 22.54-80.83 8.52-80.83-26.44h27.1c10.26 15.13 36.4 13 44.34 1.4 9.4-13.71-4.08-40.29-6.26-57.74-4.37-34.98 45.58-58.16 59.01-16.38Z" fill="#F03E3E"/><path d="M163.8 256.16c-1.16-2.4.69-5.07 3.35-5.07 1.35 0 2.58.72 3.39 1.8 10.4 13.98 34.96 13.32 37.3-4.58 3.04-23.33-46.25-40.26-46.25-94.8h27.1c0 25.05 19.71 45.06 33.21 68.27 25.65 44.08-37.18 77.98-58.1 34.38Z" fill="#F03E3E"/><path d="M55.58 249c-.34 2.32-2.2 4.22-4.53 4.22a4 4 0 0 1-4.05-3.57c-2.53-27.68 19.49-41.63 28.95-44.55 20.85-6.43 40.82 6.08 52.98-.7 11.9-6.63 16.86-22.93 19.11-50.9h27.1c2.61 35.79-9.89 61.03-24.14 70.01-19.28 12.16-35.61 3.65-54.2 0-20.07-3.93-38.65 7.82-41.22 25.5Z" fill="#F03E3E"/><path d="M95.74 106.89c18.3 0 31.34 20.07 29.55 41.89-.75 9.08 7.99 6.84 9.2 4.72h27.1s-.15 6.67-.87 11.11c-3.8 23.55-59.03 33.12-59.03-6.34 0-15.78 4.43-34.3-17.6-37.51-22.01-3.22-42.33-24.7-37.94-40.57C51.5 60.81 72.25 45 95.27 59.8c.02.02.03.04.02.07-3.67 6.01-11.02 8.63-17.2 12.04-4.88 2.69-8.05 7.37-7.66 12.06 1.05 12.69 5 22.93 25.31 22.93Z" fill="#F03E3E"/><path d="M146.55 101.74c5.35 0 8.55-4.77 8.55-12.52 0-7.74-3.2-12.51-8.55-12.51h-.1l-23.1-1.5 6.8 3.14 5.17 10.77-5.17 11-6.8 3.12 23.2-1.5Z" fill="#343A40"/><path d="M142.89 102.17c5.35 0 9.7-4.94 9.7-12.95 0-8-4.35-12.94-9.7-12.94h-.1l-22.71-1.55 6.8 3.25 5.17 11.14-5.18 11.36-6.8 3.24 22.82-1.55Z" fill="#15AABF"/><path d="M123.32 104.64c6.6 0 10.53-5.88 10.53-15.42 0-9.53-3.94-15.4-10.53-15.4h-.1l-28.46-1.86 8.37 3.87 6.37 13.26-6.37 13.54-8.37 3.86 28.56-1.85Z" fill="#343A40"/><path d="M118.81 105.16c6.6 0 11.94-6.08 11.94-15.94 0-9.85-5.34-15.93-11.94-15.93h-.1l-27.98-1.91 8.36 4 6.38 13.71-6.38 14-8.36 3.98 28.08-1.9Z" fill="#15AABF"/><path d="M91.87 109.36c8.6 0 13.75-7.68 13.75-20.14 0-12.45-5.14-20.13-13.75-20.13h-.15l-37.16-2.41 10.93 5.05 8.32 17.32-8.32 17.69-10.93 5.03 37.3-2.4v-.01Z" fill="#343A40"/><path d="M85.98 110.05c8.61 0 15.6-7.95 15.6-20.83 0-12.87-6.99-20.82-15.6-20.82h-.15l-36.55-2.49 10.94 5.22 8.32 17.92-8.32 18.28-10.94 5.21 36.7-2.5Z" fill="#15AABF"/><path d="M57.29 114.84c8.61 0 15.6-9.78 15.6-25.62 0-15.84-6.99-25.6-15.6-25.6h-.15L20.6 60.53l10.94 6.43L39.85 89l-8.32 22.5-10.94 6.4 36.7-3.07Z" fill="#343A40"/><ellipse cx="20.6" cy="89.23" rx="20" ry="28.69" fill="#C9E8FF"/><path d="M37.99 89.22c0 7.45-2.11 14.09-5.4 18.79-3.28 4.71-7.56 7.29-12 7.29-4.43 0-8.72-2.58-12-7.29-3.28-4.7-5.4-11.34-5.4-18.79 0-7.45 2.12-14.09 5.4-18.79 3.28-4.71 7.57-7.29 12-7.29 4.44 0 8.72 2.58 12 7.29 3.29 4.7 5.4 11.34 5.4 18.79Z" stroke="#343A40" stroke-width="5.21"/><path opacity=".3" d="M31.74 89.78a2.6 2.6 0 0 0 2.65-2.76 32.9 32.9 0 0 0-1.14-6.38 26.5 26.5 0 0 0-3.56-7.74 17.6 17.6 0 0 0-5.33-5.18c-1-.6-2.02-1.05-3.07-1.35-1.73-.5-3.22 1-3.22 2.8 0 1.8 1.53 3.2 3.18 3.93 4.69 2.1 6.96 8.7 7.56 13.92a3.04 3.04 0 0 0 2.93 2.76Z" fill="#fff"/><path d="m109.26 78.06 11.3.85M138.1 81.45l6.5.47" stroke="#22B8CF" stroke-width="6.95" stroke-linecap="round"/><path opacity=".3" d="m39.33 68.35 19.9 1.5" stroke="#fff" stroke-width="6.95" stroke-linecap="round"/><path d="m75.84 73.7 13.88.84" stroke="#22B8CF" stroke-width="6.95" stroke-linecap="round"/><path d="M91.2 97.83c-.65.48-1.44.7-2.24.7-3.72 0-5.7-4.64-3.7-7.77 8.79-13.67 1.92-23.23-4.93-23.48-2.73-.98.83-6.77.74-8.96.27-3.2 9.12-4.47 18 4.84 12.44 13.06-.44 29.2-7.87 34.67Z" fill="#F03E3E"/><circle cx="2.5" cy="2.5" r="2.5" transform="matrix(-1 0 0 1 60.92 31.83)" fill="#CAE9FF"/><circle cx="4" cy="4" r="4" transform="matrix(-1 0 0 1 52 20)" fill="#CAE9FF"/><circle cx="6.31" cy="6.31" r="6.31" transform="matrix(-1 0 0 1 64.62 0)" fill="#CAE9FF"/></svg>