<svg width="456" height="200" fill="none" xmlns="http://www.w3.org/2000/svg"><g clip-path="url(#a)"><path fill="#002B54" d="M0 0h456v290.92H0z"/><path fill-rule="evenodd" clip-rule="evenodd" d="M129.97 96.2c-66.47 28-66.79 82.02-110.5 129.72-17.38 18.95-45.33 25.96-69.94 20.19-165.67-38.84-30.48-284.53 54.68-359.6 66.83-58.9 176.53-30.47 200.27 57.62C220.93 5.29 188.34 71.6 129.97 96.19Z" fill="#005A99"/><path d="M89.47 21.78c3.35-.27 8.67 11.5 9.34 14.76a53.84 53.84 0 0 1-.52 23.39c1.67-3.74 3.26-7.5 4.7-11.32.43-8.88 1-17.97 4.4-26.18a38.93 38.93 0 0 1 5.36-9.27c1.16-1.47 3.34-1.35 3.7.49.16.88.2 1.79.2 2.65.01 12.49-6.52 26.94-11.59 32.96-1.87 4.93-3.1 7.72-5.27 12.55 3.3-4.4 7.05-8.4 11.28-12.1 5.78-5.01 13.14-8.98 20.79-9.07 1.08 0 1.84 1.04 1.38 2.02-1.04 2.25-2.86 4.17-4.74 5.8-9.53 8.06-22.39 11.56-31.7 19.77-2.22 4.4-4.58 8.76-7.09 13.07 5.6-4.02 11.63-7.57 17.9-10.54 5.94-2.83 12.46-5.16 18.98-4.79 1.45.08 2.7 1.25 2.26 2.63-1.78 5.6-13.33 10.73-17.24 11.84-3.21.92-6.54 1.14-9.86 1.6-4.55.68-9.06.69-13.58 1.79a226.24 226.24 0 0 1-12.69 18.75 84.29 84.29 0 0 1 11.9-7.9c6.8-3.62 14.73-5.92 22.23-4.32 1.06.22 1.57 1.41.9 2.27-1.51 1.98-3.7 3.44-5.89 4.59-10.68 5.6-23.52 6.36-34.15 11.82a198.01 198.01 0 0 1-12.6 14.19c6.23-3.4 12.73-6.3 19.44-8.55 6.4-2.14 13.4-3.68 19.95-2.35.98.2 1.54 1.23 1.08 2.11-3.5 6.72-14.03 9.68-18.26 10.37-3.26.57-6.62.36-9.97.4-4.64.14-9.16-.35-13.82.12-.18.03-.43.03-.6.06a196.6 196.6 0 0 1-15.09 13.84 83.96 83.96 0 0 1 11.8-5.43c7.4-2.7 15.75-3.77 22.98-.95.8.31 1.08 1.3.5 1.92-1.8 1.94-4.35 3.16-6.84 4.05-11.92 4.22-25.41 2.77-37.1 7.31a119.4 119.4 0 0 1-12.3 8.45c8.22-2.54 12.37-1.17 20.9-1.76 6.95-.52 14.35-.3 20.52 2.8.65.34 1.03 1.07.72 1.73-1 2.1-3.79 3.14-6.2 3.74-4.84 1.34-9.83 2.62-14.78 2.16-3.33-.29-6.53-1.28-9.8-2.05-4.53-1-8.8-2.57-13.45-3.19-.88-.1-1.77-.22-2.68-.25a310.88 310.88 0 0 1-8.8 5.2c-1.21.7-2.49-1.12-1.19-1.8 2.5-1.38 4.92-2.89 7.4-4.3 6.44-9.94 3.98-22.3 6.65-33.82.72-3.12 1.77-6.21 4-8.53.39-.46 1.08-.83 1.57-.5.2.14.39.36.47.64 3.29 7.12 3.55 15.38 1.38 22.9a40.56 40.56 0 0 1-9.53 16.4 242.34 242.34 0 0 0 14.97-10.54c4.84-11.52 3.06-24.85 6.25-36.96.57-2.08 1.33-4.26 2.81-5.8.27-.34.7-.62 1.18-.56.32.02.56.34.81.6 3.52 4.51 3.57 10.79 2.62 16.5a54.46 54.46 0 0 1-10.17 23.55c6.1-4.86 11.9-10.06 17.44-15.52 3.24-10.93-.87-22.65-1.12-34.17-.02-3.17.25-6.43 1.78-9.2.32-.5.84-1.08 1.45-.9.22.08.4.3.59.52 4.88 6.03 7.23 14.03 6.88 21.85a40.33 40.33 0 0 1-4.26 16.38c3.87-4.14 7.54-8.42 11.09-12.83 1.58-12.03-3.18-24.37-3.04-36.6 0-2.17.21-4.44 1.3-6.35.2-.36.5-.77 1-.78.35-.06.61.19.9.36 4.47 3.57 6.08 9.66 6.57 15.33.62 8.2-.63 16.5-3.68 24.15A263.2 263.2 0 0 0 85.49 84c2.32-11.46-4.76-20.78-6.2-33-.45-3.14-.51-6.42.74-9.37.27-.59.7-1.2 1.34-1.09 6.76 1.22 12.61 20.62 6.52 40.2 1.87-3.35 5.72-11.42 7.37-14.83.38-12.49-6.03-24.34-7.31-36.84-.14-1.29-.74-7.12 1.52-7.3Z" fill="#056AA6"/><path d="M82.19 113.12H7.6l.96 1.24a24.34 24.34 0 0 1 1.87 27.04l27.36 4.9c4.7.83 9.5.83 14.2 0l27.37-4.9a24.34 24.34 0 0 1 1.86-27.04l.97-1.24Z" fill="#0588CB"/><path fill-rule="evenodd" clip-rule="evenodd" d="M77.5 121.2a52.9 52.9 0 0 1-39.88 18.07 52.8 52.8 0 0 1-24.3-5.88c1.13-6.6-.5-13.53-4.76-19.03l-.96-1.24h74.59l-.97 1.24a24.36 24.36 0 0 0-3.72 6.83Z" fill="#0F77B8"/><path d="M97.92 75.65a53.02 53.02 0 1 1-106.05 0 53.02 53.02 0 0 1 106.05 0Z" fill="#0588CB"/><circle cx="44.89" cy="75.65" r="28.63" fill="#fff"/><path fill-rule="evenodd" clip-rule="evenodd" d="M58.17 63.17a6.37 6.37 0 1 0 9.45 8.1 12.74 12.74 0 1 1-9.45-8.1Z" fill="#343A40"/><path d="M92.61 75.65c2.93 0 5.33-2.38 5.04-5.3A53.03 53.03 0 0 0 50.2 22.9c-2.92-.3-5.3 2.1-5.3 5.04 0 2.92 2.39 5.26 5.3 5.63a42.42 42.42 0 0 1 36.8 36.8c.36 2.9 2.7 5.29 5.62 5.29Z" fill="#37A6ED"/><path d="M108.64 105.98c-6.91 5.65-.58 15.43 7.7 18.79 3.74 1.52 7.9 1.55 11.9 2.12 15.69 2.21 23.12 25.49 9.73 36.25-15.04 12.09-44.85 5.07-58.61-21.8H51.79c0 34.38 57.98 67.15 96.5 42.62 23.51-14.97 19.52-53.33 3.98-70.52-9.42-10.43-32.48-16.57-43.63-7.46Z" fill="#0588CB"/><path fill-rule="evenodd" clip-rule="evenodd" d="M144.18 127.66c0 7.2-5.84 13.04-13.04 13.04h-43.6c-7.2 0-5.98-5.84-5.98-13.04 0-7.2-1.23-13.04 5.97-13.04h43.6c7.2 0 13.05 5.84 13.05 13.04Z" fill="#343A40"/><path fill-rule="evenodd" clip-rule="evenodd" d="M86.24 127.66c0-7.2-1.23-13.04 5.97-13.04h35.69l10.84-2.94 10.83 2.94a13.04 13.04 0 1 1 0 26.08l-10.83 2.95-10.84-2.95H92.21c-7.2 0-5.97-5.84-5.97-13.04Z" fill="#FAB005"/><path fill-rule="evenodd" clip-rule="evenodd" d="M139 144.31c-4.96 0-8.99-7.45-8.99-16.65s4.03-16.65 8.99-16.65H160.14v33.3H139Z" fill="#343A40"/><path d="M167.36 127.66c0 4.36-.96 8.23-2.42 10.93-1.5 2.78-3.28 3.95-4.8 3.95s-3.3-1.17-4.8-3.95c-1.46-2.7-2.42-6.57-2.42-10.93 0-4.36.96-8.22 2.42-10.93 1.5-2.78 3.28-3.95 4.8-3.95s3.3 1.17 4.8 3.95c1.46 2.7 2.42 6.57 2.42 10.93Z" fill="#FFF3BF" stroke="#343A40" stroke-width="3.53"/><path d="M123.9 120.52H92.5" stroke="#FCC419" stroke-width="7.07" stroke-linecap="round"/><path opacity=".3" d="M149.16 117.25h-9.8" stroke="#fff" stroke-width="7.07" stroke-linecap="round"/><path d="M112.66 142.13c.65.5 1.45.73 2.27.73 3.78 0 5.78-4.7 3.7-7.86-8.85-13.48-1.88-21.91 5.08-22.17 2.77-1-.85-5.47-.76-7.7-.27-3.26-9.56-4.54-17.1 3.38-9.82 11.97-.41 28.07 6.8 33.62Z" fill="#0588CB"/><path opacity=".3" d="m267.5 95.83-107.36 18.98v25.7l107.35 18.98V95.83Z" fill="url(#b)"/><path d="M40.23 245.79c-1.17-2.45.71-5.16 3.42-5.16 1.38 0 2.63.74 3.45 1.84 10.58 14.22 35.56 13.54 37.94-4.67C88.14 214.07 38 196.85 38 141.35h27.57c0 25.5 20.05 45.85 33.79 69.46 26.09 44.85-37.83 79.34-59.13 34.98Z" fill="#0588CB"/><path d="M-69.86 238.51c-.34 2.35-2.23 4.29-4.6 4.29a4.08 4.08 0 0 1-4.12-3.64c-2.58-28.16 19.82-42.35 29.45-45.32 21.2-6.54 41.53 6.19 53.9-.7 12.11-6.75 17.15-23.34 19.44-51.8H51.8c2.65 36.42-10.07 62.09-24.57 71.24-19.62 12.37-36.23 3.7-55.14 0-20.42-4.01-39.33 7.94-41.94 25.93Z" fill="#0588CB"/><path d="M-88.51 67.36c-.8 2.51 1.15 4.99 3.8 4.99 1.6 0 3.03-.96 3.85-2.34 6.67-11.25 21.03-15.37 30.45-2.26 17.65 24.59-31.5 69 6.01 100.5 27.31 22.92 82.4 8.66 82.4-26.9H10.43c-10.44 15.4-37.19 13.22-45.27 1.41-9.56-13.94 4.15-40.98 6.37-58.74 4.44-35.58-46.38-59.16-60.04-16.66Z" fill="#0588CB"/><path d="M363.18 94.3c0-.87-.72-1.6-1.56-1.38a6.13 6.13 0 0 0-4.14 3.61 6.18 6.18 0 0 0 4.14 8.34c.84.22 1.56-.5 1.56-1.38V94.3Z" fill="#FAB005"/><path d="M360.37 104.4a13.76 13.76 0 0 0 .02-11.01 6.17 6.17 0 0 0-.02 11Z" fill="#F59F00"/><path d="M354.25 85.11c0-.87-.71-1.6-1.58-1.47a11.6 11.6 0 0 0 0 22.98c.87.12 1.58-.6 1.58-1.48V85.11Z" fill="#FAB005"/><path d="M348.88 84.85a11.62 11.62 0 0 0-2.83 18.48 11.61 11.61 0 0 0 6.62 3.29c.87.12 1.58-.6 1.58-1.48V86.45a13.73 13.73 0 0 0-5.37-1.6Z" fill="#F59F00"/><path fill-rule="evenodd" clip-rule="evenodd" d="M336.56 103.74a11.88 11.88 0 1 1 10.47 7.03h-.14c-3.75 0-9.83-1.66-11.12-5.57-.21-.65.19-1.23.79-1.46Z" fill="#FAB005"/><path d="M358.1 98.9c.65 0 1.19-.54 1.12-1.2a11.9 11.9 0 0 0-10.63-10.62c-.65-.07-1.19.47-1.19 1.12 0 .66.54 1.18 1.19 1.27a9.5 9.5 0 0 1 8.24 8.24c.08.65.6 1.18 1.26 1.18Z" fill="#FCC419"/><circle cx="346.06" cy="98.65" r="6.41" fill="#fff"/><path fill-rule="evenodd" clip-rule="evenodd" d="M344.92 96.63a1.03 1.03 0 1 0 1.52 1.31 2.06 2.06 0 1 1-1.52-1.3Z" fill="#343A40"/><path d="M417.6 131.37c0-1.17-.98-2.15-2.11-1.85a8.3 8.3 0 0 0 0 16.04c1.13.3 2.1-.68 2.1-1.85v-12.34Z" fill="#F03E3E"/><path d="M413.8 144.93a18.48 18.48 0 0 0 .05-14.78 8.3 8.3 0 0 0-.04 14.78Z" fill="#E03131"/><path d="M405.6 119.03c0-1.17-.96-2.14-2.12-1.98a15.59 15.59 0 0 0 0 30.86c1.16.16 2.12-.8 2.12-1.98v-26.9Z" fill="#F03E3E"/><path d="M398.39 118.67a15.57 15.57 0 0 0 5.09 29.24c1.16.16 2.12-.8 2.12-1.98v-25.1a18.46 18.46 0 0 0-7.21-2.16Z" fill="#E03131"/><path fill-rule="evenodd" clip-rule="evenodd" d="M381.83 144.05a15.95 15.95 0 1 1 14.06 9.43h-.18c-5.03 0-13.2-2.22-14.93-7.47-.28-.87.25-1.66 1.06-1.96Z" fill="#F03E3E"/><path d="M410.76 137.54c.88 0 1.6-.72 1.51-1.6A15.96 15.96 0 0 0 398 121.68c-.87-.09-1.59.64-1.59 1.52s.72 1.58 1.6 1.69a12.74 12.74 0 0 1 11.06 11.07c.11.87.81 1.59 1.7 1.59Z" fill="#FA5252"/><circle cx="394.59" cy="137.21" r="8.61" fill="#fff"/><path fill-rule="evenodd" clip-rule="evenodd" d="M393.06 134.5a1.38 1.38 0 1 0 2.06 1.76 2.77 2.77 0 1 1-2.06-1.76Z" fill="#343A40"/><path d="M416.27 47.67c0-1.56-1.29-2.86-2.8-2.47a11.07 11.07 0 0 0-8.24 10.68 11.03 11.03 0 0 0 8.24 10.67c1.51.4 2.8-.9 2.8-2.47v-16.4Z" fill="#FD7E14"/><path d="M411.24 65.71a24.6 24.6 0 0 0 2.06-9.89c0-3.47-.72-6.78-2.01-9.78a11.03 11.03 0 0 0-.05 19.67Z" fill="#F76707"/><path d="M400.31 31.25c0-1.57-1.27-2.85-2.82-2.64a20.72 20.72 0 0 0 0 41.07c1.55.22 2.82-1.07 2.82-2.63v-35.8Z" fill="#FD7E14"/><path d="M390.71 30.77a20.72 20.72 0 0 0 6.78 38.91c1.55.22 2.82-1.07 2.82-2.63v-33.4a24.54 24.54 0 0 0-9.6-2.88Z" fill="#F76707"/><path fill-rule="evenodd" clip-rule="evenodd" d="M368.69 64.54a21.22 21.22 0 1 1 18.46 12.55c-6.7 0-17.55-2.95-19.86-9.95-.38-1.15.33-2.2 1.4-2.6Z" fill="#FD7E14"/><path d="M407.17 55.88c1.18 0 2.14-.95 2.02-2.12a21.21 21.21 0 0 0-19-19c-1.17-.12-2.12.84-2.12 2.02 0 1.17.96 2.1 2.12 2.25a16.98 16.98 0 0 1 14.73 14.73c.15 1.16 1.08 2.12 2.25 2.12Z" fill="#FF922B"/><circle cx="385.67" cy="55.44" r="11.46" fill="#fff"/><path fill-rule="evenodd" clip-rule="evenodd" d="M382.21 51.84a1.84 1.84 0 1 0 2.74 2.34 3.68 3.68 0 1 1-2.74-2.34Z" fill="#343A40"/><path d="M140.31 50.53c0-1.42 1.17-2.6 2.54-2.24a10.03 10.03 0 0 1 7.46 9.68 10 10 0 0 1-7.46 9.67c-1.37.36-2.54-.82-2.54-2.24V50.53Z" fill="#FD7E14"/><path d="M144.87 66.88a22.31 22.31 0 0 1-.04-17.83 10.01 10.01 0 0 1 .04 17.83Z" fill="#F76707"/><path d="M154.77 35.64c0-1.41 1.16-2.58 2.56-2.39a18.8 18.8 0 0 1 4.63 35.97 18.8 18.8 0 0 1-4.63 1.26c-1.4.2-2.56-.98-2.56-2.4V35.65Z" fill="#FD7E14"/><path d="M163.47 35.22a18.78 18.78 0 0 1-6.14 35.26c-1.4.2-2.56-.98-2.56-2.4V37.83a22.24 22.24 0 0 1 8.7-2.6Z" fill="#F76707"/><path fill-rule="evenodd" clip-rule="evenodd" d="M183.43 65.82A19.24 19.24 0 1 0 166.7 77.2c6.07 0 15.9-2.68 18-9.02.35-1.05-.3-2-1.27-2.36Z" fill="#FD7E14"/><path d="M183.18 57.97c1.06 0 1.93-.87 1.83-1.92a19.28 19.28 0 0 0-11.78-15.86 19.25 19.25 0 0 0-5.44-1.36c-1.06-.1-1.92.76-1.92 1.82 0 1.07.86 1.92 1.91 2.05a15.38 15.38 0 0 1 13.35 13.35c.14 1.05.99 1.92 2.05 1.92Z" fill="#FF922B"/><circle cx="168.05" cy="57.44" r="10.39" fill="#fff"/><path fill-rule="evenodd" clip-rule="evenodd" d="M171.33 54.18a1.67 1.67 0 1 0 2.47 2.12 3.34 3.34 0 1 1-2.47-2.12Z" fill="#343A40"/><path d="M712.97 250.01a155.77 155.77 0 0 0-15.17 9.6c5.6 3.3 11.14 6.65 16.63 10.05 4.79-3.58 9.8-6.89 14.99-9.87a924.31 924.31 0 0 0-16.45-9.78Zm20.38-9.05c-1.08.35-2.16.72-3.24 1.11a122.88 122.88 0 0 0-15.26 6.92c1.37.8 2.75 1.59 4.11 2.4 4.13 2.42 8.23 4.89 12.3 7.37a141.8 141.8 0 0 1 18-8.41 936.4 936.4 0 0 0-15.91-9.39Zm35.9 3.47c1.54-.33 3.1-.67 4.66-1.03-5-3.02-10.03-6-15.12-8.94-3.45.94-6.91 1.74-10.26 2.52-4.2.96-8.5 1.96-12.8 3.24a930.06 930.06 0 0 1 15.76 9.3c5.43-1.97 10.95-3.6 16.53-4.82l1.24-.27Zm8.89-18.82a70.27 70.27 0 0 1-16.92 8.14l5.05 2.94c3.42 2.01 6.82 4.05 10.21 6.1a93.92 93.92 0 0 0 7.75-2.23 52.57 52.57 0 0 0 10.61-5.13 932.5 932.5 0 0 0-16.7-9.82Zm14.95-11.27a457.5 457.5 0 0 1-4.61 3.74c-2.66 2.12-5.53 4.3-8.63 6.4a956.43 956.43 0 0 1 16.73 9.84c2.4-1.56 4.65-3.21 6.74-4.8 2.24-1.7 4.52-3.49 6.82-5.34a946.88 946.88 0 0 0-17.05-9.84Zm29.58-26.68a982.1 982.1 0 0 1 17.53 9.63c3.54-3.47 7-7.01 10.41-10.62a981.01 981.01 0 0 0-17.75-9.53 422.04 422.04 0 0 1-10.2 10.52Zm-19.2-10.04c6 3.06 11.95 6.16 17.86 9.32 3.47-3.43 6.87-6.93 10.21-10.5-5.96-3.1-12-6.16-18.07-9.18-3.26 3.5-6.6 6.96-10 10.36Zm-19.55-9.69c6.1 2.95 12.16 5.95 18.18 9 3.4-3.38 6.74-6.83 10.02-10.34a1033.84 1033.84 0 0 0-18.37-8.85 424.5 424.5 0 0 1-9.83 10.2ZM764 158.6c6.2 2.84 12.39 5.72 18.52 8.67a397 397 0 0 0 9.84-10.17c-6.14-2.87-12.38-5.7-18.7-8.5a422.38 422.38 0 0 1-9.66 10Zm-20.26-8.97c6.32 2.71 12.6 5.5 18.85 8.33 3.28-3.27 6.5-6.6 9.67-9.98-6.25-2.75-12.6-5.47-19.03-8.15-3.1 3.3-6.27 6.57-9.49 9.8ZM723.14 141c4.98 2.03 9.95 4.09 14.9 6.18 1.43.6 2.85 1.22 4.27 1.83 3.22-3.2 6.4-6.46 9.51-9.77-6.37-2.65-12.8-5.26-19.33-7.84a422.03 422.03 0 0 1-9.35 9.6Zm-20.97-8.28c6.51 2.5 13.01 5.06 19.5 7.69 3.18-3.14 6.3-6.33 9.37-9.57-6.47-2.55-13.02-5.05-19.64-7.52-3.02 3.17-6.1 6.3-9.23 9.4Zm-21.33-7.94c6.6 2.38 13.22 4.84 19.83 7.37 3.14-3.08 6.22-6.2 9.26-9.38-6.58-2.44-13.23-4.84-19.94-7.2-3 3.1-6.05 6.18-9.15 9.22Zm-21.6-7.68-.1.11c5.42 1.85 10.91 3.73 16.3 5.64l3.86 1.39c3.12-3.02 6.18-6.08 9.2-9.2a1324.45 1324.45 0 0 0-17.75-6.1l-2.47-.84a423.54 423.54 0 0 1-9.03 9Zm-19.86-9.37-2.13 2.03a2721.32 2721.32 0 0 0 20.31 6.92c3.12-2.98 6.18-6.02 9.2-9.1-6.72-2.28-13.47-4.6-20.18-6.99-2.37 2.4-4.76 4.79-7.2 7.14Zm-19.87-9.37a355.32 355.32 0 0 1-3.84 3.66 772.8 772.8 0 0 0 20 7.2c3.19-3 6.33-6.05 9.41-9.16a554.16 554.16 0 0 1-19.72-7.47 417.5 417.5 0 0 1-5.85 5.77ZM599.64 89a377.15 377.15 0 0 1-4.82 4.57 403.2 403.2 0 0 0 16.84 6.93l2.47.94.59-.55c3.1-2.9 6.16-5.87 9.17-8.88a330.5 330.5 0 0 1-18.85-8.33 410.51 410.51 0 0 1-5.4 5.32Zm-19.86-9.37c-1.51 1.46-3.06 2.92-4.62 4.38a265.07 265.07 0 0 0 18.19 8.9c.5-.46 1-.91 1.5-1.39a387.8 387.8 0 0 0 8.8-8.5 227.24 227.24 0 0 1-17.63-9.56 430.13 430.13 0 0 1-6.24 6.17Zm-19.87-9.37-2.83 2.7a192.23 192.23 0 0 0 16.71 10.3l1.2-1.1c3.3-3.1 6.55-6.26 9.76-9.48a168.95 168.95 0 0 1-16.09-11.15 425.95 425.95 0 0 1-8.75 8.73Zm-19.04-10.18c4.72 4.35 9.74 8.35 14.96 12.02 3.98-3.74 7.88-7.57 11.7-11.47a126.6 126.6 0 0 1-14.21-13.16 423 423 0 0 1-12.45 12.61ZM526.9 44.84c3.92 5.13 8.25 9.85 12.89 14.22 4.27-4.12 8.46-8.35 12.54-12.68a112.94 112.94 0 0 1-11.98-15.78 419.32 419.32 0 0 1-13.45 14.24Zm-11.26-18.33a103.8 103.8 0 0 0 10.38 17.17c4.62-4.67 9.14-9.46 13.53-14.36a101.46 101.46 0 0 1-9.2-19.49 410.87 410.87 0 0 1-14.71 16.68Zm-.65-1.42a398.1 398.1 0 0 0 14.82-16.9 97.36 97.36 0 0 1-4.24-19.65 89.02 89.02 0 0 1-.47-6.66A396.1 396.1 0 0 1 507.95 3.5a96.78 96.78 0 0 0 7.05 21.6Zm-26.12-2.8a396.02 396.02 0 0 0 17.24-18.9c-.5-2.6-.9-5.2-1.19-7.85a95.58 95.58 0 0 1-.17-18.22 192.5 192.5 0 0 1-20 26.24c.72 6.35 2.1 12.6 4.12 18.73Zm-19.32 18.6a391.41 391.41 0 0 0 17.9-17.14 97.38 97.38 0 0 1-4.27-18.47 214.27 214.27 0 0 1-19.6 18.64 97.46 97.46 0 0 0 5.97 16.96Zm-26.1-3.56c6.3-4.19 12.41-8.73 18.25-13.59a91.9 91.9 0 0 1-2.64-23.98 144.5 144.5 0 0 1-19.84 16.4 93.8 93.8 0 0 0 4.23 21.17Zm-25.87-10.35a149.26 149.26 0 0 0 19.83-11.33c-.6-8.23-.08-16.89 1.5-25.73a86.3 86.3 0 0 1-11.36 9.84 75.64 75.64 0 0 1-10.13 6.05 96.17 96.17 0 0 0 .16 21.17Zm-23.82 8.7a266.6 266.6 0 0 0 14.3-4.7c2.58-.95 5.2-2.04 7.83-3.23l-.2-1.6a96.38 96.38 0 0 1-.05-19.47c-6.47 3.07-13.13 5.36-19.65 7.6-.91.3-1.83.62-2.75.94a95.55 95.55 0 0 0 .52 20.46Zm-23.25 7.94c3.99-1.68 8.16-3.23 12.58-4.64 2.74-.88 5.53-1.73 8.23-2.55l.73-.22c-.12-.9-.24-1.8-.34-2.71a95.3 95.3 0 0 1-.22-17.67 195.13 195.13 0 0 0-21.73 8.95 95.23 95.23 0 0 0 .75 18.84ZM348.7 55.75a111.08 111.08 0 0 1 20.17-11.42 93.76 93.76 0 0 1-.84-18.72 428.21 428.21 0 0 0-21.07 10.94c-.08 6.5.51 12.9 1.74 19.2ZM327.9 75.21c2.35-2.71 4.79-5.36 7.34-7.95 3.73-3.78 7.67-7.21 11.87-10.35a91.22 91.22 0 0 1-1.88-19.4c-4.31 2.38-8.57 4.8-12.75 7.2-3 1.71-6.17 3.59-9.36 5.62a94.02 94.02 0 0 0 4.78 24.88Zm-1.35 1.6a97.33 97.33 0 0 1-5.13-25.4 125.54 125.54 0 0 0-16.17 12.32 94.68 94.68 0 0 0 7.36 31.47 232.78 232.78 0 0 1 13.94-18.4Zm19.2 33.37a110.17 110.17 0 0 1-11.6-16.62 115.78 115.78 0 0 0-14.25 15.8 109.1 109.1 0 0 0 11.82 15.69 138.08 138.08 0 0 1 14.02-14.87Zm14.5 14.55-1.2-1.03a124.99 124.99 0 0 1-12.4-12.45 137.16 137.16 0 0 0-13.91 14.9c4.56 4.94 9.51 9.46 14.74 13.62 3.83-5.27 8.12-10.3 12.77-15.04Zm16.87 12.52a159.7 159.7 0 0 1-15.77-11.59 133 133 0 0 0-12.68 15.06 171.21 171.21 0 0 0 16.6 11.37 130.94 130.94 0 0 1 11.85-14.84Zm18.65 10.7c-6-3.06-11.82-6.35-17.4-9.9a130.42 130.42 0 0 0-11.79 14.82c5.88 3.5 11.89 6.68 17.9 9.57 3.37-5.04 7.15-9.88 11.29-14.48Zm19.98 9.24a302.99 302.99 0 0 1-18.63-8.55 129.32 129.32 0 0 0-11.25 14.46 340.6 340.6 0 0 0 18.8 8.2c3.33-4.9 7.04-9.62 11.08-14.1Zm20.95 8.2a489.62 489.62 0 0 1-19.52-7.6c-4.05 4.5-7.75 9.22-11.04 14.1a494.03 494.03 0 0 0 19.43 7.3c3.36-4.8 7.08-9.42 11.13-13.8Zm21.54 7.57c-6.7-2.28-13.4-4.61-20.06-7.03-4.06 4.4-7.8 9.01-11.14 13.78 6.61 2.35 13.25 4.62 19.82 6.85 3.45-4.74 7.26-9.28 11.38-13.6Zm21.77 7.43-6.6-2.27-6.47-2.2-7.2-2.44a132.9 132.9 0 0 0-11.37 13.6l2.68.9c5.66 1.92 11.46 3.88 17.22 5.88 3.57-4.7 7.5-9.2 11.74-13.47Zm21.56 7.7c-6.62-2.44-13.3-4.83-20.05-7.18-4.26 4.28-8.2 8.79-11.76 13.47a1040.85 1040.85 0 0 1 19.73 7.1c3.7-4.69 7.73-9.17 12.08-13.4Zm21.27 8.01c-6.52-2.53-13.12-5.02-19.79-7.47a135.75 135.75 0 0 0-12.09 13.4c6.5 2.42 12.99 4.91 19.47 7.47 3.8-4.7 7.95-9.18 12.41-13.4Zm20.94 8.37c-6.41-2.63-12.9-5.23-19.47-7.79a136.92 136.92 0 0 0-12.42 13.39 1137 1137 0 0 1 19.23 7.8c3.88-4.7 8.11-9.19 12.66-13.4Zm20.59 8.71c-6.3-2.74-12.68-5.45-19.15-8.12-4.56 4.23-8.8 8.72-12.67 13.42 1.48.62 2.97 1.23 4.45 1.86 4.85 2.05 9.7 4.15 14.5 6.28 3.95-4.73 8.26-9.22 12.87-13.44Zm20.21 9.06a1020.6 1020.6 0 0 0-18.8-8.44 137.85 137.85 0 0 0-12.86 13.44c6.26 2.77 12.48 5.61 18.66 8.5 3.99-4.75 8.34-9.27 13-13.5Zm19.82 9.41a948.4 948.4 0 0 0-18.43-8.77 138.05 138.05 0 0 0-13 13.5 1026 1026 0 0 1 18.38 8.85c4-4.78 8.37-9.32 13.05-13.58Zm19.43 9.77c-5.97-3.08-12-6.12-18.07-9.1-4.7 4.27-9.06 8.82-13.05 13.59 6.08 3 12.11 6.07 18.1 9.18 3.98-4.8 8.35-9.38 13.02-13.67Zm19.07 10.1a979.8 979.8 0 0 0-17.74-9.42c-4.69 4.3-9.04 8.9-13 13.7 5.98 3.12 11.9 6.3 17.79 9.53 3.95-4.85 8.3-9.47 12.95-13.81Zm18.72 10.46a964.54 964.54 0 0 0-17.4-9.74c-4.68 4.35-9 8.99-12.94 13.83 5.9 3.25 11.75 6.55 17.54 9.9a137.1 137.1 0 0 1 12.8-14Zm18.37 10.8a944.32 944.32 0 0 0-17.08-10.06c-4.63 4.41-8.92 9.1-12.8 14l4.34 2.52c4.34 2.55 8.64 5.14 12.92 7.76 3.82-4.99 8.06-9.74 12.62-14.21Zm1.26.77a135.2 135.2 0 0 0-12.58 14.24c5.72 3.5 11.39 7.06 17 10.68 3.73-5.07 7.88-9.92 12.38-14.5-5.54-3.52-11.14-6.99-16.8-10.42Zm14.95-12.76a141.72 141.72 0 0 0-13.56 11.43 895.12 895.12 0 0 1 16.74 10.4 144.7 144.7 0 0 1 13.47-11.75c-5.5-3.4-11.05-6.76-16.65-10.08Zm111.94-59.37a431.95 431.95 0 0 1-13.55 11.68c5.22 2.94 10.4 5.91 15.54 8.93l1.53.91c4.44-3.63 9-7.53 13.75-11.79-5.7-3.3-11.46-6.53-17.26-9.73Zm13.2-12.44a397.76 397.76 0 0 1-11.78 11.16c5.8 3.2 11.57 6.43 17.27 9.72a395.23 395.23 0 0 0 12.01-11.25 970.56 970.56 0 0 0-17.5-9.63ZM495.2 37.28c.9 1.71 1.84 3.38 2.81 5.01a394.95 394.95 0 0 0 15.65-15.77A98.31 98.31 0 0 1 506.5 5.2a415.26 415.26 0 0 1-17.1 18.64c1.58 4.55 3.52 9.04 5.81 13.45Zm-45.23 15.63c.57 1.1 1.16 2.17 1.76 3.23a379.1 379.1 0 0 0 16.43-13.98 98.55 98.55 0 0 1-6.09-16.98 219.3 219.3 0 0 1-18.19 13.46c1.63 4.84 3.66 9.6 6.09 14.27Zm-32.23-24.67a94.7 94.7 0 0 0 5.33 21.01 202.54 202.54 0 0 0 18.83-10.9 97.27 97.27 0 0 1-4.2-19.53c-.06-.51-.1-1.03-.15-1.54a143.53 143.53 0 0 1-19.8 10.96ZM694.8 239.72c-4.48 2.4-9 5.12-13.5 8.17-.6.4-1.17.81-1.75 1.22a961.99 961.99 0 0 1 16.76 9.6l.22.14c4.83-3.5 9.9-6.71 15.13-9.6a952.17 952.17 0 0 0-16.86-9.53Zm20.72-8.77c-1.76.53-3.52 1.1-5.28 1.75a120.82 120.82 0 0 0-13.53 6.01 959.1 959.1 0 0 1 16.82 9.51 140.47 140.47 0 0 1 18.28-8.13 964.09 964.09 0 0 0-16.29-9.14Zm44.2-15.66a73.46 73.46 0 0 1-16.3 8.4c5.36 2.96 10.7 5.96 15.98 9 1.66-.45 3.32-.94 4.97-1.5a55.49 55.49 0 0 0 12.48-6.32 966.48 966.48 0 0 0-17.14-9.58ZM400.05 59.08a187.54 187.54 0 0 0 21.38-9.02A97.38 97.38 0 0 1 416.08 29c-6.7 2.98-14 5.67-22.08 8.2a95.24 95.24 0 0 0 6.07 21.88Zm-23.13 7.8c3.93-1.4 7.85-2.68 11.74-3.96 3.19-1.05 6.43-2.12 9.68-3.24a97.57 97.57 0 0 1-6.06-21.95l-.6.19c-6.54 1.97-13.8 4.18-20.95 7.05a95.55 95.55 0 0 0 6.2 21.91Zm-21.7 9.54a136.3 136.3 0 0 1 20-8.92 97.62 97.62 0 0 1-6.18-21.83c-.7.3-1.41.58-2.11.9a91.63 91.63 0 0 0-17.95 10.68 96.61 96.61 0 0 0 6.23 19.17ZM677.9 250.26a141.75 141.75 0 0 0-13.6 11.14 950.72 950.72 0 0 1 17.07 10.06c4.26-4.06 8.79-7.88 13.55-11.43-5.62-3.3-11.3-6.56-17.02-9.77Zm63.18-25.8-1.76.53c-3.58.99-7.18 1.81-10.66 2.62-3.5.8-7.08 1.63-10.68 2.63a968.95 968.95 0 0 1 16.1 9.04c4.63-1.59 9.33-2.91 14.07-3.95l1.24-.27a267.2 267.2 0 0 0 7.49-1.7c-5.22-3.01-10.5-5.97-15.8-8.9Zm33.26-20.41c-1.89 1.56-3.8 3.11-5.73 4.66a142 142 0 0 1-7.23 5.44 979.73 979.73 0 0 1 17.15 9.58c1.73-1.19 3.37-2.4 4.92-3.57 2.73-2.08 5.5-4.27 8.31-6.56a973.05 973.05 0 0 0-17.42-9.55Zm32.43-3.38a973.76 973.76 0 0 0-17.6-9.43 427.6 427.6 0 0 1-13.33 11.57 989.18 989.18 0 0 1 17.43 9.55c4.36-3.6 8.84-7.48 13.5-11.7ZM427.98 60.24c1.6 3.07 3.34 6 5.2 8.84 4.62-2.4 8.82-5.41 12.51-8.21 1.53-1.16 3.07-2.37 4.62-3.6a100.85 100.85 0 0 1-7.98-17.6 213.05 213.05 0 0 1-18.76 10.9c1.29 3.26 2.75 6.48 4.41 9.67ZM676.16 229.7a152.7 152.7 0 0 0-14.73 8.83c-.19.12-.36.25-.54.38 5.83 3.1 11.6 6.26 17.33 9.47 4.88-3.44 9.96-6.59 15.22-9.4a981.81 981.81 0 0 0-17.28-9.28Zm21-8.56a95 95 0 0 0-6.79 2.2c-4.04 1.5-8.13 3.3-12.25 5.37 5.8 3.04 11.54 6.13 17.24 9.27a139.64 139.64 0 0 1 18.49-7.94c-5.52-3-11.08-5.98-16.69-8.9Zm43.67-15.87a76.13 76.13 0 0 1-15.84 8.52c5.6 2.94 11.15 5.92 16.66 8.94.95-.28 1.9-.57 2.85-.9 5.04-1.7 9.7-4.4 13.88-7.26a984.56 984.56 0 0 0-17.55-9.3Zm57.5-22.57c-2.51 2.42-5.1 4.85-7.75 7.27a996.03 996.03 0 0 1 17.6 9.43l5.22-4.8c2.22-2.09 4.42-4.2 6.6-6.33a993.66 993.66 0 0 0-17.86-9.32c-1.26 1.26-2.53 2.5-3.82 3.75Zm-19.88-9.37a375.78 375.78 0 0 1-7.24 6.81c6.03 2.99 12.02 6.02 17.96 9.1a386.4 386.4 0 0 0 11.6-10.99c-6-3.03-12.06-6.03-18.18-8.98a453.5 453.5 0 0 1-4.13 4.06Zm-19.86-9.37c-2.3 2.23-4.68 4.46-7.1 6.69 6.14 2.87 12.24 5.8 18.3 8.79a393.78 393.78 0 0 0 11.41-10.84l-.65-.32a973.68 973.68 0 0 0-17.87-8.33 407.91 407.91 0 0 1-4.1 4.01Zm-19.87-9.37a376 376 0 0 1-7.33 6.9c6.25 2.76 12.46 5.6 18.64 8.48a391.76 391.76 0 0 0 11.23-10.66c-6.2-2.81-12.49-5.59-18.86-8.32l-3.68 3.6Zm-19.87-9.37a376.48 376.48 0 0 1-7.96 7.47l5.15 2.15c4.64 1.96 9.26 3.96 13.87 6a394.84 394.84 0 0 0 11.05-10.46c-6.33-2.7-12.72-5.37-19.2-8l-2.9 2.84Zm-19.87-9.37a379.76 379.76 0 0 1-8.95 8.37 1139.6 1139.6 0 0 1 19.36 7.83 392.44 392.44 0 0 0 10.9-10.27c-6.44-2.6-12.95-5.15-19.53-7.67l-1.78 1.74Zm-19.86-9.37c-3.32 3.2-6.76 6.4-10.32 9.6 6.56 2.44 13.13 4.96 19.7 7.53a384.51 384.51 0 0 0 10.76-10.08c-6.54-2.49-13.15-4.94-19.83-7.36l-.31.31Zm-31.98 1.82a1049.51 1049.51 0 0 1 20.1 7.2 506.72 506.72 0 0 0 10.65-9.88 1285.2 1285.2 0 0 0-20.15-7.07c-3.4 3.25-6.94 6.5-10.6 9.75Zm-21.98-7.49 4.93 1.67c5.09 1.72 10.28 3.49 15.47 5.28 2.9-2.58 5.85-5.28 8.9-8.13l1.7-1.62-6.04-2.06a2832 2832 0 0 1-14.25-4.86 400.34 400.34 0 0 1-10.71 9.72Zm-21.9-7.6c6.75 2.42 13.56 4.77 20.3 7.06 3.48-3.06 7.04-6.29 10.72-9.73-6.7-2.32-13.4-4.7-20.01-7.2-3.54 3.29-7.22 6.58-11.02 9.86Zm-21.31-8.13a474.89 474.89 0 0 0 19.75 7.56c3.57-3.1 7.24-6.4 11.02-9.9a407.87 407.87 0 0 1-19.28-7.88c-3.7 3.41-7.53 6.83-11.5 10.22Zm-20.26-9.03c6.3 3.1 12.6 5.88 18.76 8.42 3.72-3.2 7.55-6.62 11.5-10.27a266.1 266.1 0 0 1-18.15-8.93c-3.89 3.6-7.93 7.2-12.11 10.78ZM542.9 85.73c5.7 3.5 11.52 6.7 17.37 9.62 3.92-3.37 7.96-6.97 12.14-10.83a191.62 191.62 0 0 1-16.68-10.3c-4.1 3.84-8.39 7.68-12.83 11.5Zm-16.94-11.9c5 4.02 10.26 7.7 15.66 11.1 4.15-3.6 8.42-7.44 12.86-11.58a150.93 150.93 0 0 1-14.92-12.02 391.8 391.8 0 0 1-13.6 12.5Zm-5.8-22.32a383.7 383.7 0 0 1-9.04 8.45c4.25 4.66 8.84 8.96 13.68 12.93a486.32 486.32 0 0 0 13.68-12.56c-4.76-4.5-9.05-9.25-12.85-14.2-1.8 1.8-3.63 3.6-5.47 5.38Zm-19.87-9.37-1.51 1.45a108.71 108.71 0 0 0 11.36 15.26 389.99 389.99 0 0 0 14.6-13.9 106.43 106.43 0 0 1-10.42-17.03 423.35 423.35 0 0 1-14.03 14.22Zm-28.46 3.44c2.4 4.61 5.12 8.95 8.1 13.05 4.98-4.26 10.15-8.9 15.57-13.97l1.16-1.1a101.52 101.52 0 0 1-8.67-18.3A385.84 385.84 0 0 1 470.2 42.3c.52 1.1 1.07 2.2 1.63 3.29Zm-19.38 11.8c3.1 5.3 6.62 10.23 10.47 14.81.9-.65 1.78-1.3 2.63-1.95 4.23-3.22 8.55-6.7 13-10.46a105.95 105.95 0 0 1-9.75-16.24 439.97 439.97 0 0 1-16.35 13.85Zm-88.21 38.4a105.27 105.27 0 0 1-10.01-17.14 116.31 116.31 0 0 0-18.73 13.68c3.36 6 7.25 11.54 11.56 16.66a146.7 146.7 0 0 1 17.18-13.2Zm12.41 14.6c-4.29-4.3-8.16-8.8-11.6-13.49l-1.66 1.08a141.5 141.5 0 0 0-15.4 12.08 126.2 126.2 0 0 0 13.52 13.39c4.71-4.67 9.78-9.04 15.14-13.05Zm15.15 13.07a147.44 147.44 0 0 1-8.77-7.1 128.8 128.8 0 0 1-5.39-4.98c-5.33 4-10.36 8.36-15.02 13 5.01 4.2 10.29 8.03 15.73 11.55 4.18-4.42 8.69-8.59 13.45-12.47Zm17.4 11.42a180.2 180.2 0 0 1-16.25-10.58 140.7 140.7 0 0 0-13.35 12.43A212.73 212.73 0 0 0 397 146.6c3.8-4.12 7.9-8.04 12.21-11.73Zm19.2 9.95a245.8 245.8 0 0 1-17.91-9.2 140.04 140.04 0 0 0-12.15 11.67c6.25 3.14 12.51 5.97 18.64 8.55 3.58-3.86 7.4-7.54 11.42-11.02Zm20.56 8.78a367.44 367.44 0 0 1-19.18-8.13 139.66 139.66 0 0 0-11.36 10.97 450 450 0 0 0 19.53 7.59c3.46-3.65 7.14-7.14 11-10.43Zm21.54 7.96a650.58 650.58 0 0 1-20.06-7.38 140.58 140.58 0 0 0-11 10.4c6.67 2.42 13.4 4.76 20.1 7.04 3.46-3.52 7.12-6.88 10.96-10.06Zm22.07 7.58-1.65-.56c-6.28-2.14-12.6-4.28-18.9-6.48a140.75 140.75 0 0 0-10.96 10.04l7.85 2.66c4.1 1.39 8.27 2.8 12.44 4.24 3.55-3.48 7.3-6.79 11.22-9.9Zm22.08 7.65c-5.7-2.03-11.46-4.04-17.26-6.01l-3.25-1.11a141.58 141.58 0 0 0-11.28 9.89A1077.86 1077.86 0 0 1 503 186.7c3.7-3.5 7.59-6.81 11.66-9.92Zm21.73 7.98c-6.65-2.52-13.39-5-20.19-7.42-4.1 3.1-8 6.41-11.7 9.9 6.6 2.43 13.2 4.93 19.8 7.5 3.83-3.53 7.87-6.87 12.09-9.98Zm21.33 8.29a1188 1188 0 0 0-19.8-7.72 141.9 141.9 0 0 0-12.17 9.98c6.51 2.54 13.01 5.15 19.49 7.82 3.96-3.57 8.13-6.94 12.48-10.08Zm20.94 8.61c-6.39-2.7-12.87-5.38-19.43-8-4.38 3.12-8.58 6.5-12.55 10.07a1137.13 1137.13 0 0 1 19.12 8.13 146.7 146.7 0 0 1 12.86-10.2Zm20.5 8.93a1056.2 1056.2 0 0 0-19.01-8.3 141.8 141.8 0 0 0-12.92 10.2c6.3 2.76 12.55 5.57 18.77 8.45 4.17-3.69 8.57-7.14 13.15-10.35Zm20.02 9.27c-6.1-2.9-12.28-5.78-18.57-8.61-4.62 3.2-9.04 6.66-13.21 10.34 6.17 2.87 12.31 5.8 18.4 8.78 4.24-3.75 8.71-7.26 13.38-10.51Zm19.56 9.58c-5.74-2.9-11.53-5.74-17.37-8.55l-.77-.36c-4.7 3.24-9.18 6.76-13.42 10.5 6.07 2.98 12.08 6.02 18.06 9.1 4.27-3.81 8.79-7.39 13.5-10.7Zm19.14 9.88c-5.87-3.11-11.78-6.17-17.75-9.18-4.75 3.3-9.27 6.87-13.55 10.68a999.93 999.93 0 0 1 17.73 9.4c4.28-3.88 8.82-7.53 13.57-10.9Zm18.71 10.2a961.55 961.55 0 0 0-17.35-9.48 141.61 141.61 0 0 0-13.62 10.9 961.07 961.07 0 0 1 17.39 9.72c4.27-3.97 8.82-7.7 13.58-11.14ZM480.78 59.77c3.72 4.99 7.82 9.6 12.22 13.88a391.36 391.36 0 0 0 15.82-13.59 112.48 112.48 0 0 1-11.36-15.2 408.93 408.93 0 0 1-16.68 14.91Zm-30.06-.98c-4.86 3.88-10.42 8-16.86 11.34 2.89 4.3 6.06 8.34 9.47 12.13 1.05-.3 2.1-.63 3.15-.98 5.5-1.87 10.54-4.9 15-8.04a110.7 110.7 0 0 1-10.43-14.71l-.33.26Zm-70.04 16.14c1.63 3.15 3.43 6.16 5.34 9.06 6.91-3 14.03-5.44 21.25-7.21a103.38 103.38 0 0 1-8.42-15.91c-2.8.95-5.57 1.87-8.33 2.78-4.32 1.42-8.7 2.87-13.09 4.45 1 2.3 2.07 4.57 3.25 6.83Zm-24.87 2.8a103.47 103.47 0 0 0 9.93 17.07 145.03 145.03 0 0 1 18.62-10.07 103.6 103.6 0 0 1-8.62-16 143.43 143.43 0 0 0-17.3 7.56c-.88.47-1.76.95-2.63 1.44Zm407.77 133.06c3.08-2.34 6.22-4.84 9.41-7.47a997.08 997.08 0 0 0-17.8-9.23 468.88 468.88 0 0 1-6.45 5.25 147.2 147.2 0 0 1-6.27 4.77c5.9 3.05 11.75 6.15 17.56 9.3a144.8 144.8 0 0 0 3.55-2.62Zm-106.53 9.15a151.65 151.65 0 0 0-15.26 9.06 1010.6 1010.6 0 0 1 17.74 9.18c4.89-3.38 10-6.46 15.26-9.21a998.34 998.34 0 0 0-17.74-9.03Zm21.14-8.43c-2.56.72-5.12 1.5-7.68 2.45-3.8 1.4-7.63 3.07-11.49 4.98a1009 1009 0 0 1 17.7 9.02 138.88 138.88 0 0 1 18.64-7.76c-5.67-2.94-11.4-5.83-17.17-8.69Zm43.3-16a77.82 77.82 0 0 1-15.5 8.57c5.8 2.89 11.58 5.82 17.3 8.81.45-.14.9-.28 1.34-.44 5.42-1.83 10.4-4.81 14.81-7.9-5.93-3.06-11.9-6.07-17.94-9.03Zm48.32-14.1a424.51 424.51 0 0 1-13.13 11.44c5.98 3.03 11.92 6.1 17.81 9.24 4.28-3.56 8.7-7.42 13.28-11.58-5.94-3.08-11.93-6.11-17.96-9.1Zm-314.77-87.7c3.74-.85 7.54-1.79 11.3-3.06 2.95-1 5.76-2.34 8.43-3.85a125 125 0 0 1-12.4-12.51 73.5 73.5 0 0 1-17.94 9.18c3.34 3.63 6.9 7.04 10.6 10.24Zm-44.27-16.02-.66.15a110 110 0 0 0 8.36 10.77c3.9-1.25 7.83-2.33 11.8-3.2l1.25-.27c3.25-.7 6.57-1.43 9.89-2.33a113.5 113.5 0 0 1-9.16-11.87 62.77 62.77 0 0 1-10.82 4.13 252.3 252.3 0 0 1-10.66 2.62Zm-14.04 20.05a139.46 139.46 0 0 1 19.88-8.52 113.16 113.16 0 0 1-8.35-10.95 131.87 131.87 0 0 0-15.9 4.51 113.4 113.4 0 0 0-5.65 2.28c3.05 4.5 6.41 8.72 10.02 12.68Zm-18.6 11.56c5.4-3.94 11.07-7.53 16.96-10.7-3.71-4.11-7.06-8.39-10.04-12.82a141.61 141.61 0 0 0-18.5 10.13c3.52 4.8 7.42 9.24 11.59 13.39Zm365.58 92.12c3.3-2.51 6.67-5.19 10.1-8.03-6-3.03-12.05-6.02-18.16-8.95-2.23 1.85-4.48 3.7-6.78 5.53a151.91 151.91 0 0 1-5.73 4.38c6.02 2.96 12 5.97 17.93 9.03.9-.66 1.8-1.32 2.64-1.96Zm-6.57-18.22c6.1 2.93 12.15 5.91 18.16 8.95 4.22-3.53 8.57-7.34 13.08-11.44a1017.07 1017.07 0 0 0-18.3-8.8 421.73 421.73 0 0 1-12.94 11.3Zm-19.93-9.3c6.21 2.81 12.38 5.7 18.52 8.63a418.3 418.3 0 0 0 12.9-11.29 999.4 999.4 0 0 0-18.68-8.46c-4.1 3.72-8.34 7.43-12.74 11.11Zm-20.34-8.98c6.33 2.71 12.64 5.48 18.9 8.32 4.1-3.44 8.32-7.13 12.7-11.11a1077.8 1077.8 0 0 0-19.04-8.13c-4.04 3.65-8.23 7.3-12.56 10.92Zm-20.75-8.64c5.54 2.24 11.06 4.52 16.56 6.84l2.72 1.17c4.05-3.38 8.21-7.01 12.52-10.92-6.37-2.64-12.83-5.25-19.37-7.82-4 3.6-8.15 7.17-12.43 10.72Zm-21.15-8.32c6.56 2.5 13.12 5.08 19.66 7.72 4-3.33 8.12-6.9 12.38-10.73-6.5-2.55-13.07-5.06-19.73-7.53a433.88 433.88 0 0 1-12.3 10.54ZM633.41 140a1108.1 1108.1 0 0 1 20.04 7.39c3.98-3.27 8.06-6.76 12.28-10.53-6.63-2.45-13.32-4.86-20.08-7.23A439.91 439.91 0 0 1 633.4 140Zm-22-7.64a1462 1462 0 0 1 18.67 6.45c.6.2 1.18.42 1.77.63 3.96-3.2 8.02-6.66 12.22-10.36a1299.32 1299.32 0 0 0-15.96-5.48l-4.44-1.5a450 450 0 0 1-12.27 10.26Zm-21.61-7.97-.53.42c5.85 2.03 11.7 4.02 17.47 5.97l3.05 1.04c4-3.18 8.08-6.58 12.3-10.26-6.77-2.3-13.56-4.64-20.31-7.08a453.33 453.33 0 0 1-11.98 9.91Zm-19.87-9.37c-.78.63-1.59 1.26-2.4 1.89a695.93 695.93 0 0 0 20.12 7.34c4.08-3.19 8.26-6.62 12.57-10.33a516.06 516.06 0 0 1-19.76-7.58c-3.43 2.91-6.94 5.81-10.53 8.68Zm-19.87-9.37c-1.09.87-2.21 1.75-3.37 2.63a386.1 386.1 0 0 0 19.24 8.02c4.24-3.25 8.57-6.76 13.05-10.57a317.04 317.04 0 0 1-18.76-8.45c-3.3 2.81-6.7 5.6-10.16 8.37Zm-19.87-9.37c-.94.76-1.92 1.52-2.91 2.28 5.93 3.31 11.95 6.3 17.92 9.04 4.43-3.37 8.96-7.03 13.64-11a219.67 219.67 0 0 1-17.35-9.64 449.2 449.2 0 0 1-11.3 9.32Zm-19.87-9.37-.68.54a185.74 185.74 0 0 0 16.26 10.34c4.64-3.55 9.39-7.4 14.31-11.63a164.47 164.47 0 0 1-15.63-11.13 447.98 447.98 0 0 1-14.26 11.88Zm-16.28-12.26c4.53 4.3 9.36 8.27 14.38 11.93 4.85-3.8 9.84-7.93 15.02-12.47a126.4 126.4 0 0 1-13.64-12.94 436.56 436.56 0 0 1-15.76 13.48Zm-17.63 11.2c3.27-1.97 6.29-4.16 9.02-6.23 2.03-1.54 4.08-3.16 6.16-4.82a119.2 119.2 0 0 1-12.18-13.86 451.4 451.4 0 0 1-8.82 7.23c-2.1 1.69-4.35 3.41-6.74 5.1 3.9 4.51 8.1 8.7 12.56 12.58Zm-67.73 25.72c-1-.84-2-1.68-2.99-2.54a127.08 127.08 0 0 1-9.7-9.42 154.39 154.39 0 0 0-16.88 10.68c4.45 4.33 9.2 8.31 14.15 12a147.3 147.3 0 0 1 15.42-10.72Zm16.15 11.7a163.42 163.42 0 0 1-15.04-10.8 140.85 140.85 0 0 0-15.37 10.67 181.65 181.65 0 0 0 16.24 10.52c4.5-3.73 9.23-7.21 14.17-10.4Zm18.32 10.38a214.96 214.96 0 0 1-17.06-9.58 141.38 141.38 0 0 0-14.14 10.33 246.6 246.6 0 0 0 17.9 9.19c4.23-3.55 8.68-6.87 13.3-9.94Zm20.09 9.23a308.83 308.83 0 0 1-18.69-8.52l-1.67 1.1c-4.03 2.73-7.9 5.67-11.61 8.78a370.79 370.79 0 0 0 19.2 8.1c4.07-3.37 8.34-6.53 12.77-9.47Zm21.44 8.32c-6.71-2.44-13.37-4.99-19.92-7.7l-2.01 1.33a141.7 141.7 0 0 0-10.8 8.1l.52.2a660.72 660.72 0 0 0 19.57 7.18c4.04-3.25 8.27-6.3 12.64-9.1Zm22.35 7.82c-6.91-2.35-13.85-4.74-20.74-7.23a141.07 141.07 0 0 0-12.7 9.07c6.47 2.25 12.94 4.45 19.31 6.6l1.29.44c4.11-3.18 8.4-6.15 12.84-8.88Zm44.85 15.74c-6.79-2.52-13.66-5-20.6-7.43a141.52 141.52 0 0 0-13.37 8.75c6.72 2.4 13.46 4.88 20.2 7.43 4.42-3.17 9.03-6.1 13.77-8.75Zm21.78 8.3c-6.65-2.6-13.37-5.18-20.17-7.7a156.74 156.74 0 0 0-13.82 8.73c6.6 2.51 13.21 5.1 19.8 7.75 4.56-3.19 9.3-6.12 14.2-8.77Zm21.3 8.62c-6.48-2.7-13.05-5.36-19.7-7.99a153.75 153.75 0 0 0-13.17 8c-.37.24-.73.5-1.1.76 5.97 2.4 11.93 4.86 17.87 7.38l1.52.65c4.69-3.21 9.56-6.16 14.58-8.8Zm20.78 8.9c-6.33-2.8-12.75-5.54-19.25-8.26a152.94 152.94 0 0 0-14.54 8.73l-.09.06c6.37 2.72 12.7 5.5 18.98 8.33 4.79-3.25 9.77-6.2 14.9-8.86Zm20.22 9.19c-6.14-2.88-12.39-5.72-18.72-8.53-4.96 2.56-9.94 5.51-14.93 8.86 6.22 2.81 12.4 5.7 18.53 8.62 4.86-3.29 9.91-6.28 15.12-8.96Zm8.06 3.8a920.88 920.88 0 0 0-6.6-3.12 151.08 151.08 0 0 0-15.14 8.95c6.08 2.92 12.12 5.88 18.12 8.9 4.88-3.32 9.98-6.35 15.23-9.06-3.85-1.9-7.72-3.8-11.6-5.66Zm23.32-7.33c-2.9-1.4-5.83-2.78-8.78-4.15a98.37 98.37 0 0 0-7.92 2.51c-3.7 1.37-7.45 3-11.22 4.84 6.1 2.88 12.16 5.82 18.18 8.8a138.34 138.34 0 0 1 18.69-7.66 961.13 961.13 0 0 0-8.95-4.34Zm45.97-14.68c-3.82-1.84-7.7-3.65-11.6-5.46a78.26 78.26 0 0 1-15.3 8.5c6 2.83 11.96 5.72 17.88 8.65l.47-.16c5.63-1.9 10.78-5.04 15.32-8.26-2.25-1.1-4.5-2.19-6.77-3.27ZM490.46 77.53a115.4 115.4 0 0 1-13.02 9.2c4.6 3.93 9.45 7.55 14.44 10.9 4.98-2.47 9.5-5.67 13.42-8.65l1.64-1.27a148.73 148.73 0 0 1-10.08-8.04 130.04 130.04 0 0 1-4.24-3.88l-2.16 1.74Zm-49.16 6.9c-3.58 1-7.18 1.83-10.66 2.63-3.65.84-7.37 1.7-11.12 2.75 3.5 3.88 7.22 7.5 11.14 10.9a130.58 130.58 0 0 1 19.47-5.93l1.3-.28 1.41-.3a126.5 126.5 0 0 1-10.3-10.13l-1.25.37ZM456.56 95c4 3.34 8.18 6.47 12.47 9.38l.96-.23 1.24-.27c4.9-1.06 9.97-2.17 14.97-3.86 1.3-.44 2.55-.94 3.79-1.5a154.97 154.97 0 0 1-14.22-10.84 65.18 65.18 0 0 1-14.62 6.13c-1.53.42-3.06.81-4.59 1.19Zm-46.24 15.58c5.93-3.48 12.1-6.55 18.43-9.12a125.65 125.65 0 0 1-11.15-11.1c-1.8.55-3.6 1.13-5.39 1.8-4.8 1.77-9.68 3.96-14.58 6.55a131.1 131.1 0 0 0 12.7 11.87Zm313.52 81.47c3.4-2.59 6.86-5.34 10.4-8.28a966.64 966.64 0 0 0-18.55-8.62c-2.2 1.82-4.43 3.64-6.7 5.45a151.76 151.76 0 0 1-5.64 4.31c6.15 2.86 12.27 5.77 18.34 8.74l2.15-1.6Zm-85.65.8c-2.47.69-4.95 1.46-7.43 2.37-3.8 1.4-7.63 3.07-11.5 4.98 6.27 2.8 12.5 5.64 18.69 8.55a138.23 138.23 0 0 1 18.6-7.6 998.96 998.96 0 0 0-18.36-8.3Zm-128.76-84.77c5.55-2.41 10.58-5.86 14.93-9.13a183.96 183.96 0 0 1-16.21-10.34 96.61 96.61 0 0 1-15.07 9.82 202.5 202.5 0 0 0 16.35 9.65Zm-63.83 4.02c6.85-2.97 13.9-5.4 21.06-7.16a154.6 154.6 0 0 1-12.28-9.42l-3.88.9c-6.02 1.4-12.23 2.82-18.42 5.1l-.32.13c4.42 3.76 9.05 7.23 13.84 10.45Zm243.53 59.13a151.1 151.1 0 0 1-5.98 4.56c6.28 2.75 12.53 5.57 18.74 8.44l2.08-1.55c3.36-2.56 6.78-5.28 10.28-8.18-6.22-2.8-12.54-5.57-18.94-8.3-2.03 1.68-4.1 3.36-6.18 5.03Zm-19.87-9.37c-2.12 1.7-4.38 3.43-6.77 5.12a1125.63 1125.63 0 0 1 19.16 8.15 310.28 310.28 0 0 0 12.2-9.56c-6.36-2.7-12.8-5.37-19.31-8-1.74 1.44-3.5 2.87-5.28 4.3Zm-19.87-9.37a137.64 137.64 0 0 1-8.03 6 1150.5 1150.5 0 0 1 19.6 7.87c1.13-.81 2.22-1.63 3.27-2.42 2.89-2.2 5.82-4.53 8.8-6.97-6.47-2.6-13.03-5.17-19.66-7.7a456.35 456.35 0 0 1-3.98 3.22Zm-19.87-9.37a128.36 128.36 0 0 1-9.78 7.18c6.69 2.45 13.39 4.98 20.08 7.58 1.59-1.1 3.1-2.22 4.54-3.31 2.46-1.87 4.95-3.83 7.48-5.88-6.61-2.5-13.3-4.97-20.06-7.4l-2.26 1.83Zm-19.87-9.37c-3.62 2.9-7.65 5.92-12.13 8.66a1132.25 1132.25 0 0 1 20.65 7.31c2.25-1.48 4.36-3.03 6.33-4.52 1.88-1.44 3.79-2.93 5.72-4.47a1279.1 1279.1 0 0 0-19-6.64l-1.4-.47c-.05.04-.1.09-.17.13Zm-34.82.94c3.35 1.15 6.7 2.28 10 3.4 3.66 1.24 7.38 2.5 11.1 3.78 3.14-1.92 6.05-4.03 8.7-6.04 1.18-.9 2.38-1.83 3.57-2.77l-3.45-1.17c-5.68-1.93-11.38-3.86-17.08-5.84-3.84 2.97-8.1 6-12.84 8.64Zm-22.54-7.96a932.67 932.67 0 0 0 20.93 7.41 91.85 91.85 0 0 0 11.54-7.68l1.27-.99a685.8 685.8 0 0 1-20.13-7.35 91.24 91.24 0 0 1-13.61 8.61Zm-21.58-8.53a422.88 422.88 0 0 0 19.96 7.94c5.06-2.4 9.65-5.6 13.66-8.63a380.95 380.95 0 0 1-19.24-8.05 86.5 86.5 0 0 1-14.38 8.74Zm-19.87-9.37c6.1 3.18 12.25 6.06 18.3 8.69 5.35-2.3 10.22-5.58 14.46-8.74a252.63 252.63 0 0 1-17.88-9.06 87.5 87.5 0 0 1-14.88 9.1Zm-39.9-3.17c4.83 3.19 9.8 6.13 14.8 8.84 1.37-.34 2.74-.67 4.12-.97l1.28-.29c4.9-1.06 9.95-2.16 14.93-3.85.42-.14.82-.3 1.23-.45a199.54 199.54 0 0 1-16.08-9.6 62.44 62.44 0 0 1-10.2 3.84 239.7 239.7 0 0 1-10.07 2.48Zm-27.28 7.3a154.7 154.7 0 0 1-13.82-10.56 130.6 130.6 0 0 0-18.4 9.07c4.81 3.88 9.86 7.44 15.05 10.72a144.82 144.82 0 0 1 17.17-9.22Zm17.4 10.52c-5.58-3.01-11-6.23-16.18-9.7a139.83 139.83 0 0 0-17.11 9.21 217.22 217.22 0 0 0 17.06 9.54 145.43 145.43 0 0 1 16.23-9.05Zm19.58 9.5a276.34 276.34 0 0 1-18.2-8.75 143.52 143.52 0 0 0-16.2 9 310.3 310.3 0 0 0 18.73 8.49 145.32 145.32 0 0 1 15.67-8.73Zm21.39 8.66a429.3 429.3 0 0 1-19.86-7.98 143.22 143.22 0 0 0-15.67 8.69 463.7 463.7 0 0 0 20.01 7.7c5-3.12 10.2-5.93 15.52-8.4Zm22.67 8.1a880.75 880.75 0 0 1-21.02-7.48 139.5 139.5 0 0 0-15.55 8.37c6.91 2.5 13.89 4.9 20.79 7.24 5.1-3.03 10.37-5.76 15.78-8.13Zm23.26 7.94-4.6-1.58-6.46-2.2-10.42-3.55a133.6 133.6 0 0 0-15.9 8.08l4.96 1.69c5.29 1.78 10.69 3.62 16.07 5.48a142.62 142.62 0 0 1 16.35-7.92Zm22.96 8.16c-6.96-2.55-14-5.06-21.1-7.52a126.83 126.83 0 0 0-16.56 7.85 930.36 930.36 0 0 1 20.68 7.43c5.5-2.96 11.18-5.57 16.98-7.76Zm22.4 8.44c-6.76-2.62-13.6-5.2-20.5-7.75-.56.2-1.11.38-1.66.59a123.07 123.07 0 0 0-15.6 7.09c6.73 2.5 13.47 5.1 20.19 7.75 5.7-2.97 11.57-5.54 17.56-7.68Zm21.74 8.71c-6.51-2.68-13.12-5.33-19.8-7.94a88.9 88.9 0 0 0-4.24 1.44c-4.51 1.66-9.09 3.7-13.7 6.09 6.6 2.6 13.16 5.28 19.7 8.02 5.85-2.97 11.89-5.51 18.04-7.6Zm21.1 8.97a1082.9 1082.9 0 0 0-19.08-8.13c-2.06.6-4.13 1.26-6.19 2.02-4.06 1.5-8.18 3.32-12.32 5.4.98.41 1.96.81 2.93 1.23 5.45 2.3 10.87 4.66 16.26 7.05a138.25 138.25 0 0 1 18.4-7.57Zm24.58-23.77a75.26 75.26 0 0 1-15.37 8.16l3.43 1.44a1039.8 1039.8 0 0 1 15.6 6.75l.62-.2c5.48-1.85 10.5-4.88 14.95-8-6.33-2.75-12.74-5.47-19.23-8.15Zm-197.68-45.64c6.57-3 13.33-5.49 20.2-7.38-5.07-2.8-9.99-5.77-14.72-8.95-5.44 1.26-11.03 2.62-16.6 4.67-1.68.63-3.38 1.32-5.09 2.05a201.24 201.24 0 0 0 16.21 9.61Zm27.17-7.38-2.26.52c5.73 3.03 11.5 5.78 17.21 8.3 1.51-.4 3.03-.76 4.55-1.1l1.26-.27c4.9-1.07 9.96-2.17 14.95-3.87l.93-.33a278.21 278.21 0 0 1-18.07-8.67 61.1 61.1 0 0 1-7.91 2.8c-3.58.99-7.18 1.82-10.66 2.62Zm133.63 52.41a1134.1 1134.1 0 0 1 19.56 7.95c.58-.18 1.15-.36 1.73-.56 5.12-1.73 9.85-4.49 14.08-7.4-6.48-2.66-13.05-5.28-19.69-7.86a72.22 72.22 0 0 1-15.68 7.87Zm-22.34-8.57c6.72 2.5 13.44 5.08 20.16 7.72a55.92 55.92 0 0 0 16.34-7.62c-6.65-2.58-13.38-5.1-20.18-7.6a68.42 68.42 0 0 1-16.32 7.5Zm-21.16-8.98-2.26.6a1096.87 1096.87 0 0 1 20.95 7.48 88.81 88.81 0 0 0 6.36-1.88 53 53 0 0 0 10.88-5.3c-6.84-2.5-13.74-4.95-20.72-7.37a65.66 65.66 0 0 1-15.2 6.47Zm-19.87-9.37c-2.23.62-4.48 1.17-6.7 1.7a3960 3960 0 0 0 9.06 3.07 3257 3257 0 0 1 12.48 4.24c3.39-.78 6.82-1.65 10.21-2.8 2.95-1 5.77-2.34 8.44-3.86l-4.64-1.6-6.47-2.19-10.08-3.43a63.73 63.73 0 0 1-12.3 4.87Zm-19.86-9.37c-3.58.99-7.18 1.82-10.66 2.62l-.06.01a914.87 914.87 0 0 0 20.91 7.42c4.87-1.06 9.9-2.16 14.86-3.84 1.87-.64 3.69-1.41 5.45-2.28a896.28 896.28 0 0 1-20.98-7.45c-3 1.38-6.16 2.59-9.52 3.52Zm-19.87-9.37c-3.58.99-7.18 1.82-10.66 2.62l-2.4.55a412.09 412.09 0 0 0 19.35 7.77l2.54-.6 1.29-.28c4.89-1.06 9.94-2.16 14.93-3.85.89-.3 1.77-.64 2.63-1a433.98 433.98 0 0 1-19.87-7.97c-2.49 1.07-5.08 2-7.81 2.76Zm-18.25 2.78a268.16 268.16 0 0 1-17.14-8.4 119.35 119.35 0 0 0-13.55 3.97c-2.44.9-4.9 1.9-7.37 3.02a277.7 277.7 0 0 0 18.29 8.72 135.52 135.52 0 0 1 19.77-7.31Zm21.65 8.9a412.96 412.96 0 0 1-19.26-7.84c-4.37 1.05-8.8 2.24-13.22 3.87-2.45.91-4.92 1.93-7.4 3.05a421.97 421.97 0 0 0 19.95 7.96 134.39 134.39 0 0 1 19.93-7.04Zm23.53 8.45a844.8 844.8 0 0 1-20.8-7.43 128.37 128.37 0 0 0-15.34 4.38c-1.86.7-3.74 1.46-5.62 2.27a923.37 923.37 0 0 0 21.1 7.48c6.74-2.8 13.65-5.06 20.66-6.7Zm21.64 8.95 1.24-.27c.52-.1 1.04-.22 1.55-.34l-4.77-1.64a6912.23 6912.23 0 0 0-16.67-5.67l-.84.2c-6.02 1.38-12.23 2.81-18.42 5.1-.85.31-1.71.65-2.57 1l10.02 3.4c3.8 1.29 7.68 2.6 11.56 3.93a130.3 130.3 0 0 1 18.9-5.7Zm19.87 9.37 1.28-.28c1.8-.39 3.63-.79 5.46-1.22-6.9-2.53-13.86-5.03-20.9-7.47l-5.34 1.25c-5.66 1.3-11.51 2.66-17.35 4.72a1075.28 1075.28 0 0 1 21.17 7.52c5.15-1.84 10.4-3.36 15.68-4.52Zm19.87 9.37 1.26-.27c2.77-.6 5.6-1.23 8.44-1.96-6.66-2.6-13.39-5.15-20.2-7.67-3.03.8-6.06 1.5-9 2.18-4.59 1.05-9.3 2.14-14.03 3.61 6.8 2.5 13.6 5.1 20.4 7.75 4.32-1.44 8.7-2.67 13.13-3.64Zm19.86 9.37 1.3-.28a191.7 191.7 0 0 0 10.47-2.5c-6.43-2.66-12.95-5.29-19.54-7.88l-1.06.32c-3.58.99-7.18 1.82-10.66 2.62-3.74.86-7.55 1.74-11.39 2.83 6.56 2.57 13.1 5.21 19.61 7.92 3.73-1.18 7.49-2.2 11.27-3.03Zm19.87 9.37 1.24-.27c3.86-.84 7.83-1.7 11.78-2.87-6.22-2.73-12.54-5.43-18.94-8.1-.96.32-1.92.62-2.91.9-3.58.99-7.18 1.82-10.66 2.62-3.11.71-6.27 1.44-9.46 2.3l4.97 2.08c4.65 1.96 9.28 3.97 13.9 6 3.33-1.02 6.7-1.92 10.08-2.66Zm19.87 9.37 1.24-.27c4.02-.87 8.16-1.78 12.27-3.01-6.02-2.81-12.13-5.59-18.34-8.33-1.3.46-2.64.89-4 1.27-3.58.99-7.18 1.81-10.66 2.62-2.72.62-5.49 1.26-8.27 1.98 6.08 2.7 12.13 5.45 18.14 8.26a127 127 0 0 1 9.62-2.52Zm16.21-4.14c5.65-1.91 10.82-5.06 15.37-8.3-6.17-2.84-12.44-5.65-18.8-8.42a77.57 77.57 0 0 1-15.24 8.36c6.19 2.76 12.34 5.57 18.46 8.44l.21-.08Zm3.66 13.51 1.29-.28c3.93-.86 7.98-1.74 12-2.94a994.08 994.08 0 0 0-17.7-8.53c-1.44.52-2.91.99-4.43 1.4-3.58 1-7.18 1.82-10.66 2.63-2.58.59-5.2 1.2-7.84 1.87 5.88 2.76 11.72 5.57 17.52 8.43 3.25-.99 6.52-1.86 9.82-2.58Zm-172.2-31.7c4.26-3.16 8.7-6.1 13.28-8.77-3.18-1.12-6.37-2.22-9.57-3.31l-6.47-2.2-4.9-1.66a141.72 141.72 0 0 0-12.95 8.84 1582.97 1582.97 0 0 1 20.62 7.1Zm192.07 41.07 1.26-.27c3.66-.8 7.42-1.62 11.17-2.69a997.6 997.6 0 0 0-17.13-8.7c-1.35.48-2.73.93-4.14 1.32-3.58.99-7.18 1.81-10.66 2.62-2.68.61-5.4 1.25-8.14 1.95 5.7 2.82 11.35 5.7 16.96 8.6 3.53-1.1 7.1-2.04 10.68-2.83Zm19.86 9.37 1.3-.28c3.15-.69 6.37-1.4 9.6-2.26a993.72 993.72 0 0 0-16.47-8.82c-1.07.37-2.15.71-3.26 1.02-3.58.99-7.18 1.81-10.66 2.62-3 .69-6.04 1.39-9.1 2.2 5.54 2.9 11.04 5.84 16.5 8.82 4-1.3 8.03-2.4 12.1-3.3ZM419.45 52.63a173.16 173.16 0 0 1-18.9 7.65 102.4 102.4 0 0 0 8.58 16.06l1.27-.3 1.26-.27c4.9-1.07 9.96-2.17 14.95-3.86 1.7-.58 3.34-1.27 4.94-2.03a103.04 103.04 0 0 1-9.6-18.5l-2.5 1.25Zm-85.41 36.99c.25.5.53.98.8 1.47 4.3-3.81 8.92-7.4 13.84-10.68a94.18 94.18 0 0 1 4.96-3.1 98.09 98.09 0 0 1-6.2-18.87c-2.57 2-5.12 4.15-7.65 6.48a139.4 139.4 0 0 0-11.36 11.8c1.54 4.37 3.4 8.67 5.6 12.9Zm-17.88 13.17c.92 1.77 1.9 3.5 2.92 5.19a117.74 117.74 0 0 1 14.37-15.66c-2.5-4.54-4.61-9.21-6.36-14-5 5.97-9.56 12.22-13.8 18.47.89 2.02 1.84 4.02 2.87 6Zm700.99 199.5c.3.27.25.73-.12 1.08-.4.37-.93.44-1.25.15-48-43.58-102.94-82.5-163.86-116.13-3.4 3.6-6.86 7.15-10.4 10.65a961.9 961.9 0 0 1 13.97 8.04c51.43 30.22 98.87 64.94 141.01 103.2.3.29.25.74-.12 1.1-.4.37-.93.43-1.24.14-45.65-41.44-97.58-78.68-154.97-111.16l-2.11 2.07a384.53 384.53 0 0 1-9.88 9.21c1.77 1.03 3.55 2.06 5.31 3.1 51.43 30.21 98.87 64.93 141.01 103.2.3.27.25.73-.12 1.09-.4.37-.93.43-1.25.14-43.36-39.37-92.4-74.94-146.39-106.24a436.14 436.14 0 0 1-13.78 11.78c50.33 29.83 96.81 63.96 138.18 101.52.3.28.25.74-.12 1.1-.4.36-.93.43-1.25.14-41.19-37.4-87.51-71.38-138.33-101.52l-3.1 2.5a124.85 124.85 0 0 1-10.49 7.63c47.74 28.85 91.91 61.61 131.42 97.48.3.28.25.74-.13 1.1-.39.36-.92.43-1.24.14-39.42-35.8-83.55-68.45-131.81-97.62a67.03 67.03 0 0 1-17.04 7.55l-.72.19c46.79 28.49 90.12 60.72 128.95 95.98.3.27.25.73-.13 1.09-.39.37-.92.43-1.24.14-38.95-35.36-82.49-67.66-130.07-96.56-2.5.64-5 1.21-7.45 1.78a174.73 174.73 0 0 0-15.44 4.06c47.33 28.7 91.13 61.23 130.34 96.83.3.28.25.74-.12 1.1-.4.36-.93.43-1.24.14-39.28-35.66-83.21-68.2-131.26-97.28l-.7.24a124.92 124.92 0 0 0-17.43 8.1c46.21 28.26 89.03 60.17 127.43 95.05.19.16.25.4.16.66-.1.31-.41.6-.77.71-.29.09-.56.04-.75-.14-38.36-34.82-81.16-66.68-127.9-95.24a140.9 140.9 0 0 0-15.02 9.86c44 27.37 84.84 58.08 121.63 91.48.3.28.25.74-.12 1.09-.4.37-.93.44-1.25.15-36.7-33.33-77.47-63.93-121.86-91.52-4.76 3.65-9.25 7.6-13.46 11.77a840.76 840.76 0 0 1 112.7 85.86c.3.28.26.73-.12 1.09-.4.37-.93.43-1.24.15-34.16-31.02-71.84-59.67-112.68-85.74a133.6 133.6 0 0 0-12.35 14.52 839.43 839.43 0 0 1 108.52 83.16c.3.27.25.73-.12 1.08-.4.38-.93.44-1.25.15-32.91-29.88-69.1-57.58-108.24-82.88l-1.27-.82a908.1 908.1 0 0 0-17.03-10.72l-1.29-.78a930.55 930.55 0 0 0-17.28-10.3l-1.31-.76a953.91 953.91 0 0 0-17.53-9.93l-1.33-.72a969.37 969.37 0 0 0-17.82-9.56l-1.34-.7a1010.6 1010.6 0 0 0-18.1-9.2l-1.37-.68a1004.53 1004.53 0 0 0-18.36-8.84l-1.4-.65a996.78 996.78 0 0 0-18.67-8.48l-1.42-.63c-6.23-2.74-12.56-5.44-18.96-8.12l-1.43-.59c-6.33-2.63-12.73-5.22-19.22-7.78l-1.45-.57c-6.41-2.52-12.9-5-19.46-7.45l-1.47-.56c-6.5-2.4-13.06-4.77-19.68-7.1l-1.49-.53a1286.62 1286.62 0 0 0-18.1-6.23l-1.74-.6-1.5-.5c-6.58-2.23-13.19-4.5-19.77-6.83l-1.5-.53a574.09 574.09 0 0 1-19.41-7.3l-1.44-.57a342.1 342.1 0 0 1-18.82-8.2l-1.38-.66a232.97 232.97 0 0 1-17.93-9.55l-1.3-.79c-5.82-3.5-11.39-7.29-16.67-11.4l-1.18-.92a126.88 126.88 0 0 1-14.81-13.65l-1.03-1.13a113.02 113.02 0 0 1-11.82-15.56l-.85-1.36a103.24 103.24 0 0 1-5.82-11l-.7-1.57a97.67 97.67 0 0 1-7.8-31.7l-.12-1.86c-1.23-25.1 7.75-53.9 25.08-79.9.12-.18.27-.3.43-.38a.88.88 0 0 1 .77 0c.33.16.5.58.2 1.04-13.24 19.85-21.57 41.28-24.12 61.98a98.19 98.19 0 0 0-.67 15.72c4.58-4.06 9.94-8.07 16.16-12.12-1.09-24.99 7.9-53.58 25.1-79.42.13-.18.28-.3.44-.38a.87.87 0 0 1 .76 0c.33.17.5.58.2 1.05-13.23 19.85-21.57 41.28-24.12 61.97a98.07 98.07 0 0 0-.67 15.68l.44-.28c6.79-4.3 14.02-8.51 21.78-12.72.63-23.3 9.48-49.13 25.16-72.67.12-.18.27-.3.43-.37a.87.87 0 0 1 .77-.01c.33.17.5.59.2 1.05-13.24 19.85-21.57 41.28-24.12 61.97a99.9 99.9 0 0 0-.69 9.08 516.74 516.74 0 0 1 21.12-10.7c1.53-22.14 10.22-46.25 24.95-68.35.12-.18.27-.3.42-.38a.88.88 0 0 1 .77 0c.33.16.5.58.2 1.04C381.24-23.83 372.9-2.4 370.35 18.3c-.2 1.63-.35 3.26-.47 4.88l2.38-1.13c6.2-2.91 12.58-5.52 19.4-7.93 2-21.44 10.58-44.55 24.74-65.8.11-.18.26-.3.43-.38a.92.92 0 0 1 .36-.1c.29 0 .55.12.67.35.14.23.1.52-.07.8-13.23 19.84-21.57 41.27-24.12 61.97l-.27 2.55 1.21-.42 2.45-.82c6.2-2.09 12.57-4.25 18.75-7.21 2.29-20.95 10.79-43.4 24.57-64.1.12-.17.27-.3.43-.37a.88.88 0 0 1 .77 0c.33.16.5.58.2 1.04-13.24 19.86-21.58 41.29-24.13 61.98l-.05.57c.77-.39 1.54-.79 2.31-1.21 7.41-4.1 13.8-9.58 19.52-15.68 3.6-17.85 11.42-36.37 22.94-53.65.12-.18.27-.3.43-.38a.88.88 0 0 1 .76 0c.34.16.51.58.2 1.04-10.8 16.22-18.35 33.5-22.14 50.57 6.79-7.68 12.6-16.18 18.04-24.12l.1-.14c.12-.18.27-.3.42-.37a.88.88 0 0 1 .78 0c.33.17.5.59.18 1.04l-.2.3c-5.86 8.56-12.25 17.87-19.9 26.13-.58 2.87-1.05 5.72-1.4 8.57a97.54 97.54 0 0 0-.55 18.2 154.56 154.56 0 0 0 20.05-17.05c.97-22.9 9.76-48.1 25.1-71.13.12-.18.27-.3.43-.37a.88.88 0 0 1 .77 0c.33.16.5.58.2 1.04-13.24 19.85-21.57 41.28-24.12 61.98a99.76 99.76 0 0 0-.59 6.64A150.05 150.05 0 0 0 479.07-27a.59.59 0 0 1 .24-.23c.16-.08.3-.02.33 0 .59.29-1.3 3.34-1.31 3.37A138.95 138.95 0 0 1 460.82-2a94.2 94.2 0 0 0 2.4 24.47c7-5.94 13.62-12.3 19.73-19.03l-.03-.24c-2.88-26.28 6.12-57.33 24.68-85.18.12-.18.26-.3.42-.38a.88.88 0 0 1 .77 0c.33.17.5.58.2 1.05-13.23 19.85-21.57 41.28-24.12 61.97-.88 7.1-.97 14.1-.32 21 7.77-8.76 14.7-18.1 20.55-27.81 2.38-20.78 10.85-43 24.5-63.48.11-.17.26-.3.43-.38a.92.92 0 0 1 .36-.09c.29-.01.55.12.67.34.14.23.11.52-.07.8-12.8 19.2-21 39.88-23.83 59.94.08-.02.15-.06.24-.07.3-.02.56.08.69.27.13.2.12.45-.03.7l-1.3 2.19a95.66 95.66 0 0 0 .82 27.59 396.92 396.92 0 0 0 17.47-22.25c-.18-24.17 8.75-51.36 25.2-76.05.11-.18.26-.3.42-.37a.88.88 0 0 1 .77 0c.33.16.5.58.2 1.04C538.4-76.13 530.06-54.7 527.51-34a99.1 99.1 0 0 0-.74 11.02l.8-1.12c.12-.16.27-.29.43-.36.13-.06.26-.1.4-.1.3 0 .54.14.66.36.12.23.08.52-.1.78l-2.17 3a93.9 93.9 0 0 0 4.37 26.97 396.6 396.6 0 0 0 16.29-21.28c.1-.16.26-.29.42-.36.13-.06.26-.1.4-.1.29 0 .54.14.66.36.12.23.08.52-.11.78a390.13 390.13 0 0 1-17.11 22.27 100.8 100.8 0 0 0 9.1 19.68 397.16 397.16 0 0 0 26.5-33.26c.12-.16.26-.29.43-.36.13-.06.26-.1.4-.1.29 0 .54.14.65.36.13.23.09.52-.1.78a396.77 396.77 0 0 1-27.1 33.89c3.53 5.72 7.56 11 11.97 15.87A397.57 397.57 0 0 0 587.2 4c.11-.16.26-.29.43-.36.12-.06.26-.1.4-.1.28 0 .53.14.65.36.13.23.09.52-.1.78a400.43 400.43 0 0 1-34.01 41.44c4.42 4.77 9.2 9.15 14.24 13.19a397.33 397.33 0 0 0 38.26-45.94c.12-.18.27-.3.42-.37a.89.89 0 0 1 .8.01c.32.18.48.6.15 1.04a402.46 402.46 0 0 1-38.5 46.16 169.27 169.27 0 0 0 16.11 11.15 397.19 397.19 0 0 0 40.89-48.62c.11-.16.26-.29.42-.36.13-.06.26-.1.4-.1.3 0 .54.14.66.36.12.23.08.52-.1.78a403.66 403.66 0 0 1-41 48.71c5.8 3.5 11.73 6.66 17.66 9.55a397.2 397.2 0 0 0 41.83-49.57c.12-.17.26-.3.42-.37a.89.89 0 0 1 .8 0c.32.19.47.6.15 1.05a404.26 404.26 0 0 1-41.82 49.57c6.36 3.05 12.7 5.8 18.87 8.3a397.18 397.18 0 0 0 41.44-49.18c.12-.16.26-.29.43-.36.13-.07.26-.1.4-.1.29 0 .54.14.65.36.13.23.09.52-.1.78a403.9 403.9 0 0 1-41.36 49.1 496.01 496.01 0 0 0 19.71 7.45 397.1 397.1 0 0 0 40.14-47.86c.12-.16.26-.29.43-.36.12-.06.26-.1.4-.1.28 0 .53.14.65.36.13.23.09.52-.1.78a403.57 403.57 0 0 1-40.02 47.72c6.73 2.4 13.5 4.7 20.18 6.98a397.09 397.09 0 0 0 38.33-46.01c.12-.18.27-.3.42-.37a.89.89 0 0 1 .8.01c.32.18.48.6.15 1.04a402.43 402.43 0 0 1-38.18 45.84l3.14 1.07c5.62 1.9 11.37 3.85 17.09 5.83a397.25 397.25 0 0 0 36.45-44.05c.11-.16.26-.29.42-.36.13-.06.27-.1.4-.1.29 0 .54.14.66.36.12.23.08.52-.1.78a401.36 401.36 0 0 1-36.33 43.9 983.42 983.42 0 0 1 19.95 7.18 397.06 397.06 0 0 0 34.87-42.4c.12-.17.26-.28.42-.36a.88.88 0 0 1 .8 0c.32.19.47.6.15 1.05a400.76 400.76 0 0 1-34.77 42.25c6.54 2.44 13.09 4.95 19.62 7.53A397.26 397.26 0 0 0 766 88.33c.12-.15.26-.28.43-.36.13-.06.26-.09.4-.09.29 0 .54.14.65.36.13.23.09.52-.1.78A400.26 400.26 0 0 1 733.8 130c6.46 2.55 12.9 5.17 19.32 7.84a397.25 397.25 0 0 0 32.75-40.13c.12-.16.26-.29.43-.37.12-.06.26-.09.4-.09.29 0 .54.14.65.36.13.23.09.52-.1.78a399.98 399.98 0 0 1-32.71 40.05l4.14 1.74c4.98 2.1 9.94 4.25 14.87 6.43a397.4 397.4 0 0 0 32.19-39.54c.12-.17.27-.28.42-.36a.88.88 0 0 1 .8 0c.32.19.47.6.15 1.05a399.37 399.37 0 0 1-32.16 39.47c6.26 2.78 12.5 5.62 18.68 8.52a396.99 396.99 0 0 0 31.98-39.3c.12-.18.26-.3.42-.37a.89.89 0 0 1 .8 0c.32.19.47.6.15 1.05a398.96 398.96 0 0 1-31.97 39.26c6.17 2.9 12.3 5.85 18.38 8.85a397.27 397.27 0 0 0 32.09-39.43c.12-.17.26-.28.42-.36a.88.88 0 0 1 .8 0c.32.19.47.6.15 1.05a399.28 399.28 0 0 1-32.11 39.41c6.06 3.01 12.09 6.07 18.06 9.18a397.1 397.1 0 0 0 32.54-39.9c.12-.16.26-.29.43-.37.12-.06.26-.09.4-.09.29 0 .54.14.65.36.13.23.09.51-.1.78a399.65 399.65 0 0 1-32.59 39.92c5.97 3.12 11.89 6.3 17.75 9.52a397.52 397.52 0 0 0 33.33-40.75c.12-.16.26-.29.43-.37.12-.06.26-.09.4-.09.28 0 .54.14.65.36.12.23.08.51-.1.78a400.1 400.1 0 0 1-33.4 40.78c7.74 4.27 15.4 8.62 22.95 13.06 51.43 30.22 98.87 64.94 141.01 103.2Z" fill="#005F9C"/><path d="M712.97 250.01a155.77 155.77 0 0 0-15.17 9.6c5.6 3.3 11.14 6.65 16.63 10.05 4.79-3.58 9.8-6.89 14.99-9.87a924.31 924.31 0 0 0-16.45-9.78Zm20.38-9.05c-1.08.35-2.16.72-3.24 1.11a122.88 122.88 0 0 0-15.26 6.92c1.37.8 2.75 1.59 4.11 2.4 4.13 2.42 8.23 4.89 12.3 7.37a141.8 141.8 0 0 1 18-8.41 936.4 936.4 0 0 0-15.91-9.39Zm35.9 3.47c1.54-.33 3.1-.67 4.66-1.03-5-3.02-10.03-6-15.12-8.94-3.45.94-6.91 1.74-10.26 2.52-4.2.96-8.5 1.96-12.8 3.24a930.06 930.06 0 0 1 15.76 9.3c5.43-1.97 10.95-3.6 16.53-4.82l1.24-.27Zm8.89-18.82a70.27 70.27 0 0 1-16.92 8.14l5.05 2.94c3.42 2.01 6.82 4.05 10.21 6.1a93.92 93.92 0 0 0 7.75-2.23 52.57 52.57 0 0 0 10.61-5.13 932.5 932.5 0 0 0-16.7-9.82Zm14.95-11.27a457.5 457.5 0 0 1-4.61 3.74c-2.66 2.12-5.53 4.3-8.63 6.4a956.43 956.43 0 0 1 16.73 9.84c2.4-1.56 4.65-3.21 6.74-4.8 2.24-1.7 4.52-3.49 6.82-5.34a946.88 946.88 0 0 0-17.05-9.84Zm29.58-26.68a982.1 982.1 0 0 1 17.53 9.63c3.54-3.47 7-7.01 10.41-10.62a981.01 981.01 0 0 0-17.75-9.53 422.04 422.04 0 0 1-10.2 10.52Zm-19.2-10.04c6 3.06 11.95 6.16 17.86 9.32 3.47-3.43 6.87-6.93 10.21-10.5-5.96-3.1-12-6.16-18.07-9.18-3.26 3.5-6.6 6.96-10 10.36Zm-19.55-9.69c6.1 2.95 12.16 5.95 18.18 9 3.4-3.38 6.74-6.83 10.02-10.34a1033.84 1033.84 0 0 0-18.37-8.85 424.5 424.5 0 0 1-9.83 10.2ZM764 158.6c6.2 2.84 12.39 5.72 18.52 8.67a397 397 0 0 0 9.84-10.17c-6.14-2.87-12.38-5.7-18.7-8.5a422.38 422.38 0 0 1-9.66 10Zm-20.26-8.97c6.32 2.71 12.6 5.5 18.85 8.33 3.28-3.27 6.5-6.6 9.67-9.98-6.25-2.75-12.6-5.47-19.03-8.15-3.1 3.3-6.27 6.57-9.49 9.8ZM723.14 141c4.98 2.03 9.95 4.09 14.9 6.18 1.43.6 2.85 1.22 4.27 1.83 3.22-3.2 6.4-6.46 9.51-9.77-6.37-2.65-12.8-5.26-19.33-7.84a422.03 422.03 0 0 1-9.35 9.6Zm-20.97-8.28c6.51 2.5 13.01 5.06 19.5 7.69 3.18-3.14 6.3-6.33 9.37-9.57-6.47-2.55-13.02-5.05-19.64-7.52-3.02 3.17-6.1 6.3-9.23 9.4Zm-21.33-7.94c6.6 2.38 13.22 4.84 19.83 7.37 3.14-3.08 6.22-6.2 9.26-9.38-6.58-2.44-13.23-4.84-19.94-7.2-3 3.1-6.05 6.18-9.15 9.22Zm-21.6-7.68-.1.11c5.42 1.85 10.91 3.73 16.3 5.64l3.86 1.39c3.12-3.02 6.18-6.08 9.2-9.2a1324.45 1324.45 0 0 0-17.75-6.1l-2.47-.84a423.54 423.54 0 0 1-9.03 9Zm-19.86-9.37-2.13 2.03a2721.32 2721.32 0 0 0 20.31 6.92c3.12-2.98 6.18-6.02 9.2-9.1-6.72-2.28-13.47-4.6-20.18-6.99-2.37 2.4-4.76 4.79-7.2 7.14Zm-19.87-9.37a355.32 355.32 0 0 1-3.84 3.66 772.8 772.8 0 0 0 20 7.2c3.19-3 6.33-6.05 9.41-9.16a554.16 554.16 0 0 1-19.72-7.47 417.5 417.5 0 0 1-5.85 5.77ZM599.64 89a377.15 377.15 0 0 1-4.82 4.57 403.2 403.2 0 0 0 16.84 6.93l2.47.94.59-.55c3.1-2.9 6.16-5.87 9.17-8.88a330.5 330.5 0 0 1-18.85-8.33 410.51 410.51 0 0 1-5.4 5.32Zm-19.86-9.37c-1.51 1.46-3.06 2.92-4.62 4.38a265.07 265.07 0 0 0 18.19 8.9c.5-.46 1-.91 1.5-1.39a387.8 387.8 0 0 0 8.8-8.5 227.24 227.24 0 0 1-17.63-9.56 430.13 430.13 0 0 1-6.24 6.17Zm-19.87-9.37-2.83 2.7a192.23 192.23 0 0 0 16.71 10.3l1.2-1.1c3.3-3.1 6.55-6.26 9.76-9.48a168.95 168.95 0 0 1-16.09-11.15 425.95 425.95 0 0 1-8.75 8.73Zm-19.04-10.18c4.72 4.35 9.74 8.35 14.96 12.02 3.98-3.74 7.88-7.57 11.7-11.47a126.6 126.6 0 0 1-14.21-13.16 423 423 0 0 1-12.45 12.61ZM526.9 44.84c3.92 5.13 8.25 9.85 12.89 14.22 4.27-4.12 8.46-8.35 12.54-12.68a112.94 112.94 0 0 1-11.98-15.78 419.32 419.32 0 0 1-13.45 14.24Zm-11.26-18.33a103.8 103.8 0 0 0 10.38 17.17c4.62-4.67 9.14-9.46 13.53-14.36a101.46 101.46 0 0 1-9.2-19.49 410.87 410.87 0 0 1-14.71 16.68Zm-.65-1.42a398.1 398.1 0 0 0 14.82-16.9 97.36 97.36 0 0 1-4.24-19.65 89.02 89.02 0 0 1-.47-6.66A396.1 396.1 0 0 1 507.95 3.5a96.78 96.78 0 0 0 7.05 21.6Zm-26.12-2.8a396.02 396.02 0 0 0 17.24-18.9c-.5-2.6-.9-5.2-1.19-7.85a95.58 95.58 0 0 1-.17-18.22 192.5 192.5 0 0 1-20 26.24c.72 6.35 2.1 12.6 4.12 18.73Zm-19.32 18.6a391.41 391.41 0 0 0 17.9-17.14 97.38 97.38 0 0 1-4.27-18.47 214.27 214.27 0 0 1-19.6 18.64 97.46 97.46 0 0 0 5.97 16.96Zm-26.1-3.56c6.3-4.19 12.41-8.73 18.25-13.59a91.9 91.9 0 0 1-2.64-23.98 144.5 144.5 0 0 1-19.84 16.4 93.8 93.8 0 0 0 4.23 21.17Zm-25.87-10.35a149.26 149.26 0 0 0 19.83-11.33c-.6-8.23-.08-16.89 1.5-25.73a86.3 86.3 0 0 1-11.36 9.84 75.64 75.64 0 0 1-10.13 6.05 96.17 96.17 0 0 0 .16 21.17Zm-23.82 8.7a266.6 266.6 0 0 0 14.3-4.7c2.58-.95 5.2-2.04 7.83-3.23l-.2-1.6a96.38 96.38 0 0 1-.05-19.47c-6.47 3.07-13.13 5.36-19.65 7.6-.91.3-1.83.62-2.75.94a95.55 95.55 0 0 0 .52 20.46Zm-23.25 7.94c3.99-1.68 8.16-3.23 12.58-4.64 2.74-.88 5.53-1.73 8.23-2.55l.73-.22c-.12-.9-.24-1.8-.34-2.71a95.3 95.3 0 0 1-.22-17.67 195.13 195.13 0 0 0-21.73 8.95 95.23 95.23 0 0 0 .75 18.84ZM348.7 55.75a111.08 111.08 0 0 1 20.17-11.42 93.76 93.76 0 0 1-.84-18.72 428.21 428.21 0 0 0-21.07 10.94c-.08 6.5.51 12.9 1.74 19.2ZM327.9 75.21c2.35-2.71 4.79-5.36 7.34-7.95 3.73-3.78 7.67-7.21 11.87-10.35a91.22 91.22 0 0 1-1.88-19.4c-4.31 2.38-8.57 4.8-12.75 7.2-3 1.71-6.17 3.59-9.36 5.62a94.02 94.02 0 0 0 4.78 24.88Zm-1.35 1.6a97.33 97.33 0 0 1-5.13-25.4 125.54 125.54 0 0 0-16.17 12.32 94.68 94.68 0 0 0 7.36 31.47 232.78 232.78 0 0 1 13.94-18.4Zm19.2 33.37a110.17 110.17 0 0 1-11.6-16.62 115.78 115.78 0 0 0-14.25 15.8 109.1 109.1 0 0 0 11.82 15.69 138.08 138.08 0 0 1 14.02-14.87Zm14.5 14.55-1.2-1.03a124.99 124.99 0 0 1-12.4-12.45 137.16 137.16 0 0 0-13.91 14.9c4.56 4.94 9.51 9.46 14.74 13.62 3.83-5.27 8.12-10.3 12.77-15.04Zm16.87 12.52a159.7 159.7 0 0 1-15.77-11.59 133 133 0 0 0-12.68 15.06 171.21 171.21 0 0 0 16.6 11.37 130.94 130.94 0 0 1 11.85-14.84Zm18.65 10.7c-6-3.06-11.82-6.35-17.4-9.9a130.42 130.42 0 0 0-11.79 14.82c5.88 3.5 11.89 6.68 17.9 9.57 3.37-5.04 7.15-9.88 11.29-14.48Zm19.98 9.24a302.99 302.99 0 0 1-18.63-8.55 129.32 129.32 0 0 0-11.25 14.46 340.6 340.6 0 0 0 18.8 8.2c3.33-4.9 7.04-9.62 11.08-14.1Zm20.95 8.2a489.62 489.62 0 0 1-19.52-7.6c-4.05 4.5-7.75 9.22-11.04 14.1a494.03 494.03 0 0 0 19.43 7.3c3.36-4.8 7.08-9.42 11.13-13.8Zm21.54 7.57c-6.7-2.28-13.4-4.61-20.06-7.03-4.06 4.4-7.8 9.01-11.14 13.78 6.61 2.35 13.25 4.62 19.82 6.85 3.45-4.74 7.26-9.28 11.38-13.6Zm21.77 7.43-6.6-2.27-6.47-2.2-7.2-2.44a132.9 132.9 0 0 0-11.37 13.6l2.68.9c5.66 1.92 11.46 3.88 17.22 5.88 3.57-4.7 7.5-9.2 11.74-13.47Zm21.56 7.7c-6.62-2.44-13.3-4.83-20.05-7.18-4.26 4.28-8.2 8.79-11.76 13.47a1040.85 1040.85 0 0 1 19.73 7.1c3.7-4.69 7.73-9.17 12.08-13.4Zm21.27 8.01c-6.52-2.53-13.12-5.02-19.79-7.47a135.75 135.75 0 0 0-12.09 13.4c6.5 2.42 12.99 4.91 19.47 7.47 3.8-4.7 7.95-9.18 12.41-13.4Zm20.94 8.37c-6.41-2.63-12.9-5.23-19.47-7.79a136.92 136.92 0 0 0-12.42 13.39 1137 1137 0 0 1 19.23 7.8c3.88-4.7 8.11-9.19 12.66-13.4Zm20.59 8.71c-6.3-2.74-12.68-5.45-19.15-8.12-4.56 4.23-8.8 8.72-12.67 13.42 1.48.62 2.97 1.23 4.45 1.86 4.85 2.05 9.7 4.15 14.5 6.28 3.95-4.73 8.26-9.22 12.87-13.44Zm20.21 9.06a1020.6 1020.6 0 0 0-18.8-8.44 137.85 137.85 0 0 0-12.86 13.44c6.26 2.77 12.48 5.61 18.66 8.5 3.99-4.75 8.34-9.27 13-13.5Zm19.82 9.41a948.4 948.4 0 0 0-18.43-8.77 138.05 138.05 0 0 0-13 13.5 1026 1026 0 0 1 18.38 8.85c4-4.78 8.37-9.32 13.05-13.58Zm19.43 9.77c-5.97-3.08-12-6.12-18.07-9.1-4.7 4.27-9.06 8.82-13.05 13.59 6.08 3 12.11 6.07 18.1 9.18 3.98-4.8 8.35-9.38 13.02-13.67Zm19.07 10.1a979.8 979.8 0 0 0-17.74-9.42c-4.69 4.3-9.04 8.9-13 13.7 5.98 3.12 11.9 6.3 17.79 9.53 3.95-4.85 8.3-9.47 12.95-13.81Zm18.72 10.46a964.54 964.54 0 0 0-17.4-9.74c-4.68 4.35-9 8.99-12.94 13.83 5.9 3.25 11.75 6.55 17.54 9.9a137.1 137.1 0 0 1 12.8-14Zm18.37 10.8a944.32 944.32 0 0 0-17.08-10.06c-4.63 4.41-8.92 9.1-12.8 14l4.34 2.52c4.34 2.55 8.64 5.14 12.92 7.76 3.82-4.99 8.06-9.74 12.62-14.21Zm1.26.77a135.2 135.2 0 0 0-12.58 14.24c5.72 3.5 11.39 7.06 17 10.68 3.73-5.07 7.88-9.92 12.38-14.5-5.54-3.52-11.14-6.99-16.8-10.42Zm14.95-12.76a141.72 141.72 0 0 0-13.56 11.43 895.12 895.12 0 0 1 16.74 10.4 144.7 144.7 0 0 1 13.47-11.75c-5.5-3.4-11.05-6.76-16.65-10.08Zm111.94-59.37a431.95 431.95 0 0 1-13.55 11.68c5.22 2.94 10.4 5.91 15.54 8.93l1.53.91c4.44-3.63 9-7.53 13.75-11.79-5.7-3.3-11.46-6.53-17.26-9.73Zm13.2-12.44a397.76 397.76 0 0 1-11.78 11.16c5.8 3.2 11.57 6.43 17.27 9.72a395.23 395.23 0 0 0 12.01-11.25 970.56 970.56 0 0 0-17.5-9.63ZM495.2 37.28c.9 1.71 1.84 3.38 2.81 5.01a394.95 394.95 0 0 0 15.65-15.77A98.31 98.31 0 0 1 506.5 5.2a415.26 415.26 0 0 1-17.1 18.64c1.58 4.55 3.52 9.04 5.81 13.45Zm-45.23 15.63c.57 1.1 1.16 2.17 1.76 3.23a379.1 379.1 0 0 0 16.43-13.98 98.55 98.55 0 0 1-6.09-16.98 219.3 219.3 0 0 1-18.19 13.46c1.63 4.84 3.66 9.6 6.09 14.27Zm-32.23-24.67a94.7 94.7 0 0 0 5.33 21.01 202.54 202.54 0 0 0 18.83-10.9 97.27 97.27 0 0 1-4.2-19.53c-.06-.51-.1-1.03-.15-1.54a143.53 143.53 0 0 1-19.8 10.96ZM694.8 239.72c-4.48 2.4-9 5.12-13.5 8.17-.6.4-1.17.81-1.75 1.22a961.99 961.99 0 0 1 16.76 9.6l.22.14c4.83-3.5 9.9-6.71 15.13-9.6a952.17 952.17 0 0 0-16.86-9.53Zm20.72-8.77c-1.76.53-3.52 1.1-5.28 1.75a120.82 120.82 0 0 0-13.53 6.01 959.1 959.1 0 0 1 16.82 9.51 140.47 140.47 0 0 1 18.28-8.13 964.09 964.09 0 0 0-16.29-9.14Zm44.2-15.66a73.46 73.46 0 0 1-16.3 8.4c5.36 2.96 10.7 5.96 15.98 9 1.66-.45 3.32-.94 4.97-1.5a55.49 55.49 0 0 0 12.48-6.32 966.48 966.48 0 0 0-17.14-9.58ZM400.05 59.08a187.54 187.54 0 0 0 21.38-9.02A97.38 97.38 0 0 1 416.08 29c-6.7 2.98-14 5.67-22.08 8.2a95.24 95.24 0 0 0 6.07 21.88Zm-23.13 7.8c3.93-1.4 7.85-2.68 11.74-3.96 3.19-1.05 6.43-2.12 9.68-3.24a97.57 97.57 0 0 1-6.06-21.95l-.6.19c-6.54 1.97-13.8 4.18-20.95 7.05a95.55 95.55 0 0 0 6.2 21.91Zm-21.7 9.54a136.3 136.3 0 0 1 20-8.92 97.62 97.62 0 0 1-6.18-21.83c-.7.3-1.41.58-2.11.9a91.63 91.63 0 0 0-17.95 10.68 96.61 96.61 0 0 0 6.23 19.17ZM677.9 250.26a141.75 141.75 0 0 0-13.6 11.14 950.72 950.72 0 0 1 17.07 10.06c4.26-4.06 8.79-7.88 13.55-11.43-5.62-3.3-11.3-6.56-17.02-9.77Zm63.18-25.8-1.76.53c-3.58.99-7.18 1.81-10.66 2.62-3.5.8-7.08 1.63-10.68 2.63a968.95 968.95 0 0 1 16.1 9.04c4.63-1.59 9.33-2.91 14.07-3.95l1.24-.27a267.2 267.2 0 0 0 7.49-1.7c-5.22-3.01-10.5-5.97-15.8-8.9Zm33.26-20.41c-1.89 1.56-3.8 3.11-5.73 4.66a142 142 0 0 1-7.23 5.44 979.73 979.73 0 0 1 17.15 9.58c1.73-1.19 3.37-2.4 4.92-3.57 2.73-2.08 5.5-4.27 8.31-6.56a973.05 973.05 0 0 0-17.42-9.55Zm32.43-3.38a973.76 973.76 0 0 0-17.6-9.43 427.6 427.6 0 0 1-13.33 11.57 989.18 989.18 0 0 1 17.43 9.55c4.36-3.6 8.84-7.48 13.5-11.7ZM427.98 60.24c1.6 3.07 3.34 6 5.2 8.84 4.62-2.4 8.82-5.41 12.51-8.21 1.53-1.16 3.07-2.37 4.62-3.6a100.85 100.85 0 0 1-7.98-17.6 213.05 213.05 0 0 1-18.76 10.9c1.29 3.26 2.75 6.48 4.41 9.67ZM676.16 229.7a152.7 152.7 0 0 0-14.73 8.83c-.19.12-.36.25-.54.38 5.83 3.1 11.6 6.26 17.33 9.47 4.88-3.44 9.96-6.59 15.22-9.4a981.81 981.81 0 0 0-17.28-9.28Zm21-8.56a95 95 0 0 0-6.79 2.2c-4.04 1.5-8.13 3.3-12.25 5.37 5.8 3.04 11.54 6.13 17.24 9.27a139.64 139.64 0 0 1 18.49-7.94c-5.52-3-11.08-5.98-16.69-8.9Zm43.67-15.87a76.13 76.13 0 0 1-15.84 8.52c5.6 2.94 11.15 5.92 16.66 8.94.95-.28 1.9-.57 2.85-.9 5.04-1.7 9.7-4.4 13.88-7.26a984.56 984.56 0 0 0-17.55-9.3Zm57.5-22.57c-2.51 2.42-5.1 4.85-7.75 7.27a996.03 996.03 0 0 1 17.6 9.43l5.22-4.8c2.22-2.09 4.42-4.2 6.6-6.33a993.66 993.66 0 0 0-17.86-9.32c-1.26 1.26-2.53 2.5-3.82 3.75Zm-19.88-9.37a375.78 375.78 0 0 1-7.24 6.81c6.03 2.99 12.02 6.02 17.96 9.1a386.4 386.4 0 0 0 11.6-10.99c-6-3.03-12.06-6.03-18.18-8.98a453.5 453.5 0 0 1-4.13 4.06Zm-19.86-9.37c-2.3 2.23-4.68 4.46-7.1 6.69 6.14 2.87 12.24 5.8 18.3 8.79a393.78 393.78 0 0 0 11.41-10.84l-.65-.32a973.68 973.68 0 0 0-17.87-8.33 407.91 407.91 0 0 1-4.1 4.01Zm-19.87-9.37a376 376 0 0 1-7.33 6.9c6.25 2.76 12.46 5.6 18.64 8.48a391.76 391.76 0 0 0 11.23-10.66c-6.2-2.81-12.49-5.59-18.86-8.32l-3.68 3.6Zm-19.87-9.37a376.48 376.48 0 0 1-7.96 7.47l5.15 2.15c4.64 1.96 9.26 3.96 13.87 6a394.84 394.84 0 0 0 11.05-10.46c-6.33-2.7-12.72-5.37-19.2-8l-2.9 2.84Zm-19.87-9.37a379.76 379.76 0 0 1-8.95 8.37 1139.6 1139.6 0 0 1 19.36 7.83 392.44 392.44 0 0 0 10.9-10.27c-6.44-2.6-12.95-5.15-19.53-7.67l-1.78 1.74Zm-19.86-9.37c-3.32 3.2-6.76 6.4-10.32 9.6 6.56 2.44 13.13 4.96 19.7 7.53a384.51 384.51 0 0 0 10.76-10.08c-6.54-2.49-13.15-4.94-19.83-7.36l-.31.31Zm-31.98 1.82a1049.51 1049.51 0 0 1 20.1 7.2 506.72 506.72 0 0 0 10.65-9.88 1285.2 1285.2 0 0 0-20.15-7.07c-3.4 3.25-6.94 6.5-10.6 9.75Zm-21.98-7.49 4.93 1.67c5.09 1.72 10.28 3.49 15.47 5.28 2.9-2.58 5.85-5.28 8.9-8.13l1.7-1.62-6.04-2.06a2832 2832 0 0 1-14.25-4.86 400.34 400.34 0 0 1-10.71 9.72Zm-21.9-7.6c6.75 2.42 13.56 4.77 20.3 7.06 3.48-3.06 7.04-6.29 10.72-9.73-6.7-2.32-13.4-4.7-20.01-7.2-3.54 3.29-7.22 6.58-11.02 9.86Zm-21.31-8.13a474.89 474.89 0 0 0 19.75 7.56c3.57-3.1 7.24-6.4 11.02-9.9a407.87 407.87 0 0 1-19.28-7.88c-3.7 3.41-7.53 6.83-11.5 10.22Zm-20.26-9.03c6.3 3.1 12.6 5.88 18.76 8.42 3.72-3.2 7.55-6.62 11.5-10.27a266.1 266.1 0 0 1-18.15-8.93c-3.89 3.6-7.93 7.2-12.11 10.78ZM542.9 85.73c5.7 3.5 11.52 6.7 17.37 9.62 3.92-3.37 7.96-6.97 12.14-10.83a191.62 191.62 0 0 1-16.68-10.3c-4.1 3.84-8.39 7.68-12.83 11.5Zm-16.94-11.9c5 4.02 10.26 7.7 15.66 11.1 4.15-3.6 8.42-7.44 12.86-11.58a150.93 150.93 0 0 1-14.92-12.02 391.8 391.8 0 0 1-13.6 12.5Zm-5.8-22.32a383.7 383.7 0 0 1-9.04 8.45c4.25 4.66 8.84 8.96 13.68 12.93a486.32 486.32 0 0 0 13.68-12.56c-4.76-4.5-9.05-9.25-12.85-14.2-1.8 1.8-3.63 3.6-5.47 5.38Zm-19.87-9.37-1.51 1.45a108.71 108.71 0 0 0 11.36 15.26 389.99 389.99 0 0 0 14.6-13.9 106.43 106.43 0 0 1-10.42-17.03 423.35 423.35 0 0 1-14.03 14.22Zm-28.46 3.44c2.4 4.61 5.12 8.95 8.1 13.05 4.98-4.26 10.15-8.9 15.57-13.97l1.16-1.1a101.52 101.52 0 0 1-8.67-18.3A385.84 385.84 0 0 1 470.2 42.3c.52 1.1 1.07 2.2 1.63 3.29Zm-19.38 11.8c3.1 5.3 6.62 10.23 10.47 14.81.9-.65 1.78-1.3 2.63-1.95 4.23-3.22 8.55-6.7 13-10.46a105.95 105.95 0 0 1-9.75-16.24 439.97 439.97 0 0 1-16.35 13.85Zm-88.21 38.4a105.27 105.27 0 0 1-10.01-17.14 116.31 116.31 0 0 0-18.73 13.68c3.36 6 7.25 11.54 11.56 16.66a146.7 146.7 0 0 1 17.18-13.2Zm12.41 14.6c-4.29-4.3-8.16-8.8-11.6-13.49l-1.66 1.08a141.5 141.5 0 0 0-15.4 12.08 126.2 126.2 0 0 0 13.52 13.39c4.71-4.67 9.78-9.04 15.14-13.05Zm15.15 13.07a147.44 147.44 0 0 1-8.77-7.1 128.8 128.8 0 0 1-5.39-4.98c-5.33 4-10.36 8.36-15.02 13 5.01 4.2 10.29 8.03 15.73 11.55 4.18-4.42 8.69-8.59 13.45-12.47Zm17.4 11.42a180.2 180.2 0 0 1-16.25-10.58 140.7 140.7 0 0 0-13.35 12.43A212.73 212.73 0 0 0 397 146.6c3.8-4.12 7.9-8.04 12.21-11.73Zm19.2 9.95a245.8 245.8 0 0 1-17.91-9.2 140.04 140.04 0 0 0-12.15 11.67c6.25 3.14 12.51 5.97 18.64 8.55 3.58-3.86 7.4-7.54 11.42-11.02Zm20.56 8.78a367.44 367.44 0 0 1-19.18-8.13 139.66 139.66 0 0 0-11.36 10.97 450 450 0 0 0 19.53 7.59c3.46-3.65 7.14-7.14 11-10.43Zm21.54 7.96a650.58 650.58 0 0 1-20.06-7.38 140.58 140.58 0 0 0-11 10.4c6.67 2.42 13.4 4.76 20.1 7.04 3.46-3.52 7.12-6.88 10.96-10.06Zm22.07 7.58-1.65-.56c-6.28-2.14-12.6-4.28-18.9-6.48a140.75 140.75 0 0 0-10.96 10.04l7.85 2.66c4.1 1.39 8.27 2.8 12.44 4.24 3.55-3.48 7.3-6.79 11.22-9.9Zm22.08 7.65c-5.7-2.03-11.46-4.04-17.26-6.01l-3.25-1.11a141.58 141.58 0 0 0-11.28 9.89A1077.86 1077.86 0 0 1 503 186.7c3.7-3.5 7.59-6.81 11.66-9.92Zm21.73 7.98c-6.65-2.52-13.39-5-20.19-7.42-4.1 3.1-8 6.41-11.7 9.9 6.6 2.43 13.2 4.93 19.8 7.5 3.83-3.53 7.87-6.87 12.09-9.98Zm21.33 8.29a1188 1188 0 0 0-19.8-7.72 141.9 141.9 0 0 0-12.17 9.98c6.51 2.54 13.01 5.15 19.49 7.82 3.96-3.57 8.13-6.94 12.48-10.08Zm20.94 8.61c-6.39-2.7-12.87-5.38-19.43-8-4.38 3.12-8.58 6.5-12.55 10.07a1137.13 1137.13 0 0 1 19.12 8.13 146.7 146.7 0 0 1 12.86-10.2Zm20.5 8.93a1056.2 1056.2 0 0 0-19.01-8.3 141.8 141.8 0 0 0-12.92 10.2c6.3 2.76 12.55 5.57 18.77 8.45 4.17-3.69 8.57-7.14 13.15-10.35Zm20.02 9.27c-6.1-2.9-12.28-5.78-18.57-8.61-4.62 3.2-9.04 6.66-13.21 10.34 6.17 2.87 12.31 5.8 18.4 8.78 4.24-3.75 8.71-7.26 13.38-10.51Zm19.56 9.58c-5.74-2.9-11.53-5.74-17.37-8.55l-.77-.36c-4.7 3.24-9.18 6.76-13.42 10.5 6.07 2.98 12.08 6.02 18.06 9.1 4.27-3.81 8.79-7.39 13.5-10.7Zm19.14 9.88c-5.87-3.11-11.78-6.17-17.75-9.18-4.75 3.3-9.27 6.87-13.55 10.68a999.93 999.93 0 0 1 17.73 9.4c4.28-3.88 8.82-7.53 13.57-10.9Zm18.71 10.2a961.55 961.55 0 0 0-17.35-9.48 141.61 141.61 0 0 0-13.62 10.9 961.07 961.07 0 0 1 17.39 9.72c4.27-3.97 8.82-7.7 13.58-11.14ZM480.78 59.77c3.72 4.99 7.82 9.6 12.22 13.88a391.36 391.36 0 0 0 15.82-13.59 112.48 112.48 0 0 1-11.36-15.2 408.93 408.93 0 0 1-16.68 14.91Zm-30.06-.98c-4.86 3.88-10.42 8-16.86 11.34 2.89 4.3 6.06 8.34 9.47 12.13 1.05-.3 2.1-.63 3.15-.98 5.5-1.87 10.54-4.9 15-8.04a110.7 110.7 0 0 1-10.43-14.71l-.33.26Zm-70.04 16.14c1.63 3.15 3.43 6.16 5.34 9.06 6.91-3 14.03-5.44 21.25-7.21a103.38 103.38 0 0 1-8.42-15.91c-2.8.95-5.57 1.87-8.33 2.78-4.32 1.42-8.7 2.87-13.09 4.45 1 2.3 2.07 4.57 3.25 6.83Zm-24.87 2.8a103.47 103.47 0 0 0 9.93 17.07 145.03 145.03 0 0 1 18.62-10.07 103.6 103.6 0 0 1-8.62-16 143.43 143.43 0 0 0-17.3 7.56c-.88.47-1.76.95-2.63 1.44Zm407.77 133.06c3.08-2.34 6.22-4.84 9.41-7.47a997.08 997.08 0 0 0-17.8-9.23 468.88 468.88 0 0 1-6.45 5.25 147.2 147.2 0 0 1-6.27 4.77c5.9 3.05 11.75 6.15 17.56 9.3a144.8 144.8 0 0 0 3.55-2.62Zm-106.53 9.15a151.65 151.65 0 0 0-15.26 9.06 1010.6 1010.6 0 0 1 17.74 9.18c4.89-3.38 10-6.46 15.26-9.21a998.34 998.34 0 0 0-17.74-9.03Zm21.14-8.43c-2.56.72-5.12 1.5-7.68 2.45-3.8 1.4-7.63 3.07-11.49 4.98a1009 1009 0 0 1 17.7 9.02 138.88 138.88 0 0 1 18.64-7.76c-5.67-2.94-11.4-5.83-17.17-8.69Zm43.3-16a77.82 77.82 0 0 1-15.5 8.57c5.8 2.89 11.58 5.82 17.3 8.81.45-.14.9-.28 1.34-.44 5.42-1.83 10.4-4.81 14.81-7.9-5.93-3.06-11.9-6.07-17.94-9.03Zm48.32-14.1a424.51 424.51 0 0 1-13.13 11.44c5.98 3.03 11.92 6.1 17.81 9.24 4.28-3.56 8.7-7.42 13.28-11.58-5.94-3.08-11.93-6.11-17.96-9.1Zm-314.77-87.7c3.74-.85 7.54-1.79 11.3-3.06 2.95-1 5.76-2.34 8.43-3.85a125 125 0 0 1-12.4-12.51 73.5 73.5 0 0 1-17.94 9.18c3.34 3.63 6.9 7.04 10.6 10.24Zm-44.27-16.02-.66.15a110 110 0 0 0 8.36 10.77c3.9-1.25 7.83-2.33 11.8-3.2l1.25-.27c3.25-.7 6.57-1.43 9.89-2.33a113.5 113.5 0 0 1-9.16-11.87 62.77 62.77 0 0 1-10.82 4.13 252.3 252.3 0 0 1-10.66 2.62Zm-14.04 20.05a139.46 139.46 0 0 1 19.88-8.52 113.16 113.16 0 0 1-8.35-10.95 131.87 131.87 0 0 0-15.9 4.51 113.4 113.4 0 0 0-5.65 2.28c3.05 4.5 6.41 8.72 10.02 12.68Zm-18.6 11.56c5.4-3.94 11.07-7.53 16.96-10.7-3.71-4.11-7.06-8.39-10.04-12.82a141.61 141.61 0 0 0-18.5 10.13c3.52 4.8 7.42 9.24 11.59 13.39Zm365.58 92.12c3.3-2.51 6.67-5.19 10.1-8.03-6-3.03-12.05-6.02-18.16-8.95-2.23 1.85-4.48 3.7-6.78 5.53a151.91 151.91 0 0 1-5.73 4.38c6.02 2.96 12 5.97 17.93 9.03.9-.66 1.8-1.32 2.64-1.96Zm-6.57-18.22c6.1 2.93 12.15 5.91 18.16 8.95 4.22-3.53 8.57-7.34 13.08-11.44a1017.07 1017.07 0 0 0-18.3-8.8 421.73 421.73 0 0 1-12.94 11.3Zm-19.93-9.3c6.21 2.81 12.38 5.7 18.52 8.63a418.3 418.3 0 0 0 12.9-11.29 999.4 999.4 0 0 0-18.68-8.46c-4.1 3.72-8.34 7.43-12.74 11.11Zm-20.34-8.98c6.33 2.71 12.64 5.48 18.9 8.32 4.1-3.44 8.32-7.13 12.7-11.11a1077.8 1077.8 0 0 0-19.04-8.13c-4.04 3.65-8.23 7.3-12.56 10.92Zm-20.75-8.64c5.54 2.24 11.06 4.52 16.56 6.84l2.72 1.17c4.05-3.38 8.21-7.01 12.52-10.92-6.37-2.64-12.83-5.25-19.37-7.82-4 3.6-8.15 7.17-12.43 10.72Zm-21.15-8.32c6.56 2.5 13.12 5.08 19.66 7.72 4-3.33 8.12-6.9 12.38-10.73-6.5-2.55-13.07-5.06-19.73-7.53a433.88 433.88 0 0 1-12.3 10.54ZM633.41 140a1108.1 1108.1 0 0 1 20.04 7.39c3.98-3.27 8.06-6.76 12.28-10.53-6.63-2.45-13.32-4.86-20.08-7.23A439.91 439.91 0 0 1 633.4 140Zm-22-7.64a1462 1462 0 0 1 18.67 6.45c.6.2 1.18.42 1.77.63 3.96-3.2 8.02-6.66 12.22-10.36a1299.32 1299.32 0 0 0-15.96-5.48l-4.44-1.5a450 450 0 0 1-12.27 10.26Zm-21.61-7.97-.53.42c5.85 2.03 11.7 4.02 17.47 5.97l3.05 1.04c4-3.18 8.08-6.58 12.3-10.26-6.77-2.3-13.56-4.64-20.31-7.08a453.33 453.33 0 0 1-11.98 9.91Zm-19.87-9.37c-.78.63-1.59 1.26-2.4 1.89a695.93 695.93 0 0 0 20.12 7.34c4.08-3.19 8.26-6.62 12.57-10.33a516.06 516.06 0 0 1-19.76-7.58c-3.43 2.91-6.94 5.81-10.53 8.68Zm-19.87-9.37c-1.09.87-2.21 1.75-3.37 2.63a386.1 386.1 0 0 0 19.24 8.02c4.24-3.25 8.57-6.76 13.05-10.57a317.04 317.04 0 0 1-18.76-8.45c-3.3 2.81-6.7 5.6-10.16 8.37Zm-19.87-9.37c-.94.76-1.92 1.52-2.91 2.28 5.93 3.31 11.95 6.3 17.92 9.04 4.43-3.37 8.96-7.03 13.64-11a219.67 219.67 0 0 1-17.35-9.64 449.2 449.2 0 0 1-11.3 9.32Zm-19.87-9.37-.68.54a185.74 185.74 0 0 0 16.26 10.34c4.64-3.55 9.39-7.4 14.31-11.63a164.47 164.47 0 0 1-15.63-11.13 447.98 447.98 0 0 1-14.26 11.88Zm-16.28-12.26c4.53 4.3 9.36 8.27 14.38 11.93 4.85-3.8 9.84-7.93 15.02-12.47a126.4 126.4 0 0 1-13.64-12.94 436.56 436.56 0 0 1-15.76 13.48Zm-17.63 11.2c3.27-1.97 6.29-4.16 9.02-6.23 2.03-1.54 4.08-3.16 6.16-4.82a119.2 119.2 0 0 1-12.18-13.86 451.4 451.4 0 0 1-8.82 7.23c-2.1 1.69-4.35 3.41-6.74 5.1 3.9 4.51 8.1 8.7 12.56 12.58Zm-67.73 25.72c-1-.84-2-1.68-2.99-2.54a127.08 127.08 0 0 1-9.7-9.42 154.39 154.39 0 0 0-16.88 10.68c4.45 4.33 9.2 8.31 14.15 12a147.3 147.3 0 0 1 15.42-10.72Zm16.15 11.7a163.42 163.42 0 0 1-15.04-10.8 140.85 140.85 0 0 0-15.37 10.67 181.65 181.65 0 0 0 16.24 10.52c4.5-3.73 9.23-7.21 14.17-10.4Zm18.32 10.38a214.96 214.96 0 0 1-17.06-9.58 141.38 141.38 0 0 0-14.14 10.33 246.6 246.6 0 0 0 17.9 9.19c4.23-3.55 8.68-6.87 13.3-9.94Zm20.09 9.23a308.83 308.83 0 0 1-18.69-8.52l-1.67 1.1c-4.03 2.73-7.9 5.67-11.61 8.78a370.79 370.79 0 0 0 19.2 8.1c4.07-3.37 8.34-6.53 12.77-9.47Zm21.44 8.32c-6.71-2.44-13.37-4.99-19.92-7.7l-2.01 1.33a141.7 141.7 0 0 0-10.8 8.1l.52.2a660.72 660.72 0 0 0 19.57 7.18c4.04-3.25 8.27-6.3 12.64-9.1Zm22.35 7.82c-6.91-2.35-13.85-4.74-20.74-7.23a141.07 141.07 0 0 0-12.7 9.07c6.47 2.25 12.94 4.45 19.31 6.6l1.29.44c4.11-3.18 8.4-6.15 12.84-8.88Zm44.85 15.74c-6.79-2.52-13.66-5-20.6-7.43a141.52 141.52 0 0 0-13.37 8.75c6.72 2.4 13.46 4.88 20.2 7.43 4.42-3.17 9.03-6.1 13.77-8.75Zm21.78 8.3c-6.65-2.6-13.37-5.18-20.17-7.7a156.74 156.74 0 0 0-13.82 8.73c6.6 2.51 13.21 5.1 19.8 7.75 4.56-3.19 9.3-6.12 14.2-8.77Zm21.3 8.62c-6.48-2.7-13.05-5.36-19.7-7.99a153.75 153.75 0 0 0-13.17 8c-.37.24-.73.5-1.1.76 5.97 2.4 11.93 4.86 17.87 7.38l1.52.65c4.69-3.21 9.56-6.16 14.58-8.8Zm20.78 8.9c-6.33-2.8-12.75-5.54-19.25-8.26a152.94 152.94 0 0 0-14.54 8.73l-.09.06c6.37 2.72 12.7 5.5 18.98 8.33 4.79-3.25 9.77-6.2 14.9-8.86Zm20.22 9.19c-6.14-2.88-12.39-5.72-18.72-8.53-4.96 2.56-9.94 5.51-14.93 8.86 6.22 2.81 12.4 5.7 18.53 8.62 4.86-3.29 9.91-6.28 15.12-8.96Zm8.06 3.8a920.88 920.88 0 0 0-6.6-3.12 151.08 151.08 0 0 0-15.14 8.95c6.08 2.92 12.12 5.88 18.12 8.9 4.88-3.32 9.98-6.35 15.23-9.06-3.85-1.9-7.72-3.8-11.6-5.66Zm23.32-7.33c-2.9-1.4-5.83-2.78-8.78-4.15a98.37 98.37 0 0 0-7.92 2.51c-3.7 1.37-7.45 3-11.22 4.84 6.1 2.88 12.16 5.82 18.18 8.8a138.34 138.34 0 0 1 18.69-7.66 961.13 961.13 0 0 0-8.95-4.34Zm45.97-14.68c-3.82-1.84-7.7-3.65-11.6-5.46a78.26 78.26 0 0 1-15.3 8.5c6 2.83 11.96 5.72 17.88 8.65l.47-.16c5.63-1.9 10.78-5.04 15.32-8.26-2.25-1.1-4.5-2.19-6.77-3.27ZM490.46 77.53a115.4 115.4 0 0 1-13.02 9.2c4.6 3.93 9.45 7.55 14.44 10.9 4.98-2.47 9.5-5.67 13.42-8.65l1.64-1.27a148.73 148.73 0 0 1-10.08-8.04 130.04 130.04 0 0 1-4.24-3.88l-2.16 1.74Zm-49.16 6.9c-3.58 1-7.18 1.83-10.66 2.63-3.65.84-7.37 1.7-11.12 2.75 3.5 3.88 7.22 7.5 11.14 10.9a130.58 130.58 0 0 1 19.47-5.93l1.3-.28 1.41-.3a126.5 126.5 0 0 1-10.3-10.13l-1.25.37ZM456.56 95c4 3.34 8.18 6.47 12.47 9.38l.96-.23 1.24-.27c4.9-1.06 9.97-2.17 14.97-3.86 1.3-.44 2.55-.94 3.79-1.5a154.97 154.97 0 0 1-14.22-10.84 65.18 65.18 0 0 1-14.62 6.13c-1.53.42-3.06.81-4.59 1.19Zm-46.24 15.58c5.93-3.48 12.1-6.55 18.43-9.12a125.65 125.65 0 0 1-11.15-11.1c-1.8.55-3.6 1.13-5.39 1.8-4.8 1.77-9.68 3.96-14.58 6.55a131.1 131.1 0 0 0 12.7 11.87Zm313.52 81.47c3.4-2.59 6.86-5.34 10.4-8.28a966.64 966.64 0 0 0-18.55-8.62c-2.2 1.82-4.43 3.64-6.7 5.45a151.76 151.76 0 0 1-5.64 4.31c6.15 2.86 12.27 5.77 18.34 8.74l2.15-1.6Zm-85.65.8c-2.47.69-4.95 1.46-7.43 2.37-3.8 1.4-7.63 3.07-11.5 4.98 6.27 2.8 12.5 5.64 18.69 8.55a138.23 138.23 0 0 1 18.6-7.6 998.96 998.96 0 0 0-18.36-8.3Zm-128.76-84.77c5.55-2.41 10.58-5.86 14.93-9.13a183.96 183.96 0 0 1-16.21-10.34 96.61 96.61 0 0 1-15.07 9.82 202.5 202.5 0 0 0 16.35 9.65Zm-63.83 4.02c6.85-2.97 13.9-5.4 21.06-7.16a154.6 154.6 0 0 1-12.28-9.42l-3.88.9c-6.02 1.4-12.23 2.82-18.42 5.1l-.32.13c4.42 3.76 9.05 7.23 13.84 10.45Zm243.53 59.13a151.1 151.1 0 0 1-5.98 4.56c6.28 2.75 12.53 5.57 18.74 8.44l2.08-1.55c3.36-2.56 6.78-5.28 10.28-8.18-6.22-2.8-12.54-5.57-18.94-8.3-2.03 1.68-4.1 3.36-6.18 5.03Zm-19.87-9.37c-2.12 1.7-4.38 3.43-6.77 5.12a1125.63 1125.63 0 0 1 19.16 8.15 310.28 310.28 0 0 0 12.2-9.56c-6.36-2.7-12.8-5.37-19.31-8-1.74 1.44-3.5 2.87-5.28 4.3Zm-19.87-9.37a137.64 137.64 0 0 1-8.03 6 1150.5 1150.5 0 0 1 19.6 7.87c1.13-.81 2.22-1.63 3.27-2.42 2.89-2.2 5.82-4.53 8.8-6.97-6.47-2.6-13.03-5.17-19.66-7.7a456.35 456.35 0 0 1-3.98 3.22Zm-19.87-9.37a128.36 128.36 0 0 1-9.78 7.18c6.69 2.45 13.39 4.98 20.08 7.58 1.59-1.1 3.1-2.22 4.54-3.31 2.46-1.87 4.95-3.83 7.48-5.88-6.61-2.5-13.3-4.97-20.06-7.4l-2.26 1.83Zm-19.87-9.37c-3.62 2.9-7.65 5.92-12.13 8.66a1132.25 1132.25 0 0 1 20.65 7.31c2.25-1.48 4.36-3.03 6.33-4.52 1.88-1.44 3.79-2.93 5.72-4.47a1279.1 1279.1 0 0 0-19-6.64l-1.4-.47c-.05.04-.1.09-.17.13Zm-34.82.94c3.35 1.15 6.7 2.28 10 3.4 3.66 1.24 7.38 2.5 11.1 3.78 3.14-1.92 6.05-4.03 8.7-6.04 1.18-.9 2.38-1.83 3.57-2.77l-3.45-1.17c-5.68-1.93-11.38-3.86-17.08-5.84-3.84 2.97-8.1 6-12.84 8.64Zm-22.54-7.96a932.67 932.67 0 0 0 20.93 7.41 91.85 91.85 0 0 0 11.54-7.68l1.27-.99a685.8 685.8 0 0 1-20.13-7.35 91.24 91.24 0 0 1-13.61 8.61Zm-21.58-8.53a422.88 422.88 0 0 0 19.96 7.94c5.06-2.4 9.65-5.6 13.66-8.63a380.95 380.95 0 0 1-19.24-8.05 86.5 86.5 0 0 1-14.38 8.74Zm-19.87-9.37c6.1 3.18 12.25 6.06 18.3 8.69 5.35-2.3 10.22-5.58 14.46-8.74a252.63 252.63 0 0 1-17.88-9.06 87.5 87.5 0 0 1-14.88 9.1Zm-39.9-3.17c4.83 3.19 9.8 6.13 14.8 8.84 1.37-.34 2.74-.67 4.12-.97l1.28-.29c4.9-1.06 9.95-2.16 14.93-3.85.42-.14.82-.3 1.23-.45a199.54 199.54 0 0 1-16.08-9.6 62.44 62.44 0 0 1-10.2 3.84 239.7 239.7 0 0 1-10.07 2.48Zm-27.28 7.3a154.7 154.7 0 0 1-13.82-10.56 130.6 130.6 0 0 0-18.4 9.07c4.81 3.88 9.86 7.44 15.05 10.72a144.82 144.82 0 0 1 17.17-9.22Zm17.4 10.52c-5.58-3.01-11-6.23-16.18-9.7a139.83 139.83 0 0 0-17.11 9.21 217.22 217.22 0 0 0 17.06 9.54 145.43 145.43 0 0 1 16.23-9.05Zm19.58 9.5a276.34 276.34 0 0 1-18.2-8.75 143.52 143.52 0 0 0-16.2 9 310.3 310.3 0 0 0 18.73 8.49 145.32 145.32 0 0 1 15.67-8.73Zm21.39 8.66a429.3 429.3 0 0 1-19.86-7.98 143.22 143.22 0 0 0-15.67 8.69 463.7 463.7 0 0 0 20.01 7.7c5-3.12 10.2-5.93 15.52-8.4Zm22.67 8.1a880.75 880.75 0 0 1-21.02-7.48 139.5 139.5 0 0 0-15.55 8.37c6.91 2.5 13.89 4.9 20.79 7.24 5.1-3.03 10.37-5.76 15.78-8.13Zm23.26 7.94-4.6-1.58-6.46-2.2-10.42-3.55a133.6 133.6 0 0 0-15.9 8.08l4.96 1.69c5.29 1.78 10.69 3.62 16.07 5.48a142.62 142.62 0 0 1 16.35-7.92Zm22.96 8.16c-6.96-2.55-14-5.06-21.1-7.52a126.83 126.83 0 0 0-16.56 7.85 930.36 930.36 0 0 1 20.68 7.43c5.5-2.96 11.18-5.57 16.98-7.76Zm22.4 8.44c-6.76-2.62-13.6-5.2-20.5-7.75-.56.2-1.11.38-1.66.59a123.07 123.07 0 0 0-15.6 7.09c6.73 2.5 13.47 5.1 20.19 7.75 5.7-2.97 11.57-5.54 17.56-7.68Zm21.74 8.71c-6.51-2.68-13.12-5.33-19.8-7.94a88.9 88.9 0 0 0-4.24 1.44c-4.51 1.66-9.09 3.7-13.7 6.09 6.6 2.6 13.16 5.28 19.7 8.02 5.85-2.97 11.89-5.51 18.04-7.6Zm21.1 8.97a1082.9 1082.9 0 0 0-19.08-8.13c-2.06.6-4.13 1.26-6.19 2.02-4.06 1.5-8.18 3.32-12.32 5.4.98.41 1.96.81 2.93 1.23 5.45 2.3 10.87 4.66 16.26 7.05a138.25 138.25 0 0 1 18.4-7.57Zm24.58-23.77a75.26 75.26 0 0 1-15.37 8.16l3.43 1.44a1039.8 1039.8 0 0 1 15.6 6.75l.62-.2c5.48-1.85 10.5-4.88 14.95-8-6.33-2.75-12.74-5.47-19.23-8.15Zm-197.68-45.64c6.57-3 13.33-5.49 20.2-7.38-5.07-2.8-9.99-5.77-14.72-8.95-5.44 1.26-11.03 2.62-16.6 4.67-1.68.63-3.38 1.32-5.09 2.05a201.24 201.24 0 0 0 16.21 9.61Zm27.17-7.38-2.26.52c5.73 3.03 11.5 5.78 17.21 8.3 1.51-.4 3.03-.76 4.55-1.1l1.26-.27c4.9-1.07 9.96-2.17 14.95-3.87l.93-.33a278.21 278.21 0 0 1-18.07-8.67 61.1 61.1 0 0 1-7.91 2.8c-3.58.99-7.18 1.82-10.66 2.62Zm133.63 52.41a1134.1 1134.1 0 0 1 19.56 7.95c.58-.18 1.15-.36 1.73-.56 5.12-1.73 9.85-4.49 14.08-7.4-6.48-2.66-13.05-5.28-19.69-7.86a72.22 72.22 0 0 1-15.68 7.87Zm-22.34-8.57c6.72 2.5 13.44 5.08 20.16 7.72a55.92 55.92 0 0 0 16.34-7.62c-6.65-2.58-13.38-5.1-20.18-7.6a68.42 68.42 0 0 1-16.32 7.5Zm-21.16-8.98-2.26.6a1096.87 1096.87 0 0 1 20.95 7.48 88.81 88.81 0 0 0 6.36-1.88 53 53 0 0 0 10.88-5.3c-6.84-2.5-13.74-4.95-20.72-7.37a65.66 65.66 0 0 1-15.2 6.47Zm-19.87-9.37c-2.23.62-4.48 1.17-6.7 1.7a3960 3960 0 0 0 9.06 3.07 3257 3257 0 0 1 12.48 4.24c3.39-.78 6.82-1.65 10.21-2.8 2.95-1 5.77-2.34 8.44-3.86l-4.64-1.6-6.47-2.19-10.08-3.43a63.73 63.73 0 0 1-12.3 4.87Zm-19.86-9.37c-3.58.99-7.18 1.82-10.66 2.62l-.06.01a914.87 914.87 0 0 0 20.91 7.42c4.87-1.06 9.9-2.16 14.86-3.84 1.87-.64 3.69-1.41 5.45-2.28a896.28 896.28 0 0 1-20.98-7.45c-3 1.38-6.16 2.59-9.52 3.52Zm-19.87-9.37c-3.58.99-7.18 1.82-10.66 2.62l-2.4.55a412.09 412.09 0 0 0 19.35 7.77l2.54-.6 1.29-.28c4.89-1.06 9.94-2.16 14.93-3.85.89-.3 1.77-.64 2.63-1a433.98 433.98 0 0 1-19.87-7.97c-2.49 1.07-5.08 2-7.81 2.76Zm-18.25 2.78a268.16 268.16 0 0 1-17.14-8.4 119.35 119.35 0 0 0-13.55 3.97c-2.44.9-4.9 1.9-7.37 3.02a277.7 277.7 0 0 0 18.29 8.72 135.52 135.52 0 0 1 19.77-7.31Zm21.65 8.9a412.96 412.96 0 0 1-19.26-7.84c-4.37 1.05-8.8 2.24-13.22 3.87-2.45.91-4.92 1.93-7.4 3.05a421.97 421.97 0 0 0 19.95 7.96 134.39 134.39 0 0 1 19.93-7.04Zm23.53 8.45a844.8 844.8 0 0 1-20.8-7.43 128.37 128.37 0 0 0-15.34 4.38c-1.86.7-3.74 1.46-5.62 2.27a923.37 923.37 0 0 0 21.1 7.48c6.74-2.8 13.65-5.06 20.66-6.7Zm21.64 8.95 1.24-.27c.52-.1 1.04-.22 1.55-.34l-4.77-1.64a6912.23 6912.23 0 0 0-16.67-5.67l-.84.2c-6.02 1.38-12.23 2.81-18.42 5.1-.85.31-1.71.65-2.57 1l10.02 3.4c3.8 1.29 7.68 2.6 11.56 3.93a130.3 130.3 0 0 1 18.9-5.7Zm19.87 9.37 1.28-.28c1.8-.39 3.63-.79 5.46-1.22-6.9-2.53-13.86-5.03-20.9-7.47l-5.34 1.25c-5.66 1.3-11.51 2.66-17.35 4.72a1075.28 1075.28 0 0 1 21.17 7.52c5.15-1.84 10.4-3.36 15.68-4.52Zm19.87 9.37 1.26-.27c2.77-.6 5.6-1.23 8.44-1.96-6.66-2.6-13.39-5.15-20.2-7.67-3.03.8-6.06 1.5-9 2.18-4.59 1.05-9.3 2.14-14.03 3.61 6.8 2.5 13.6 5.1 20.4 7.75 4.32-1.44 8.7-2.67 13.13-3.64Zm19.86 9.37 1.3-.28a191.7 191.7 0 0 0 10.47-2.5c-6.43-2.66-12.95-5.29-19.54-7.88l-1.06.32c-3.58.99-7.18 1.82-10.66 2.62-3.74.86-7.55 1.74-11.39 2.83 6.56 2.57 13.1 5.21 19.61 7.92 3.73-1.18 7.49-2.2 11.27-3.03Zm19.87 9.37 1.24-.27c3.86-.84 7.83-1.7 11.78-2.87-6.22-2.73-12.54-5.43-18.94-8.1-.96.32-1.92.62-2.91.9-3.58.99-7.18 1.82-10.66 2.62-3.11.71-6.27 1.44-9.46 2.3l4.97 2.08c4.65 1.96 9.28 3.97 13.9 6 3.33-1.02 6.7-1.92 10.08-2.66Zm19.87 9.37 1.24-.27c4.02-.87 8.16-1.78 12.27-3.01-6.02-2.81-12.13-5.59-18.34-8.33-1.3.46-2.64.89-4 1.27-3.58.99-7.18 1.81-10.66 2.62-2.72.62-5.49 1.26-8.27 1.98 6.08 2.7 12.13 5.45 18.14 8.26a127 127 0 0 1 9.62-2.52Zm16.21-4.14c5.65-1.91 10.82-5.06 15.37-8.3-6.17-2.84-12.44-5.65-18.8-8.42a77.57 77.57 0 0 1-15.24 8.36c6.19 2.76 12.34 5.57 18.46 8.44l.21-.08Zm3.66 13.51 1.29-.28c3.93-.86 7.98-1.74 12-2.94a994.08 994.08 0 0 0-17.7-8.53c-1.44.52-2.91.99-4.43 1.4-3.58 1-7.18 1.82-10.66 2.63-2.58.59-5.2 1.2-7.84 1.87 5.88 2.76 11.72 5.57 17.52 8.43 3.25-.99 6.52-1.86 9.82-2.58Zm-172.2-31.7c4.26-3.16 8.7-6.1 13.28-8.77-3.18-1.12-6.37-2.22-9.57-3.31l-6.47-2.2-4.9-1.66a141.72 141.72 0 0 0-12.95 8.84 1582.97 1582.97 0 0 1 20.62 7.1Zm192.07 41.07 1.26-.27c3.66-.8 7.42-1.62 11.17-2.69a997.6 997.6 0 0 0-17.13-8.7c-1.35.48-2.73.93-4.14 1.32-3.58.99-7.18 1.81-10.66 2.62-2.68.61-5.4 1.25-8.14 1.95 5.7 2.82 11.35 5.7 16.96 8.6 3.53-1.1 7.1-2.04 10.68-2.83Zm19.86 9.37 1.3-.28c3.15-.69 6.37-1.4 9.6-2.26a993.72 993.72 0 0 0-16.47-8.82c-1.07.37-2.15.71-3.26 1.02-3.58.99-7.18 1.81-10.66 2.62-3 .69-6.04 1.39-9.1 2.2 5.54 2.9 11.04 5.84 16.5 8.82 4-1.3 8.03-2.4 12.1-3.3ZM419.45 52.63a173.16 173.16 0 0 1-18.9 7.65 102.4 102.4 0 0 0 8.58 16.06l1.27-.3 1.26-.27c4.9-1.07 9.96-2.17 14.95-3.86 1.7-.58 3.34-1.27 4.94-2.03a103.04 103.04 0 0 1-9.6-18.5l-2.5 1.25Zm-85.41 36.99c.25.5.53.98.8 1.47 4.3-3.81 8.92-7.4 13.84-10.68a94.18 94.18 0 0 1 4.96-3.1 98.09 98.09 0 0 1-6.2-18.87c-2.57 2-5.12 4.15-7.65 6.48a139.4 139.4 0 0 0-11.36 11.8c1.54 4.37 3.4 8.67 5.6 12.9Zm-17.88 13.17c.92 1.77 1.9 3.5 2.92 5.19a117.74 117.74 0 0 1 14.37-15.66c-2.5-4.54-4.61-9.21-6.36-14-5 5.97-9.56 12.22-13.8 18.47.89 2.02 1.84 4.02 2.87 6Zm700.99 199.5c.3.27.25.73-.12 1.08-.4.37-.93.44-1.25.15-48-43.58-102.94-82.5-163.86-116.13-3.4 3.6-6.86 7.15-10.4 10.65a961.9 961.9 0 0 1 13.97 8.04c51.43 30.22 98.87 64.94 141.01 103.2.3.29.25.74-.12 1.1-.4.37-.93.43-1.24.14-45.65-41.44-97.58-78.68-154.97-111.16l-2.11 2.07a384.53 384.53 0 0 1-9.88 9.21c1.77 1.03 3.55 2.06 5.31 3.1 51.43 30.21 98.87 64.93 141.01 103.2.3.27.25.73-.12 1.09-.4.37-.93.43-1.25.14-43.36-39.37-92.4-74.94-146.39-106.24a436.14 436.14 0 0 1-13.78 11.78c50.33 29.83 96.81 63.96 138.18 101.52.3.28.25.74-.12 1.1-.4.36-.93.43-1.25.14-41.19-37.4-87.51-71.38-138.33-101.52l-3.1 2.5a124.85 124.85 0 0 1-10.49 7.63c47.74 28.85 91.91 61.61 131.42 97.48.3.28.25.74-.13 1.1-.39.36-.92.43-1.24.14-39.42-35.8-83.55-68.45-131.81-97.62a67.03 67.03 0 0 1-17.04 7.55l-.72.19c46.79 28.49 90.12 60.72 128.95 95.98.3.27.25.73-.13 1.09-.39.37-.92.43-1.24.14-38.95-35.36-82.49-67.66-130.07-96.56-2.5.64-5 1.21-7.45 1.78a174.73 174.73 0 0 0-15.44 4.06c47.33 28.7 91.13 61.23 130.34 96.83.3.28.25.74-.12 1.1-.4.36-.93.43-1.24.14-39.28-35.66-83.21-68.2-131.26-97.28l-.7.24a124.92 124.92 0 0 0-17.43 8.1c46.21 28.26 89.03 60.17 127.43 95.05.19.16.25.4.16.66-.1.31-.41.6-.77.71-.29.09-.56.04-.75-.14-38.36-34.82-81.16-66.68-127.9-95.24a140.9 140.9 0 0 0-15.02 9.86c44 27.37 84.84 58.08 121.63 91.48.3.28.25.74-.12 1.09-.4.37-.93.44-1.25.15-36.7-33.33-77.47-63.93-121.86-91.52-4.76 3.65-9.25 7.6-13.46 11.77a840.76 840.76 0 0 1 112.7 85.86c.3.28.26.73-.12 1.09-.4.37-.93.43-1.24.15-34.16-31.02-71.84-59.67-112.68-85.74a133.6 133.6 0 0 0-12.35 14.52 839.43 839.43 0 0 1 108.52 83.16c.3.27.25.73-.12 1.08-.4.38-.93.44-1.25.15-32.91-29.88-69.1-57.58-108.24-82.88l-1.27-.82a908.1 908.1 0 0 0-17.03-10.72l-1.29-.78a930.55 930.55 0 0 0-17.28-10.3l-1.31-.76a953.91 953.91 0 0 0-17.53-9.93l-1.33-.72a969.37 969.37 0 0 0-17.82-9.56l-1.34-.7a1010.6 1010.6 0 0 0-18.1-9.2l-1.37-.68a1004.53 1004.53 0 0 0-18.36-8.84l-1.4-.65a996.78 996.78 0 0 0-18.67-8.48l-1.42-.63c-6.23-2.74-12.56-5.44-18.96-8.12l-1.43-.59c-6.33-2.63-12.73-5.22-19.22-7.78l-1.45-.57c-6.41-2.52-12.9-5-19.46-7.45l-1.47-.56c-6.5-2.4-13.06-4.77-19.68-7.1l-1.49-.53a1286.62 1286.62 0 0 0-18.1-6.23l-1.74-.6-1.5-.5c-6.58-2.23-13.19-4.5-19.77-6.83l-1.5-.53a574.09 574.09 0 0 1-19.41-7.3l-1.44-.57a342.1 342.1 0 0 1-18.82-8.2l-1.38-.66a232.97 232.97 0 0 1-17.93-9.55l-1.3-.79c-5.82-3.5-11.39-7.29-16.67-11.4l-1.18-.92a126.88 126.88 0 0 1-14.81-13.65l-1.03-1.13a113.02 113.02 0 0 1-11.82-15.56l-.85-1.36a103.24 103.24 0 0 1-5.82-11l-.7-1.57a97.67 97.67 0 0 1-7.8-31.7l-.12-1.86c-1.23-25.1 7.75-53.9 25.08-79.9.12-.18.27-.3.43-.38a.88.88 0 0 1 .77 0c.33.16.5.58.2 1.04-13.24 19.85-21.57 41.28-24.12 61.98a98.19 98.19 0 0 0-.67 15.72c4.58-4.06 9.94-8.07 16.16-12.12-1.09-24.99 7.9-53.58 25.1-79.42.13-.18.28-.3.44-.38a.87.87 0 0 1 .76 0c.33.17.5.58.2 1.05-13.23 19.85-21.57 41.28-24.12 61.97a98.07 98.07 0 0 0-.67 15.68l.44-.28c6.79-4.3 14.02-8.51 21.78-12.72.63-23.3 9.48-49.13 25.16-72.67.12-.18.27-.3.43-.37a.87.87 0 0 1 .77-.01c.33.17.5.59.2 1.05-13.24 19.85-21.57 41.28-24.12 61.97a99.9 99.9 0 0 0-.69 9.08 516.74 516.74 0 0 1 21.12-10.7c1.53-22.14 10.22-46.25 24.95-68.35.12-.18.27-.3.42-.38a.88.88 0 0 1 .77 0c.33.16.5.58.2 1.04C381.24-23.83 372.9-2.4 370.35 18.3c-.2 1.63-.35 3.26-.47 4.88l2.38-1.13c6.2-2.91 12.58-5.52 19.4-7.93 2-21.44 10.58-44.55 24.74-65.8.11-.18.26-.3.43-.38a.92.92 0 0 1 .36-.1c.29 0 .55.12.67.35.14.23.1.52-.07.8-13.23 19.84-21.57 41.27-24.12 61.97l-.27 2.55 1.21-.42 2.45-.82c6.2-2.09 12.57-4.25 18.75-7.21 2.29-20.95 10.79-43.4 24.57-64.1.12-.17.27-.3.43-.37a.88.88 0 0 1 .77 0c.33.16.5.58.2 1.04-13.24 19.86-21.58 41.29-24.13 61.98l-.05.57c.77-.39 1.54-.79 2.31-1.21 7.41-4.1 13.8-9.58 19.52-15.68 3.6-17.85 11.42-36.37 22.94-53.65.12-.18.27-.3.43-.38a.88.88 0 0 1 .76 0c.34.16.51.58.2 1.04-10.8 16.22-18.35 33.5-22.14 50.57 6.79-7.68 12.6-16.18 18.04-24.12l.1-.14c.12-.18.27-.3.42-.37a.88.88 0 0 1 .78 0c.33.17.5.59.18 1.04l-.2.3c-5.86 8.56-12.25 17.87-19.9 26.13-.58 2.87-1.05 5.72-1.4 8.57a97.54 97.54 0 0 0-.55 18.2 154.56 154.56 0 0 0 20.05-17.05c.97-22.9 9.76-48.1 25.1-71.13.12-.18.27-.3.43-.37a.88.88 0 0 1 .77 0c.33.16.5.58.2 1.04-13.24 19.85-21.57 41.28-24.12 61.98a99.76 99.76 0 0 0-.59 6.64A150.05 150.05 0 0 0 479.07-27a.59.59 0 0 1 .24-.23c.16-.08.3-.02.33 0 .59.29-1.3 3.34-1.31 3.37A138.95 138.95 0 0 1 460.82-2a94.2 94.2 0 0 0 2.4 24.47c7-5.94 13.62-12.3 19.73-19.03l-.03-.24c-2.88-26.28 6.12-57.33 24.68-85.18.12-.18.26-.3.42-.38a.88.88 0 0 1 .77 0c.33.17.5.58.2 1.05-13.23 19.85-21.57 41.28-24.12 61.97-.88 7.1-.97 14.1-.32 21 7.77-8.76 14.7-18.1 20.55-27.81 2.38-20.78 10.85-43 24.5-63.48.11-.17.26-.3.43-.38a.92.92 0 0 1 .36-.09c.29-.01.55.12.67.34.14.23.11.52-.07.8-12.8 19.2-21 39.88-23.83 59.94.08-.02.15-.06.24-.07.3-.02.56.08.69.27.13.2.12.45-.03.7l-1.3 2.19a95.66 95.66 0 0 0 .82 27.59 396.92 396.92 0 0 0 17.47-22.25c-.18-24.17 8.75-51.36 25.2-76.05.11-.18.26-.3.42-.37a.88.88 0 0 1 .77 0c.33.16.5.58.2 1.04C538.4-76.13 530.06-54.7 527.51-34a99.1 99.1 0 0 0-.74 11.02l.8-1.12c.12-.16.27-.29.43-.36.13-.06.26-.1.4-.1.3 0 .54.14.66.36.12.23.08.52-.1.78l-2.17 3a93.9 93.9 0 0 0 4.37 26.97 396.6 396.6 0 0 0 16.29-21.28c.1-.16.26-.29.42-.36.13-.06.26-.1.4-.1.29 0 .54.14.66.36.12.23.08.52-.11.78a390.13 390.13 0 0 1-17.11 22.27 100.8 100.8 0 0 0 9.1 19.68 397.16 397.16 0 0 0 26.5-33.26c.12-.16.26-.29.43-.36.13-.06.26-.1.4-.1.29 0 .54.14.65.36.13.23.09.52-.1.78a396.77 396.77 0 0 1-27.1 33.89c3.53 5.72 7.56 11 11.97 15.87A397.57 397.57 0 0 0 587.2 4c.11-.16.26-.29.43-.36.12-.06.26-.1.4-.1.28 0 .53.14.65.36.13.23.09.52-.1.78a400.43 400.43 0 0 1-34.01 41.44c4.42 4.77 9.2 9.15 14.24 13.19a397.33 397.33 0 0 0 38.26-45.94c.12-.18.27-.3.42-.37a.89.89 0 0 1 .8.01c.32.18.48.6.15 1.04a402.46 402.46 0 0 1-38.5 46.16 169.27 169.27 0 0 0 16.11 11.15 397.19 397.19 0 0 0 40.89-48.62c.11-.16.26-.29.42-.36.13-.06.26-.1.4-.1.3 0 .54.14.66.36.12.23.08.52-.1.78a403.66 403.66 0 0 1-41 48.71c5.8 3.5 11.73 6.66 17.66 9.55a397.2 397.2 0 0 0 41.83-49.57c.12-.17.26-.3.42-.37a.89.89 0 0 1 .8 0c.32.19.47.6.15 1.05a404.26 404.26 0 0 1-41.82 49.57c6.36 3.05 12.7 5.8 18.87 8.3a397.18 397.18 0 0 0 41.44-49.18c.12-.16.26-.29.43-.36.13-.07.26-.1.4-.1.29 0 .54.14.65.36.13.23.09.52-.1.78a403.9 403.9 0 0 1-41.36 49.1 496.01 496.01 0 0 0 19.71 7.45 397.1 397.1 0 0 0 40.14-47.86c.12-.16.26-.29.43-.36.12-.06.26-.1.4-.1.28 0 .53.14.65.36.13.23.09.52-.1.78a403.57 403.57 0 0 1-40.02 47.72c6.73 2.4 13.5 4.7 20.18 6.98a397.09 397.09 0 0 0 38.33-46.01c.12-.18.27-.3.42-.37a.89.89 0 0 1 .8.01c.32.18.48.6.15 1.04a402.43 402.43 0 0 1-38.18 45.84l3.14 1.07c5.62 1.9 11.37 3.85 17.09 5.83a397.25 397.25 0 0 0 36.45-44.05c.11-.16.26-.29.42-.36.13-.06.27-.1.4-.1.29 0 .54.14.66.36.12.23.08.52-.1.78a401.36 401.36 0 0 1-36.33 43.9 983.42 983.42 0 0 1 19.95 7.18 397.06 397.06 0 0 0 34.87-42.4c.12-.17.26-.28.42-.36a.88.88 0 0 1 .8 0c.32.19.47.6.15 1.05a400.76 400.76 0 0 1-34.77 42.25c6.54 2.44 13.09 4.95 19.62 7.53A397.26 397.26 0 0 0 766 88.33c.12-.15.26-.28.43-.36.13-.06.26-.09.4-.09.29 0 .54.14.65.36.13.23.09.52-.1.78A400.26 400.26 0 0 1 733.8 130c6.46 2.55 12.9 5.17 19.32 7.84a397.25 397.25 0 0 0 32.75-40.13c.12-.16.26-.29.43-.37.12-.06.26-.09.4-.09.29 0 .54.14.65.36.13.23.09.52-.1.78a399.98 399.98 0 0 1-32.71 40.05l4.14 1.74c4.98 2.1 9.94 4.25 14.87 6.43a397.4 397.4 0 0 0 32.19-39.54c.12-.17.27-.28.42-.36a.88.88 0 0 1 .8 0c.32.19.47.6.15 1.05a399.37 399.37 0 0 1-32.16 39.47c6.26 2.78 12.5 5.62 18.68 8.52a396.99 396.99 0 0 0 31.98-39.3c.12-.18.26-.3.42-.37a.89.89 0 0 1 .8 0c.32.19.47.6.15 1.05a398.96 398.96 0 0 1-31.97 39.26c6.17 2.9 12.3 5.85 18.38 8.85a397.27 397.27 0 0 0 32.09-39.43c.12-.17.26-.28.42-.36a.88.88 0 0 1 .8 0c.32.19.47.6.15 1.05a399.28 399.28 0 0 1-32.11 39.41c6.06 3.01 12.09 6.07 18.06 9.18a397.1 397.1 0 0 0 32.54-39.9c.12-.16.26-.29.43-.37.12-.06.26-.09.4-.09.29 0 .54.14.65.36.13.23.09.51-.1.78a399.65 399.65 0 0 1-32.59 39.92c5.97 3.12 11.89 6.3 17.75 9.52a397.52 397.52 0 0 0 33.33-40.75c.12-.16.26-.29.43-.37.12-.06.26-.09.4-.09.28 0 .54.14.65.36.12.23.08.51-.1.78a400.1 400.1 0 0 1-33.4 40.78c7.74 4.27 15.4 8.62 22.95 13.06 51.43 30.22 98.87 64.94 141.01 103.2Z" fill="#005F9C"/><path opacity=".3" d="m465.54 61.93-305.4 52.7v26.06l305.4 53.06V61.93Z" fill="url(#c)"/><path d="M24.05 146.56c3.53-.28 9.13 12.13 9.84 15.56a56.73 56.73 0 0 1-.55 24.63 221.5 221.5 0 0 0 4.94-11.92c.46-9.36 1.06-18.93 4.64-27.58a41.02 41.02 0 0 1 5.66-9.77c1.21-1.55 3.51-1.42 3.88.51.18.93.23 1.9.21 2.8.02 13.16-6.86 28.38-12.2 34.73a205.1 205.1 0 0 1-5.55 13.22 81.77 81.77 0 0 1 11.89-12.75c6.09-5.28 13.83-9.47 21.9-9.55 1.14-.01 1.93 1.08 1.45 2.12-1.1 2.37-3.01 4.4-5 6.12-10.03 8.48-23.58 12.17-33.4 20.81a248.1 248.1 0 0 1-7.46 13.78c5.9-4.24 12.25-7.97 18.85-11.1 6.27-3 13.13-5.44 20-5.05 1.53.09 2.84 1.31 2.38 2.77-1.87 5.9-14.04 11.3-18.16 12.47-3.39.97-6.89 1.2-10.38 1.7-4.8.7-9.55.71-14.31 1.87a238.3 238.3 0 0 1-13.37 19.76 88.83 88.83 0 0 1 12.53-8.32c7.17-3.82 15.52-6.24 23.42-4.56 1.12.24 1.66 1.49.96 2.4-1.6 2.08-3.9 3.62-6.2 4.83-11.26 5.9-24.8 6.7-36 12.45a208.42 208.42 0 0 1-13.27 14.95 127.47 127.47 0 0 1 20.48-9.01c6.76-2.25 14.12-3.87 21.02-2.47 1.04.2 1.62 1.29 1.14 2.22-3.68 7.08-14.79 10.2-19.24 10.92-3.44.6-6.97.38-10.5.42-4.89.15-9.65-.36-14.56.13-.18.03-.45.04-.64.07a207 207 0 0 1-15.88 14.57 88.48 88.48 0 0 1 12.42-5.71c7.8-2.84 16.6-3.98 24.21-1 .85.32 1.14 1.36.52 2.02-1.9 2.04-4.57 3.33-7.2 4.26-12.56 4.45-26.77 2.92-39.08 7.7a125.8 125.8 0 0 1-12.97 8.9c8.66-2.66 13.04-1.22 22.03-1.85 7.32-.54 15.11-.32 21.62 2.96.68.35 1.08 1.12.75 1.81-1.05 2.21-3.99 3.31-6.52 3.95-5.1 1.4-10.36 2.75-15.58 2.27-3.5-.3-6.88-1.35-10.32-2.16-4.77-1.04-9.27-2.7-14.17-3.36-.93-.11-1.86-.22-2.82-.26-3.05 1.87-6.17 3.7-9.27 5.47-1.29.74-2.63-1.17-1.26-1.89 2.63-1.46 5.19-3.04 7.8-4.54 6.78-10.46 4.19-23.48 7-35.62.76-3.28 1.86-6.55 4.2-8.98.42-.49 1.16-.87 1.67-.54.21.16.4.4.5.68 3.46 7.5 3.74 16.21 1.45 24.12-1.84 6.46-5.42 12.3-10.05 17.28 5.4-3.51 10.7-7.23 15.78-11.1 5.1-12.13 3.23-26.17 6.59-38.94.59-2.19 1.4-4.49 2.96-6.11.28-.35.73-.65 1.23-.58.35.02.6.36.87.62 3.7 4.76 3.75 11.37 2.76 17.4a57.38 57.38 0 0 1-10.72 24.8 233.74 233.74 0 0 0 18.37-16.35c3.42-11.52-.92-23.86-1.19-36 0-3.34.27-6.78 1.89-9.7.33-.51.88-1.13 1.52-.94.24.08.43.31.62.55 5.14 6.35 7.62 14.78 7.25 23.02-.2 6-1.86 11.91-4.5 17.25 4.1-4.36 7.96-8.87 11.7-13.51 1.66-12.68-3.35-25.68-3.2-38.56 0-2.29.22-4.68 1.37-6.7.2-.37.52-.8 1.05-.81.37-.06.64.2.94.38 4.72 3.75 6.41 10.17 6.93 16.14a57.24 57.24 0 0 1-3.88 25.44 277.4 277.4 0 0 0 14.01-19.98c2.45-12.09-5.01-21.9-6.54-34.78-.46-3.3-.53-6.76.79-9.87.28-.61.74-1.26 1.41-1.14 7.13 1.28 13.29 21.72 6.87 42.34 1.97-3.52 6.03-12.02 7.76-15.61.4-13.16-6.35-25.64-7.7-38.82-.15-1.35-.77-7.5 1.6-7.68Z" fill="#056AA6"/><circle cx="193.56" cy="48.43" r="1.41" fill="#F8F9FA"/><circle cx="190.53" cy="35.35" r="2.83" fill="#F8F9FA"/><circle cx="118.21" cy="52.83" r="3.18" fill="#F8F9FA"/><circle cx="123.16" cy="30.21" r="6.36" fill="#F8F9FA"/></g><defs><linearGradient id="b" x1="160.14" y1="127.66" x2="267.49" y2="127.66" gradientUnits="userSpaceOnUse"><stop stop-color="#FFF3BF"/><stop offset="1" stop-color="#FFF3BF" stop-opacity="0"/></linearGradient><linearGradient id="c" x1="160.14" y1="127.66" x2="465.54" y2="127.66" gradientUnits="userSpaceOnUse"><stop stop-color="#FFF3BF"/><stop offset="1" stop-color="#FFF3BF" stop-opacity="0"/></linearGradient><clipPath id="a"><path fill="#fff" d="M0 0h456v290.92H0z"/></clipPath></defs></svg>