<svg width="199" height="28" fill="none" xmlns="http://www.w3.org/2000/svg"><path fill-rule="evenodd" clip-rule="evenodd" d="M6.561 10.391c.381-1.032.906-1.844 1.575-2.439.09-.036.183-.06.28-.069a9.74 9.74 0 0 1 .696-.014c.204 0 .385.014.542.042.158.028.321.084.489.167.167.085.362.2.584.348l-2.842 2.257.67.53v7.525a4.017 4.017 0 0 1-1.728-1.616c-.557-.966-.836-2.258-.836-3.874-.001-.873.189-1.825.57-2.857Zm-.265-2.883c.167 0 .381.027.641.083.26.056.501.112.725.167-1.56.688-2.769 1.83-3.623 3.428a9.673 9.673 0 0 0-1.115 4.57c0 2.043.71 3.794 2.131 5.253 1.422 1.46 3.155 2.189 5.198 2.189 1.968 0 3.632-.754 4.988-2.258 1.356-1.505 2.035-3.28 2.035-5.323a4.618 4.618 0 0 1-.628 1.072c-.297.352-.629.675-.99.963-.278.24-.53.421-.751.542-.222.12-.51.256-.864.405V8.566c.447-.186.804-.375 1.073-.571.27-.194.563-.478.88-.85.816-.91 1.271-1.924 1.365-3.038-.595.39-1.13.679-1.603.864a5.92 5.92 0 0 1-1.602.363c-.094 0-.224.01-.391.027-.65 0-1.621-.255-2.912-.767-1.29-.51-2.309-.766-3.051-.766-1.468 0-2.648.688-3.54 2.062-.799 1.226-1.199 2.684-1.199 4.374.111-.52.38-1.012.809-1.476.316-.35.682-.65 1.086-.892.41-.258.856-.388 1.338-.388Zm13.572 15.55 2.426-2.704-1.227-1.281v-7.247l.697-.472 1.951 1.476v9.558c0 .54-.033 1-.098 1.38a2.142 2.142 0 0 1-.43.99l-.684.85c-.306.38-.692.68-1.156.904.928-.093 1.69-.302 2.285-.626.594-.324 1.208-.84 1.84-1.545.463-.522.812-1.042 1.044-1.562a5.85 5.85 0 0 0 .46-1.673v-10.7l-.835.055-2.62-1.756-1.896 1.56-.613-.334V4.636l-.557-1.198-2.48 2.424v13.74l-.752.89 2.645 2.566Zm8.305-3.038 4.487 2.841 4.263-4.486-2.313 1.645-2.842-2.036V16.09l5.071-3.79-3.232-4.348-5.155 3.596v7.858l-.279.614Zm14.91-14.018v5.211a3.432 3.432 0 0 0-.906.195 2.73 2.73 0 0 0-.738.474c-.744.577-1.116 1.318-1.116 2.23-.005.282.033.565.113.836.259-.222.515-.372.765-.446.251-.074.563-.112.935-.112.185 0 .334.02.446.057.111.038.28.11.501.224v5.126l3.846 3.875 3.54-3.596 4.264 3.596 6.215-6.019V7.34l-3.846-2.953-2.843 2.563-3.873-2.563-3.456 2.899v-1.7c0-.558-.399-1.189-1.197-1.895a10.06 10.06 0 0 1-.683-.515c-.214-.177-.34-.429-.376-.753a7.302 7.302 0 0 1-.056-.794c0-.631.214-1.134.642-1.505a3.351 3.351 0 0 0-.474-.056c-.836 0-1.575.348-2.216 1.045-.641.698-.961 1.473-.961 2.328 0 .13.018.306.056.529.163.909.636 1.587 1.417 2.032ZM61.698 20.16l3.456 2.425 2.508-2.368 2.982 2.09 2.563-2.76h-.891l-1.142-1.17V10.21l-.614.11-2.898-2.424-5.49 3.789v7.998l-.474.475ZM78.32 8.44a4.909 4.909 0 0 1-.988-.626l-4.542 3.204v5.407l.417.335h2.703l-3.51 6.101c.538-.463.957-.77 1.254-.92a3.024 3.024 0 0 1 1.366-.305c.594 0 1.076.07 1.449.209.372.14.752.385 1.143.738l4.458-3.51v-5.49l-.335-.335h-2.982v-.279l2.648-4.655c-.28.169-.502.266-.67.293a5.52 5.52 0 0 1-.807.042h-.585a2.401 2.401 0 0 1-1.019-.209Zm7.065 14.227 2.453-2.73-1.226-1.283v-7.245l.669-.473 1.977 1.504v9.53c.007.463-.025.925-.098 1.381a2.152 2.152 0 0 1-.46.99 24.95 24.95 0 0 0-.613.807c-.334.39-.741.71-1.198.945.854-.072 1.611-.281 2.271-.624.66-.344 1.278-.85 1.853-1.52a6.426 6.426 0 0 0 1.004-1.573c.242-.548.4-1.11.474-1.687V9.988l-.808.083-2.647-1.756-1.896 1.533-.613-.334V4.247L86 3.022l-2.508 2.424v13.767l-.752.863 2.647 2.591Zm13.405-16.47-2.508-2.034-2.034 2.23 2.118 1.922 2.424-2.118Zm-3.93 6.298v7.579l-.529.81h.947l2.174 1.837 2.285-2.09L102.664 23l2.563-2.84-.808-1.03V12.02l.669-.334 1.477 1.617v6.966l2.591 2.258 2.51-2.843h-1.171l-.669-1.087v-7.58l.334-.697-.668.14-2.563-2.035-2.509 2.591-2.926-2.313-2.424 2.703h.948l.808.947v6.966l-1.616.558-1.032-.807v-7.804l.335-.473-2.898-2.146-2.37 2.508.809.25.807 1.089Zm50.107 7.329-.805-1.032v-7.105l.666-.334 1.477 1.616v6.996l2.594 2.229 2.507-2.844h-1.171l-.668-1.086v-7.58l.334-.67-.669.112-2.562-2.034-2.507 2.591-2.928-2.313-2.425 2.704h.947l.808.947v6.995l-1.004 1.338 3.093 2.034 2.313-2.564Zm-32.772.057c.37 0 .71.046 1.017.139.306.093.607.256.905.488.298.234.516.455.655.668.139.214.256.506.349.877l-1.449 1.869-1.533 2.063c.391-.224.725-.359 1.004-.405.278-.047.687-.068 1.227-.068.63.054 1.169.203 1.613.445.448.242.854.603 1.227 1.087.892-.335 1.928-1.079 3.107-2.229 1.182-1.152 1.772-2.1 1.772-2.843 0-.13-.135-.53-.406-1.197a5.618 5.618 0 0 1-.403-2.12V9.989l-3.875-2.426-4.877 3.457v8.25l-.333.61Zm9.613-9.531h1.618v9.67l-.391.753h.947l2.035 1.56 2.62-2.983h-1.142l-.753-.808v-7.997l1.644-2.035h-1.644V3.187l-3.315 3.094v2.118l-1.619 1.95Zm7.053 9.53 3.454 2.453 6.021-4.207V9.932l-.613.14-2.9-2.453-5.489 3.79v7.998l-.473.474Zm28.284-13.822V8.65c-.483 0-.892.051-1.226.153-.335.103-.653.302-.962.6a1.75 1.75 0 0 0-.541 1.03c-.056.39-.085.902-.085 1.534 0 .26-.01.436-.028.529.409-.65.975-.92 1.7-.808.484.074.865.28 1.142.613v4.32a7.586 7.586 0 0 0-2.228 1.755c-.708.837-1.181 1.699-1.423 2.592a6.939 6.939 0 0 1 1.004-.655c.279-.14.669-.282 1.171-.431.186-.057.399-.117.641-.182.241-.065.52-.097.836-.097v8.332l3.652-2.983 1.225.89v-4.737l1.562.53 5.267-3.65V5.723l-3.374-2.703-3.456 2.898V4.386l-.666-.557V6.28l-.558.39V4.107l-2.844-2.174-3.371 3.317c.278-.168.566-.251.862-.251.242 0 .474.038.698.111.501.187.835.502 1.002.948Zm12.179 14.101 3.457 2.425 6.046-4.208v-8.164l-.613.11-2.925-2.424-5.491 3.789v7.998l-.474.474Zm15.998-11.844a7.561 7.561 0 0 1-1.032-.612l-4.516 3.176v5.407l.391.334h2.704l-3.511 6.102c.389-.334.715-.584.975-.752.481-.315 1.039-.474 1.672-.474.577 0 1.048.07 1.421.21.37.139.752.384 1.142.737l4.459-3.51v-5.49l-.335-.334h-2.982v-.28l2.647-4.654c-.279.167-.501.264-.669.293a5.33 5.33 0 0 1-.807.042h-.584c-.373 0-.698-.065-.975-.195Zm3.788 2.174h1.618v9.67l-.391.753h.947l2.006 1.56 2.648-2.982h-1.142l-.753-.808v-7.998l1.615-2.034h-1.615V3.327l-3.315 3.093v2.118l-1.618 1.951Zm-123.623.25 2.174 1.617v6.493l-.697.753-1.478-1.281.001-7.581Zm53.953 11.427c.446.317.669.715.669 1.199 0 .221-.021.389-.057.499a2.25 2.25 0 0 1-.252.334.985.985 0 0 1-.556.279c-.241.038-.558-.079-.947-.347-.391-.27-.977-.405-1.755-.405-.503 0-.957.046-1.366.139a5.72 5.72 0 0 0-1.283.476l4.07-5.017v.642c0 .37.032.677.097.92.066.24.209.473.431.697.317.203.634.398.949.584Zm-3.594-11.76 2.118 1.56v6.299l-.615.668-1.503-1.505v-7.022Zm-84.08 4.876v-4.069l2.035 2.564-2.034 1.505Zm47.74-4.598-1.895 3.373H76.19v-3.651a3.32 3.32 0 0 0 1.81.529 4.58 4.58 0 0 0 1.507-.25Zm53.143-.223 2.174 1.645v6.493l-.696.752-1.479-1.31v-7.58h.001Zm-55.93 5.63h2.034v3.594a5.977 5.977 0 0 0-.878-.238c-.195-.025-.6-.04-1.213-.04a4.513 4.513 0 0 0-1.058.11 7.86 7.86 0 0 0-1.059.364l2.173-3.79Zm84.078-7.58.558-.474v15.911l-.558-.334V8.51Zm1.225-.892 1.7-1.086 1.227.891v10.479c-.579-.334-.892-.51-.949-.53l-.613-.195c-.456-.109-.911-.22-1.366-.335l.001-9.224ZM13.124 8.845c.186 0 .334-.019.446-.055v10.145a5.1 5.1 0 0 1-2.258.53 6.02 6.02 0 0 1-1.393-.167c-.466-.11-.828-.26-1.087-.448l3.177-3.178V8.706c.132.075.28.118.431.126.158.01.265.014.322.014l.362-.001Zm159.992 1.895 2.174 1.617v6.492l-.669.753-1.505-1.281V10.74ZM46.928 8.093l1.032-.808 2.146 2.174v10.005l-.864.89-2.313-2.228V8.093Zm138.839 2.647c.242-.036.474-.102.696-.195l-1.894 3.371h-1.421v-3.65a3.45 3.45 0 0 0 1.839.53c.279 0 .539-.019.78-.056Zm-2.091 5.212h2.036v3.594a5.362 5.362 0 0 0-.877-.236c-.197-.028-.601-.042-1.213-.042a4.425 4.425 0 0 0-1.06.11 6.969 6.969 0 0 0-1.032.363l2.146-3.79ZM54.257 8.092l1.004-.807 2.174 2.174v10.005l-.892.89-2.286-2.228V8.093Z" fill="#000" fill-opacity=".25"/></svg>