<?xml version="1.0" encoding="UTF-8" standalone="no"?>
<svg
   xmlns:dc="http://purl.org/dc/elements/1.1/"
   xmlns:cc="http://creativecommons.org/ns#"
   xmlns:rdf="http://www.w3.org/1999/02/22-rdf-syntax-ns#"
   xmlns:svg="http://www.w3.org/2000/svg"
   xmlns="http://www.w3.org/2000/svg"
   version="1.1"
   id="svg2"
   viewBox="0 0 212.59842 56.692914"
   height="16mm"
   width="60mm">
  <defs
     id="defs4" />
  <metadata
     id="metadata7">
    <rdf:RDF>
      <cc:Work
         rdf:about="">
        <dc:format>image/svg+xml</dc:format>
        <dc:type
           rdf:resource="http://purl.org/dc/dcmitype/StillImage" />
        <dc:title></dc:title>
      </cc:Work>
    </rdf:RDF>
  </metadata>
  <g
     transform="translate(-27.083522,-19.542193)"
     id="layer1">
    <path
       d="m 210.64133,73.271462 0,-4.416015 5.49219,-0.296875 1.1875,-1.447266 0,-39.001953 -1.1875,-1.113281 -5.49219,-0.296875 0,-4.416016 27.12695,0 0,4.416016 -5.60351,0.296875 -1.22461,1.113281 0,39.001953 1.22461,1.447266 5.60351,0.296875 0,4.416015 -27.12695,0 z m -59.47187,0 0,-4.267578 4.63867,-0.445312 1.44727,-1.447266 0,-39.001953 -1.00196,-1.113281 -5.08398,-0.556641 0,-4.15625 21.44922,0 0,2.041016 21.7832,33.80664 0,-29.6875 -1.33594,-1.447265 -4.97265,-0.556641 0,-4.15625 19.25976,0 0,4.15625 -4.49023,0.556641 -1.44727,1.447265 0,44.828125 -12.09765,0 -25.16016,-38.742187 0,32.582031 1.07617,1.447266 5.08399,0.445312 0,4.267578 -19.14844,0 z M 118.75032,26.921853 q -5.9375,0 -9.46289,5.789062 -3.48828,5.789063 -3.48828,15.697266 0,9.314453 3.63672,15.066406 3.67382,5.751953 9.38867,5.751953 5.71484,0 9.20312,-5.863281 3.48828,-5.863281 3.48828,-15.771484 0,-9.425781 -3.52539,-15.029297 -3.48828,-5.640625 -9.24023,-5.640625 z M 90.695629,47.2949 q 0,-11.763672 7.681641,-18.925781 7.71875,-7.16211 20.44727,-7.16211 5.19531,0 9.68555,1.410156 4.52734,1.373047 7.9414,4.007813 4.97266,3.822266 7.60742,9.203125 2.63477,5.380859 2.63477,11.689453 0,11.875 -7.97852,19.482422 -7.9414,7.570312 -20.52148,7.570312 -12.43164,0 -19.964848,-7.496093 Q 90.695629,59.578103 90.695629,47.2949 Z M 57.05188,26.921853 q -5.9375,0 -9.462891,5.789062 -3.488281,5.789063 -3.488281,15.697266 0,9.314453 3.636719,15.066406 3.673828,5.751953 9.388672,5.751953 5.714843,0 9.203125,-5.863281 3.488281,-5.863281 3.488281,-15.771484 0,-9.425781 -3.525391,-15.029297 -3.488281,-5.640625 -9.240234,-5.640625 z M 28.997192,47.2949 q 0,-11.763672 7.681641,-18.925781 7.71875,-7.16211 20.447266,-7.16211 5.195312,0 9.685546,1.410156 4.527344,1.373047 7.941407,4.007813 4.972656,3.822266 7.607422,9.203125 2.634765,5.380859 2.634765,11.689453 0,11.875 -7.978515,19.482422 -7.941407,7.570312 -20.521485,7.570312 -12.43164,0 -19.964844,-7.496093 Q 28.997192,59.578103 28.997192,47.2949 Z"
       style="color:#000000;font-style:normal;font-variant:normal;font-weight:bold;font-stretch:normal;font-size:76px;line-height:139.99999762%;font-family:'CharterITC BT';-inkscape-font-specification:'CharterITC BT Bold';text-indent:0;text-align:start;text-decoration:none;text-decoration-line:none;text-decoration-style:solid;text-decoration-color:#000000;letter-spacing:-0.2px;word-spacing:0px;text-transform:none;direction:ltr;block-progression:tb;writing-mode:lr-tb;baseline-shift:baseline;text-anchor:start;white-space:normal;clip-rule:nonzero;visibility:visible;isolation:auto;mix-blend-mode:normal;color-interpolation:sRGB;color-interpolation-filters:linearRGB;solid-color:#000000;solid-opacity:1;fill:#000000;fill-opacity:1;fill-rule:nonzero;stroke:none;stroke-width:3.5;stroke-linecap:round;stroke-linejoin:round;stroke-miterlimit:4;stroke-dasharray:none;stroke-dashoffset:0;stroke-opacity:1;marker:none;marker-start:none;marker-mid:none;marker-end:none;color-rendering:auto;image-rendering:auto;shape-rendering:auto;text-rendering:auto"
       id="path4185" />
  </g>
</svg>
