<?xml version="1.0" encoding="utf-8"?>
<!-- Generator: Adobe Illustrator 17.1.0, SVG Export Plug-In . SVG Version: 6.00 Build 0)  -->
<!DOCTYPE svg PUBLIC "-//W3C//DTD SVG 1.1//EN" "http://www.w3.org/Graphics/SVG/1.1/DTD/svg11.dtd">
<svg version="1.1" xmlns="http://www.w3.org/2000/svg" xmlns:xlink="http://www.w3.org/1999/xlink" x="0px" y="0px"
	 viewBox="0 0 1163.337 196.825" enable-background="new 0 0 1163.337 196.825" xml:space="preserve">
<g id="Layer_1">
</g>
<g id="Logo">
	<g>
		<g>
			<g>
				<g>
					<line x1="763.318" y1="15.299" x2="763.318" y2="196.824"/>
				</g>
				<g>
					<rect x="755.995" y="15.298" width="14.644" height="181.527"/>
				</g>
			</g>
			<g>
				<path d="M875.801,59.647c7.027,5.373,10.544,13.382,10.544,24.024c0,11.349-3.667,19.783-10.995,25.304
					c-7.331,5.524-17.072,8.285-29.221,8.285h-13.104v38.107h-14.309V51.588h27.262C858.83,51.588,868.771,54.276,875.801,59.647z
					 M864.58,101.143c4.368-3.213,6.552-8.985,6.552-17.321c0-7.43-2.184-12.803-6.552-16.116
					c-4.368-3.314-10.619-4.971-18.753-4.971h-12.803v43.229h12.502C853.859,105.963,860.212,104.358,864.58,101.143z"/>
				<path d="M937.256,75.086l-2.561,13.555c-2.41-0.602-4.721-0.902-6.929-0.902c-4.921,0-8.887,1.807-11.899,5.422
					c-3.012,3.615-5.373,9.239-7.079,16.869v45.338h-13.857V75.99h11.899l1.355,16.116c2.109-5.924,4.971-10.393,8.586-13.405
					c3.614-3.013,7.832-4.519,12.652-4.519C932.233,74.182,934.846,74.483,937.256,75.086z"/>
				<path d="M996.824,85.329c6.176,7.432,9.264,17.523,9.264,30.274c0,8.235-1.407,15.491-4.218,21.765
					c-2.813,6.277-6.879,11.146-12.2,14.61c-5.323,3.464-11.649,5.196-18.979,5.196c-11.146,0-19.833-3.713-26.058-11.146
					c-6.228-7.431-9.339-17.521-9.339-30.274c0-8.232,1.405-15.488,4.218-21.766c2.811-6.274,6.877-11.146,12.2-14.61
					c5.321-3.464,11.697-5.196,19.129-5.196C981.988,74.182,990.648,77.899,996.824,85.329z M950.207,115.754
					c0,20.183,6.827,30.274,20.484,30.274c13.655,0,20.484-10.142,20.484-30.426c0-20.183-6.777-30.274-20.334-30.274
					C957.084,85.329,950.207,95.471,950.207,115.754z"/>
				<path d="M1079.29,85.102c5.321,7.281,7.983,17.449,7.983,30.501c0,8.235-1.257,15.491-3.766,21.765
					c-2.511,6.277-6.126,11.146-10.845,14.61c-4.721,3.464-10.242,5.196-16.568,5.196c-8.336,0-15.363-3.514-21.087-10.543
					l-1.355,8.736h-12.201V44.057l13.857-1.656V85.93c5.724-7.832,13.203-11.748,22.443-11.748
					C1066.789,74.182,1073.967,77.823,1079.29,85.102z M1067.165,138.723c3.465-4.971,5.196-12.676,5.196-23.12
					c0-10.743-1.607-18.501-4.819-23.271c-3.215-4.769-7.783-7.155-13.707-7.155c-7.029,0-13.205,4.118-18.526,12.351v37.957
					c2.109,3.314,4.693,5.926,7.757,7.832c3.063,1.909,6.301,2.862,9.716,2.862C1058.904,146.179,1063.701,143.694,1067.165,138.723
					z"/>
				<path d="M1163.035,120.422h-50.608c0.603,8.736,2.81,15.164,6.627,19.28c3.815,4.118,8.736,6.175,14.761,6.175
					c3.815,0,7.329-0.551,10.544-1.656c3.212-1.104,6.575-2.861,10.092-5.271l6.024,8.283c-8.435,6.628-17.675,9.941-27.714,9.941
					c-11.048,0-19.656-3.615-25.832-10.844c-6.176-7.23-9.264-17.172-9.264-29.824c0-8.232,1.33-15.537,3.992-21.915
					c2.659-6.376,6.477-11.372,11.447-14.987c4.971-3.614,10.818-5.422,17.547-5.422c10.544,0,18.626,3.465,24.25,10.393
					c5.623,6.929,8.436,16.52,8.436,28.77C1163.337,115.655,1163.235,118.013,1163.035,120.422z M1149.63,109.277
					c0-7.832-1.558-13.806-4.669-17.924c-3.114-4.116-7.783-6.176-14.008-6.176c-11.349,0-17.524,8.337-18.526,25.003h37.203
					V109.277z"/>
			</g>
		</g>
		<g>
			<g id="Page-1_26_">
				<g id="Wordmark-Horizontal_26_">
					<g id="Logo-wordmark-HORIZ_26_" transform="translate(1.000000, 1.000000)">
						<g id="Wordmark_26_" transform="translate(206.000000, 68.000000)">
							<g id="Fill-10_26_">
								<g>
									<path d="M41.75,34.26c0-16.843,5.511-30.388,16.536-40.643c11.078-10.254,25.75-15.38,44.02-15.38
										c7.456,0,14.405,1.008,20.851,3.028c6.496,1.965,12.196,4.834,17.096,8.606c7.136,5.473,12.594,12.061,16.378,19.765
										c3.781,7.704,5.67,16.071,5.67,25.102c0,17.001-5.725,30.949-17.176,41.839c-11.395,10.84-26.123,16.257-44.176,16.257
										c-17.844,0-32.168-5.365-42.982-16.096C47.156,66.006,41.75,51.847,41.75,34.26L41.75,34.26z M102.145-9.491
										c-8.521,0-15.312,4.143-20.37,12.433c-5.008,8.287-7.511,19.524-7.511,33.708c0,13.337,2.61,24.122,7.831,32.356
										c5.272,8.234,12.01,12.352,20.211,12.352s14.806-4.196,19.811-12.591c5.008-8.395,7.511-19.684,7.511-33.869
										c0-13.496-2.531-24.252-7.589-32.276C117.032-5.453,110.402-9.491,102.145-9.491L102.145-9.491z M174.573,34.26
										c0-16.843,5.514-30.388,16.536-40.643c11.078-10.254,25.753-15.38,44.02-15.38c7.456,0,14.405,1.008,20.851,3.028
										c6.496,1.965,12.196,4.834,17.096,8.606c7.136,5.473,12.597,12.061,16.378,19.765s5.672,16.071,5.672,25.102
										c0,17.001-5.725,30.949-17.176,41.839c-11.398,10.84-26.123,16.257-44.178,16.257c-17.841,0-32.168-5.365-42.979-16.096
										C179.978,66.006,174.573,51.847,174.573,34.26L174.573,34.26z M234.97-9.491c-8.521,0-15.312,4.143-20.373,12.433
										c-5.008,8.287-7.509,19.524-7.509,33.708c0,13.337,2.61,24.122,7.829,32.356c5.272,8.234,12.01,12.352,20.211,12.352
										s14.806-4.196,19.813-12.591c5.005-8.395,7.509-19.684,7.509-33.869c0-13.496-2.529-24.252-7.589-32.276
										C249.854-5.453,243.225-9.491,234.97-9.491L234.97-9.491z M304.761,90.044v-9.164l9.985-0.957l3.116-3.108V-6.94
										l-2.156-2.392l-10.944-1.194v-8.928h46.176v4.385L397.83,57.53V-6.224l-2.877-3.108l-10.705-1.194v-8.928h41.463v8.928
										l-9.667,1.194l-3.116,3.108v96.269h-26.043L332.723,6.847v69.968l2.315,3.108l10.944,0.957v9.164H304.761z M432.79,90.044
										v-9.483l11.824-0.638l2.557-3.108V-6.94l-2.557-2.392L432.79-9.968v-9.485h58.4v9.485l-12.065,0.636l-2.635,2.392v83.756
										l2.635,3.108l12.065,0.638v9.483H432.79z"/>
								</g>
							</g>
						</g>
					</g>
				</g>
			</g>
		</g>
		<g>
			<g>
				<path fill="#8DD8F8" d="M98.41,0c54.35,0,98.41,44.06,98.41,98.41s-44.06,98.41-98.41,98.41S0,152.76,0,98.41S44.06,0,98.41,0"
					/>
			</g>
		</g>
		<g>
			<g>
				<path fill="#0588CB" d="M71.633,76.014c6.914,6.75,8.476,13.023,5.642,18.678c-3.067,6.119-10.138,9.427-21.759,9.524
					c-10.016,0.085-12.725-4.89-14.757-7.749c-3.896-5.481-1.879-12.131,1.775-16.401c4.438-5.187,7.715-5.635,11.319-3.694
					c1.934,1.041,4.792,3.468,4.857,7.891c0.038,2.634-1.744,6.715-1.744,7.232c0,0.517,0.42,0.839,0.872,0.646
					c0.453-0.194,4.081-2.114,6.135-4.746c1.837-2.355,3.809-10.913,3.423-12.011c-0.388-1.097-3.18-3.38-3.373-4.608
					c-0.115-0.729-0.201-1.661-0.544-2.426c-0.234-0.522-0.876-1.002-1.216-1.264c-0.839-0.647-3.035,0.161-3.939-0.969
					c-0.774-0.968-1.097-3.002-2.131-3.26c-0.469-0.118-1.372-0.307-2.197-0.139c-1.186,0.242-2.077,0.958-3.001,0.848
					c-1.289-0.151-2.389-2.196-4.133-2.066c-1.734,0.128-3.938,3.099-6.328,5.682c-2.389,2.583-6.631,5.846-9.622,11.107
					c-2.168,3.814-3.939,8.33-3.035,14.723c0.904,6.393,2.479,10.701,7.62,15.4c5.288,4.834,9.557,6.231,12.72,7.33
					c3.165,1.097,5.359,2.122,8.782,2.228c1.18,0.036,3.691,0.114,4.525,0.025c2.109-0.226,1.68-1.154,3.644-1.478
					c7.651-1.259,13.099-5.253,16.411-8.626c0.842-0.858,3.053-3.218,3.465-3.625c0.103,0.588,0.135,2.474,0.068,2.964
					c-0.459,3.359-2.555,5.239-5.913,7.03c-4.795,2.557-11.756,6.315-16.53,9.656c-4.416,3.092-8.31,6.097-9.68,11.028
					c-1.37,4.931-1.095,7.762,0.411,11.164c1.375,3.103,3.881,6.415,8.081,8.835c3.475,2.002,6.516,3.762,9.868,5.483
					c2.307,1.185,6.342,3.191,5.976,7.393c-0.37,4.259-3.127,6.513-4.999,7.329c-3.215,1.402-7.62,1.768-7.809,1.918
					c-0.332,0.265,3.835,3.787,7.032,3.766c3.492-0.022,4.73-0.257,7.967-1.392c2.816-0.987,4.042-3.447,4.498-3.539
					c0.457-0.092,1.125-0.037,1.735-0.48c0.595-0.432,2.488-1.895,2.716-2.762c0.228-0.868,0.275-2.328,0.503-3.105
					c0.228-0.776,1.142-3.401,1.187-4.816c0.046-1.416,0.412-4.658-0.856-6.519c-1.051-1.542-0.503-2.352-1.382-3.185
					c-0.146-0.139-0.884-1.116-1.559-1.369c-0.874-0.327-1.33-0.041-1.956-0.389c-1-0.556-2.195-4.303-3.638-4.408
					c-0.526-0.037-1.139-0.006-1.671,0.122c-1.187,0.286-6.383,0.421-7.316,0.062c-1.444-0.556-6.153-3.561-5.753-7.899
					c0.344-3.727,2.999-6.263,6.597-7.581c3.214-1.176,4.338-1.073,6.53-2.123c2.161-1.035,3.677-2.351,5.32-3.218
					c1.643-0.868,3.869-1.906,5.558-3.322c0.963-0.807,1.929-1.722,2.841-2.87c0.781-0.98,2.274-3.641,3.868-4.961
					c2.18,3.333,4.31,6.268,5.883,8.092c3.994,4.634,9.451,7.454,12.008,9.052c2.557,1.597,8.423,5.995,10.936,9.51
					c2.694,3.766,1.46,8.926-0.024,10.889c-1.284,1.701-4.2,3.905-8.218,3.813c-4.298-0.097-8.415-1.861-10.935-5.114
					c-2.511-3.243-3.49-9.329-1.347-10.935c2.304-1.727,4.561-0.904,5.981-0.731c1.112,0.136,2.169-0.457,2.352-1.37
					c0.182-0.913-0.114-2.01-1.347-2.968c-0.654-0.509-1.858-1.352-3.518-1.331c-0.91,0.011-2.626,0.452-4.952,0.371
					c-2.47-0.086-4.903,0.178-7.137,2.244c-1.837,1.701-2.892,3.043-3.579,5.172c-0.262,0.81,0.055,2.552-0.054,3.588
					c-0.109,1.047-0.541,1.867-0.549,2.673c-0.013,1.198,0.183,2.664,0.456,4.095c0.304,1.593,0.883,3.434,1.6,5.063
					c0.293,0.667,0.529,1.581,0.906,1.986c0.458,0.493,1.332,1.003,2.162,1.812c1.57,1.531,3.39,3.508,4.825,4.076
					c1.782,0.706,5.388-0.526,6.393-0.206c1.004,0.319,2.294,1.892,3.846,1.847c1.553-0.045,11.067-0.493,14.349-1.802
					c4.101-1.637,11.174-6.144,12.565-12.417c1.714-7.735-1.535-13.028-4.797-16.899c-4.027-4.78-11.582-10.954-17.282-15.044
					c-3.265-2.342-4.503-4.124-5.766-6.251c-0.959-1.616-1.976-4.346-1.466-6.85c2.349,1.23,5.705,5.06,6.687,6.283
					c1.265,1.574,2.877,2.531,4.123,3.143c1.103,0.542,2.481,0.231,3.531,0.414c1.05,0.182,0.298,1.042,2.17,1.682
					c1.873,0.639,10.149,2.169,12.141,2.099c0.814-0.029,1.904-0.659,3.191-1.063c1.233-0.387,3.341-0.56,9.195-2.847
					c8.028-3.136,11.402-8.251,14.115-14.367c2.713-6.116,0.876-13.926-0.707-17.475s-4.688-8.259-7.885-13.145
					c-3.196-4.886-7.202-9.873-5.416-19.887s9.43-13.085,10.516-14.925c0.869-1.473-1.717-2.963-2.362-3.27
					c-0.782-0.371-1.633-0.66-3.687-0.751c-0.128-0.006-0.253-0.007-0.373-0.002c-1.811,0.065-2.775,1.202-3.521,1.452
					c-0.809,0.271-4.355,0.056-4.846,0.158c-0.537,0.112-1.479,1.247-1.681,1.536c-0.352,0.509-0.081,0.636-0.583,1.687
					c-0.503,1.05-4.085,4.038-5.066,5.901c-0.526,0.998,0.064,3.062-0.576,4.431c-0.639,1.37-2.557,1.303-2.965,2.805
					c-0.3,1.105,0.274,4.655-0.21,6.387c-0.501,1.795-1.54,0.986-1.605,2.816c-0.092,2.579,4.469,6.692,5.245,7.879
					c0.776,1.188,1.088,1.887,2.048,4.056c1.071,2.421,2.512,3.93,3.597,5.16c1.085,1.23,4.071,3.115,4.843,4.433
					c0.428,0.733-0.038,2.134,0.252,3.052c0.274,0.868,1.058,1.628,2.29,3.409c1.233,1.78,0.82,6.414-0.295,9.215
					c-1.115,2.802-4.153,6.514-9.35,7.972c-5.197,1.458-18.246,0.265-23.472-13.446c-2.403-6.306-1.3-13.684,4.315-19.488
					c5.614-5.804,9.803-14.682,9.816-23.929c0-19.619-16.652-35.523-36.556-35.523S60.911,31.203,60.911,50.822
					C60.919,60.237,64.719,69.264,71.633,76.014z"/>
			</g>
		</g>
		<g>
			<g>
				<path fill="#FFFFFF" d="M91.531,36.139c9.749,0,17.654,7.903,17.654,17.654c0,9.749-7.904,17.653-17.654,17.653
					s-17.654-7.903-17.654-17.653C73.877,44.042,81.782,36.139,91.531,36.139"/>
			</g>
		</g>
		<g>
			<g>
				<path fill="#0588CB" d="M89.243,52.276c2.232,0,4.041,1.809,4.041,4.041c0,2.232-1.809,4.041-4.041,4.041
					c-2.232,0-4.041-1.809-4.041-4.041C85.202,54.085,87.011,52.276,89.243,52.276"/>
			</g>
		</g>
	</g>
</g>
</svg>
