<svg id="Layer_1" data-name="Layer 1" xmlns="http://www.w3.org/2000/svg" viewBox="0 0 216 108"><defs><style>.cls-1,.cls-4{fill:#22bcb9;}.cls-2,.cls-3{fill:#f8971d;}.cls-3,.cls-4{fill-rule:evenodd;}</style></defs><title>Artboard 1</title><path class="cls-1" d="M24,76.08v3.8H19V98.54H14.72V79.88h-5v-3.8Z"/><path class="cls-1" d="M26.82,98.54V76.08h4.29v9h6.07v-9h4.29V98.54H37.18V88.83H31.11v9.71Z"/><path class="cls-1" d="M45.58,98.54V76.08H57.33v3.8H49.87V85h5.69v3.79H49.87v5.91h7.78v3.8Z"/><path class="cls-2" d="M65.05,91.88c0,2.49,1.08,3.17,2.79,3.17s2.8-.68,2.8-3.17V90.39h4.3v.93c0,5.54-2.93,7.53-7.1,7.53s-7.09-2-7.09-7.53v-8c0-5.53,2.93-7.52,7.09-7.52s7.1,2,7.1,7.52v.07h-4.3v-.62c0-2.49-1.08-3.18-2.8-3.18s-2.79.69-2.79,3.18Z"/><path class="cls-2" d="M78.67,98.54V76.08H83V98.54Z"/><path class="cls-2" d="M100.07,76.08v3.8h-5V98.54H90.77V79.88h-5v-3.8Z"/><path class="cls-2" d="M102.87,98.54V76.08h4.29V98.54Z"/><path class="cls-2" d="M111.23,76.08h12.44v3.61l-8.48,15h8.67v3.8h-13.5V94.9l8.5-15h-7.63Z"/><path class="cls-2" d="M126.82,98.54V76.08h11.76v3.8h-7.47V85h5.69v3.79h-5.69v5.91h7.77v3.8Z"/><path class="cls-2" d="M142.62,98.54V76.08h4.69l6,13.31h.07V76.08h3.92V98.54h-4.11L146.6,84h-.06v14.5Z"/><path class="cls-1" d="M161.37,98.54V76.08h4.3V94.74h6.9v3.8Z"/><path class="cls-1" d="M173.66,98.54l5.56-22.46h5.51l5.42,22.46H186L185,93.81H179l-1.22,4.73ZM179.79,90H184L182,80.93h-.06Z"/><path class="cls-1" d="M192.47,76.08h6c4.6,0,7.24,1.93,7.24,5.79A5.29,5.29,0,0,1,203,86.53c2.36,1.49,3.3,2.73,3.3,5.54,0,4.44-3,6.47-7.53,6.47h-6.29Zm4.3,8.9h1.49c1.93,0,3.21-1.13,3.21-2.65s-1-2.7-3-2.7h-1.71Zm0,10h1.8A3.06,3.06,0,0,0,202,91.73c0-2.15-1.49-3.21-3.73-3.21h-1.49Z"/><path class="cls-3" d="M121.61,22A12.48,12.48,0,1,1,109.13,9.46,12.48,12.48,0,0,1,121.61,22Z"/><path class="cls-3" d="M94.85,51.74h3.2V65.82h10.24V37.89H96.09c-7.52,0-7.21,3-7.23,9.11V65.82h6Z"/><path class="cls-3" d="M121.1,51.74h-3.22V65.82H107.65V37.89h12.2c7.52,0,7.21,3,7.23,9.11V65.82h-6Z"/><path class="cls-4" d="M77.81,22A12.48,12.48,0,1,1,65.33,9.46,12.48,12.48,0,0,1,77.81,22Z"/><path class="cls-4" d="M51.52,51.74h3.21V65.82H65V37.89H52.76c-7.52,0-7.21,3-7.23,9.11V65.82h6Z"/><path class="cls-4" d="M77.76,51.74H74.55V65.82H64.32V37.89h12.2c7.52,0,7.21,3,7.23,9.11V65.82h-6Z"/><path class="cls-4" d="M138.13,22A12.48,12.48,0,1,0,150.6,9.46,12.47,12.47,0,0,0,138.13,22Z"/><path class="cls-4" d="M164.42,51.74h-3.21V65.82H151V37.89h12.2c7.51,0,7.2,3,7.23,9.11V65.82h-6Z"/><path class="cls-4" d="M138.17,51.74h3.21V65.82h10.24V37.89h-12.2c-7.52,0-7.21,3-7.24,9.11V65.82h6Z"/></svg>