<?xml version="1.0" encoding="UTF-8" standalone="no"?>
<svg
   xmlns:dc="http://purl.org/dc/elements/1.1/"
   xmlns:cc="http://creativecommons.org/ns#"
   xmlns:rdf="http://www.w3.org/1999/02/22-rdf-syntax-ns#"
   xmlns="http://www.w3.org/2000/svg"
   id="svg3374"
   version="1.1"
   xml:space="preserve"
   width="1417.6594"
   height="247.41502"
   viewBox="0 0 1417.6594 247.41503"><metadata
     id="metadata3380"><rdf:RDF><cc:Work
         rdf:about=""><dc:format>image/svg+xml</dc:format><dc:type
           rdf:resource="http://purl.org/dc/dcmitype/StillImage" /><dc:title></dc:title></cc:Work></rdf:RDF></metadata><defs
     id="defs3378"><clipPath
       clipPathUnits="userSpaceOnUse"
       id="clipPath3388"><path
         d="M 0,0 H 595.276 V 841.89 H 0 Z"
         id="path3390" /></clipPath></defs><g
     id="g3382"
     transform="matrix(6.2344405,0,0,-6.2344405,-176.72332,5071.9898)"><g
       id="g3384"><g
         id="g3386"
         clip-path="url(#clipPath3388)"><g
           id="g3392"
           transform="translate(66.235,801.9489)"><path
             d="m 0,0 -25.77,-12.819 v -4.571 l -11.85,5.895 c 1.119,-6.796 5.687,-12.429 11.85,-15.036 2.374,-1.004 4.984,-1.559 7.724,-1.559 10.959,0 19.842,8.883 19.842,19.842 v 0 C 1.796,-5.304 1.15,-2.512 0,0"
             style="fill:#2d535a;fill-opacity:1;fill-rule:nonzero;stroke:none"
             id="path3394" /></g><g
           id="g3396"
           transform="translate(40.4653,798.2717)"><path
             d="m 0,0 20.8,10.347 c -3.492,3.063 -8.066,4.925 -13.076,4.925 -2.74,0 -5.35,-0.556 -7.724,-1.56 z"
             style="fill:#b5e6e1;fill-opacity:1;fill-rule:nonzero;stroke:none"
             id="path3398" /></g><g
           id="g3400"
           transform="translate(61.2653,808.6183)"><path
             d="m 0,0 -20.8,-10.347 v -4.57 l -11.305,5.623 c -0.527,-1.783 -0.814,-3.669 -0.814,-5.623 0,-1.107 0.095,-2.19 0.269,-3.247 l 11.85,-5.895 v 4.571 L 4.97,-6.669 C 3.796,-4.106 2.094,-1.837 0,0"
             style="fill:#54c6cc;fill-opacity:1;fill-rule:nonzero;stroke:none"
             id="path3402" /></g><g
           id="g3404"
           transform="translate(40.4653,779.9885)"><path
             d="m 0,0 v -4.571 c 2.374,-1.004 4.984,-1.559 7.724,-1.559 10.958,0 19.842,8.884 19.842,19.842 z"
             style="fill:#2d535a;fill-opacity:1;fill-rule:nonzero;stroke:none"
             id="path3406" /></g><g
           id="g3408"
           transform="translate(66.235,801.9489)"><path
             d="m 0,0 -25.77,-12.819 v -4.571 l -11.85,5.895 c 1.119,-6.796 5.687,-12.429 11.85,-15.036 v 4.571 L 1.796,-8.248 v 0 C 1.796,-5.304 1.15,-2.512 0,0"
             style="fill:#1e8290;fill-opacity:1;fill-rule:nonzero;stroke:none"
             id="path3410" /></g><g
           id="g3412"
           transform="translate(40.4653,811.984)"><path
             d="M 0,0 C -5.429,-2.296 -9.618,-6.941 -11.305,-12.659 L 0,-18.283 Z"
             style="fill:#dbf3f1;fill-opacity:1;fill-rule:nonzero;stroke:none"
             id="path3414" /></g><g
           id="g3416"
           transform="translate(84.7054,792.9424)"><path
             d="m 0,0 c 0,3.19 0.697,5.764 2.09,7.721 1.395,1.955 3.32,2.934 5.777,2.934 1.248,0 2.341,-0.246 3.283,-0.734 0.941,-0.489 1.73,-1.198 2.365,-2.128 l 0.33,2.495 H 16.89 V -9.299 c 0,-2.567 -0.715,-4.586 -2.146,-6.06 -1.43,-1.474 -3.466,-2.21 -6.107,-2.21 -0.953,0 -1.987,0.132 -3.099,0.394 -1.113,0.264 -2.09,0.621 -2.934,1.073 l 0.936,2.806 c 0.672,-0.354 1.467,-0.648 2.383,-0.881 0.917,-0.231 1.81,-0.348 2.678,-0.348 1.614,0 2.797,0.453 3.549,1.358 0.751,0.904 1.127,2.194 1.127,3.868 V -7.41 C 12.63,-8.24 11.853,-8.871 10.948,-9.299 10.043,-9.726 9.004,-9.94 7.83,-9.94 5.398,-9.94 3.485,-9.06 2.09,-7.299 0.697,-5.538 0,-3.235 0,-0.385 Z m 3.612,-0.385 c 0,-1.994 0.422,-3.595 1.266,-4.805 0.844,-1.21 2.128,-1.816 3.851,-1.816 1.088,0 2,0.248 2.733,0.742 0.734,0.496 1.338,1.196 1.815,2.101 V 4.97 C 12.812,5.813 12.208,6.483 11.462,6.977 10.716,7.472 9.817,7.721 8.766,7.721 7.042,7.721 5.752,6.998 4.896,5.556 4.04,4.113 3.612,2.261 3.612,0 Z"
             style="fill:#a7a5a6;fill-opacity:1;fill-rule:nonzero;stroke:none"
             id="path3418" /></g><g
           id="g3420"
           transform="translate(105.0667,800.9012)"><path
             d="m 0,0 v 2.329 h 6.217 l 0.349,-2.88 c 0.561,1.015 1.255,1.81 2.081,2.384 0.825,0.575 1.769,0.863 2.834,0.863 0.28,0 0.57,-0.022 0.87,-0.065 0.3,-0.043 0.529,-0.089 0.688,-0.138 l -0.477,-3.355 -2.054,0.11 c -0.953,0 -1.754,-0.223 -2.402,-0.669 -0.649,-0.447 -1.149,-1.073 -1.503,-1.88 v -11.388 l 2.989,-0.514 v -2.311 H 0 v 2.311 l 2.989,0.514 v 14.175 z"
             style="fill:#a7a5a6;fill-opacity:1;fill-rule:nonzero;stroke:none"
             id="path3422" /></g><g
           id="g3424"
           transform="translate(128.5276,783.0025)"><path
             d="M 0,0 C -2.763,0 -4.96,0.92 -6.592,2.76 -8.224,4.6 -9.04,6.987 -9.04,9.921 v 0.807 c 0,2.824 0.84,5.174 2.521,7.051 1.681,1.877 3.671,2.816 5.969,2.816 2.665,0 4.686,-0.807 6.061,-2.421 1.376,-1.615 2.063,-3.766 2.063,-6.456 V 9.463 H -5.299 L -5.355,9.371 C -5.318,7.463 -4.835,5.895 -3.906,4.667 -2.977,3.438 -1.675,2.824 0,2.824 c 1.223,0 2.296,0.174 3.219,0.523 0.923,0.348 1.721,0.828 2.393,1.439 L 7.025,2.439 C 6.315,1.754 5.377,1.177 4.209,0.706 3.042,0.235 1.639,0 0,0 m -0.55,17.752 c -1.21,0 -2.244,-0.51 -3.099,-1.532 -0.856,-1.02 -1.382,-2.301 -1.577,-3.842 l 0.037,-0.091 h 9.151 v 0.476 c 0,1.419 -0.379,2.604 -1.137,3.558 -0.758,0.954 -1.883,1.431 -3.375,1.431"
             style="fill:#a7a5a6;fill-opacity:1;fill-rule:nonzero;stroke:none"
             id="path3426" /></g><g
           id="g3428"
           transform="translate(148.096,783.0025)"><path
             d="M 0,0 C -2.763,0 -4.961,0.92 -6.593,2.76 -8.225,4.6 -9.041,6.987 -9.041,9.921 v 0.807 c 0,2.824 0.841,5.174 2.521,7.051 1.682,1.877 3.671,2.816 5.969,2.816 2.666,0 4.686,-0.807 6.061,-2.421 1.376,-1.615 2.064,-3.766 2.064,-6.456 V 9.463 H -5.3 L -5.355,9.371 C -5.318,7.463 -4.835,5.895 -3.907,4.667 -2.977,3.438 -1.676,2.824 0,2.824 c 1.223,0 2.295,0.174 3.219,0.523 0.922,0.348 1.72,0.828 2.392,1.439 L 7.023,2.439 C 6.314,1.754 5.376,1.177 4.209,0.706 3.041,0.235 1.638,0 0,0 m -0.551,17.752 c -1.209,0 -2.243,-0.51 -3.098,-1.532 -0.856,-1.02 -1.382,-2.301 -1.577,-3.842 l 0.036,-0.091 h 9.152 v 0.476 c 0,1.419 -0.38,2.604 -1.138,3.558 -0.758,0.954 -1.882,1.431 -3.375,1.431"
             style="fill:#a7a5a6;fill-opacity:1;fill-rule:nonzero;stroke:none"
             id="path3430" /></g><g
           id="g3432"
           transform="translate(158.0527,785.6984)"><path
             d="M 0,0 2.99,0.514 V 14.689 L 0,15.203 v 2.329 h 6.218 l 0.256,-2.953 c 0.66,1.052 1.488,1.868 2.485,2.448 0.997,0.58 2.13,0.872 3.401,0.872 2.14,0 3.797,-0.628 4.97,-1.88 1.174,-1.254 1.762,-3.189 1.762,-5.805 v -9.7 L 22.081,0 V -2.311 H 12.489 V 0 l 2.989,0.514 v 9.627 c 0,1.749 -0.345,2.989 -1.036,3.722 -0.69,0.734 -1.746,1.101 -3.163,1.101 -1.039,0 -1.96,-0.251 -2.761,-0.752 -0.8,-0.501 -1.439,-1.185 -1.915,-2.054 L 6.603,0.514 9.592,0 V -2.311 H 0 Z"
             style="fill:#a7a5a6;fill-opacity:1;fill-rule:nonzero;stroke:none"
             id="path3434" /></g><g
           id="g3436"
           transform="translate(182.3803,785.6984)"><path
             d="M 0,0 2.989,0.514 V 23.455 L 0,23.969 v 2.329 H 6.603 V 14.891 c 0.684,0.953 1.522,1.693 2.512,2.219 0.99,0.525 2.09,0.789 3.3,0.789 2.128,0 3.778,-0.637 4.952,-1.908 1.174,-1.272 1.76,-3.228 1.76,-5.869 V 0.514 L 22.117,0 V -2.311 H 12.526 V 0 l 2.989,0.514 v 9.645 c 0,1.639 -0.352,2.849 -1.054,3.632 -0.704,0.781 -1.751,1.173 -3.146,1.173 -0.99,0 -1.892,-0.235 -2.705,-0.706 -0.813,-0.47 -1.482,-1.11 -2.007,-1.917 L 6.603,0.514 9.592,0 V -2.311 H 0 Z"
             style="fill:#a7a5a6;fill-opacity:1;fill-rule:nonzero;stroke:none"
             id="path3438" /></g><g
           id="g3440"
           transform="translate(205.989,793.4918)"><path
             d="m 0,0 c 0,2.934 0.794,5.352 2.384,7.253 1.589,1.901 3.747,2.852 6.474,2.852 2.737,0 4.905,-0.947 6.5,-2.842 C 16.954,5.367 17.751,2.946 17.751,0 v -0.403 c 0,-2.959 -0.795,-5.38 -2.384,-7.263 -1.589,-1.882 -3.747,-2.823 -6.474,-2.823 -2.75,0 -4.92,0.944 -6.509,2.833 C 0.794,-5.767 0,-3.349 0,-0.403 Z m 3.612,-0.403 c 0,-2.103 0.443,-3.839 1.33,-5.208 0.887,-1.369 2.203,-2.055 3.951,-2.055 1.712,0 3.015,0.686 3.907,2.055 0.892,1.369 1.339,3.105 1.339,5.208 V 0 c 0,2.079 -0.447,3.809 -1.339,5.19 C 11.908,6.572 10.593,7.263 8.858,7.263 7.121,7.263 5.813,6.572 4.933,5.19 4.052,3.809 3.612,2.079 3.612,0 Z"
             style="fill:#a7a5a6;fill-opacity:1;fill-rule:nonzero;stroke:none"
             id="path3442" /></g><g
           id="g3444"
           transform="translate(241.4563,796.9945)"><path
             d="m 0,0 h -2.715 l -0.586,2.385 c -0.44,0.415 -0.994,0.748 -1.66,0.999 -0.666,0.25 -1.421,0.376 -2.265,0.376 -1.284,0 -2.237,-0.281 -2.86,-0.844 -0.624,-0.562 -0.936,-1.24 -0.936,-2.035 0,-0.783 0.275,-1.401 0.826,-1.852 0.549,-0.453 1.669,-0.856 3.355,-1.211 2.506,-0.538 4.371,-1.269 5.593,-2.191 1.223,-0.924 1.834,-2.162 1.834,-3.714 0,-1.761 -0.712,-3.185 -2.136,-4.273 -1.424,-1.088 -3.285,-1.632 -5.584,-1.632 -1.504,0 -2.855,0.174 -4.052,0.523 -1.199,0.348 -2.269,0.852 -3.21,1.513 l -0.019,4.529 h 2.715 l 0.678,-2.659 c 0.416,-0.379 0.981,-0.655 1.697,-0.825 0.715,-0.172 1.445,-0.257 2.191,-0.257 1.283,0 2.289,0.26 3.017,0.78 0.727,0.519 1.091,1.2 1.091,2.044 0,0.795 -0.303,1.449 -0.908,1.963 -0.605,0.513 -1.751,0.959 -3.439,1.338 -2.408,0.526 -4.223,1.241 -5.446,2.146 -1.223,0.904 -1.834,2.127 -1.834,3.668 0,1.614 0.688,2.989 2.063,4.126 1.376,1.137 3.164,1.706 5.364,1.706 1.504,0 2.855,-0.197 4.053,-0.588 1.198,-0.391 2.195,-0.934 2.989,-1.632 z"
             style="fill:#a7a5a6;fill-opacity:1;fill-rule:nonzero;stroke:none"
             id="path3446" /></g><g
           id="g3448"
           transform="translate(251.0609,808.0164)"><path
             d="M 0,0 V -4.786 H 3.759 V -7.464 H 0 v -12.048 c 0,-0.93 0.193,-1.584 0.577,-1.962 0.385,-0.38 0.896,-0.569 1.531,-0.569 0.319,0 0.677,0.027 1.074,0.082 0.397,0.055 0.73,0.114 0.999,0.175 l 0.496,-2.476 c -0.344,-0.22 -0.844,-0.401 -1.504,-0.541 -0.661,-0.14 -1.321,-0.211 -1.981,-0.211 -1.467,0 -2.635,0.443 -3.503,1.33 -0.868,0.886 -1.301,2.277 -1.301,4.172 v 12.048 h -3.137 v 2.678 h 3.137 V 0 Z"
             style="fill:#a7a5a6;fill-opacity:1;fill-rule:nonzero;stroke:none"
             id="path3450" /></g></g></g></g></svg>
