<?xml version="1.0" encoding="UTF-8" standalone="no"?>
<!-- Created with Inkscape (http://www.inkscape.org/) -->

<svg
   xmlns:dc="http://purl.org/dc/elements/1.1/"
   xmlns:cc="http://creativecommons.org/ns#"
   xmlns:rdf="http://www.w3.org/1999/02/22-rdf-syntax-ns#"
   xmlns:svg="http://www.w3.org/2000/svg"
   xmlns="http://www.w3.org/2000/svg"
   xmlns:sodipodi="http://sodipodi.sourceforge.net/DTD/sodipodi-0.dtd"
   xmlns:inkscape="http://www.inkscape.org/namespaces/inkscape"
   width="232.93375mm"
   height="39.099998mm"
   viewBox="0 0 232.93375 39.099998"
   version="1.1"
   id="svg8"
   inkscape:version="0.92.0 r15299"
   sodipodi:docname="jigsaw.svg">
  <defs
     id="defs2" />
  <sodipodi:namedview
     id="base"
     pagecolor="#ffffff"
     bordercolor="#666666"
     borderopacity="1.0"
     inkscape:pageopacity="0.0"
     inkscape:pageshadow="2"
     inkscape:zoom="1.0232717"
     inkscape:cx="438.29999"
     inkscape:cy="72.000001"
     inkscape:document-units="mm"
     inkscape:current-layer="layer1"
     showgrid="false"
     fit-margin-top="0"
     fit-margin-left="0"
     fit-margin-right="0"
     fit-margin-bottom="0"
     inkscape:window-width="1280"
     inkscape:window-height="744"
     inkscape:window-x="-4"
     inkscape:window-y="-4"
     inkscape:window-maximized="1" />
  <metadata
     id="metadata5">
    <rdf:RDF>
      <cc:Work
         rdf:about="">
        <dc:format>image/svg+xml</dc:format>
        <dc:type
           rdf:resource="http://purl.org/dc/dcmitype/StillImage" />
        <dc:title></dc:title>
      </cc:Work>
    </rdf:RDF>
  </metadata>
  <g
     inkscape:label="Layer 1"
     inkscape:groupmode="layer"
     id="layer1"
     transform="translate(230.11568,-200.59881)">
    <path
       style="fill:#000000;fill-rule:inherit;stroke-width:0.26458332"
       inkscape:connector-curvature="0"
       d="m -146.51006,205.86131 h 17.33021 v 5.05354 h -5.55625 v 18.46792 h 5.55625 v 5.05354 h -17.33021 l 0.0265,-5.05354 h 5.52979 v -18.46792 h -5.55625 z m 33.94605,17.48896 h 6.985 l -0.0794,0.44979 c -0.66146,4.04812 -3.30729,6.35 -7.01146,6.35 -4.39208,0 -7.51416,-3.54542 -7.51416,-9.57792 v -0.66146 c 0,-6.0325 3.12208,-9.73666 7.67291,-9.73666 3.36021,0 5.79438,1.87854 6.29709,4.86833 h 6.19125 c -0.7673,-6.08542 -5.68855,-9.8425 -12.5148,-9.8425 -8.36083,0 -14.04937,5.95313 -14.04937,14.9225 v 0.23813 c 0,9.12812 5.00062,14.65791 12.43542,14.65791 3.62479,0 6.69395,-1.50812 8.5725,-4.20687 v 3.62479 h 5.82083 v -16.00729 h -12.77938 v 4.92125 z m -54.21313,-12.43542 h 9.65729 v 13.09688 c 0,4.1275 -1.82562,6.13833 -4.60375,6.13833 -2.80458,0 -4.55083,-2.01083 -4.60375,-5.90021 h -6.13833 c 0.0794,6.77333 4.18042,10.84792 10.74208,10.84792 6.61459,0 10.82146,-3.88938 10.82146,-11.27125 v -17.96521 h -13.335 z m 162.8510401,-5.05354 -7.5141661,22.17208 -5.3975,-22.17208 h -7.77875 l -5.3975,22.17208 -7.514166,-22.17208 h -6.561667 l 10.027708,28.575 h 8.281458 l 4.868334,-20.16125 4.92125,20.18771 h 8.3079158 L 2.3180667,205.86131 Z m -75.0358321,11.95917 -5.979583,-1.27 c -2.619375,-0.55563 -3.571875,-1.50813 -3.571875,-3.06917 0,-1.87854 1.852083,-3.38667 5.23875,-3.38667 3.598333,0 5.767916,1.64042 6.138333,4.36563 h 5.926667 c -0.370417,-5.79438 -4.92125,-9.28688 -12.065,-9.28688 -7.249583,0 -11.403542,3.57188 -11.403542,8.94292 0,4.33917 2.407709,6.79979 7.911042,7.96396 l 5.953125,1.24354 c 2.619375,0.58208 3.571875,1.48167 3.571875,3.14854 0,2.24896 -2.06375,3.67771 -5.635625,3.67771 -4.28625,0 -6.244167,-1.64042 -6.482292,-4.78896 h -5.900208 c 0.238125,6.0325 4.418542,9.68375 12.408958,9.68375 7.514167,0 11.800417,-3.46604 11.800417,-9.23396 0,-4.39208 -2.407709,-6.79979 -7.911042,-7.99041 z m 28.204583,-11.95917 10.027708,28.575 h -6.588125 l -2.143125,-6.35 H -60.89089 l -2.143125,6.32354 h -6.270625 l 10.027708,-28.575 z m -0.396875,17.19792 -4.021667,-11.77396 -4.021666,11.77396 z M -213.97881,207.92506 c 1.0848,-0.3175 2.2225,-0.47625 3.41313,-0.47625 7.01146,0 12.7,5.68854 12.7,12.7 0,7.01146 -5.68854,12.7 -12.7,12.7 -5.3975,0 -9.97479,-3.36021 -11.82688,-8.09625 l -7.22312,14.44625 h 38.1 v -38.1 h -19.05 z"
       id="path10" />
  </g>
</svg>
