<svg width="652" height="200" viewBox="0 0 652 200" fill="none" xmlns="http://www.w3.org/2000/svg">
<rect width="652" height="200" fill="white"/>
<path d="M34.1499 1.79993L52.3499 44.4999H29.1499L36.8499 63.2999H83.8499L34.1499 1.79993Z" fill="#F0D500"/>
<path d="M95.95 157.3L88.1499 138.5H77.45L62.0499 102.3H52.45L67.75 138.5H40.45L90.95 200L72.75 157.3H95.95Z" fill="#F0D500"/>
<path d="M102.15 82.0999C102.75 82.0999 104.05 81.3999 104.05 74.8999C104.05 68.3999 102.75 67.7 102.15 67.7H69.85L75.95 82.0999H102.15Z" fill="#040000"/>
<path d="M83.3499 99.5H105.05C105.65 99.5 106.95 98.8 106.95 92.3C106.95 85.8 105.65 85.1 105.05 85.1H77.1499L83.3499 99.5Z" fill="#040000"/>
<path d="M102.15 119.7H72.95L79.0499 134.2H102.15C102.75 134.2 104.05 133.5 104.05 127C104.05 120.4 102.75 119.7 102.15 119.7Z" fill="#040000"/>
<path d="M105.05 102.3H65.5499L71.6499 116.8H104.95C105.55 116.8 106.85 116.1 106.85 109.6C106.95 103 105.65 102.3 105.05 102.3Z" fill="#040000"/>
<path d="M102.15 119.7H72.95L79.0499 134.2H102.15C102.75 134.2 104.05 133.5 104.05 127C104.05 120.4 102.75 119.7 102.15 119.7Z" fill="#040000"/>
<path d="M105.05 102.3H65.5499L71.6499 116.8H104.95C105.55 116.8 106.85 116.1 106.85 109.6C106.95 103 105.65 102.3 105.05 102.3Z" fill="#040000"/>
<path d="M60.85 99.3999L53.45 82.0999H56.95L64.35 99.4999H79.95L66.45 67.7H32.75C30.15 67.7 28.75 67.6999 27.55 71.4999C26.15 75.9999 25.95 84.4999 25.95 101C25.95 117.5 26.15 126 27.55 130.5C28.75 134.3 30.15 134.3 32.75 134.3H62.35L47.65 99.5999L60.85 99.3999Z" fill="#040000"/>
<path d="M229.85 71.9999H213.95L190.85 131.2H207.05L211.15 121.1H232.25L236.05 131.2H252.35L229.85 71.9999ZM215.35 109.6L221.65 90.5999H221.85L228.05 109.6H215.35Z" fill="#040000"/>
<path d="M169.45 71.9999H146.05V131.3H161.95V111.1H169.95C183.25 111.1 190.75 105.3 190.75 91.3999C190.75 77.7999 182.05 71.9999 169.45 71.9999ZM163.85 99.3999H161.85V84.8999H163.85C169.75 84.8999 174.85 84.8 174.85 92.2C174.85 99.4 169.45 99.3999 163.85 99.3999Z" fill="#040000"/>
<path d="M468.45 108.1H484.35V95.0999H468.45V84.9999H490.05V71.9999H452.55V131.3H490.05V116.8H468.45V108.1Z" fill="#040000"/>
<path d="M329.65 87.8999H344.05L344.15 131.2H359.95V87.8999H374.45V71.9999H329.65V87.8999Z" fill="#040000"/>
<path d="M423.55 95.0999H401.95V71.9999H385.95V131.2H401.95V108.1H423.55V131.2H439.45V71.9999H423.55V95.0999Z" fill="#040000"/>
<path d="M528.45 87.8999C536.05 87.8999 542.15 94.0999 542.15 101.6C542.15 109.2 535.95 115.3 528.45 115.3C520.85 115.3 514.75 109.1 514.75 101.6C514.65 93.9999 520.85 87.8999 528.45 87.8999ZM528.45 71.9999C512.05 71.9999 498.85 85.2999 498.85 101.6C498.85 117.9 512.15 131.2 528.45 131.2C544.85 131.2 558.05 117.9 558.05 101.6C558.05 85.2999 544.75 71.9999 528.45 71.9999Z" fill="#040000"/>
<path d="M610.05 105.2L584.55 71.9999H569.65V131.3H585.55V97.9999L609.85 131.3H626.05V71.9999H610.05V105.2Z" fill="#040000"/>
<path d="M302.05 105.2L276.65 71.9999H261.65V131.3H277.65L277.55 97.9999L301.95 131.3H318.05V71.9999H302.15L302.05 105.2Z" fill="#040000"/>
</svg>
