<?xml version="1.0" encoding="utf-8"?>
<!-- Generator: Adobe Illustrator 19.2.1, SVG Export Plug-In . SVG Version: 6.00 Build 0)  -->
<svg version="1.1" id="layer" xmlns="http://www.w3.org/2000/svg" xmlns:xlink="http://www.w3.org/1999/xlink" x="0px" y="0px"
	 viewBox="0 0 652 652" style="enable-background:new 0 0 652 652;" xml:space="preserve">
<style type="text/css">
	.st0{fill:#F0D500;}
	.st1{fill:#040000;}
</style>
<polygon class="st0" points="28.2,222.7 46.4,265.4 23.2,265.4 30.9,284.2 77.9,284.2 "/>
<polygon class="st0" points="90,378.2 82.2,359.4 71.5,359.4 56.1,323.2 46.5,323.2 61.8,359.4 34.5,359.4 85,420.9 66.8,378.2 "/>
<g>
	<path class="st1" d="M96.2,303c0.6,0,1.9-0.7,1.9-7.2c0-6.5-1.3-7.2-1.9-7.2H63.9L70,303H96.2z"/>
	<path class="st1" d="M77.4,320.4l21.7,0c0.6,0,1.9-0.7,1.9-7.2c0-6.5-1.3-7.2-1.9-7.2l-27.9,0L77.4,320.4z"/>
	<path class="st1" d="M96.2,340.6H67l6.1,14.5h23.1c0.6,0,1.9-0.7,1.9-7.2C98.1,341.3,96.8,340.6,96.2,340.6"/>
	<path class="st1" d="M99.1,323.2H59.6l6.1,14.5h33.3c0.6,0,1.9-0.7,1.9-7.2C101,323.9,99.7,323.2,99.1,323.2"/>
	<path class="st1" d="M96.2,340.6H67l6.1,14.5h23.1c0.6,0,1.9-0.7,1.9-7.2C98.1,341.3,96.8,340.6,96.2,340.6"/>
	<path class="st1" d="M99.1,323.2H59.6l6.1,14.5h33.3c0.6,0,1.9-0.7,1.9-7.2C101,323.9,99.7,323.2,99.1,323.2"/>
	<path class="st1" d="M54.9,320.3L47.5,303H51l7.4,17.4l15.6,0l-13.5-31.8H26.8c-2.6,0-4,0-5.2,3.8c-1.4,4.5-1.6,13-1.6,29.5
		c0,16.5,0.2,25,1.6,29.5c1.2,3.8,2.6,3.8,5.2,3.8l29.6,0l-14.7-34.7L54.9,320.3z"/>
	<path class="st1" d="M223.9,292.9H208l-23.1,59.2h16.2l4.1-10.1h21.1l3.8,10.1h16.3L223.9,292.9z M209.4,330.5l6.3-19h0.2l6.2,19
		H209.4z"/>
	<path class="st1" d="M163.5,292.9h-23.4v59.3H156v-20.2h8c13.3,0,20.8-5.8,20.8-19.7C184.8,298.7,176.1,292.9,163.5,292.9
		 M157.9,320.3h-2v-14.5h2c5.9,0,11-0.1,11,7.3C168.9,320.3,163.5,320.3,157.9,320.3"/>
	<polygon class="st1" points="462.5,329 478.4,329 478.4,316 462.5,316 462.5,305.9 484.1,305.9 484.1,292.9 446.6,292.9 
		446.6,352.2 484.1,352.2 484.1,337.7 462.5,337.7 	"/>
	<polygon class="st1" points="323.7,308.8 338.1,308.8 338.2,352.1 354,352.1 354,308.8 368.5,308.8 368.5,292.9 323.7,292.9 	"/>
	<polygon class="st1" points="417.6,316 396,316 396,292.9 380,292.9 380,352.1 396,352.1 396,329 417.6,329 417.6,352.1 
		433.5,352.1 433.5,292.9 417.6,292.9 	"/>
	<path class="st1" d="M522.5,308.8c7.6,0,13.7,6.2,13.7,13.7c0,7.6-6.2,13.7-13.7,13.7c-7.6,0-13.7-6.2-13.7-13.7
		C508.7,314.9,514.9,308.8,522.5,308.8 M522.5,292.9c-16.4,0-29.6,13.3-29.6,29.6s13.3,29.6,29.6,29.6c16.4,0,29.6-13.3,29.6-29.6
		S538.8,292.9,522.5,292.9"/>
	<polygon class="st1" points="604.1,326.1 578.6,292.9 563.7,292.9 563.7,352.2 579.6,352.2 579.6,318.9 603.9,352.2 620.1,352.2 
		620.1,292.9 604.1,292.9 	"/>
	<polygon class="st1" points="296.1,326.1 270.7,292.9 255.7,292.9 255.7,352.2 271.7,352.2 271.6,318.9 296,352.2 312.1,352.2 
		312.1,292.9 296.2,292.9 	"/>
</g>
</svg>
