<?xml version="1.0" encoding="utf-8"?>
<!-- Generator: Adobe Illustrator 27.8.1, SVG Export Plug-In . SVG Version: 6.00 Build 0)  -->
<svg version="1.1" id="Layer_1" xmlns="http://www.w3.org/2000/svg" xmlns:xlink="http://www.w3.org/1999/xlink" x="0px" y="0px"
	 viewBox="0 0 470.6 149.4" style="enable-background:new 0 0 470.6 149.4;" xml:space="preserve">
<style type="text/css">
	.st0{fill:#16191C;}
	.st1{fill-rule:evenodd;clip-rule:evenodd;fill:#16191C;}
	.st2{fill:none;}
	.st3{fill-rule:evenodd;clip-rule:evenodd;fill:#1EBFBF;}
	.st4{fill-rule:evenodd;clip-rule:evenodd;fill:#FFFFFF;}
</style>
<g>
	<path class="st0" d="M423.3,56.3c0,5.3,4.3,9.6,9.7,9.6s9.7-4.4,9.7-9.7s-4.4-9.7-9.7-9.7S423.3,50.9,423.3,56.3z M425.5,56.3
		c0-4.3,3.3-7.6,7.4-7.6s7.4,3.3,7.4,7.6s-3.3,7.6-7.4,7.6S425.5,60.5,425.5,56.3z M434.5,61.4h2.8l-2.1-4c1.2-0.5,2-1.6,2-3
		c0-1.9-1.6-3.4-3.6-3.4h-4.1v10.4h2.5v-3.6h0.8L434.5,61.4z M432,55.7V53h1.2c1,0,1.5,0.5,1.5,1.4s-0.6,1.4-1.5,1.4H432z"/>
	<path class="st0" d="M417.7,66.9h-12.4l-12.1,13V46.6h-9.5v55.4h9.5v-9.2l3.9-4.1l9.3,13.4H418l-14.4-20.3L417.7,66.9L417.7,66.9
		L417.7,66.9z"/>
	<path class="st0" d="M380.1,66.8c-0.7-0.1-1.4,0-2.2,0c-3,0-7.8,0.7-9.9,5.3v-5.3H359v35.1h9.4v-16c0-7.5,3.9-10.3,8.7-10.3h3
		L380.1,66.8L380.1,66.8L380.1,66.8z"/>
	<path class="st0" d="M322.8,91.7c0,5.3,4.5,10.2,12,10.2c5.2,0,8.5-1.5,10.3-4.2l0.3,4.2h8.3V79.7c0-6.8-4.1-12.9-15.2-12.9
		c-9.4,0-14.4,5.9-15,11.2l8.4,1.7c0.3-3,2.5-5.5,6.7-5.5s5.9,2,5.9,4.4c0,1.2-0.6,1.3-2.6,1.6l-8.6,1.2
		C327.5,82.2,322.9,85.6,322.8,91.7L322.8,91.7L322.8,91.7z M336.8,95.1c-3,0-4.5-1.9-4.5-3.9c0-2.6,1.9-3.9,4.3-4.3l7.9-1.2v2.4
		C344.5,94.1,340.8,95.1,336.8,95.1L336.8,95.1z"/>
	<path class="st0" d="M297,81.4c0.2-3.8,2.5-6.8,6.5-6.8c4.5,0,6.4,3.1,6.4,7v20.4h9.4V79.9c0-7.7-4.1-13-12.9-13
		c-3.3,0-7.1,0.3-9.4,3V46.6h-9.4v55.4h9.4V81.4z"/>
	<path class="st0" d="M255.9,91.8c0.4,3.8,4,10.1,14.5,10.1c9.2,0,13.7-5.4,13.7-10.8c0-4.9-3.5-8.9-10.4-10.2l-5-1
		c-1.9-0.3-3.2-1.3-3.2-3c0-1.9,2-3.3,4.5-3.3c4,0,5.5,2.5,5.8,4.5l7.9-1.7c-0.4-3.6-3.8-9.6-13.7-9.6c-7.5,0-13.1,4.9-13.1,10.9
		c0,4.7,3.1,8.5,9.8,9.9l4.6,1c2.7,0.5,3.8,1.8,3.8,3.2c0,1.8-1.5,3.3-4.6,3.3c-4.1,0-6.2-2.4-6.4-5.1L255.9,91.8L255.9,91.8z"/>
	<path class="st1" d="M246.3,60.6v-0.1c0-3.2,2.6-5.7,5.7-5.7h2.1v-8.1h-4.6c-7.1,0-12.5,5.4-12.5,13v7.2h-5.8v8.8h5.8v26.3h9.4
		V75.6h7.8v-8.8h-7.8V60.6L246.3,60.6L246.3,60.6z"/>
	<path class="st0" d="M227.7,66.8c-0.7-0.1-1.4,0-2.2,0c-3,0-7.8,0.7-9.9,5.3v-5.3h-9.1v35.1h9.4v-16c0-7.5,3.9-10.3,8.7-10.3h3
		L227.7,66.8L227.7,66.8L227.7,66.8z"/>
	<path class="st0" d="M192.6,101.9h8.6V66.8h-9.4v20.5c0,4.1-2.5,6-6.7,6c-4.4,0-6.3-3.1-6.3-7V66.8h-9.4v21.3
		c0,7.6,4.8,13.8,13.1,13.8c3.7,0,7.8-0.5,9.7-3.8L192.6,101.9L192.6,101.9z"/>
	<path class="st0" d="M165.2,60.1c-1.2-5.9-6.2-13.6-19.1-13.6c-10.1,0-18.6,7.1-18.6,16.4c0,7.9,5.5,13.3,14,15l7.5,1.5
		c4.1,0.8,6.5,4.1,6.5,7.1c0,3.7-3.1,6.4-8.7,6.4c-7.5,0-11.2-4.6-11.7-9.8l-9.6,2.5c0.8,7.4,7.1,16.4,21.2,16.4
		c12.4,0,19.3-8.1,19.3-16.1c0-7.4-5.2-14.4-14.9-16.3l-7.5-1.4c-3.9-0.7-5.8-3-5.8-5.9c0-3.5,3.3-6.6,8.4-6.6
		c6.8,0,9.2,4.5,9.7,7.4L165.2,60.1L165.2,60.1L165.2,60.1z"/>
	<rect class="st2" width="470.6" height="149.4"/>
	<rect class="st2" width="470.6" height="149.4"/>
	<path class="st3" d="M86,26.4H63.7C49.2,27.2,43.2,35.5,41.5,40c-6.4,19.3-12.4,56.8-13.2,62.1c-0.8,5.2-0.9,8.4-0.9,8.4
		c0,1.3,0.1,2.8,0.4,4.2c1.8,5.1,7.1,9.4,18.9,5.1c11.1-4.8,24.2-10.8,37.8-17.6C90,99,97.3,93,101.3,85.1c1.6-3.2,2.7-6.8,2.9-10.5
		v-1.8c-0.1-9.1-0.2-18.6-0.8-27.8c0,0-0.5-5.9-0.8-8s-0.7-2.9-0.7-2.9c-1.9-4.1-5.6-6.2-9.5-7.2C90.5,26.5,88.4,26.5,86,26.4
		C86,26.4,86,26.4,86,26.4z M85.2,45.8c0-1-0.8-1.8-1.9-1.8h-1c-12,0-21.8,9.5-21.8,21.3v9.9c0,6.1-5.1,11.1-11.4,11.1h-1
		c-1,0-1.9,0.8-1.9,1.8v6.5c0,1,0.8,1.8,1.9,1.8h1c12,0,21.8-9.5,21.8-21.3v-9.9c0-6.1,5.1-11.1,11.4-11.1h1c1.1,0,1.9-0.8,1.9-1.8
		L85.2,45.8L85.2,45.8z"/>
	<path class="st4" d="M85.2,45.8c0-1-0.8-1.8-1.9-1.8h-1c-12,0-21.8,9.5-21.8,21.3v9.9c0,6.1-5.1,11.1-11.4,11.1h-1
		c-1,0-1.9,0.8-1.9,1.8v6.5c0,1,0.8,1.8,1.9,1.8h1c12,0,21.8-9.5,21.8-21.3v-9.9c0-6.1,5.1-11.1,11.4-11.1h1c1.1,0,1.9-0.8,1.9-1.8
		L85.2,45.8L85.2,45.8z"/>
</g>
</svg>
