<svg id="Layer_1" data-name="Layer 1" xmlns="http://www.w3.org/2000/svg" viewBox="0 0 1256.7222 232.73189">
  <defs>
    <style>
      .cls-1 {
        fill: #010101;
      }

      .cls-2 {
        fill: #1d447d;
      }
    </style>
  </defs>
  <path class="cls-1" d="M277.5904,421.25579h52.0674l27.0273,78.1011,27.0273-78.1011h51.2725l-56.4394,140.105H334.0298Z" transform="translate(-277.5904 -359.34569)"/>
  <path class="cls-1" d="M434.9897,421.25579h62.6001c36.96388,0,62.2027,16.4947,62.2027,49.4839v.3975c0,33.5859-25.63628,51.4717-63.1963,51.4717H481.4926v37.7588H434.9897Zm59.023,68.1646c11.9238,0,19.873-5.3657,19.873-15.3023v-.3974c0-10.1353-7.353-15.3023-19.6743-15.3023H481.4926v31.002Z" transform="translate(-277.5904 -359.34569)"/>
  <path class="cls-1" d="M565.3282,421.25579h43.522l49.4839,61.40779V421.25579h46.1055v139.1119h-41.336l-51.6699-64.1905v64.1905H565.3282Z" transform="translate(-277.5904 -359.34569)"/>
  <g>
    <path class="cls-1" d="M825.76129,548.17919a74.35651,74.35651,0,0,1-12.642,7.7646,63.875,63.875,0,0,1-14.8321,4.9776,87.08052,87.08052,0,0,1-17.81829,1.6914,70.714,70.714,0,0,1-28.27011-5.57421,69.30381,69.30381,0,0,1-22.3974-15.23049,70.11339,70.11339,0,0,1-14.832-22.7949,77.17181,77.17181,0,0,1-.0997-56.3418,69.402,69.402,0,0,1,37.52789-38.5235,72.5578,72.5578,0,0,1,29.0669-5.67431,88.08219,88.08219,0,0,1,17.42041,1.59281,70.9579,70.9579,0,0,1,14.43359,4.4795,67.80327,67.80327,0,0,1,12.1445,6.8686,95.2346,95.2346,0,0,1,10.5513,8.7598l-15.7276,18.1172A78.58281,78.58281,0,0,0,802.568,445.749a46.18607,46.18607,0,0,0-21.3028-4.7783,43.61134,43.61134,0,0,0-18.4155,3.8823,45.62053,45.62053,0,0,0-14.63279,10.5518,47.39011,47.39011,0,0,0-9.55611,15.6279,54.16333,54.16333,0,0,0-3.3848,19.3115,54.95744,54.95744,0,0,0,3.3848,19.4112,48.22945,48.22945,0,0,0,9.55611,15.8271,44.88977,44.88977,0,0,0,14.63279,10.6514,43.61939,43.61939,0,0,0,18.4155,3.8828q12.73906,0,21.9-4.8779a86.16655,86.16655,0,0,0,18.11671-13.2393l15.728,15.9268A89.73689,89.73689,0,0,1,825.76129,548.17919Z" transform="translate(-277.5904 -359.34569)"/>
    <path class="cls-1" d="M941.23159,528.96729a54.6,54.6,0,0,1-29.5645,29.2656,59.83515,59.83515,0,0,1-44.6953.0996,53.89024,53.89024,0,0,1-29.3652-29.0664,55.7438,55.7438,0,0,1,.0996-42.60451,54.92631,54.92631,0,0,1,11.7461-17.52,55.7004,55.7004,0,0,1,17.7187-11.84569,56.44517,56.44517,0,0,1,22.3975-4.3799,57.5941,57.5941,0,0,1,22.3969,4.2803,54.05757,54.05757,0,0,1,33.5464,50.4682A53.36306,53.36306,0,0,1,941.23159,528.96729Zm-22.3819-34.044a34.26515,34.26515,0,0,0-6.6289-10.8506,31.07033,31.07033,0,0,0-10.0913-7.3657,31.14758,31.14758,0,0,0-35.91059,7.2661,31.50406,31.50406,0,0,0-6.33011,10.6514,38.4118,38.4118,0,0,0-2.1743,13.04,37.07194,37.07194,0,0,0,2.373,13.2403,32.74445,32.74445,0,0,0,6.626,10.8496,31.70212,31.70212,0,0,0,10.0913,7.2666,30.14814,30.14814,0,0,0,12.7637,2.6885,31.10112,31.10112,0,0,0,13.1552-2.6885,30.55129,30.55129,0,0,0,9.9917-7.2666,31.42809,31.42809,0,0,0,6.3296-10.6514,38.36829,38.36829,0,0,0,2.1778-13.04A36.341,36.341,0,0,0,918.84969,494.92329Z" transform="translate(-277.5904 -359.34569)"/>
    <path class="cls-1" d="M1053.8839,458.03949q8.66458-5.124,20.61719-5.1235,17.33055,0,27.0889,10.4521,9.7617,10.4517,9.7617,29.7632v67.0928h-24.2891v-59.5859q0-12.5157-5.5498-19.0694-5.5518-6.55081-15.6562-6.55421-9.91125,0-16.1504,6.65381-6.24315,6.6534-6.2432,19.3643v59.1914H1019.1739v-59.7852q0-12.31335-5.54981-18.8701-5.55165-6.55081-15.65619-6.55421-10.106,0-16.25,6.95271-6.14657,6.95205-6.14451,19.2646v58.9922h-24.2881V455.10589h24.2881v16.0918a69.37519,69.37519,0,0,1,5.5712-6.82811,39.0425,39.0425,0,0,1,6.86231-5.82619,33.07325,33.07325,0,0,1,8.75689-4.1186,36.59093,36.59093,0,0,1,10.8447-1.5088q11.3379,0,19.1992,5.1235a33.83642,33.83642,0,0,1,12.0381,13.5596A51.81475,51.81475,0,0,1,1053.8839,458.03949Z" transform="translate(-277.5904 -359.34569)"/>
    <path class="cls-1" d="M1226.32338,530.95849a52.431,52.431,0,0,1-10.9493,17.2207,45.5858,45.5858,0,0,1-15.7285,10.6513,48.17553,48.17553,0,0,1-18.2168,3.584q-12.94332,0-21.501-5.5752a55.26577,55.26577,0,0,1-14.1347-12.9404l.1982,48.17869h-24.28809V455.10589h24.28809v17.5196a52.40679,52.40679,0,0,1,14.3008-14.0357q8.5386-5.674,21.252-5.6738a47.20476,47.20476,0,0,1,18.0732,3.5835,45.72215,45.72215,0,0,1,15.5918,10.6514,53.8006,53.8006,0,0,1,11.0244,17.22069,60.88426,60.88426,0,0,1,4.1709,23.29291A62.12868,62.12868,0,0,1,1226.32338,530.95849Zm-22.5967-37.3291a32.30362,32.30362,0,0,0-6.46978-10.6514,28.70814,28.70814,0,0,0-21.20312-9.1577,29.50357,29.50357,0,0,0-11.7461,2.3887,28.64333,28.64333,0,0,0-9.7549,6.86859,34.12944,34.12944,0,0,0-6.66988,10.65141,40.26918,40.26918,0,0,0,0,27.8721,34.09542,34.09542,0,0,0,6.66988,10.6513,28.6351,28.6351,0,0,0,9.7549,6.86819,29.49556,29.49556,0,0,0,11.7461,2.38961,28.81291,28.81291,0,0,0,11.6465-2.38961,28.52167,28.52167,0,0,0,9.55662-6.76859,32.27337,32.27337,0,0,0,6.46978-10.6513,42.415,42.415,0,0,0,0-28.0713Z" transform="translate(-277.5904 -359.34569)"/>
    <path class="cls-1" d="M1399.9269,560.22409h-24.28812V455.10589h24.28812v23.6914a46.26856,46.26856,0,0,1,14.13568-19.1123q9.15525-7.16745,23.0938-6.5698v25.4829h-1.3936a39.38638,39.38638,0,0,0-14.5332,2.5879,30.45731,30.45731,0,0,0-11.34768,7.7647,35.0693,35.0693,0,0,0-7.36622,13.04,58.28706,58.28706,0,0,0-2.58878,18.2168Z" transform="translate(-277.5904 -359.34569)"/>
    <path class="cls-1" d="M1467.02058,536.03469q8.1621,6.86865,19.9092,6.8691a35.23937,35.23937,0,0,0,15.5283-3.1856,50.43878,50.43878,0,0,0,12.9414-9.3574l14.13482,12.543a58.1887,58.1887,0,0,1-18.01762,14.334q-10.45167,5.376-24.9853,5.375a56.07632,56.07632,0,0,1-21.2022-3.9815,50.8545,50.8545,0,0,1-28.56928-28.3701,57.79009,57.79009,0,0,1-4.18072-22.3974,59.452,59.452,0,0,1,3.7822-21.3018,53.47979,53.47979,0,0,1,10.6514-17.42041,51.44927,51.44927,0,0,1,16.2256-11.84569,48.26107,48.26107,0,0,1,20.7051-4.3799,49.94068,49.94068,0,0,1,21.999,4.5791,45.28682,45.28682,0,0,1,15.72849,12.3433,53.5929,53.5929,0,0,1,9.45613,18.1171,73.42691,73.42691,0,0,1,3.1855,21.7002q0,1.59675-.0996,3.1856-.1026,1.59525-.2988,3.3848h-77.24612Q1458.85658,529.16944,1467.02058,536.03469Zm43.4014-35.7364a41.28405,41.28405,0,0,0-2.5879-10.8496,27.82117,27.82117,0,0,0-5.376-8.7598,25.59477,25.59477,0,0,0-8.0625-5.8735,24.86113,24.86113,0,0,0-10.6513-2.1899,24.285,24.285,0,0,0-18.4151,7.665q-7.27005,7.667-8.8594,20.0078Z" transform="translate(-277.5904 -359.34569)"/>
  </g>
  <path class="cls-2" d="M1354.70478,560.36729h-101.5715a15.42855,15.42855,0,0,1-15.4285-15.4286V465.653a15.42855,15.42855,0,0,1,15.4285-15.4286h101.5715a15.42855,15.42855,0,0,1,15.4285,15.4286v79.2857A15.42855,15.42855,0,0,1,1354.70478,560.36729Zm-39.0976-66.8271a11.57146,11.57146,0,1,0-17.4107,9.9782v17.5039a5.83921,5.83921,0,0,0,5.8392,5.83929h.0001a5.83921,5.83921,0,0,0,5.8392-5.83929v-17.5039A11.55588,11.55588,0,0,0,1315.60718,493.54019Z" transform="translate(-277.5904 -359.34569)"/>
  <path class="cls-2" d="M1350.52608,388.65649a47.96485,47.96485,0,0,0-44.22-29.3108h-4.6313a44.62388,44.62388,0,0,0-34.2083,14.0578,47.81079,47.81079,0,0,0-10.2813,15.252,74.07738,74.07738,0,0,0-3.3074,11.3738,24.05794,24.05794,0,0,0-.3633,3.4764c-.0024.1317-.0061.2528-.0113.3643,1.3626,2.3335,6.85872,9.8355,18.3568,3.7662.0526-.0979.089-.2064.1385-.3063.3445-1.6455.7778-3.3921,1.2359-5.3077a37.20551,37.20551,0,0,1,1.8613-5.4458c.038-.0977.0787-.2125.1143-.2967a28.33383,28.33383,0,0,1,6.0956-9.03811,29.08472,29.08472,0,0,1,9.001-6.40139,29.84519,29.84519,0,0,1,11.3682-1.9233h4.6313a28.39221,28.39221,0,0,1,28.4243,28.4242v26.3778a9.7856,9.7856,0,0,0,19.5712,0v-26.3778A47.70213,47.70213,0,0,0,1350.52608,388.65649Z" transform="translate(-277.5904 -359.34569)"/>
</svg>
