<?xml version="1.0" encoding="utf-8"?>
<svg viewBox="30.472 23.971 127.2 222.9" width="127.2" height="222.9" xmlns="http://www.w3.org/2000/svg">
  <g transform="matrix(1, 0, 0, 1, -32.82814, -23.028679)">
    <g>
      <path d="M126.9,47a63.6,63.6,0,1,1-63.6,63.6A63.632,63.632,0,0,1,126.9,47" fill="#8dd5f6"/>
      <path d="M109.6,96.1c4.5,4.4,5.5,8.4,3.6,12.1-2,4-6.5,6.1-14.1,6.2-6.5.1-8.2-3.2-9.5-5-2.5-3.5-1.2-7.8,1.1-10.6,2.9-3.4,5-3.6,7.3-2.4a5.766,5.766,0,0,1,3.1,5.1c0,1.7-1.1,4.3-1.1,4.7a.441.441,0,0,0,.6.4,13.491,13.491,0,0,0,4-3.1c1.2-1.5,2.5-7,2.2-7.8-.3-.7-2.1-2.2-2.2-3a4.707,4.707,0,0,0-.4-1.6,6.034,6.034,0,0,0-.8-.8c-.5-.4-2,.1-2.5-.6-.5-.6-.7-1.9-1.4-2.1a3.083,3.083,0,0,0-1.4-.1c-.8.2-1.3.6-1.9.5-.8-.1-1.5-1.4-2.7-1.3-1.1.1-2.5,2-4.1,3.7-1.5,1.7-4.3,3.8-6.2,7.2a14.652,14.652,0,0,0-2,9.5c.6,4.1,1.6,6.9,4.9,9.9a20.978,20.978,0,0,0,8.2,4.7c2,.7,3.5,1.4,5.7,1.4a27.884,27.884,0,0,0,2.9,0c1.4-.1,1.1-.7,2.4-1a19.063,19.063,0,0,0,10.6-5.6c.5-.6,2-2.1,2.2-2.3a6.045,6.045,0,0,1,0,1.9c-.3,2.2-1.7,3.4-3.8,4.5-3.1,1.7-7.6,4.1-10.7,6.2-2.9,2-5.4,3.9-6.3,7.1s-.7,5,.3,7.2a12.613,12.613,0,0,0,5.2,5.7c2.2,1.3,4.2,2.4,6.4,3.5,1.5.8,4.1,2.1,3.9,4.8a5.344,5.344,0,0,1-3.2,4.7,25.657,25.657,0,0,1-5,1.2c-.2.2,2.5,2.4,4.5,2.4a12.188,12.188,0,0,0,5.1-.9c1.8-.6,2.6-2.2,2.9-2.3s.7,0,1.1-.3,1.6-1.2,1.8-1.8c.1-.6.2-1.5.3-2s.7-2.2.8-3.1c0-.9.3-3-.6-4.2-.7-1-.3-1.5-.9-2.1a4.675,4.675,0,0,0-1-.9c-.6-.2-.9,0-1.3-.3-.6-.4-1.4-2.8-2.3-2.8a4.484,4.484,0,0,0-1.1.1,14.806,14.806,0,0,1-4.7,0c-.9-.4-4-2.3-3.7-5.1.2-2.4,1.9-4,4.3-4.9,2.1-.8,2.8-.7,4.2-1.4s2.4-1.5,3.4-2.1a22.376,22.376,0,0,0,3.6-2.1,11.063,11.063,0,0,0,1.8-1.9,20.193,20.193,0,0,1,2.5-3.2,51.061,51.061,0,0,0,3.8,5.2c2.6,3,6.1,4.8,7.8,5.8a32.134,32.134,0,0,1,7.1,6.1,6.014,6.014,0,0,1-5.3,9.5,9.4,9.4,0,0,1-7.1-3.3c-1.6-2.1-2.3-6-.9-7.1,1.5-1.1,2.9-.6,3.9-.5a1.289,1.289,0,0,0,1.5-.9,1.935,1.935,0,0,0-.9-1.9,3.807,3.807,0,0,0-2.3-.9,21.049,21.049,0,0,1-3.2.2,5.771,5.771,0,0,0-4.6,1.4,7.123,7.123,0,0,0-2.3,3.3,8.817,8.817,0,0,0,0,2.3c-.1.7-.3,1.2-.4,1.7a12.216,12.216,0,0,0,.3,2.6,24.407,24.407,0,0,0,1,3.3,5.171,5.171,0,0,0,.6,1.3,11.4,11.4,0,0,1,1.4,1.2c1,1,2.2,2.3,3.1,2.6,1.2.5,3.5-.3,4.1-.1s1.5,1.2,2.5,1.2,7.1-.3,9.3-1.2c2.6-1.1,7.2-4,8.1-8,1.1-5-1-8.4-3.1-10.9a66.8,66.8,0,0,0-11.2-9.7,12.008,12.008,0,0,1-3.7-4,6.3,6.3,0,0,1-.9-4.4,18.936,18.936,0,0,1,4.3,4.1,7.848,7.848,0,0,0,2.7,2c.7.4,1.6.1,2.3.3.7.1.2.7,1.4,1.1a53.241,53.241,0,0,0,7.8,1.4,10.1,10.1,0,0,0,2.1-.7,36.07,36.07,0,0,0,5.9-1.8c5.2-2,7.4-5.3,9.1-9.3,1.8-4,.6-9-.5-11.3a82.325,82.325,0,0,0-5.1-8.5c-2.1-3.2-4.7-6.4-3.5-12.8,1.2-6.5,6.1-8.5,6.8-9.6.6-1-1.1-1.9-1.5-2.1a7.31,7.31,0,0,0-2.4-.5h-.2c-1.2,0-1.8.8-2.3.9-.5.2-2.8,0-3.1.1a3.566,3.566,0,0,0-1.1,1c-.2.3-.1.4-.4,1.1s-2.6,2.6-3.3,3.8c-.3.6,0,2-.4,2.9s-1.7.8-1.9,1.8c-.2.7.2,3-.1,4.1-.3,1.2-1,.6-1,1.8-.1,1.7,2.9,4.3,3.4,5.1a15.426,15.426,0,0,1,1.3,2.6,11.7,11.7,0,0,0,2.3,3.3c.7.8,2.6,2,3.1,2.9.3.5,0,1.4.2,2a10.59,10.59,0,0,0,1.5,2.2c.8,1.1.5,4.1-.2,6a9.028,9.028,0,0,1-6,5.1,13.22,13.22,0,0,1-15.2-8.7c-1.6-4.1-.8-8.8,2.8-12.6a22.974,22.974,0,0,0,6.3-15.5c0-12.7-10.8-22.9-23.6-22.9a23.177,23.177,0,0,0-23.3,22.9A24.984,24.984,0,0,0,109.6,96.1Z" fill="#1386c8"/>
      <path d="M122.5,70.3a11.4,11.4,0,1,1-11.4,11.4,11.395,11.395,0,0,1,11.4-11.4" fill="#fff"/>
      <path d="M121,80.8a2.6,2.6,0,1,1-2.6,2.6,2.582,2.582,0,0,1,2.6-2.6" fill="#1386c8"/>
      <path d="M168.9,216.6v-2.4l3-.2.6-.8V192l-.6-.6-3-.2v-2.4h14.7v2.4l-3,.2-.7.6v21.2l.7.8,3,.2v2.4Zm-32.3,0v-2.3l2.5-.2.8-.8V192.1l-.5-.6-2.8-.3v-2.3h11.7V190l11.8,18.4V192.3l-.7-.8-2.7-.3v-2.3h10.5v2.3l-2.4.3-.8.8v24.4h-6.6l-13.7-21v17.7l.6.8,2.8.2v2.3H136.6ZM119,191.4a5.561,5.561,0,0,0-5.1,3.1c-1.3,2.1-1.9,4.9-1.9,8.5a15.305,15.305,0,0,0,2,8.2,5.775,5.775,0,0,0,5.1,3.1c2.1,0,3.7-1.1,5-3.2s1.9-5,1.9-8.6a15.323,15.323,0,0,0-1.9-8.2c-1.4-1.8-3-2.9-5.1-2.9m-15.3,11.1a13.343,13.343,0,0,1,4.2-10.3q4.2-3.9,11.1-3.9a18.36,18.36,0,0,1,5.3.8,12.51,12.51,0,0,1,4.3,2.2,13.942,13.942,0,0,1,4.1,5,13.527,13.527,0,0,1,1.4,6.3,14.021,14.021,0,0,1-4.3,10.6,15.68,15.68,0,0,1-11.1,4.1,14.628,14.628,0,0,1-10.8-4.1,14.083,14.083,0,0,1-4.2-10.7M85.4,191.4a5.561,5.561,0,0,0-5.1,3.1c-1.3,2.1-1.9,4.9-1.9,8.5a15.305,15.305,0,0,0,2,8.2,5.775,5.775,0,0,0,5.1,3.1c2.1,0,3.7-1.1,5-3.2s1.9-5,1.9-8.6a15.323,15.323,0,0,0-1.9-8.2,6.218,6.218,0,0,0-5.1-2.9M70.2,202.5a13.343,13.343,0,0,1,4.2-10.3q4.2-3.9,11.1-3.9a18.36,18.36,0,0,1,5.3.8,12.51,12.51,0,0,1,4.3,2.2,13.942,13.942,0,0,1,4.1,5,13.527,13.527,0,0,1,1.4,6.3,14.021,14.021,0,0,1-4.3,10.6,15.68,15.68,0,0,1-11.1,4.1,14.628,14.628,0,0,1-10.8-4.1,14.083,14.083,0,0,1-4.2-10.7"/>
    </g>
    <g>
      <path d="M84.7,238.2l-.4,2.7H74.9v7.9h8.2v2.7H74.9v8.3h10v2.7H71.6V238.3H84.7Z"/>
      <path d="M95.6,252.5l6.4,9.9H98.1l-4.5-7.8L89,262.4H85.3l6.5-9.8-5.7-8.7h3.8l3.9,6.8,3.9-6.8h3.7Z"/>
      <path d="M117.5,246a13.069,13.069,0,0,1,1.7,7.1,11.6,11.6,0,0,1-1.9,7,6.291,6.291,0,0,1-5.4,2.7,5.738,5.738,0,0,1-4.8-2.1v8.8l-3.2.4v-26h2.8l.2,2.5a7.509,7.509,0,0,1,2.5-2.2,6.736,6.736,0,0,1,3-.8A5.8,5.8,0,0,1,117.5,246Zm-1.9,7.1c0-4.7-1.4-7.1-4.2-7.1a4.627,4.627,0,0,0-2.5.8,8.089,8.089,0,0,0-2,2.1v9a5.814,5.814,0,0,0,1.8,1.7,4.645,4.645,0,0,0,2.3.6C114.1,260.2,115.6,257.8,115.6,253.1Z"/>
      <path d="M123.7,261.7a4.04,4.04,0,0,1-1-3V236.4l3.2-.4v22.6a1.609,1.609,0,0,0,.3,1.1,1.268,1.268,0,0,0,.9.4,5.019,5.019,0,0,0,1.2-.2l.8,2.2a5.536,5.536,0,0,1-2.6.6A3.483,3.483,0,0,1,123.7,261.7Z"/>
      <path d="M144.2,246a10.947,10.947,0,0,1,2.2,7.1,11.914,11.914,0,0,1-1,5.1,7.927,7.927,0,0,1-2.8,3.4,7.83,7.83,0,0,1-4.4,1.2,7.71,7.71,0,0,1-6.1-2.6c-1.5-1.7-2.2-4.1-2.2-7.1a11.914,11.914,0,0,1,1-5.1,7.412,7.412,0,0,1,7.3-4.6A7.364,7.364,0,0,1,144.2,246Zm-10.8,7.1c0,4.7,1.6,7.1,4.8,7.1s4.8-2.4,4.8-7.1-1.6-7.1-4.7-7.1C135,246,133.4,248.4,133.4,253.1Z"/>
      <path d="M159.9,243.7l-.6,3.2a9.971,9.971,0,0,0-1.6-.2,3.41,3.41,0,0,0-2.8,1.3,9.483,9.483,0,0,0-1.7,3.9v10.6H150V244h2.8l.3,3.8a7.249,7.249,0,0,1,2-3.1,4.426,4.426,0,0,1,3-1.1A2.787,2.787,0,0,1,159.9,243.7Z"/>
      <path d="M174.7,254.2H162.9a7.738,7.738,0,0,0,1.5,4.5,4.25,4.25,0,0,0,3.4,1.4,6.9,6.9,0,0,0,2.5-.4,26.7,26.7,0,0,0,2.4-1.2l1.4,1.9a10.528,10.528,0,0,1-6.5,2.3,7.3,7.3,0,0,1-6-2.5,10.656,10.656,0,0,1-2.2-7,13.638,13.638,0,0,1,.9-5.1,7.378,7.378,0,0,1,2.7-3.5,7.142,7.142,0,0,1,4.1-1.3,7.048,7.048,0,0,1,5.7,2.4,10.487,10.487,0,0,1,2,6.7A12.134,12.134,0,0,0,174.7,254.2Zm-3.2-2.6a7.234,7.234,0,0,0-1.1-4.2,3.689,3.689,0,0,0-3.3-1.4c-2.6,0-4.1,1.9-4.3,5.8h8.7v-.2Z"/>
      <path d="M188,243.7l-.6,3.2a9.971,9.971,0,0,0-1.6-.2A3.41,3.41,0,0,0,183,248a9.483,9.483,0,0,0-1.7,3.9v10.6h-3.2V244h2.8l.3,3.8a7.249,7.249,0,0,1,2-3.1,4.426,4.426,0,0,1,3-1.1A2.787,2.787,0,0,1,188,243.7Z"/>
    </g>
    <rect x="69.4" y="225.4" width="113.4" height="3.9"/>
  </g>
</svg>
