<?xml version="1.0" encoding="utf-8"?>
<svg viewBox="314.735 95.057 127.2 213.554" width="127.2" height="213.554" xmlns="http://www.w3.org/2000/svg">
  <g transform="matrix(1, 0, 0, 1, 251.434875, 48.056891)">
    <path d="M126.9,47a63.6,63.6,0,1,1-63.6,63.6A63.632,63.632,0,0,1,126.9,47" fill="#8dd5f6"/>
    <path d="M109.6,96.1c4.5,4.4,5.5,8.4,3.6,12.1-2,4-6.5,6.1-14.1,6.2-6.5.1-8.2-3.2-9.5-5-2.5-3.5-1.2-7.8,1.1-10.6,2.9-3.4,5-3.6,7.3-2.4a5.766,5.766,0,0,1,3.1,5.1c0,1.7-1.1,4.3-1.1,4.7a.441.441,0,0,0,.6.4,13.491,13.491,0,0,0,4-3.1c1.2-1.5,2.5-7,2.2-7.8-.3-.7-2.1-2.2-2.2-3a4.707,4.707,0,0,0-.4-1.6,6.034,6.034,0,0,0-.8-.8c-.5-.4-2,.1-2.5-.6-.5-.6-.7-1.9-1.4-2.1a3.083,3.083,0,0,0-1.4-.1c-.8.2-1.3.6-1.9.5-.8-.1-1.5-1.4-2.7-1.3-1.1.1-2.5,2-4.1,3.7-1.5,1.7-4.3,3.8-6.2,7.2a14.652,14.652,0,0,0-2,9.5c.6,4.1,1.6,6.9,4.9,9.9a20.978,20.978,0,0,0,8.2,4.7c2,.7,3.5,1.4,5.7,1.4a27.884,27.884,0,0,0,2.9,0c1.4-.1,1.1-.7,2.4-1a19.063,19.063,0,0,0,10.6-5.6c.5-.6,2-2.1,2.2-2.3a6.045,6.045,0,0,1,0,1.9c-.3,2.2-1.7,3.4-3.8,4.5-3.1,1.7-7.6,4.1-10.7,6.2-2.9,2-5.4,3.9-6.3,7.1s-.7,5,.3,7.2a12.613,12.613,0,0,0,5.2,5.7c2.2,1.3,4.2,2.4,6.4,3.5,1.5.8,4.1,2.1,3.9,4.8a5.344,5.344,0,0,1-3.2,4.7,25.657,25.657,0,0,1-5,1.2c-.2.2,2.5,2.4,4.5,2.4a12.188,12.188,0,0,0,5.1-.9c1.8-.6,2.6-2.2,2.9-2.3s.7,0,1.1-.3,1.6-1.2,1.8-1.8c.1-.6.2-1.5.3-2s.7-2.2.8-3.1c0-.9.3-3-.6-4.2-.7-1-.3-1.5-.9-2.1a4.675,4.675,0,0,0-1-.9c-.6-.2-.9,0-1.3-.3-.6-.4-1.4-2.8-2.3-2.8a4.484,4.484,0,0,0-1.1.1,14.806,14.806,0,0,1-4.7,0c-.9-.4-4-2.3-3.7-5.1.2-2.4,1.9-4,4.3-4.9,2.1-.8,2.8-.7,4.2-1.4s2.4-1.5,3.4-2.1a22.376,22.376,0,0,0,3.6-2.1,11.063,11.063,0,0,0,1.8-1.9,20.193,20.193,0,0,1,2.5-3.2,51.061,51.061,0,0,0,3.8,5.2c2.6,3,6.1,4.8,7.8,5.8a32.134,32.134,0,0,1,7.1,6.1,6.014,6.014,0,0,1-5.3,9.5,9.4,9.4,0,0,1-7.1-3.3c-1.6-2.1-2.3-6-.9-7.1,1.5-1.1,2.9-.6,3.9-.5a1.289,1.289,0,0,0,1.5-.9,1.935,1.935,0,0,0-.9-1.9,3.807,3.807,0,0,0-2.3-.9,21.049,21.049,0,0,1-3.2.2,5.771,5.771,0,0,0-4.6,1.4,7.123,7.123,0,0,0-2.3,3.3,8.817,8.817,0,0,0,0,2.3c-.1.7-.3,1.2-.4,1.7a12.216,12.216,0,0,0,.3,2.6,24.407,24.407,0,0,0,1,3.3,5.171,5.171,0,0,0,.6,1.3,11.4,11.4,0,0,1,1.4,1.2c1,1,2.2,2.3,3.1,2.6,1.2.5,3.5-.3,4.1-.1s1.5,1.2,2.5,1.2,7.1-.3,9.3-1.2c2.6-1.1,7.2-4,8.1-8,1.1-5-1-8.4-3.1-10.9a66.8,66.8,0,0,0-11.2-9.7,12.008,12.008,0,0,1-3.7-4,6.3,6.3,0,0,1-.9-4.4,18.936,18.936,0,0,1,4.3,4.1,7.848,7.848,0,0,0,2.7,2c.7.4,1.6.1,2.3.3.7.1.2.7,1.4,1.1a53.241,53.241,0,0,0,7.8,1.4,10.1,10.1,0,0,0,2.1-.7,36.07,36.07,0,0,0,5.9-1.8c5.2-2,7.4-5.3,9.1-9.3,1.8-4,.6-9-.5-11.3a82.325,82.325,0,0,0-5.1-8.5c-2.1-3.2-4.7-6.4-3.5-12.8,1.2-6.5,6.1-8.5,6.8-9.6.6-1-1.1-1.9-1.5-2.1a7.31,7.31,0,0,0-2.4-.5h-.2c-1.2,0-1.8.8-2.3.9-.5.2-2.8,0-3.1.1a3.566,3.566,0,0,0-1.1,1c-.2.3-.1.4-.4,1.1s-2.6,2.6-3.3,3.8c-.3.6,0,2-.4,2.9s-1.7.8-1.9,1.8c-.2.7.2,3-.1,4.1-.3,1.2-1,.6-1,1.8-.1,1.7,2.9,4.3,3.4,5.1a15.426,15.426,0,0,1,1.3,2.6,11.7,11.7,0,0,0,2.3,3.3c.7.8,2.6,2,3.1,2.9.3.5,0,1.4.2,2a10.59,10.59,0,0,0,1.5,2.2c.8,1.1.5,4.1-.2,6a9.028,9.028,0,0,1-6,5.1,13.22,13.22,0,0,1-15.2-8.7c-1.6-4.1-.8-8.8,2.8-12.6a22.974,22.974,0,0,0,6.3-15.5c0-12.7-10.8-22.9-23.6-22.9a23.177,23.177,0,0,0-23.3,22.9A24.984,24.984,0,0,0,109.6,96.1Z" fill="#1386c8"/>
    <path d="M122.5,70.3a11.4,11.4,0,1,1-11.4,11.4,11.395,11.395,0,0,1,11.4-11.4" fill="#fff"/>
    <path d="M121,80.8a2.6,2.6,0,1,1-2.6,2.6,2.582,2.582,0,0,1,2.6-2.6" fill="#1386c8"/>
    <path fill="#fff" d="M168.9,216.6v-2.4l3-.2.6-.8V192l-.6-.6-3-.2v-2.4h14.7v2.4l-3,.2-.7.6v21.2l.7.8,3,.2v2.4Zm-32.3,0v-2.3l2.5-.2.8-.8V192.1l-.5-.6-2.8-.3v-2.3h11.7V190l11.8,18.4V192.3l-.7-.8-2.7-.3v-2.3h10.5v2.3l-2.4.3-.8.8v24.4h-6.6l-13.7-21v17.7l.6.8,2.8.2v2.3H136.6ZM119,191.4a5.561,5.561,0,0,0-5.1,3.1c-1.3,2.1-1.9,4.9-1.9,8.5a15.305,15.305,0,0,0,2,8.2,5.775,5.775,0,0,0,5.1,3.1c2.1,0,3.7-1.1,5-3.2s1.9-5,1.9-8.6a15.323,15.323,0,0,0-1.9-8.2c-1.4-1.8-3-2.9-5.1-2.9m-15.3,11.1a13.343,13.343,0,0,1,4.2-10.3q4.2-3.9,11.1-3.9a18.36,18.36,0,0,1,5.3.8,12.51,12.51,0,0,1,4.3,2.2,13.942,13.942,0,0,1,4.1,5,13.527,13.527,0,0,1,1.4,6.3,14.021,14.021,0,0,1-4.3,10.6,15.68,15.68,0,0,1-11.1,4.1,14.628,14.628,0,0,1-10.8-4.1,14.083,14.083,0,0,1-4.2-10.7M85.4,191.4a5.561,5.561,0,0,0-5.1,3.1c-1.3,2.1-1.9,4.9-1.9,8.5a15.305,15.305,0,0,0,2,8.2,5.775,5.775,0,0,0,5.1,3.1c2.1,0,3.7-1.1,5-3.2s1.9-5,1.9-8.6a15.323,15.323,0,0,0-1.9-8.2,6.218,6.218,0,0,0-5.1-2.9M70.2,202.5a13.343,13.343,0,0,1,4.2-10.3q4.2-3.9,11.1-3.9a18.36,18.36,0,0,1,5.3.8,12.51,12.51,0,0,1,4.3,2.2,13.942,13.942,0,0,1,4.1,5,13.527,13.527,0,0,1,1.4,6.3,14.021,14.021,0,0,1-4.3,10.6,15.68,15.68,0,0,1-11.1,4.1,14.628,14.628,0,0,1-10.8-4.1,14.083,14.083,0,0,1-4.2-10.7"/>
  </g>
  <g transform="matrix(1, 0, 0, 1, 317.503838, 90.194823)">
    <path fill="#fff" d="M 39.938 212.534 L 39.054 215.475 L 38.17 218.416 L 36.538 218.416 L 34.906 218.416 L 38.663 206.703 L 42.42 194.99 L 44.46 194.99 L 46.5 194.99 L 50.24 206.703 L 53.98 218.416 L 52.28 218.416 L 50.58 218.416 L 49.696 215.475 L 48.812 212.534 M 44.392 197.676 L 42.556 203.796 L 40.72 209.916 L 44.375 209.916 L 48.03 209.916 M 68.8 194.99 C 70.251 194.99 71.538 195.142 72.66 195.445 C 73.782 195.748 74.739 196.203 75.532 196.809 C 76.326 197.416 76.921 198.171 77.317 199.075 C 77.714 199.979 77.912 201.031 77.912 202.232 C 77.912 203.513 77.705 204.63 77.292 205.582 C 76.878 206.534 76.258 207.321 75.43 207.944 C 74.603 208.568 73.64 209.035 72.54 209.347 C 71.441 209.658 70.206 209.814 68.834 209.814 L 67.355 209.814 L 65.876 209.814 L 65.876 214.115 L 65.876 218.416 L 64.261 218.416 L 62.646 218.416 L 62.646 206.703 L 62.646 194.99 L 65.723 194.99 L 68.8 194.99 M 68.698 207.264 C 69.639 207.264 70.468 207.174 71.185 206.992 C 71.901 206.811 72.506 206.539 72.999 206.176 C 73.492 205.814 73.862 205.307 74.108 204.655 C 74.355 204.003 74.478 203.207 74.478 202.266 C 74.478 201.428 74.355 200.705 74.108 200.099 C 73.862 199.492 73.492 199.002 72.999 198.628 C 72.506 198.254 71.907 197.974 71.201 197.787 C 70.496 197.6 69.684 197.506 68.766 197.506 L 67.321 197.506 L 65.876 197.506 L 65.876 202.385 L 65.876 207.264 L 67.287 207.264 L 68.698 207.264 M 81.548 218.416 L 81.548 206.703 L 81.548 194.99 L 83.18 194.99 L 84.812 194.99 L 84.812 206.703 L 84.812 218.416"/>
  </g>
  <rect fill="#fff" x="69.4" y="225.4" width="113.4" height="3.9" transform="matrix(1, 0, 0, 1, 251.434875, 48.056891)"/>
</svg>
