<svg xmlns="http://www.w3.org/2000/svg" viewBox="0 0 698.19 196.824" xml:space="preserve"><path fill="#FFF" d="M248.751 103.262c0-16.843 5.511-30.388 16.536-40.643 11.078-10.254 25.75-15.38 44.02-15.38 7.456 0 14.405 1.008 20.851 3.028 6.496 1.965 12.196 4.834 17.096 8.606 7.136 5.473 12.594 12.061 16.378 19.765 3.781 7.704 5.67 16.071 5.67 25.102 0 17.001-5.725 30.949-17.176 41.839-11.395 10.84-26.123 16.257-44.176 16.257-17.844 0-32.168-5.365-42.982-16.096-10.812-10.732-16.217-24.891-16.217-42.478zm60.395-43.751c-8.521 0-15.312 4.143-20.37 12.433-5.008 8.287-7.511 19.524-7.511 33.708 0 13.337 2.61 24.122 7.831 32.356 5.272 8.234 12.01 12.352 20.211 12.352s14.806-4.196 19.811-12.591c5.008-8.395 7.511-19.684 7.511-33.869 0-13.496-2.531-24.252-7.589-32.276-5.008-8.075-11.638-12.113-19.894-12.113zm72.427 43.751c0-16.843 5.514-30.388 16.536-40.643 11.078-10.254 25.753-15.38 44.02-15.38 7.456 0 14.405 1.008 20.851 3.028 6.496 1.965 12.196 4.834 17.096 8.606 7.136 5.473 12.597 12.061 16.378 19.765 3.781 7.704 5.672 16.071 5.672 25.102 0 17.001-5.725 30.949-17.176 41.839-11.398 10.84-26.123 16.257-44.178 16.257-17.841 0-32.168-5.365-42.979-16.096-10.814-10.732-16.22-24.891-16.22-42.478zm60.397-43.751c-8.521 0-15.312 4.143-20.373 12.433-5.008 8.287-7.509 19.524-7.509 33.708 0 13.337 2.61 24.122 7.829 32.356 5.272 8.234 12.01 12.352 20.211 12.352s14.806-4.196 19.813-12.591c5.005-8.395 7.509-19.684 7.509-33.869 0-13.496-2.529-24.252-7.589-32.276-5.007-8.075-11.636-12.113-19.891-12.113zm69.791 99.536v-9.164l9.985-.957 3.116-3.108V62.062l-2.156-2.392-10.944-1.194v-8.928h46.176v4.385l46.894 72.599V62.778l-2.877-3.108-10.705-1.194v-8.928h41.463v8.928l-9.667 1.194-3.116 3.108v96.269h-26.043l-54.164-83.198v69.968l2.315 3.108 10.944.957v9.164h-41.221zm128.029 0v-9.483l11.824-.638 2.557-3.108V62.062l-2.557-2.392-11.824-.636v-9.485h58.4v9.485l-12.066.636-2.635 2.392v83.756l2.635 3.108 12.065.638v9.483H639.79zM98.41.002C44.061.002 0 44.062 0 98.412c0 54.35 44.061 98.41 98.41 98.41 54.35 0 98.41-44.06 98.41-98.41 0-54.35-44.06-98.41-98.41-98.41zm66.774 104.79c-2.713 6.116-6.086 11.23-14.115 14.367-5.854 2.287-7.962 2.46-9.195 2.847-1.287.403-2.377 1.034-3.191 1.063-1.992.07-10.268-1.46-12.141-2.1-1.872-.64-1.12-1.5-2.17-1.682-1.05-.183-2.428.128-3.531-.414-1.247-.612-2.859-1.57-4.124-3.144-.982-1.223-4.338-5.053-6.687-6.283-.51 2.504.507 5.234 1.466 6.85 1.263 2.127 2.501 3.909 5.766 6.251 5.7 4.09 13.255 10.264 17.282 15.044 3.261 3.872 6.511 9.164 4.796 16.899-1.391 6.274-8.464 10.781-12.565 12.417-3.282 1.309-12.796 1.757-14.349 1.802-1.552.045-2.842-1.528-3.846-1.847-1.005-.32-4.611.912-6.393.206-1.435-.568-3.255-2.545-4.825-4.076-.83-.809-1.705-1.319-2.162-1.812-.377-.404-.613-1.318-.907-1.986-.717-1.629-1.296-3.47-1.6-5.063-.273-1.431-.469-2.897-.456-4.095.008-.806.44-1.625.549-2.672.109-1.037-.208-2.778.054-3.588.687-2.129 1.742-3.472 3.579-5.172 2.234-2.065 4.667-2.329 7.137-2.244 2.326.081 4.042-.36 4.952-.371 1.66-.021 2.863.823 3.518 1.332 1.233.958 1.529 2.055 1.347 2.968-.183.913-1.24 1.505-2.352 1.37-1.42-.173-3.678-.996-5.981.731-2.142 1.606-1.164 7.693 1.347 10.936 2.521 3.253 6.638 5.017 10.936 5.114 4.018.092 6.934-2.113 8.218-3.813 1.484-1.963 2.718-7.123.023-10.889-2.513-3.516-8.379-7.913-10.936-9.511-2.557-1.598-8.014-4.417-12.008-9.052-1.573-1.824-3.703-4.759-5.883-8.092-1.593 1.319-3.086 3.98-3.868 4.96-.912 1.147-1.877 2.063-2.841 2.87-1.689 1.417-3.915 2.455-5.559 3.322-1.643.867-3.159 2.183-5.32 3.218-2.191 1.05-3.315.947-6.529 2.123-3.599 1.318-6.253 3.854-6.598 7.581-.399 4.338 4.31 7.343 5.753 7.899.933.359 6.129.225 7.316-.062a5.732 5.732 0 0 1 1.671-.122c1.444.104 2.639 3.852 3.638 4.408.626.348 1.083.062 1.957.389.675.253 1.413 1.23 1.559 1.369.879.833.331 1.643 1.382 3.185 1.269 1.861.902 5.103.856 6.519-.045 1.415-.958 4.04-1.187 4.816-.228.776-.274 2.237-.503 3.104-.228.867-2.121 2.331-2.716 2.763-.61.443-1.278.389-1.735.48-.457.092-1.683 2.552-4.498 3.539-3.238 1.135-4.476 1.37-7.967 1.392-3.197.021-7.364-3.501-7.032-3.767.188-.149 4.594-.516 7.809-1.918 1.872-.815 4.629-3.069 4.999-7.328.365-4.201-3.669-6.208-5.976-7.393-3.352-1.722-6.393-3.482-9.868-5.483-4.2-2.42-6.707-5.732-8.082-8.835-1.506-3.402-1.781-6.232-.411-11.164 1.37-4.932 5.264-7.936 9.679-11.028 4.774-3.341 11.735-7.099 16.53-9.656 3.358-1.791 5.455-3.671 5.913-7.03.067-.49.036-2.376-.067-2.964-.413.407-2.623 2.767-3.465 3.625-3.312 3.372-8.759 7.367-16.411 8.625-1.964.324-1.535 1.251-3.645 1.478-.833.089-3.345.012-4.524-.024-3.423-.106-5.618-1.131-8.782-2.228-3.164-1.099-7.433-2.496-12.721-7.33-5.141-4.699-6.715-9.008-7.62-15.4-.905-6.393.867-10.909 3.035-14.723 2.991-5.261 7.232-8.523 9.622-11.106 2.39-2.583 4.594-5.554 6.328-5.682 1.744-.13 2.844 1.915 4.133 2.065.923.109 1.815-.606 3-.848.826-.168 1.729.021 2.198.139 1.033.258 1.356 2.292 2.13 3.26.904 1.131 3.1.323 3.939.969.34.262.982.742 1.216 1.264.343.765.429 1.697.544 2.426.194 1.227 2.985 3.51 3.374 4.608.387 1.098-1.585 9.656-3.423 12.011-2.054 2.632-5.682 4.552-6.135 4.746-.452.194-.872-.129-.872-.646s1.782-4.598 1.744-7.232c-.065-4.424-2.923-6.851-4.856-7.892-3.604-1.94-6.881-1.493-11.319 3.694-3.654 4.27-5.671 10.919-1.775 16.401 2.031 2.859 4.74 7.833 14.756 7.749 11.622-.098 18.692-3.405 21.76-9.524 2.834-5.655 1.272-11.928-5.642-18.678-6.914-6.75-10.714-15.777-10.722-25.192 0-19.619 16.136-35.523 36.041-35.523s36.557 15.904 36.557 35.523c-.014 9.248-4.202 18.125-9.816 23.93-5.615 5.804-6.719 13.182-4.315 19.488 5.226 13.71 18.275 14.904 23.472 13.446 5.197-1.458 8.235-5.17 9.35-7.972 1.115-2.801 1.528-7.435.295-9.215-1.232-1.781-2.017-2.541-2.29-3.409-.291-.918.176-2.318-.252-3.052-.771-1.318-3.757-3.203-4.843-4.433-1.084-1.23-2.526-2.739-3.597-5.16-.959-2.17-1.271-2.869-2.048-4.057-.776-1.187-5.337-5.299-5.245-7.878.065-1.831 1.104-1.021 1.605-2.817.483-1.732-.09-5.282.209-6.387.409-1.501 2.327-1.435 2.965-2.805.64-1.37.05-3.434.576-4.431.981-1.863 4.563-4.851 5.066-5.901.502-1.051.23-1.178.583-1.687.202-.29 1.144-1.424 1.681-1.536.491-.103 4.037.112 4.846-.159.746-.25 1.71-1.387 3.521-1.452.12-.005.245-.004.373.002 2.055.091 2.905.38 3.688.751.645.307 3.23 1.797 2.362 3.27-1.086 1.84-8.73 4.912-10.516 14.925-1.786 10.014 2.219 15.001 5.416 19.887 3.196 4.886 6.302 9.596 7.885 13.145 1.582 3.548 3.419 11.358.706 17.474z"/><path fill="#FFF" d="M91.531 36.141c-9.749 0-17.653 7.903-17.653 17.654 0 9.75 7.904 17.653 17.653 17.653 9.75 0 17.654-7.903 17.654-17.653s-7.904-17.654-17.654-17.654zM89.243 60.36a4.04 4.04 0 1 1 0-8.081 4.04 4.04 0 0 1 0 8.081z"/></svg>