<?xml version="1.0" encoding="UTF-8" standalone="no"?>
<!-- Generator: Adobe Illustrator 18.1.1, SVG Export Plug-In . SVG Version: 6.00 Build 0)  -->

<svg
   xmlns:dc="http://purl.org/dc/elements/1.1/"
   xmlns:cc="http://creativecommons.org/ns#"
   xmlns:rdf="http://www.w3.org/1999/02/22-rdf-syntax-ns#"
   xmlns:svg="http://www.w3.org/2000/svg"
   xmlns="http://www.w3.org/2000/svg"
   xmlns:sodipodi="http://sodipodi.sourceforge.net/DTD/sodipodi-0.dtd"
   xmlns:inkscape="http://www.inkscape.org/namespaces/inkscape"
   version="1.1"
   id="Layer_1"
   x="0px"
   y="0px"
   viewBox="0 0 679.99999 280"
   enable-background="new 0 0 960 560"
   xml:space="preserve"
   inkscape:version="0.91 r13725"
   sodipodi:docname="how-ooni-works.svg"
   width="680"
   height="280"><metadata
     id="metadata4434"><rdf:RDF><cc:Work
         rdf:about=""><dc:format>image/svg+xml</dc:format><dc:type
           rdf:resource="http://purl.org/dc/dcmitype/StillImage" /><dc:title></dc:title></cc:Work></rdf:RDF></metadata><defs
     id="defs4432" /><sodipodi:namedview
     pagecolor="#ffffff"
     bordercolor="#666666"
     borderopacity="1"
     objecttolerance="10"
     gridtolerance="10"
     guidetolerance="10"
     inkscape:pageopacity="0"
     inkscape:pageshadow="2"
     inkscape:window-width="640"
     inkscape:window-height="480"
     id="namedview4430"
     showgrid="false"
     fit-margin-top="10"
     fit-margin-left="10"
     fit-margin-right="10"
     fit-margin-bottom="10"
     inkscape:zoom="11.313708"
     inkscape:cx="306.99566"
     inkscape:cy="177.93153"
     inkscape:current-layer="layer1"
     inkscape:snap-bbox="true"
     inkscape:object-nodes="true"
     inkscape:object-paths="true"
     inkscape:snap-smooth-nodes="false"
     inkscape:snap-global="false"
     inkscape:snap-intersection-paths="false" /><g
     inkscape:groupmode="layer"
     id="layer1"
     inkscape:label="Layer 1"
     style="display:inline"><path
       style="color:#000000;clip-rule:nonzero;display:inline;overflow:visible;visibility:visible;opacity:1;isolation:auto;mix-blend-mode:normal;color-interpolation:sRGB;color-interpolation-filters:linearRGB;solid-color:#000000;solid-opacity:1;fill:#67354a;fill-opacity:1;fill-rule:nonzero;stroke:none;stroke-width:1.49998764;stroke-linecap:round;stroke-linejoin:miter;stroke-miterlimit:10;stroke-dasharray:none;stroke-dashoffset:0;stroke-opacity:1;marker:none;marker-start:none;marker-mid:none;marker-end:none;color-rendering:auto;image-rendering:auto;shape-rendering:auto;text-rendering:auto;enable-background:accumulate;filter-blend-mode:normal;filter-gaussianBlur-deviation:0"
       d="m 328.83075,125.54282 c -10.82464,-0.56891 -21.91402,-7.79991 -21.91402,-7.79991 0,0 28.89376,-1.75165 21.91402,7.79991 z"
       id="path5682"
       inkscape:connector-curvature="0"
       sodipodi:nodetypes="ccc" /><path
       style="color:#000000;clip-rule:nonzero;display:inline;overflow:visible;visibility:visible;opacity:1;isolation:auto;mix-blend-mode:normal;color-interpolation:sRGB;color-interpolation-filters:linearRGB;solid-color:#000000;solid-opacity:1;fill:#cd7ea0;fill-opacity:1;fill-rule:nonzero;stroke:none;stroke-width:1.5;stroke-linecap:round;stroke-linejoin:miter;stroke-miterlimit:10;stroke-dasharray:none;stroke-dashoffset:0;stroke-opacity:1;marker:none;marker-start:none;marker-mid:none;marker-end:none;color-rendering:auto;image-rendering:auto;shape-rendering:auto;text-rendering:auto;enable-background:accumulate"
       d="m 343.12305,141.30469 c 0.70711,-1.94454 14.01565,-30.95163 8.37304,-36.72657 -7.57154,-7.749103 -55.66241,-14.345059 -58.74804,-16.019526 -0.34566,1.52485 8.85198,28.806276 15.53125,29.697266 6.69531,0.89314 21.44973,0.0585 20.7539,5.58789 -0.79947,6.35301 -1.63281,17.46094 -1.63281,17.46094 z"
       id="path5568"
       inkscape:connector-curvature="0"
       sodipodi:nodetypes="cscsscc" /><path
       style="color:#000000;clip-rule:nonzero;display:inline;overflow:visible;visibility:visible;opacity:1;isolation:auto;mix-blend-mode:normal;color-interpolation:sRGB;color-interpolation-filters:linearRGB;solid-color:#000000;solid-opacity:1;fill:#ab597c;fill-opacity:1;fill-rule:nonzero;stroke:none;stroke-width:1.5;stroke-linecap:round;stroke-linejoin:miter;stroke-miterlimit:10;stroke-dasharray:none;stroke-dashoffset:0;stroke-opacity:1;marker:none;marker-start:none;marker-mid:none;marker-end:none;color-rendering:auto;image-rendering:auto;shape-rendering:auto;text-rendering:auto;enable-background:accumulate;filter-blend-mode:normal;filter-gaussianBlur-deviation:0"
       d="m 357.16573,98.969787 c 25.46883,5.157643 30.23184,33.790173 30.23184,33.790173 0,0 -18.13829,-11.77869 -28.81966,-11.48674 -1.84443,-7.47482 0.76754,-14.49315 -1.41218,-22.303433 z"
       id="path5616"
       inkscape:connector-curvature="0"
       sodipodi:nodetypes="cccc" /><path
       style="fill:none;stroke:#0588cb;stroke-width:12;stroke-linejoin:round;stroke-miterlimit:10"
       inkscape:connector-curvature="0"
       id="path4330"
       d="m 124.5,233.304 463,0 c 5,0 9,-4 9,-9 l 0,-91"
       stroke-miterlimit="10"
       sodipodi:nodetypes="cssc" /><path
       style="fill:none;stroke:#8dd8f8;stroke-width:4;stroke-linejoin:round"
       inkscape:connector-curvature="0"
       id="path4336"
       d="m 120.5,233.304 467,0 c 5,0 9,-4 9,-9 l 0,-95"
       sodipodi:nodetypes="cssc" /><polygon
       points="289.5,374 282.6,370 289.5,366 "
       id="polygon4340"
       style="fill:#8dd8f8"
       transform="translate(-167.8,-136.696)" /><polygon
       points="724.3,260.3 720.3,267.2 728.3,267.2 "
       id="polygon4344"
       style="fill:#8dd8f8"
       transform="translate(-127.8,-136.696)" /><polygon
       points="289.5,337 282.6,333 289.5,329 "
       id="polygon4354"
       style="fill:#8dd8f8"
       transform="translate(-167.8,-136.696)" /><polygon
       points="674,214 667.1,210 667.1,218 "
       id="polygon4358"
       style="fill:#8dd8f8"
       transform="translate(-127.8,-136.696)" /><text
       style="font-style:normal;font-variant:normal;font-weight:normal;font-stretch:normal;font-size:16px;font-family:Charter;-inkscape-font-specification:Charter;text-align:center;text-anchor:middle;fill:#0588cb"
       id="text4360"
       font-size="14"
       x="522.22571"
       y="260.80402">Tor</text>
<text
       style="font-style:normal;font-variant:normal;font-weight:normal;font-stretch:normal;font-size:16px;font-family:Charter;-inkscape-font-specification:Charter;text-align:center;text-anchor:middle;fill:#0588cb"
       id="text4362"
       font-size="14"
       x="65.921097"
       y="268.30399">Probe</text>
<text
       style="font-style:normal;font-variant:normal;font-weight:normal;font-stretch:normal;font-size:16px;font-family:Charter;-inkscape-font-specification:Charter;text-align:center;text-anchor:middle;fill:#0588cb"
       id="text4364"
       font-size="14"
       x="596.49976"
       y="36.804001">Helper</text>
<text
       style="font-style:normal;font-variant:normal;font-weight:normal;font-stretch:normal;font-size:32px;font-family:'Concourse T4';-inkscape-font-specification:'Concourse T4';fill:#0588cb"
       id="text4374"
       font-size="32"
       x="94.802521"
       y="174.0609"><tspan
         style="font-style:normal;font-variant:normal;font-weight:600;font-stretch:normal;font-family:'Concourse T4';-inkscape-font-specification:'Concourse T4 Semi-Bold';text-align:center;text-anchor:middle"
         id="tspan4503">!</tspan></text>
<g
       id="g5604"><path
         stroke-miterlimit="10"
         d="m 610.8,207.704 -28.5,0 0,-42 20.5,0 c 3.1,3.1 4.9,4.9 8,8 l 0,34 z"
         id="path4370"
         inkscape:connector-curvature="0"
         style="fill:#ffffff;stroke:#0588cb;stroke-width:4;stroke-miterlimit:10" /><text
         y="196.32372"
         x="596.54608"
         font-size="25"
         id="text4378"
         style="font-style:normal;font-variant:normal;font-weight:600;font-stretch:normal;font-size:25px;font-family:'Concourse T4';-inkscape-font-specification:'Concourse T4 Semi-Bold';text-align:center;text-anchor:middle;fill:#0588cb">A</text>
</g><text
       style="font-style:normal;font-variant:normal;font-weight:normal;font-stretch:normal;font-size:16px;font-family:Charter;-inkscape-font-specification:Charter;text-align:center;text-anchor:middle;fill:#ab597c"
       id="text4428"
       font-size="14"
       x="322.28876"
       y="74.804008">Censor</text>
<g
       transform="matrix(1.1627907,0,0,1.1627907,-210.66527,-198.52391)"
       id="g9050_5_"><path
         style="fill:#0588cb"
         d="m 246.2,339 c 2.7,-2.6 4.2,-6.2 4.2,-9.8 0,-7.7 -6.3,-13.9 -14.1,-13.9 -7.8,0 -14.3,6.2 -14.3,13.9 0,3.6 1.6,7.1 3.8,9.3 2.2,2.3 2.6,5.1 1.7,7.6 -2,5.4 -7.1,5.8 -9.2,5.3 -2,-0.6 -3.2,-2 -3.7,-3.1 -0.5,-1.1 -0.6,-2.9 -0.1,-3.6 0.5,-0.7 0.8,-1 0.9,-1.3 0.1,-0.4 -0.1,-0.9 0.1,-1.2 0.3,-0.5 1.5,-1.3 1.9,-1.7 0.4,-0.4 1,-1.1 1.4,-2 0.4,-0.8 0.5,-1.1 0.8,-1.6 0.3,-0.5 2.1,-2.1 2,-3.1 0,-0.7 -0.4,-0.4 -0.6,-1.1 -0.2,-0.7 0,-2.1 -0.1,-2.5 -0.2,-0.6 -0.9,-0.6 -1.2,-1.1 -0.2,-0.5 0,-1.3 -0.2,-1.7 -0.4,-0.7 -1.8,-1.9 -2,-2.3 -0.2,-0.4 -0.1,-0.5 -0.2,-0.7 -0.1,-0.1 -0.4,-0.6 -0.7,-0.6 -0.2,0 -1.6,0 -1.9,-0.1 -0.3,-0.1 -0.7,-0.5 -1.4,-0.6 0,0 -0.1,0 -0.1,0 -0.8,0 -1.1,0.1 -1.4,0.3 -0.3,0.1 -1.3,0.7 -0.9,1.3 0.4,0.7 3.4,1.9 4.1,5.8 0.7,3.9 -0.9,5.9 -2.1,7.8 -1.2,1.9 -2.5,3.7 -3.1,5.1 -0.6,1.4 -1.3,4.4 -0.3,6.8 1,2.4 2.4,4.4 5.5,5.6 2.3,0.9 3.1,1 3.6,1.1 0.5,0.2 0.9,0.4 1.2,0.4 0.8,0 4,-0.6 4.7,-0.8 0.7,-0.2 0.4,-0.6 0.8,-0.7 0.4,-0.1 0.9,0.1 1.4,-0.2 0.5,-0.2 1.1,-0.6 1.6,-1.2 0.4,-0.5 1.7,-2 2.6,-2.5 0.2,1 -0.2,2 -0.6,2.7 -0.5,0.8 -1,1.5 -2.3,2.4 -2.2,1.6 -5.2,4 -6.7,5.9 -1.3,1.5 -2.5,3.6 -1.9,6.6 0.5,2.4 3.3,4.2 4.9,4.8 1.3,0.5 5,0.7 5.6,0.7 0.6,0 1.1,-0.6 1.5,-0.7 0.4,-0.1 1.8,0.4 2.5,0.1 0.6,-0.2 1.3,-1 1.9,-1.6 0.3,-0.3 0.7,-0.5 0.8,-0.7 0.1,-0.2 0.2,-0.5 0.4,-0.8 0.3,-0.6 0.5,-1.4 0.6,-2 0.1,-0.6 0.2,-1.1 0.2,-1.6 0,-0.3 -0.2,-0.6 -0.2,-1 0,-0.4 0.1,-1.1 0,-1.4 -0.3,-0.8 -0.7,-1.4 -1.4,-2 -0.9,-0.8 -1.8,-0.9 -2.8,-0.9 -0.9,0 -1.6,-0.1 -1.9,-0.1 -0.6,0 -1.1,0.3 -1.4,0.5 -0.5,0.4 -0.6,0.8 -0.5,1.2 0.1,0.4 0.5,0.6 0.9,0.5 0.6,-0.1 1.4,-0.4 2.3,0.3 0.8,0.6 0.5,3 -0.5,4.3 -1,1.3 -2.6,2 -4.3,2 -1.6,0 -2.7,-0.8 -3.2,-1.5 -0.6,-0.8 -1.1,-2.8 0,-4.3 1,-1.4 3.3,-3.1 4.3,-3.7 1,-0.6 3.1,-1.7 4.7,-3.5 0.6,-0.7 1.4,-1.9 2.3,-3.2 0.6,0.5 1.2,1.6 1.5,1.9 0.4,0.4 0.7,0.8 1.1,1.1 0.7,0.6 1.5,1 2.2,1.3 0.6,0.3 1.2,0.9 2.1,1.3 0.9,0.4 1.3,0.4 2.5,0.8 1.4,0.5 2.4,1.5 2.6,3 0.2,1.7 -1.7,2.9 -2.2,3.1 -0.4,0.1 -2.4,0.1 -2.9,0 -0.2,-0.1 -0.4,-0.1 -0.7,0 -0.6,0 -1,1.5 -1.4,1.7 -0.2,0.1 -0.4,0 -0.8,0.2 -0.3,0.1 -0.6,0.5 -0.6,0.5 -0.3,0.3 -0.1,0.6 -0.5,1.2 -0.5,0.7 -0.4,2 -0.3,2.5 0,0.6 0.4,1.6 0.5,1.9 0.1,0.3 0.1,0.9 0.2,1.2 0.1,0.3 0.8,0.9 1.1,1.1 0.2,0.2 0.5,0.2 0.7,0.2 0.2,0 0.7,1 1.8,1.4 1.3,0.4 1.7,0.5 3.1,0.5 1.2,0 2.9,-1.4 2.7,-1.5 -0.1,-0.1 -1.8,-0.2 -3,-0.7 -0.7,-0.3 -1.8,-1.2 -2,-2.9 -0.1,-1.6 1.4,-2.4 2.3,-2.9 1.3,-0.7 2.5,-1.4 3.9,-2.1 1.6,-0.9 2.6,-2.2 3.2,-3.5 0.6,-1.3 0.7,-2.4 0.2,-4.4 -0.5,-1.9 -2.1,-3.1 -3.8,-4.3 -1.9,-1.3 -4.6,-2.8 -6.5,-3.8 -1.3,-0.7 -2.1,-1.4 -2.3,-2.7 0,-0.2 0,-0.9 0,-1.2 0.2,0.2 1,1.1 1.4,1.4 1.3,1.3 3.4,2.9 6.4,3.4 0.8,0.1 0.6,0.5 1.4,0.6 0.3,0 1.3,0 1.8,0 1.3,0 2.2,-0.4 3.4,-0.9 1.2,-0.5 2.9,-1 5,-2.9 2,-1.8 2.6,-3.5 3,-6 0.4,-2.5 -0.3,-4.3 -1.2,-5.7 -1.2,-2.1 -2.8,-3.3 -3.8,-4.3 -0.9,-1 -1.8,-2.2 -2.5,-2.2 -0.7,-0.1 -1.1,0.7 -1.6,0.8 -0.4,0 -0.7,-0.2 -1.2,-0.3 -0.3,-0.1 -0.7,0 -0.9,0.1 -0.4,0.1 -0.5,0.9 -0.8,1.3 -0.4,0.4 -1.2,0.1 -1.5,0.4 -0.1,0.1 -0.4,0.3 -0.5,0.5 -0.1,0.3 -0.2,0.7 -0.2,0.9 -0.1,0.5 -1.2,1.4 -1.3,1.8 -0.2,0.4 0.6,3.8 1.3,4.7 0.8,1 2.2,1.8 2.4,1.9 0.2,0.1 0.3,-0.1 0.3,-0.3 0,-0.2 -0.7,-1.8 -0.7,-2.8 0,-1.7 1.1,-2.7 1.9,-3.1 1.4,-0.8 2.7,-0.6 4.4,1.4 1.4,1.7 2.2,4.3 0.7,6.4 -0.8,1.1 -1.9,3.1 -5.8,3 -4.5,0 -7.3,-1.3 -8.5,-3.7 -0.9,-2.2 -0.2,-4.6 2.5,-7.2 l 0,0 z"
         sodipodi:nodetypes="csssssssssssssssssssssssscssccsssssssssssscsssscsscsssssssscssssssssssssssscsssssssssssscsssscssssssssccscsscsssssssssssssccccc"
         inkscape:connector-curvature="0"
         id="circle4375_5_" /><circle
         style="fill:#ffffff"
         r="6.9000001"
         cy="330.29999"
         cx="238.39999"
         id="path3571_5_" /><circle
         style="fill:#0062b0"
         r="1.6"
         cy="331.29999"
         cx="239.3"
         id="circle4373_5_" /></g><g
       style="opacity:1"
       id="g5265"
       transform="matrix(1.3627411,0,0,1.3627411,-206.53864,-25.831394)"><path
         sodipodi:nodetypes="csscc"
         inkscape:connector-curvature="0"
         id="path4555"
         d="m 604.63197,61.02567 c 2.09483,-0.512178 3.73579,0.504504 4.60302,0.603695 1.36152,0.15573 4.75597,5.336857 4.42615,6.50544 -0.17457,0.618858 -0.17556,4.316175 -0.99618,6.611122 -0.18768,-4.181532 -3.94425,-12.026137 -8.03299,-13.720257 z"
         style="color:#000000;clip-rule:nonzero;display:inline;overflow:visible;visibility:visible;opacity:1;isolation:auto;mix-blend-mode:normal;color-interpolation:sRGB;color-interpolation-filters:linearRGB;solid-color:#000000;solid-opacity:1;fill:#0588cb;fill-opacity:1;fill-rule:nonzero;stroke:none;stroke-width:1;stroke-linecap:butt;stroke-linejoin:miter;stroke-miterlimit:4;stroke-dasharray:none;stroke-dashoffset:0;stroke-opacity:1;marker:none;marker-start:none;marker-mid:none;marker-end:none;color-rendering:auto;image-rendering:auto;shape-rendering:auto;text-rendering:auto;enable-background:accumulate" /><path
         sodipodi:nodetypes="ssscss"
         inkscape:connector-curvature="0"
         id="path4542"
         d="m 607.90928,85.741888 c 4.87546,-2.930743 3.62842,-7.607732 3.22265,-11.414751 -0.4494,-4.216337 -4.70865,-12.183861 -8.34408,-13.160713 -2.00849,-0.53969 -5.37555,-1.312022 -9.30551,0.863986 5.10655,1.96062 10.43476,10.470716 10.49599,23.026342 0.009,1.912268 2.58826,1.492257 3.93095,0.685138 z"
         style="color:#000000;clip-rule:nonzero;display:inline;overflow:visible;visibility:visible;opacity:1;isolation:auto;mix-blend-mode:normal;color-interpolation:sRGB;color-interpolation-filters:linearRGB;solid-color:#000000;solid-opacity:1;fill:#0588cb;fill-opacity:1;fill-rule:nonzero;stroke:none;stroke-width:1;stroke-linecap:butt;stroke-linejoin:miter;stroke-miterlimit:4;stroke-dasharray:none;stroke-dashoffset:0;stroke-opacity:1;marker:none;marker-start:none;marker-mid:none;marker-end:none;color-rendering:auto;image-rendering:auto;shape-rendering:auto;text-rendering:auto;enable-background:accumulate" /><path
         sodipodi:nodetypes="cscsssc"
         inkscape:connector-curvature="0"
         id="path4544"
         d="m 568.98229,80.470578 c 3.8374,-7.585104 8.8736,-8.585904 11.39491,-9.324515 2.52132,-0.738611 17.59709,-0.757981 21.71355,13.313995 1.25538,-3.507837 -1.76839,-20.137416 -11.32875,-22.163757 -1.11571,-0.236476 -6.32371,-1.756849 -11.17041,-0.483035 -1.98349,0.5213 -4.8407,2.042082 -7.1341,4.305736 -3.31058,3.267656 -6.74797,8.258854 -3.4752,14.351576 z"
         style="color:#000000;clip-rule:nonzero;display:inline;overflow:visible;visibility:visible;opacity:1;isolation:auto;mix-blend-mode:normal;color-interpolation:sRGB;color-interpolation-filters:linearRGB;solid-color:#000000;solid-opacity:1;fill:#0588cb;fill-opacity:1;fill-rule:nonzero;stroke:none;stroke-width:1;stroke-linecap:butt;stroke-linejoin:miter;stroke-miterlimit:4;stroke-dasharray:none;stroke-dashoffset:0;stroke-opacity:1;marker:none;marker-start:none;marker-mid:none;marker-end:none;color-rendering:auto;image-rendering:auto;shape-rendering:auto;text-rendering:auto;enable-background:accumulate" /><path
         sodipodi:nodetypes="ccssc"
         inkscape:connector-curvature="0"
         id="path5032"
         d="m 611.06816,61.696959 c 1.03624,0.391981 2.92632,2.904804 3.01158,4.598404 0.31664,-0.130394 0.72189,-2.243561 0.72892,-2.754251 0.007,-0.510699 -0.5378,-1.679972 -1.25631,-1.870122 -0.71849,-0.190143 -2.48419,0.02597 -2.48419,0.02597 z"
         style="color:#000000;clip-rule:nonzero;display:inline;overflow:visible;visibility:visible;opacity:1;isolation:auto;mix-blend-mode:normal;color-interpolation:sRGB;color-interpolation-filters:linearRGB;solid-color:#000000;solid-opacity:1;fill:#0588cb;fill-opacity:1;fill-rule:nonzero;stroke:none;stroke-width:1;stroke-linecap:butt;stroke-linejoin:miter;stroke-miterlimit:4;stroke-dasharray:none;stroke-dashoffset:0;stroke-opacity:1;marker:none;marker-start:none;marker-mid:none;marker-end:none;color-rendering:auto;image-rendering:auto;shape-rendering:auto;text-rendering:auto;enable-background:accumulate" /><path
         inkscape:connector-curvature="0"
         id="path5058"
         d="m 592.67685,80.390918 c -0.0226,0.996525 0.2582,1.709815 0.37477,1.702187 0.11657,-0.0076 1.60364,3.933812 1.9065,4.089593 0.30285,0.155783 0.9268,-0.14844 1.08396,0.01688 0.15714,0.165316 0.44992,0.614418 0.60082,1.131336 0.15088,0.51692 5.14909,5.340735 5.47157,5.348902 0.32245,0.0082 1.84325,-1.349788 1.71769,-1.926897 -0.12555,-0.577109 -0.44694,-1.463335 -0.97475,-1.926325 -0.52783,-0.462989 -3.14922,-2.954694 -3.91019,-3.402431 -0.76094,-0.447735 -1.47751,-0.664247 -1.62893,-0.742136 -0.15143,-0.0779 0.0722,-0.238852 -0.007,-0.555605 -0.0793,-0.316742 -1.002,-1.895277 -1.34925,-2.282282 -0.34724,-0.387006 -1.23894,-1.938304 -1.48542,-2.127041 -0.24647,-0.188734 -1.20951,-0.593982 -1.40016,-0.376644 -0.19064,0.217338 -0.39952,1.050459 -0.39952,1.050459 z"
         style="color:#000000;clip-rule:nonzero;display:inline;overflow:visible;visibility:visible;opacity:1;isolation:auto;mix-blend-mode:normal;color-interpolation:sRGB;color-interpolation-filters:linearRGB;solid-color:#000000;solid-opacity:1;fill:#0588cb;fill-opacity:1;fill-rule:nonzero;stroke:none;stroke-width:1;stroke-linecap:butt;stroke-linejoin:miter;stroke-miterlimit:4;stroke-dasharray:none;stroke-dashoffset:0;stroke-opacity:1;marker:none;marker-start:none;marker-mid:none;marker-end:none;color-rendering:auto;image-rendering:auto;shape-rendering:auto;text-rendering:auto;enable-background:accumulate" /><path
         inkscape:connector-curvature="0"
         id="path5060"
         d="m 577.2627,78.706689 c -0.49979,0.432969 -2.4826,2.620322 -2.72057,2.724642 -0.23797,0.104321 -0.61572,-6.8e-4 -0.61572,-6.8e-4 0,0 -1.08823,1.699155 -1.62008,2.128713 -0.53182,0.429562 -1.75779,1.595513 -1.98212,1.571647 -0.22433,-0.02387 -0.80935,-0.31297 -0.89866,-0.387292 -0.0893,-0.07432 -0.27752,0.780712 -0.73845,1.152997 -0.46093,0.372287 -4.10746,2.966011 -4.38564,2.839187 -0.2782,-0.126822 -0.49912,-0.182739 -0.49912,-0.182739 0,0 0.18137,0.732305 -0.4732,0.792305 -0.65458,0.06 -1.64666,0.246139 -1.89758,-0.137066 -0.25091,-0.383197 0.30888,-1.68484 0.59936,-1.978031 0.29046,-0.293192 0.82026,-0.398877 0.86594,-0.523655 0.0457,-0.124779 5.39409,-4.093095 5.72821,-4.187187 0.3341,-0.09409 0.67298,0.0716 0.7473,-0.01772 0.0743,-0.08933 2.47374,-2.232352 2.78944,-2.458042 0.31569,-0.22569 1.10595,-0.951852 1.62757,-1.285271 0.52162,-0.333419 2.73489,-1.945293 2.90195,-1.992341 0.16704,-0.04704 1.05413,0.144559 1.03708,0.304792 -0.017,0.160232 -0.46571,1.635744 -0.46571,1.635744 z"
         style="color:#000000;clip-rule:nonzero;display:inline;overflow:visible;visibility:visible;opacity:1;isolation:auto;mix-blend-mode:normal;color-interpolation:sRGB;color-interpolation-filters:linearRGB;solid-color:#000000;solid-opacity:1;fill:#0588cb;fill-opacity:1;fill-rule:nonzero;stroke:none;stroke-width:1;stroke-linecap:butt;stroke-linejoin:miter;stroke-miterlimit:4;stroke-dasharray:none;stroke-dashoffset:0;stroke-opacity:1;marker:none;marker-start:none;marker-mid:none;marker-end:none;color-rendering:auto;image-rendering:auto;shape-rendering:auto;text-rendering:auto;enable-background:accumulate" /><path
         inkscape:connector-curvature="0"
         id="path5062"
         d="m 580.86351,79.236126 c -1.25587,0.853147 -7.57213,5.532209 -7.67464,5.848929 -0.10258,0.316712 0.13309,0.403746 0.23153,0.548655 0.0984,0.144909 -1.79393,3.230585 -1.94292,3.790653 -0.14898,0.560067 -0.16161,2.827653 0.0507,3.036353 0.21237,0.2087 3.28338,0.41679 3.35308,0.05176 0.0697,-0.365022 1.23059,-4.683339 1.30804,-5.088919 0.0774,-0.405581 3.05898,-3.031056 3.1884,-3.048379 0.12941,-0.01733 2.83254,-2.065408 2.85577,-2.187083 0.0232,-0.121677 -0.95078,-3.166178 -1.37001,-2.951974 z"
         style="color:#000000;clip-rule:nonzero;display:inline;overflow:visible;visibility:visible;opacity:1;isolation:auto;mix-blend-mode:normal;color-interpolation:sRGB;color-interpolation-filters:linearRGB;solid-color:#000000;solid-opacity:1;fill:#0588cb;fill-opacity:1;fill-rule:nonzero;stroke:none;stroke-width:1;stroke-linecap:butt;stroke-linejoin:miter;stroke-miterlimit:4;stroke-dasharray:none;stroke-dashoffset:0;stroke-opacity:1;marker:none;marker-start:none;marker-mid:none;marker-end:none;color-rendering:auto;image-rendering:auto;shape-rendering:auto;text-rendering:auto;enable-background:accumulate" /><path
         inkscape:connector-curvature="0"
         id="path5064"
         d="m 588.59487,80.431369 c -1.68606,2.187488 -3.26729,5.341178 -3.74078,5.498424 -0.47349,0.157246 -5.46755,4.854232 -6.53859,5.944473 -0.33744,0.34349 1.44663,0.597475 3.05909,-0.536775 1.41781,-0.997322 2.22565,-1.149393 3.14039,-1.032697 -0.38999,0.632179 -2.83828,2.48044 -4.77417,3.075149 -1.63378,0.501902 -3.18385,0.09573 -3.1816,0.26283 0.014,1.039585 1.12169,1.946386 1.7638,1.765555 0.64209,-0.180832 0.69974,0.448159 1.96821,0.624633 1.26847,0.176472 5.08086,0.249873 6.96872,-0.711953 1.88785,-0.961825 4.17495,-3.334513 4.77774,-5.097437 0.60279,-1.762923 0.51718,-2.519461 0.38354,-2.824347 -0.13367,-0.304887 -0.30401,-2.606826 -0.56258,-3.298717 -0.25859,-0.691894 -0.75741,-3.028777 -1.49384,-3.522364 -0.73645,-0.493588 -1.49299,-0.407979 -1.76992,-0.146774 z"
         style="color:#000000;clip-rule:nonzero;display:inline;overflow:visible;visibility:visible;opacity:1;isolation:auto;mix-blend-mode:normal;color-interpolation:sRGB;color-interpolation-filters:linearRGB;solid-color:#000000;solid-opacity:1;fill:#0588cb;fill-opacity:1;fill-rule:nonzero;stroke:none;stroke-width:1;stroke-linecap:butt;stroke-linejoin:miter;stroke-miterlimit:4;stroke-dasharray:none;stroke-dashoffset:0;stroke-opacity:1;marker:none;marker-start:none;marker-mid:none;marker-end:none;color-rendering:auto;image-rendering:auto;shape-rendering:auto;text-rendering:auto;enable-background:accumulate"
         sodipodi:nodetypes="cssscssssssccscc" /><g
         style="display:inline;opacity:1"
         id="g5347"
         transform="translate(2.439767,0.59987916)"><g
           style="display:inline"
           id="g5210"
           transform="translate(-0.42188,2.2171783e-6)"><circle
             r="2.5192759"
             cy="75.466904"
             cx="581.14301"
             id="path5078"
             style="color:#000000;clip-rule:nonzero;display:inline;overflow:visible;visibility:visible;opacity:1;isolation:auto;mix-blend-mode:normal;color-interpolation:sRGB;color-interpolation-filters:linearRGB;solid-color:#000000;solid-opacity:1;fill:#0062b0;fill-opacity:1;fill-rule:nonzero;stroke:none;stroke-width:1;stroke-linecap:butt;stroke-linejoin:miter;stroke-miterlimit:4;stroke-dasharray:none;stroke-dashoffset:0;stroke-opacity:1;marker:none;marker-start:none;marker-mid:none;marker-end:none;color-rendering:auto;image-rendering:auto;shape-rendering:auto;text-rendering:auto;enable-background:accumulate" /><circle
             r="0.96470118"
             cy="74.869125"
             cx="580.5769"
             id="path5171"
             style="color:#000000;clip-rule:nonzero;display:inline;overflow:visible;visibility:visible;opacity:1;isolation:auto;mix-blend-mode:normal;color-interpolation:sRGB;color-interpolation-filters:linearRGB;solid-color:#000000;solid-opacity:1;fill:#ffffff;fill-opacity:1;fill-rule:nonzero;stroke:none;stroke-width:1;stroke-linecap:butt;stroke-linejoin:miter;stroke-miterlimit:4;stroke-dasharray:none;stroke-dashoffset:0;stroke-opacity:1;marker:none;marker-start:none;marker-mid:none;marker-end:none;color-rendering:auto;image-rendering:auto;shape-rendering:auto;text-rendering:auto;enable-background:accumulate" /></g><g
           style="display:inline"
           id="g5214"
           transform="translate(5.4375,2.2171783e-6)"><circle
             style="color:#000000;clip-rule:nonzero;display:inline;overflow:visible;visibility:visible;opacity:1;isolation:auto;mix-blend-mode:normal;color-interpolation:sRGB;color-interpolation-filters:linearRGB;solid-color:#000000;solid-opacity:1;fill:#0062b0;fill-opacity:1;fill-rule:nonzero;stroke:none;stroke-width:1;stroke-linecap:butt;stroke-linejoin:miter;stroke-miterlimit:4;stroke-dasharray:none;stroke-dashoffset:0;stroke-opacity:1;marker:none;marker-start:none;marker-mid:none;marker-end:none;color-rendering:auto;image-rendering:auto;shape-rendering:auto;text-rendering:auto;enable-background:accumulate"
             id="circle5216"
             cx="581.14301"
             cy="75.466904"
             r="2.5192759" /><circle
             style="color:#000000;clip-rule:nonzero;display:inline;overflow:visible;visibility:visible;opacity:1;isolation:auto;mix-blend-mode:normal;color-interpolation:sRGB;color-interpolation-filters:linearRGB;solid-color:#000000;solid-opacity:1;fill:#ffffff;fill-opacity:1;fill-rule:nonzero;stroke:none;stroke-width:1;stroke-linecap:butt;stroke-linejoin:miter;stroke-miterlimit:4;stroke-dasharray:none;stroke-dashoffset:0;stroke-opacity:1;marker:none;marker-start:none;marker-mid:none;marker-end:none;color-rendering:auto;image-rendering:auto;shape-rendering:auto;text-rendering:auto;enable-background:accumulate"
             id="circle5218"
             cx="580.5769"
             cy="74.869125"
             r="0.96470118" /></g></g></g><path
       style="color:#000000;clip-rule:nonzero;display:inline;overflow:visible;visibility:visible;opacity:0.5;isolation:auto;mix-blend-mode:normal;color-interpolation:sRGB;color-interpolation-filters:linearRGB;solid-color:#000000;solid-opacity:1;fill:none;fill-opacity:1;fill-rule:nonzero;stroke:#8dd8f8;stroke-width:2;stroke-linecap:butt;stroke-linejoin:miter;stroke-miterlimit:10;stroke-dasharray:12, 12;stroke-dashoffset:0;stroke-opacity:1;marker:none;marker-start:none;marker-mid:none;marker-end:none;color-rendering:auto;image-rendering:auto;shape-rendering:auto;text-rendering:auto;enable-background:accumulate"
       d="m 261,196.304 112,0"
       id="path5479"
       inkscape:connector-curvature="0"
       sodipodi:nodetypes="cc" /><path
       style="color:#000000;clip-rule:nonzero;display:inline;overflow:visible;visibility:visible;opacity:1;isolation:auto;mix-blend-mode:normal;color-interpolation:sRGB;color-interpolation-filters:linearRGB;solid-color:#000000;solid-opacity:1;fill:#ab597c;fill-opacity:1;fill-rule:nonzero;stroke:none;stroke-width:1.5;stroke-linecap:round;stroke-linejoin:miter;stroke-miterlimit:10;stroke-dasharray:none;stroke-dashoffset:0;stroke-opacity:1;marker:none;marker-start:none;marker-mid:none;marker-end:none;color-rendering:auto;image-rendering:auto;shape-rendering:auto;text-rendering:auto;enable-background:accumulate"
       d="m 295.48047,88.259766 c -1.7055,-0.0031 -2.68357,0.123336 -2.73265,0.29883 -9.5e-4,0.0034 0.001,-0.0037 0,0 3.08563,1.674467 6.04138,3.156014 8.85937,4.46289 2.82469,1.309984 5.51317,2.447442 8.06055,3.433594 2.54738,0.986152 4.95317,1.821412 7.21484,2.529297 2.26167,0.707885 4.37814,1.288493 6.34571,1.763673 3.93512,0.95036 7.27414,1.48051 9.98242,1.77343 2.70827,0.29293 4.78695,0.34766 6.20117,0.34766 1.41421,0 2.7384,0.0898 3.93164,0.2832 1.19324,0.19335 2.25479,0.49032 3.13867,0.91016 0.88389,0.41984 1.59004,0.96114 2.07617,1.64062 0.48614,0.67949 0.75196,1.49844 0.75196,2.47071 0,1.94454 -1.19248,9.25399 -2.5625,16.56445 -1.37002,7.31047 -2.91789,14.62187 -3.625,16.56641 l 16.27389,-6.9e-4 c 3.18032,-12.64458 2.79501,-44.854895 -1.38717,-47.09306 -3.65941,-1.958396 -50.59081,-5.929433 -62.5293,-5.951172 z"
       id="path5541"
       inkscape:connector-curvature="0"
       sodipodi:nodetypes="cccsssssssssssccssc" /><path
       style="fill:none;stroke:#8dd8f8;stroke-width:4;stroke-linejoin:round"
       inkscape:connector-curvature="0"
       id="path4350"
       d="m 120.5,196.304 124,0 c 5.5,0 10,-4.5 10,-10 l 0,-35 c 0,-5.5 4.5,-10 10,-10 l 102,0 c 5.5,0 10,4.5 10,10 l 0,35 c 0,5.5 4.5,10 10,10 l 113,0 c 5.5,0 10,-4.5 10,-10 l 0,-99 c 0,-5.5 4.5,-10 10,-10 l 21,0"
       sodipodi:nodetypes="cssssssssssssc" /><g
       id="g4384"
       transform="translate(-167.8,-136.696)"><path
         style="fill:#ffffff"
         inkscape:connector-curvature="0"
         id="path4386"
         d="m 496.3,299 -28,0 0,-42 20.5,0 c 3.1,3.1 4.4,4.4 7.5,7.5 l 0,34.5 z" /><g
         id="g4388"><path
           style="fill:none;stroke:#0588cb;stroke-width:4;stroke-miterlimit:10"
           inkscape:connector-curvature="0"
           id="path4390"
           d="m 473,299 23,0 0,-34.5 c -3,-3.1 -4.1,-4.5 -7.2,-7.5 l -15.8,0"
           stroke-miterlimit="10" /><polyline
           style="fill:none;stroke:#ab597c;stroke-width:4;stroke-miterlimit:10"
           id="polyline4392"
           points="486,257 468,257 468,299 478,299    "
           stroke-miterlimit="10" /><polyline
           style="fill:none;stroke:#ab597c;stroke-width:4;stroke-miterlimit:10"
           id="polyline4394"
           points="489.3,248.7 477.2,279.5 487.8,275      474.9,307.7    "
           stroke-miterlimit="10" /></g></g><g
       id="g5612"><path
         stroke-miterlimit="10"
         d="m 184.8,217.304 -28.5,0 0,-42 20.5,0 c 3.1,3.1 4.9,4.9 8,8 l 0,34 z"
         id="path4368"
         inkscape:connector-curvature="0"
         style="fill:#ffffff;stroke:#ab597c;stroke-width:4;stroke-miterlimit:10" /><text
         y="204.19859"
         x="170.11935"
         font-size="25"
         id="text4380"
         style="font-style:normal;font-variant:normal;font-weight:600;font-stretch:normal;font-size:25px;font-family:'Concourse T4';-inkscape-font-specification:'Concourse T4 Semi-Bold';text-align:center;text-anchor:middle;fill:#ab597c">B</text>
</g><g
       id="g5608"><path
         stroke-miterlimit="10"
         d="m 198.5,254.304 -28.5,0 0,-42 20.5,0 c 3.1,3.1 4.9,4.9 8,8 l 0,34 z"
         id="path4372"
         inkscape:connector-curvature="0"
         style="fill:#ffffff;stroke:#0588cb;stroke-width:4;stroke-miterlimit:10" /><text
         y="242.92909"
         x="184.24609"
         font-size="25"
         id="text4376"
         style="font-style:normal;font-variant:normal;font-weight:600;font-stretch:normal;font-size:25px;font-family:'Concourse T4';-inkscape-font-specification:'Concourse T4 Semi-Bold';text-align:center;text-anchor:middle;fill:#0588cb">A</text>
</g><g
       id="g5600"><path
         stroke-miterlimit="10"
         d="m 523.5,165.604 -28.5,0 0,-42 20.5,0 c 3.1,3.1 4.9,4.9 8,8 l 0,34 z"
         id="path4366"
         inkscape:connector-curvature="0"
         style="fill:#ffffff;stroke:#0588cb;stroke-width:4;stroke-miterlimit:10" /><text
         y="154.21211"
         x="509.24609"
         font-size="25"
         id="text4382"
         style="font-style:normal;font-variant:normal;font-weight:600;font-stretch:normal;font-size:25px;font-family:'Concourse T4';-inkscape-font-specification:'Concourse T4 Semi-Bold';text-align:center;text-anchor:middle;fill:#0588cb">A</text>
</g><path
       style="color:#000000;clip-rule:nonzero;display:inline;overflow:visible;visibility:visible;opacity:1;isolation:auto;mix-blend-mode:normal;color-interpolation:sRGB;color-interpolation-filters:linearRGB;solid-color:#000000;solid-opacity:1;fill:#ffffff;fill-opacity:1;fill-rule:nonzero;stroke:#ab597c;stroke-width:1.5;stroke-linecap:round;stroke-linejoin:miter;stroke-miterlimit:10;stroke-dasharray:none;stroke-dashoffset:0;stroke-opacity:1;marker:none;marker-start:none;marker-mid:none;marker-end:none;color-rendering:auto;image-rendering:auto;shape-rendering:auto;text-rendering:auto;enable-background:accumulate"
       d="m 307.41672,117.24291 2.08087,12.12978 2.11653,-11.29593 2.05166,11.15391 2.20101,-10.88923 2.04484,10.32665 1.67608,-10.08435 1.87635,6.9586 1.64599,-6.56982 1.30819,4.32218 0.90052,-4.0277 c -5.14089,-1.86143 -11.42696,-1.24272 -17.90204,-2.02409 z"
       id="path5551"
       inkscape:connector-curvature="0"
       sodipodi:nodetypes="cccccccccccc" /><path
       style="color:#000000;clip-rule:nonzero;display:inline;overflow:visible;visibility:visible;opacity:1;isolation:auto;mix-blend-mode:normal;color-interpolation:sRGB;color-interpolation-filters:linearRGB;solid-color:#000000;solid-opacity:1;fill:#cd7ea0;fill-opacity:1;fill-rule:nonzero;stroke:none;stroke-width:1.5;stroke-linecap:round;stroke-linejoin:miter;stroke-miterlimit:10;stroke-dasharray:none;stroke-dashoffset:0;stroke-opacity:1;marker:none;marker-start:none;marker-mid:none;marker-end:none;color-rendering:auto;image-rendering:auto;shape-rendering:auto;text-rendering:auto;enable-background:accumulate;filter-blend-mode:normal;filter-gaussianBlur-deviation:0"
       d="M 292.74805 88.558594 C 292.40239 90.083444 301.60003 117.36487 308.2793 118.25586 C 313.7465 118.98517 324.5838 118.56352 327.99805 121.39453 L 340.04297 102.89062 C 339.82965 102.88632 339.62984 102.86914 339.41211 102.86914 C 337.99789 102.86914 335.91921 102.81441 333.21094 102.52148 C 330.50266 102.22856 327.16364 101.69841 323.22852 100.74805 C 321.26095 100.27287 319.14448 99.69226 316.88281 98.984375 C 314.62114 98.27649 312.21535 97.44123 309.66797 96.455078 C 307.12059 95.468926 304.43211 94.331468 301.60742 93.021484 C 298.78943 91.714608 295.83368 90.233061 292.74805 88.558594 z "
       id="path5632" /><path
       style="color:#000000;clip-rule:nonzero;display:inline;overflow:visible;visibility:visible;opacity:1;isolation:auto;mix-blend-mode:normal;color-interpolation:sRGB;color-interpolation-filters:linearRGB;solid-color:#000000;solid-opacity:1;fill:#ffffff;fill-opacity:1;fill-rule:nonzero;stroke:none;stroke-width:2;stroke-linecap:round;stroke-linejoin:round;stroke-miterlimit:10;stroke-dasharray:none;stroke-dashoffset:0;stroke-opacity:1;marker:none;marker-start:none;marker-mid:none;marker-end:none;color-rendering:auto;image-rendering:auto;shape-rendering:auto;text-rendering:auto;enable-background:accumulate"
       d="m 324.81929,101.11703 c 3.30698,11.24081 13.91037,9.80688 17.28353,1.8749 -6.47139,0.0234 -13.46531,-1.06915 -17.28353,-1.8749 z"
       id="path5547"
       inkscape:connector-curvature="0"
       sodipodi:nodetypes="ccc" /><ellipse
       style="color:#000000;clip-rule:nonzero;display:inline;overflow:visible;visibility:visible;opacity:1;isolation:auto;mix-blend-mode:normal;color-interpolation:sRGB;color-interpolation-filters:linearRGB;solid-color:#000000;solid-opacity:1;fill:#67354a;fill-opacity:1;fill-rule:nonzero;stroke:none;stroke-width:1.5;stroke-linecap:round;stroke-linejoin:miter;stroke-miterlimit:10;stroke-dasharray:none;stroke-dashoffset:0;stroke-opacity:1;marker:none;marker-start:none;marker-mid:none;marker-end:none;color-rendering:auto;image-rendering:auto;shape-rendering:auto;text-rendering:auto;enable-background:accumulate"
       id="path5598"
       cx="340.78342"
       cy="71.620331"
       rx="1.8561553"
       ry="1.1490486"
       transform="matrix(0.99463354,0.10346071,-0.10346071,0.99463354,0,0)" /></g><g
     inkscape:groupmode="layer"
     id="layer5"
     inkscape:label="Layer 2"
     style="display:none"><g
       style="display:inline"
       id="g4246"
       transform="translate(19.5,8.116)"><path
         d="m 281.4,99.188 c -3.8,0 -6.9,-3.1 -6.9,-6.9 l 0,-9.5 c 0,-3.8 3.1,-6.9 6.9,-6.9 l 26.9,0 c 3.8,0 6.9,3.1 6.9,6.9 l 0,9.5 c 0,3.8 -3.1,6.9 -6.9,6.9 l -26.9,0 z"
         id="path4416"
         inkscape:connector-curvature="0"
         style="fill:#ab597c" /><path
         style="fill:none;stroke:#ffffff;stroke-width:3;stroke-miterlimit:10"
         inkscape:connector-curvature="0"
         id="path4420"
         d="m 303.6,95.688 c 0,-2.4 -3.9,-4.3 -8.7,-4.3 -4.8,0 -8.7,1.9 -8.7,4.3"
         stroke-miterlimit="10" /><polygon
         transform="translate(-187.3,-144.812)"
         points="478.6,230.5 477.8,232.3 468.1,230.1 469.7,226.4 "
         id="polygon4424"
         style="fill:#ffffff" /><polygon
         transform="translate(-187.3,-144.812)"
         points="485.6,230.5 486.4,232.3 496.1,230.1 494.6,226.4 "
         id="polygon4426"
         style="fill:#ffffff" /></g><g
       style="display:inline"
       id="g4213"
       transform="translate(18.32635,8.116)"><path
         sodipodi:nodetypes="cc"
         stroke-miterlimit="10"
         d="M 273.1286,94.26708 C 261.21125,97.14568 260.63951,110.21505 270.7,114.788"
         id="path4402"
         inkscape:connector-curvature="0"
         style="fill:none;stroke:#ab597c;stroke-width:4;stroke-miterlimit:10" /><path
         stroke-miterlimit="10"
         d="m 275.2,112.288 c -2.8,-0.4 -4.2,1 -4.4,2.9 -0.3,1.9 0.6,3.6 3.5,4"
         id="path4404"
         inkscape:connector-curvature="0"
         style="fill:none;stroke:#ab597c;stroke-width:3;stroke-miterlimit:10" /></g><g
       style="display:inline"
       id="g4217"
       transform="matrix(-1,0,0,1,610.37365,8.116)"><path
         style="fill:none;stroke:#ab597c;stroke-width:4;stroke-miterlimit:10"
         inkscape:connector-curvature="0"
         id="path4219"
         d="M 273.1286,94.26708 C 261.21125,97.14568 260.63951,110.21505 270.7,114.788"
         stroke-miterlimit="10"
         sodipodi:nodetypes="cc" /><path
         style="fill:none;stroke:#ab597c;stroke-width:3;stroke-miterlimit:10"
         inkscape:connector-curvature="0"
         id="path4221"
         d="m 275.2,112.288 c -2.8,-0.4 -4.2,1 -4.4,2.9 -0.3,1.9 0.6,3.6 3.5,4"
         stroke-miterlimit="10" /></g></g></svg>