<?xml version="1.0" encoding="UTF-8" standalone="no"?>
<!-- Generator: Adobe Illustrator 18.1.1, SVG Export Plug-In . SVG Version: 6.00 Build 0)  -->

<svg
   xmlns:dc="http://purl.org/dc/elements/1.1/"
   xmlns:cc="http://creativecommons.org/ns#"
   xmlns:rdf="http://www.w3.org/1999/02/22-rdf-syntax-ns#"
   xmlns:svg="http://www.w3.org/2000/svg"
   xmlns="http://www.w3.org/2000/svg"
   xmlns:sodipodi="http://sodipodi.sourceforge.net/DTD/sodipodi-0.dtd"
   xmlns:inkscape="http://www.inkscape.org/namespaces/inkscape"
   version="1.1"
   id="Layer_1"
   x="0px"
   y="0px"
   viewBox="0 0 679.99999 280"
   enable-background="new 0 0 960 560"
   xml:space="preserve"
   inkscape:version="0.91 r13725"
   sodipodi:docname="how-ooni-works.svg"
   width="680"
   height="280"><metadata
     id="metadata4434"><rdf:RDF><cc:Work
         rdf:about=""><dc:format>image/svg+xml</dc:format><dc:type
           rdf:resource="http://purl.org/dc/dcmitype/StillImage" /><dc:title></dc:title></cc:Work></rdf:RDF></metadata><defs
     id="defs4432" /><sodipodi:namedview
     pagecolor="#ffffff"
     bordercolor="#666666"
     borderopacity="1"
     objecttolerance="10"
     gridtolerance="10"
     guidetolerance="10"
     inkscape:pageopacity="0"
     inkscape:pageshadow="2"
     inkscape:window-width="640"
     inkscape:window-height="480"
     id="namedview4430"
     showgrid="false"
     fit-margin-top="10"
     fit-margin-left="10"
     fit-margin-right="10"
     fit-margin-bottom="10"
     inkscape:zoom="1.4142135"
     inkscape:cx="325.05064"
     inkscape:cy="19.246313"
     inkscape:current-layer="layer1"
     inkscape:snap-bbox="true"
     inkscape:object-nodes="true"
     inkscape:object-paths="true"
     inkscape:snap-smooth-nodes="false"
     inkscape:snap-global="false"
     inkscape:snap-intersection-paths="false" /><g
     inkscape:groupmode="layer"
     id="layer1"
     inkscape:label="Layer 1"
     style="display:inline"><g
       style="display:inline"
       id="g8995"
       transform="translate(-167.19998,-539.99998)"><path
         sodipodi:nodetypes="ccc"
         inkscape:connector-curvature="0"
         id="path5682"
         d="m 504.21029,658.80482 c -10.82464,-0.56891 -21.91402,-7.79991 -21.91402,-7.79991 0,0 28.89376,-1.75165 21.91402,7.79991 z"
         style="color:#000000;clip-rule:nonzero;display:inline;overflow:visible;visibility:visible;opacity:1;isolation:auto;mix-blend-mode:normal;color-interpolation:sRGB;color-interpolation-filters:linearRGB;solid-color:#000000;solid-opacity:1;fill:#0062b0;fill-opacity:1;fill-rule:evenodd;stroke:none;stroke-width:0.99999994;stroke-linecap:butt;stroke-linejoin:miter;stroke-miterlimit:4;stroke-dasharray:none;stroke-dashoffset:0;stroke-opacity:1;marker:none;marker-start:none;marker-mid:none;marker-end:none;color-rendering:auto;image-rendering:auto;shape-rendering:auto;text-rendering:auto;enable-background:accumulate" /><path
         sodipodi:nodetypes="cscsscc"
         inkscape:connector-curvature="0"
         id="path5568"
         d="m 518.50259,674.56669 c 0.70711,-1.94454 14.01565,-30.95163 8.37304,-36.72657 -7.57154,-7.7491 -55.66241,-14.34506 -58.74804,-16.01953 -0.34566,1.52485 8.85198,28.80628 15.53125,29.69727 6.69531,0.89314 21.44973,0.0585 20.7539,5.58789 -0.79947,6.35301 -1.63281,17.46094 -1.63281,17.46094 z"
         style="color:#000000;clip-rule:nonzero;display:inline;overflow:visible;visibility:visible;opacity:1;isolation:auto;mix-blend-mode:normal;color-interpolation:sRGB;color-interpolation-filters:linearRGB;solid-color:#000000;solid-opacity:1;fill:#8dd8f8;fill-opacity:1;fill-rule:evenodd;stroke:none;stroke-width:1;stroke-linecap:butt;stroke-linejoin:miter;stroke-miterlimit:4;stroke-dasharray:none;stroke-dashoffset:0;stroke-opacity:1;marker:none;marker-start:none;marker-mid:none;marker-end:none;color-rendering:auto;image-rendering:auto;shape-rendering:auto;text-rendering:auto;enable-background:accumulate" /><path
         sodipodi:nodetypes="cccc"
         inkscape:connector-curvature="0"
         id="path5616"
         d="m 532.54527,632.23179 c 25.46883,5.15764 30.23184,33.79017 30.23184,33.79017 0,0 -18.13829,-11.77869 -28.81966,-11.48674 -1.84443,-7.47482 0.76754,-14.49315 -1.41218,-22.30343 z"
         style="color:#000000;clip-rule:nonzero;display:inline;overflow:visible;visibility:visible;opacity:1;isolation:auto;mix-blend-mode:normal;color-interpolation:sRGB;color-interpolation-filters:linearRGB;solid-color:#000000;solid-opacity:1;fill:#0588cb;fill-opacity:1;fill-rule:nonzero;stroke:none;stroke-width:1.5;stroke-linecap:round;stroke-linejoin:miter;stroke-miterlimit:10;stroke-dasharray:none;stroke-dashoffset:0;stroke-opacity:1;marker:none;marker-start:none;marker-mid:none;marker-end:none;color-rendering:auto;image-rendering:auto;shape-rendering:auto;text-rendering:auto;enable-background:accumulate" /><path
         sodipodi:nodetypes="cssc"
         d="m 295.87954,766.566 467,0 c 5,0 9,-4 9,-9 l 0,-95"
         id="path4336"
         inkscape:connector-curvature="0"
         style="display:inline;fill:none;stroke:#0588cb;stroke-width:4;stroke-linejoin:round;stroke-opacity:1" /><polygon
         transform="translate(7.5795387,396.566)"
         style="color:#000000;clip-rule:nonzero;display:inline;overflow:visible;visibility:visible;opacity:1;isolation:auto;mix-blend-mode:normal;color-interpolation:sRGB;color-interpolation-filters:linearRGB;solid-color:#000000;solid-opacity:1;fill:#0588cb;fill-opacity:1;fill-rule:nonzero;stroke-width:1.16279066;stroke-linecap:butt;stroke-linejoin:miter;stroke-miterlimit:4;stroke-dasharray:none;stroke-dashoffset:0;stroke-opacity:1;color-rendering:auto;image-rendering:auto;shape-rendering:auto;text-rendering:auto;enable-background:accumulate"
         id="polygon4340"
         points="282.6,370 289.5,366 289.5,374 " /><polygon
         transform="translate(47.579539,396.566)"
         style="color:#000000;clip-rule:nonzero;display:inline;overflow:visible;visibility:visible;opacity:1;isolation:auto;mix-blend-mode:normal;color-interpolation:sRGB;color-interpolation-filters:linearRGB;solid-color:#000000;solid-opacity:1;fill:#0588cb;fill-opacity:1;fill-rule:nonzero;stroke-width:1.16279066;stroke-linecap:butt;stroke-linejoin:miter;stroke-miterlimit:4;stroke-dasharray:none;stroke-dashoffset:0;stroke-opacity:1;color-rendering:auto;image-rendering:auto;shape-rendering:auto;text-rendering:auto;enable-background:accumulate"
         id="polygon4344"
         points="720.3,267.2 728.3,267.2 724.3,260.3 " /><polygon
         transform="translate(7.5795387,396.566)"
         style="color:#000000;clip-rule:nonzero;display:inline;overflow:visible;visibility:visible;opacity:1;isolation:auto;mix-blend-mode:normal;color-interpolation:sRGB;color-interpolation-filters:linearRGB;solid-color:#000000;solid-opacity:1;fill:#8dd8f8;fill-opacity:1;fill-rule:nonzero;stroke-width:1.16279066;stroke-linecap:butt;stroke-linejoin:miter;stroke-miterlimit:4;stroke-dasharray:none;stroke-dashoffset:0;stroke-opacity:1;color-rendering:auto;image-rendering:auto;shape-rendering:auto;text-rendering:auto;enable-background:accumulate"
         id="polygon4354"
         points="282.6,333 289.5,329 289.5,337 " /><polygon
         transform="translate(47.579539,396.566)"
         style="color:#000000;clip-rule:nonzero;display:inline;overflow:visible;visibility:visible;opacity:1;isolation:auto;mix-blend-mode:normal;color-interpolation:sRGB;color-interpolation-filters:linearRGB;solid-color:#000000;solid-opacity:1;fill:#0588cb;fill-opacity:1;fill-rule:nonzero;stroke-width:1.16279066;stroke-linecap:butt;stroke-linejoin:miter;stroke-miterlimit:4;stroke-dasharray:none;stroke-dashoffset:0;stroke-opacity:1;color-rendering:auto;image-rendering:auto;shape-rendering:auto;text-rendering:auto;enable-background:accumulate"
         id="polygon4358"
         points="667.1,210 667.1,218 674,214 " /><text
         y="794.06604"
         x="697.60522"
         font-size="14"
         id="text4360"
         style="font-style:normal;font-variant:normal;font-weight:normal;font-stretch:normal;font-size:16px;font-family:Charter;-inkscape-font-specification:Charter;text-align:center;text-anchor:middle;display:inline;fill:#0588cb">Tor</text>
<text
         y="801.56598"
         x="241.30064"
         font-size="14"
         id="text4362"
         style="font-style:normal;font-variant:normal;font-weight:normal;font-stretch:normal;font-size:16px;font-family:Charter;-inkscape-font-specification:Charter;text-align:center;text-anchor:middle;display:inline;fill:#0588cb">Probe</text>
<text
         y="570.06598"
         x="771.87921"
         font-size="14"
         id="text4364"
         style="font-style:normal;font-variant:normal;font-weight:normal;font-stretch:normal;font-size:16px;font-family:Charter;-inkscape-font-specification:Charter;text-align:center;text-anchor:middle;display:inline;fill:#0588cb">Helper</text>
<text
         y="707.32288"
         x="270.18207"
         font-size="32"
         id="text4374"
         style="font-style:normal;font-variant:normal;font-weight:normal;font-stretch:normal;font-size:32px;font-family:'Concourse T4';-inkscape-font-specification:'Concourse T4';display:inline;fill:#0588cb"><tspan
           id="tspan4503"
           style="font-style:normal;font-variant:normal;font-weight:600;font-stretch:normal;font-family:'Concourse T4';-inkscape-font-specification:'Concourse T4 Semi-Bold';text-align:center;text-anchor:middle">!</tspan></text>
<g
         id="g5604"
         style="display:inline"
         transform="translate(175.37954,533.262)"><path
           style="fill:#ffffff;stroke:#0588cb;stroke-width:4;stroke-miterlimit:10"
           inkscape:connector-curvature="0"
           id="path4370"
           d="m 610.8,207.704 -28.5,0 0,-42 20.5,0 c 3.1,3.1 4.9,4.9 8,8 l 0,34 z"
           stroke-miterlimit="10" /><text
           style="font-style:normal;font-variant:normal;font-weight:600;font-stretch:normal;font-size:25px;font-family:'Concourse T4';-inkscape-font-specification:'Concourse T4 Semi-Bold';text-align:center;text-anchor:middle;fill:#0588cb"
           id="text4378"
           font-size="25"
           x="596.54608"
           y="196.32372">A</text>
</g><text
         y="608.06604"
         x="497.6683"
         font-size="14"
         id="text4428"
         style="color:#000000;font-style:normal;font-variant:normal;font-weight:normal;font-stretch:normal;font-size:16px;line-height:normal;font-family:Charter;-inkscape-font-specification:Charter;text-indent:0;text-align:center;text-decoration:none;text-decoration-line:none;text-decoration-style:solid;text-decoration-color:#000000;letter-spacing:normal;word-spacing:normal;text-transform:none;direction:ltr;block-progression:tb;writing-mode:lr-tb;baseline-shift:baseline;text-anchor:middle;white-space:normal;clip-rule:nonzero;display:inline;overflow:visible;visibility:visible;opacity:1;isolation:auto;mix-blend-mode:normal;color-interpolation:sRGB;color-interpolation-filters:linearRGB;solid-color:#000000;solid-opacity:1;fill:#0588cb;fill-opacity:1;fill-rule:nonzero;stroke-width:1;stroke-linecap:butt;stroke-linejoin:miter;stroke-miterlimit:4;stroke-dasharray:none;stroke-dashoffset:0;stroke-opacity:1;color-rendering:auto;image-rendering:auto;shape-rendering:auto;text-rendering:auto;enable-background:accumulate">Censor</text>
<g
         id="g9050_5_"
         transform="matrix(1.1627907,0,0,1.1627907,-35.285731,334.73809)"
         style="display:inline"><path
           id="circle4375_5_"
           inkscape:connector-curvature="0"
           sodipodi:nodetypes="csssssssssssssssssssssssscssccsssssssssssscsssscsscsssssssscssssssssssssssscsssssssssssscsssscssssssssccscsscsssssssssssssccccc"
           d="m 246.2,339 c 2.7,-2.6 4.2,-6.2 4.2,-9.8 0,-7.7 -6.3,-13.9 -14.1,-13.9 -7.8,0 -14.3,6.2 -14.3,13.9 0,3.6 1.6,7.1 3.8,9.3 2.2,2.3 2.6,5.1 1.7,7.6 -2,5.4 -7.1,5.8 -9.2,5.3 -2,-0.6 -3.2,-2 -3.7,-3.1 -0.5,-1.1 -0.6,-2.9 -0.1,-3.6 0.5,-0.7 0.8,-1 0.9,-1.3 0.1,-0.4 -0.1,-0.9 0.1,-1.2 0.3,-0.5 1.5,-1.3 1.9,-1.7 0.4,-0.4 1,-1.1 1.4,-2 0.4,-0.8 0.5,-1.1 0.8,-1.6 0.3,-0.5 2.1,-2.1 2,-3.1 0,-0.7 -0.4,-0.4 -0.6,-1.1 -0.2,-0.7 0,-2.1 -0.1,-2.5 -0.2,-0.6 -0.9,-0.6 -1.2,-1.1 -0.2,-0.5 0,-1.3 -0.2,-1.7 -0.4,-0.7 -1.8,-1.9 -2,-2.3 -0.2,-0.4 -0.1,-0.5 -0.2,-0.7 -0.1,-0.1 -0.4,-0.6 -0.7,-0.6 -0.2,0 -1.6,0 -1.9,-0.1 -0.3,-0.1 -0.7,-0.5 -1.4,-0.6 0,0 -0.1,0 -0.1,0 -0.8,0 -1.1,0.1 -1.4,0.3 -0.3,0.1 -1.3,0.7 -0.9,1.3 0.4,0.7 3.4,1.9 4.1,5.8 0.7,3.9 -0.9,5.9 -2.1,7.8 -1.2,1.9 -2.5,3.7 -3.1,5.1 -0.6,1.4 -1.3,4.4 -0.3,6.8 1,2.4 2.4,4.4 5.5,5.6 2.3,0.9 3.1,1 3.6,1.1 0.5,0.2 0.9,0.4 1.2,0.4 0.8,0 4,-0.6 4.7,-0.8 0.7,-0.2 0.4,-0.6 0.8,-0.7 0.4,-0.1 0.9,0.1 1.4,-0.2 0.5,-0.2 1.1,-0.6 1.6,-1.2 0.4,-0.5 1.7,-2 2.6,-2.5 0.2,1 -0.2,2 -0.6,2.7 -0.5,0.8 -1,1.5 -2.3,2.4 -2.2,1.6 -5.2,4 -6.7,5.9 -1.3,1.5 -2.5,3.6 -1.9,6.6 0.5,2.4 3.3,4.2 4.9,4.8 1.3,0.5 5,0.7 5.6,0.7 0.6,0 1.1,-0.6 1.5,-0.7 0.4,-0.1 1.8,0.4 2.5,0.1 0.6,-0.2 1.3,-1 1.9,-1.6 0.3,-0.3 0.7,-0.5 0.8,-0.7 0.1,-0.2 0.2,-0.5 0.4,-0.8 0.3,-0.6 0.5,-1.4 0.6,-2 0.1,-0.6 0.2,-1.1 0.2,-1.6 0,-0.3 -0.2,-0.6 -0.2,-1 0,-0.4 0.1,-1.1 0,-1.4 -0.3,-0.8 -0.7,-1.4 -1.4,-2 -0.9,-0.8 -1.8,-0.9 -2.8,-0.9 -0.9,0 -1.6,-0.1 -1.9,-0.1 -0.6,0 -1.1,0.3 -1.4,0.5 -0.5,0.4 -0.6,0.8 -0.5,1.2 0.1,0.4 0.5,0.6 0.9,0.5 0.6,-0.1 1.4,-0.4 2.3,0.3 0.8,0.6 0.5,3 -0.5,4.3 -1,1.3 -2.6,2 -4.3,2 -1.6,0 -2.7,-0.8 -3.2,-1.5 -0.6,-0.8 -1.1,-2.8 0,-4.3 1,-1.4 3.3,-3.1 4.3,-3.7 1,-0.6 3.1,-1.7 4.7,-3.5 0.6,-0.7 1.4,-1.9 2.3,-3.2 0.6,0.5 1.2,1.6 1.5,1.9 0.4,0.4 0.7,0.8 1.1,1.1 0.7,0.6 1.5,1 2.2,1.3 0.6,0.3 1.2,0.9 2.1,1.3 0.9,0.4 1.3,0.4 2.5,0.8 1.4,0.5 2.4,1.5 2.6,3 0.2,1.7 -1.7,2.9 -2.2,3.1 -0.4,0.1 -2.4,0.1 -2.9,0 -0.2,-0.1 -0.4,-0.1 -0.7,0 -0.6,0 -1,1.5 -1.4,1.7 -0.2,0.1 -0.4,0 -0.8,0.2 -0.3,0.1 -0.6,0.5 -0.6,0.5 -0.3,0.3 -0.1,0.6 -0.5,1.2 -0.5,0.7 -0.4,2 -0.3,2.5 0,0.6 0.4,1.6 0.5,1.9 0.1,0.3 0.1,0.9 0.2,1.2 0.1,0.3 0.8,0.9 1.1,1.1 0.2,0.2 0.5,0.2 0.7,0.2 0.2,0 0.7,1 1.8,1.4 1.3,0.4 1.7,0.5 3.1,0.5 1.2,0 2.9,-1.4 2.7,-1.5 -0.1,-0.1 -1.8,-0.2 -3,-0.7 -0.7,-0.3 -1.8,-1.2 -2,-2.9 -0.1,-1.6 1.4,-2.4 2.3,-2.9 1.3,-0.7 2.5,-1.4 3.9,-2.1 1.6,-0.9 2.6,-2.2 3.2,-3.5 0.6,-1.3 0.7,-2.4 0.2,-4.4 -0.5,-1.9 -2.1,-3.1 -3.8,-4.3 -1.9,-1.3 -4.6,-2.8 -6.5,-3.8 -1.3,-0.7 -2.1,-1.4 -2.3,-2.7 0,-0.2 0,-0.9 0,-1.2 0.2,0.2 1,1.1 1.4,1.4 1.3,1.3 3.4,2.9 6.4,3.4 0.8,0.1 0.6,0.5 1.4,0.6 0.3,0 1.3,0 1.8,0 1.3,0 2.2,-0.4 3.4,-0.9 1.2,-0.5 2.9,-1 5,-2.9 2,-1.8 2.6,-3.5 3,-6 0.4,-2.5 -0.3,-4.3 -1.2,-5.7 -1.2,-2.1 -2.8,-3.3 -3.8,-4.3 -0.9,-1 -1.8,-2.2 -2.5,-2.2 -0.7,-0.1 -1.1,0.7 -1.6,0.8 -0.4,0 -0.7,-0.2 -1.2,-0.3 -0.3,-0.1 -0.7,0 -0.9,0.1 -0.4,0.1 -0.5,0.9 -0.8,1.3 -0.4,0.4 -1.2,0.1 -1.5,0.4 -0.1,0.1 -0.4,0.3 -0.5,0.5 -0.1,0.3 -0.2,0.7 -0.2,0.9 -0.1,0.5 -1.2,1.4 -1.3,1.8 -0.2,0.4 0.6,3.8 1.3,4.7 0.8,1 2.2,1.8 2.4,1.9 0.2,0.1 0.3,-0.1 0.3,-0.3 0,-0.2 -0.7,-1.8 -0.7,-2.8 0,-1.7 1.1,-2.7 1.9,-3.1 1.4,-0.8 2.7,-0.6 4.4,1.4 1.4,1.7 2.2,4.3 0.7,6.4 -0.8,1.1 -1.9,3.1 -5.8,3 -4.5,0 -7.3,-1.3 -8.5,-3.7 -0.9,-2.2 -0.2,-4.6 2.5,-7.2 l 0,0 z"
           style="fill:#0588cb" /><circle
           id="path3571_5_"
           cx="238.39999"
           cy="330.29999"
           r="6.9000001"
           style="fill:#ffffff" /><circle
           id="circle4373_5_"
           cx="239.3"
           cy="331.29999"
           r="1.6"
           style="fill:#0062b0" /></g><g
         transform="matrix(1.3627411,0,0,1.3627411,-31.159101,507.43061)"
         id="g5265"
         style="display:inline;opacity:1"><path
           style="color:#000000;clip-rule:nonzero;display:inline;overflow:visible;visibility:visible;opacity:1;isolation:auto;mix-blend-mode:normal;color-interpolation:sRGB;color-interpolation-filters:linearRGB;solid-color:#000000;solid-opacity:1;fill:#0588cb;fill-opacity:1;fill-rule:nonzero;stroke:none;stroke-width:1;stroke-linecap:butt;stroke-linejoin:miter;stroke-miterlimit:4;stroke-dasharray:none;stroke-dashoffset:0;stroke-opacity:1;marker:none;marker-start:none;marker-mid:none;marker-end:none;color-rendering:auto;image-rendering:auto;shape-rendering:auto;text-rendering:auto;enable-background:accumulate"
           d="m 604.63197,61.02567 c 2.09483,-0.512178 3.73579,0.504504 4.60302,0.603695 1.36152,0.15573 4.75597,5.336857 4.42615,6.50544 -0.17457,0.618858 -0.17556,4.316175 -0.99618,6.611122 -0.18768,-4.181532 -3.94425,-12.026137 -8.03299,-13.720257 z"
           id="path4555"
           inkscape:connector-curvature="0"
           sodipodi:nodetypes="csscc" /><path
           style="color:#000000;clip-rule:nonzero;display:inline;overflow:visible;visibility:visible;opacity:1;isolation:auto;mix-blend-mode:normal;color-interpolation:sRGB;color-interpolation-filters:linearRGB;solid-color:#000000;solid-opacity:1;fill:#0588cb;fill-opacity:1;fill-rule:nonzero;stroke:none;stroke-width:1;stroke-linecap:butt;stroke-linejoin:miter;stroke-miterlimit:4;stroke-dasharray:none;stroke-dashoffset:0;stroke-opacity:1;marker:none;marker-start:none;marker-mid:none;marker-end:none;color-rendering:auto;image-rendering:auto;shape-rendering:auto;text-rendering:auto;enable-background:accumulate"
           d="m 607.90928,85.741888 c 4.87546,-2.930743 3.62842,-7.607732 3.22265,-11.414751 -0.4494,-4.216337 -4.70865,-12.183861 -8.34408,-13.160713 -2.00849,-0.53969 -5.37555,-1.312022 -9.30551,0.863986 5.10655,1.96062 10.43476,10.470716 10.49599,23.026342 0.009,1.912268 2.58826,1.492257 3.93095,0.685138 z"
           id="path4542"
           inkscape:connector-curvature="0"
           sodipodi:nodetypes="ssscss" /><path
           style="color:#000000;clip-rule:nonzero;display:inline;overflow:visible;visibility:visible;opacity:1;isolation:auto;mix-blend-mode:normal;color-interpolation:sRGB;color-interpolation-filters:linearRGB;solid-color:#000000;solid-opacity:1;fill:#0588cb;fill-opacity:1;fill-rule:nonzero;stroke:none;stroke-width:1;stroke-linecap:butt;stroke-linejoin:miter;stroke-miterlimit:4;stroke-dasharray:none;stroke-dashoffset:0;stroke-opacity:1;marker:none;marker-start:none;marker-mid:none;marker-end:none;color-rendering:auto;image-rendering:auto;shape-rendering:auto;text-rendering:auto;enable-background:accumulate"
           d="m 568.98229,80.470578 c 3.8374,-7.585104 8.8736,-8.585904 11.39491,-9.324515 2.52132,-0.738611 17.59709,-0.757981 21.71355,13.313995 1.25538,-3.507837 -1.76839,-20.137416 -11.32875,-22.163757 -1.11571,-0.236476 -6.32371,-1.756849 -11.17041,-0.483035 -1.98349,0.5213 -4.8407,2.042082 -7.1341,4.305736 -3.31058,3.267656 -6.74797,8.258854 -3.4752,14.351576 z"
           id="path4544"
           inkscape:connector-curvature="0"
           sodipodi:nodetypes="cscsssc" /><path
           style="color:#000000;clip-rule:nonzero;display:inline;overflow:visible;visibility:visible;opacity:1;isolation:auto;mix-blend-mode:normal;color-interpolation:sRGB;color-interpolation-filters:linearRGB;solid-color:#000000;solid-opacity:1;fill:#0588cb;fill-opacity:1;fill-rule:nonzero;stroke:none;stroke-width:1;stroke-linecap:butt;stroke-linejoin:miter;stroke-miterlimit:4;stroke-dasharray:none;stroke-dashoffset:0;stroke-opacity:1;marker:none;marker-start:none;marker-mid:none;marker-end:none;color-rendering:auto;image-rendering:auto;shape-rendering:auto;text-rendering:auto;enable-background:accumulate"
           d="m 611.06816,61.696959 c 1.03624,0.391981 2.92632,2.904804 3.01158,4.598404 0.31664,-0.130394 0.72189,-2.243561 0.72892,-2.754251 0.007,-0.510699 -0.5378,-1.679972 -1.25631,-1.870122 -0.71849,-0.190143 -2.48419,0.02597 -2.48419,0.02597 z"
           id="path5032"
           inkscape:connector-curvature="0"
           sodipodi:nodetypes="ccssc" /><path
           style="color:#000000;clip-rule:nonzero;display:inline;overflow:visible;visibility:visible;opacity:1;isolation:auto;mix-blend-mode:normal;color-interpolation:sRGB;color-interpolation-filters:linearRGB;solid-color:#000000;solid-opacity:1;fill:#0588cb;fill-opacity:1;fill-rule:nonzero;stroke:none;stroke-width:1;stroke-linecap:butt;stroke-linejoin:miter;stroke-miterlimit:4;stroke-dasharray:none;stroke-dashoffset:0;stroke-opacity:1;marker:none;marker-start:none;marker-mid:none;marker-end:none;color-rendering:auto;image-rendering:auto;shape-rendering:auto;text-rendering:auto;enable-background:accumulate"
           d="m 592.67685,80.390918 c -0.0226,0.996525 0.2582,1.709815 0.37477,1.702187 0.11657,-0.0076 1.60364,3.933812 1.9065,4.089593 0.30285,0.155783 0.9268,-0.14844 1.08396,0.01688 0.15714,0.165316 0.44992,0.614418 0.60082,1.131336 0.15088,0.51692 5.14909,5.340735 5.47157,5.348902 0.32245,0.0082 1.84325,-1.349788 1.71769,-1.926897 -0.12555,-0.577109 -0.44694,-1.463335 -0.97475,-1.926325 -0.52783,-0.462989 -3.14922,-2.954694 -3.91019,-3.402431 -0.76094,-0.447735 -1.47751,-0.664247 -1.62893,-0.742136 -0.15143,-0.0779 0.0722,-0.238852 -0.007,-0.555605 -0.0793,-0.316742 -1.002,-1.895277 -1.34925,-2.282282 -0.34724,-0.387006 -1.23894,-1.938304 -1.48542,-2.127041 -0.24647,-0.188734 -1.20951,-0.593982 -1.40016,-0.376644 -0.19064,0.217338 -0.39952,1.050459 -0.39952,1.050459 z"
           id="path5058"
           inkscape:connector-curvature="0" /><path
           style="color:#000000;clip-rule:nonzero;display:inline;overflow:visible;visibility:visible;opacity:1;isolation:auto;mix-blend-mode:normal;color-interpolation:sRGB;color-interpolation-filters:linearRGB;solid-color:#000000;solid-opacity:1;fill:#0588cb;fill-opacity:1;fill-rule:nonzero;stroke:none;stroke-width:1;stroke-linecap:butt;stroke-linejoin:miter;stroke-miterlimit:4;stroke-dasharray:none;stroke-dashoffset:0;stroke-opacity:1;marker:none;marker-start:none;marker-mid:none;marker-end:none;color-rendering:auto;image-rendering:auto;shape-rendering:auto;text-rendering:auto;enable-background:accumulate"
           d="m 577.2627,78.706689 c -0.49979,0.432969 -2.4826,2.620322 -2.72057,2.724642 -0.23797,0.104321 -0.61572,-6.8e-4 -0.61572,-6.8e-4 0,0 -1.08823,1.699155 -1.62008,2.128713 -0.53182,0.429562 -1.75779,1.595513 -1.98212,1.571647 -0.22433,-0.02387 -0.80935,-0.31297 -0.89866,-0.387292 -0.0893,-0.07432 -0.27752,0.780712 -0.73845,1.152997 -0.46093,0.372287 -4.10746,2.966011 -4.38564,2.839187 -0.2782,-0.126822 -0.49912,-0.182739 -0.49912,-0.182739 0,0 0.18137,0.732305 -0.4732,0.792305 -0.65458,0.06 -1.64666,0.246139 -1.89758,-0.137066 -0.25091,-0.383197 0.30888,-1.68484 0.59936,-1.978031 0.29046,-0.293192 0.82026,-0.398877 0.86594,-0.523655 0.0457,-0.124779 5.39409,-4.093095 5.72821,-4.187187 0.3341,-0.09409 0.67298,0.0716 0.7473,-0.01772 0.0743,-0.08933 2.47374,-2.232352 2.78944,-2.458042 0.31569,-0.22569 1.10595,-0.951852 1.62757,-1.285271 0.52162,-0.333419 2.73489,-1.945293 2.90195,-1.992341 0.16704,-0.04704 1.05413,0.144559 1.03708,0.304792 -0.017,0.160232 -0.46571,1.635744 -0.46571,1.635744 z"
           id="path5060"
           inkscape:connector-curvature="0" /><path
           style="color:#000000;clip-rule:nonzero;display:inline;overflow:visible;visibility:visible;opacity:1;isolation:auto;mix-blend-mode:normal;color-interpolation:sRGB;color-interpolation-filters:linearRGB;solid-color:#000000;solid-opacity:1;fill:#0588cb;fill-opacity:1;fill-rule:nonzero;stroke:none;stroke-width:1;stroke-linecap:butt;stroke-linejoin:miter;stroke-miterlimit:4;stroke-dasharray:none;stroke-dashoffset:0;stroke-opacity:1;marker:none;marker-start:none;marker-mid:none;marker-end:none;color-rendering:auto;image-rendering:auto;shape-rendering:auto;text-rendering:auto;enable-background:accumulate"
           d="m 580.86351,79.236126 c -1.25587,0.853147 -7.57213,5.532209 -7.67464,5.848929 -0.10258,0.316712 0.13309,0.403746 0.23153,0.548655 0.0984,0.144909 -1.79393,3.230585 -1.94292,3.790653 -0.14898,0.560067 -0.16161,2.827653 0.0507,3.036353 0.21237,0.2087 3.28338,0.41679 3.35308,0.05176 0.0697,-0.365022 1.23059,-4.683339 1.30804,-5.088919 0.0774,-0.405581 3.05898,-3.031056 3.1884,-3.048379 0.12941,-0.01733 2.83254,-2.065408 2.85577,-2.187083 0.0232,-0.121677 -0.95078,-3.166178 -1.37001,-2.951974 z"
           id="path5062"
           inkscape:connector-curvature="0" /><path
           sodipodi:nodetypes="cssscssssssccscc"
           style="color:#000000;clip-rule:nonzero;display:inline;overflow:visible;visibility:visible;opacity:1;isolation:auto;mix-blend-mode:normal;color-interpolation:sRGB;color-interpolation-filters:linearRGB;solid-color:#000000;solid-opacity:1;fill:#0588cb;fill-opacity:1;fill-rule:nonzero;stroke:none;stroke-width:1;stroke-linecap:butt;stroke-linejoin:miter;stroke-miterlimit:4;stroke-dasharray:none;stroke-dashoffset:0;stroke-opacity:1;marker:none;marker-start:none;marker-mid:none;marker-end:none;color-rendering:auto;image-rendering:auto;shape-rendering:auto;text-rendering:auto;enable-background:accumulate"
           d="m 588.59487,80.431369 c -1.68606,2.187488 -3.26729,5.341178 -3.74078,5.498424 -0.47349,0.157246 -5.46755,4.854232 -6.53859,5.944473 -0.33744,0.34349 1.44663,0.597475 3.05909,-0.536775 1.41781,-0.997322 2.22565,-1.149393 3.14039,-1.032697 -0.38999,0.632179 -2.83828,2.48044 -4.77417,3.075149 -1.63378,0.501902 -3.18385,0.09573 -3.1816,0.26283 0.014,1.039585 1.12169,1.946386 1.7638,1.765555 0.64209,-0.180832 0.69974,0.448159 1.96821,0.624633 1.26847,0.176472 5.08086,0.249873 6.96872,-0.711953 1.88785,-0.961825 4.17495,-3.334513 4.77774,-5.097437 0.60279,-1.762923 0.51718,-2.519461 0.38354,-2.824347 -0.13367,-0.304887 -0.30401,-2.606826 -0.56258,-3.298717 -0.25859,-0.691894 -0.75741,-3.028777 -1.49384,-3.522364 -0.73645,-0.493588 -1.49299,-0.407979 -1.76992,-0.146774 z"
           id="path5064"
           inkscape:connector-curvature="0" /><g
           transform="translate(2.439767,0.59987916)"
           id="g5347"
           style="display:inline;opacity:1"><g
             transform="translate(-0.42188,2.2171783e-6)"
             id="g5210"
             style="display:inline"><circle
               style="color:#000000;clip-rule:nonzero;display:inline;overflow:visible;visibility:visible;opacity:1;isolation:auto;mix-blend-mode:normal;color-interpolation:sRGB;color-interpolation-filters:linearRGB;solid-color:#000000;solid-opacity:1;fill:#0062b0;fill-opacity:1;fill-rule:nonzero;stroke:none;stroke-width:1;stroke-linecap:butt;stroke-linejoin:miter;stroke-miterlimit:4;stroke-dasharray:none;stroke-dashoffset:0;stroke-opacity:1;marker:none;marker-start:none;marker-mid:none;marker-end:none;color-rendering:auto;image-rendering:auto;shape-rendering:auto;text-rendering:auto;enable-background:accumulate"
               id="path5078"
               cx="581.14301"
               cy="75.466904"
               r="2.5192759" /><circle
               style="color:#000000;clip-rule:nonzero;display:inline;overflow:visible;visibility:visible;opacity:1;isolation:auto;mix-blend-mode:normal;color-interpolation:sRGB;color-interpolation-filters:linearRGB;solid-color:#000000;solid-opacity:1;fill:#ffffff;fill-opacity:1;fill-rule:nonzero;stroke:none;stroke-width:1;stroke-linecap:butt;stroke-linejoin:miter;stroke-miterlimit:4;stroke-dasharray:none;stroke-dashoffset:0;stroke-opacity:1;marker:none;marker-start:none;marker-mid:none;marker-end:none;color-rendering:auto;image-rendering:auto;shape-rendering:auto;text-rendering:auto;enable-background:accumulate"
               id="path5171"
               cx="580.5769"
               cy="74.869125"
               r="0.96470118" /></g><g
             transform="translate(5.4375,2.2171783e-6)"
             id="g5214"
             style="display:inline"><circle
               r="2.5192759"
               cy="75.466904"
               cx="581.14301"
               id="circle5216"
               style="color:#000000;clip-rule:nonzero;display:inline;overflow:visible;visibility:visible;opacity:1;isolation:auto;mix-blend-mode:normal;color-interpolation:sRGB;color-interpolation-filters:linearRGB;solid-color:#000000;solid-opacity:1;fill:#0062b0;fill-opacity:1;fill-rule:nonzero;stroke:none;stroke-width:1;stroke-linecap:butt;stroke-linejoin:miter;stroke-miterlimit:4;stroke-dasharray:none;stroke-dashoffset:0;stroke-opacity:1;marker:none;marker-start:none;marker-mid:none;marker-end:none;color-rendering:auto;image-rendering:auto;shape-rendering:auto;text-rendering:auto;enable-background:accumulate" /><circle
               r="0.96470118"
               cy="74.869125"
               cx="580.5769"
               id="circle5218"
               style="color:#000000;clip-rule:nonzero;display:inline;overflow:visible;visibility:visible;opacity:1;isolation:auto;mix-blend-mode:normal;color-interpolation:sRGB;color-interpolation-filters:linearRGB;solid-color:#000000;solid-opacity:1;fill:#ffffff;fill-opacity:1;fill-rule:nonzero;stroke:none;stroke-width:1;stroke-linecap:butt;stroke-linejoin:miter;stroke-miterlimit:4;stroke-dasharray:none;stroke-dashoffset:0;stroke-opacity:1;marker:none;marker-start:none;marker-mid:none;marker-end:none;color-rendering:auto;image-rendering:auto;shape-rendering:auto;text-rendering:auto;enable-background:accumulate" /></g></g></g><path
         sodipodi:nodetypes="cc"
         inkscape:connector-curvature="0"
         id="path5479"
         d="m 436.37954,729.566 112,0"
         style="color:#000000;clip-rule:nonzero;display:inline;overflow:visible;visibility:visible;opacity:0.5;isolation:auto;mix-blend-mode:normal;color-interpolation:sRGB;color-interpolation-filters:linearRGB;solid-color:#000000;solid-opacity:1;fill:none;fill-opacity:1;fill-rule:nonzero;stroke:#0588cb;stroke-width:2;stroke-linecap:butt;stroke-linejoin:miter;stroke-miterlimit:10;stroke-dasharray:12, 12;stroke-dashoffset:0;stroke-opacity:1;marker:none;marker-start:none;marker-mid:none;marker-end:none;color-rendering:auto;image-rendering:auto;shape-rendering:auto;text-rendering:auto;enable-background:accumulate" /><path
         sodipodi:nodetypes="cccsssssssssssccssc"
         inkscape:connector-curvature="0"
         id="path5541"
         d="m 470.86001,621.52177 c -1.7055,-0.003 -2.68357,0.12333 -2.73265,0.29883 -9.5e-4,0.003 10e-4,-0.004 0,0 3.08563,1.67446 6.04138,3.15601 8.85937,4.46289 2.82469,1.30998 5.51317,2.44744 8.06055,3.43359 2.54738,0.98615 4.95317,1.82141 7.21484,2.5293 2.26167,0.70788 4.37814,1.28849 6.34571,1.76367 3.93512,0.95036 7.27414,1.48051 9.98242,1.77343 2.70827,0.29293 4.78695,0.34766 6.20117,0.34766 1.41421,0 2.7384,0.0898 3.93164,0.2832 1.19324,0.19335 2.25479,0.49032 3.13867,0.91016 0.88389,0.41984 1.59004,0.96114 2.07617,1.64062 0.48614,0.67949 0.75196,1.49844 0.75196,2.47071 0,1.94454 -1.19248,9.25399 -2.5625,16.56445 -1.37002,7.31047 -2.91789,14.62187 -3.625,16.56641 l 16.27389,-6.9e-4 c 3.18032,-12.64458 2.79501,-44.85489 -1.38717,-47.09306 -3.65941,-1.9584 -50.59081,-5.92943 -62.5293,-5.95117 z"
         style="color:#000000;clip-rule:nonzero;display:inline;overflow:visible;visibility:visible;opacity:1;isolation:auto;mix-blend-mode:normal;color-interpolation:sRGB;color-interpolation-filters:linearRGB;solid-color:#000000;solid-opacity:1;fill:#0588cb;fill-opacity:1;fill-rule:nonzero;stroke:none;stroke-width:1.5;stroke-linecap:round;stroke-linejoin:miter;stroke-miterlimit:10;stroke-dasharray:none;stroke-dashoffset:0;stroke-opacity:1;marker:none;marker-start:none;marker-mid:none;marker-end:none;color-rendering:auto;image-rendering:auto;shape-rendering:auto;text-rendering:auto;enable-background:accumulate" /><path
         id="path7304-9"
         d="m 295.87954,729.566 124,0 c 5.5,0 10,-4.5 10,-10 l 0,-35 c 0,-5.5 4.5,-10 10,-10 l 48.39475,0"
         style="color:#000000;clip-rule:nonzero;display:inline;overflow:visible;visibility:visible;opacity:1;isolation:auto;mix-blend-mode:normal;color-interpolation:sRGB;color-interpolation-filters:linearRGB;solid-color:#000000;solid-opacity:1;fill:none;fill-opacity:1;fill-rule:nonzero;stroke:#8dd8f8;stroke-width:4;stroke-linecap:butt;stroke-linejoin:round;stroke-miterlimit:4;stroke-dasharray:none;stroke-dashoffset:0;stroke-opacity:1;color-rendering:auto;image-rendering:auto;shape-rendering:auto;text-rendering:auto;enable-background:accumulate"
         inkscape:connector-curvature="0" /><path
         id="path4350"
         d="m 488.27429,674.566 53.60525,0 c 5.5,0 10,4.5 10,10 l 0,35 c 0,5.5 4.5,10 10,10 l 113,0 c 5.5,0 10,-4.5 10,-10 l 0,-99 c 0,-5.5 4.5,-10 10,-10 l 21,0"
         style="color:#000000;clip-rule:nonzero;display:inline;overflow:visible;visibility:visible;opacity:1;isolation:auto;mix-blend-mode:normal;color-interpolation:sRGB;color-interpolation-filters:linearRGB;solid-color:#000000;solid-opacity:1;fill:none;fill-opacity:1;fill-rule:nonzero;stroke:#0588cb;stroke-width:4;stroke-linecap:butt;stroke-linejoin:round;stroke-miterlimit:4;stroke-dasharray:none;stroke-dashoffset:0;stroke-opacity:1;color-rendering:auto;image-rendering:auto;shape-rendering:auto;text-rendering:auto;enable-background:accumulate"
         inkscape:connector-curvature="0" /><g
         id="g5612"
         style="display:inline"
         transform="translate(175.37954,533.262)"><path
           style="fill:#ffffff;stroke:#8dd8f8;stroke-width:4;stroke-miterlimit:10;stroke-opacity:1"
           inkscape:connector-curvature="0"
           id="path4368"
           d="m 184.8,217.304 -28.5,0 0,-42 20.5,0 c 3.1,3.1 4.9,4.9 8,8 l 0,34 z"
           stroke-miterlimit="10" /><text
           style="font-style:normal;font-variant:normal;font-weight:600;font-stretch:normal;font-size:25px;font-family:'Concourse T4';-inkscape-font-specification:'Concourse T4 Semi-Bold';text-align:center;text-anchor:middle;fill:#8dd8f8;fill-opacity:1"
           id="text4380"
           font-size="25"
           x="170.11935"
           y="204.19859">B</text>
</g><g
         id="g5608"
         style="display:inline"
         transform="translate(175.37954,533.262)"><path
           style="fill:#ffffff;stroke:#0588cb;stroke-width:4;stroke-miterlimit:10"
           inkscape:connector-curvature="0"
           id="path4372"
           d="m 198.5,254.304 -28.5,0 0,-42 20.5,0 c 3.1,3.1 4.9,4.9 8,8 l 0,34 z"
           stroke-miterlimit="10" /><text
           style="font-style:normal;font-variant:normal;font-weight:600;font-stretch:normal;font-size:25px;font-family:'Concourse T4';-inkscape-font-specification:'Concourse T4 Semi-Bold';text-align:center;text-anchor:middle;fill:#0588cb"
           id="text4376"
           font-size="25"
           x="184.24609"
           y="242.92909">A</text>
</g><g
         id="g5600"
         style="display:inline"
         transform="translate(175.37954,533.262)"><path
           style="fill:#ffffff;stroke:#0588cb;stroke-width:4;stroke-miterlimit:10"
           inkscape:connector-curvature="0"
           id="path4366"
           d="m 523.5,165.604 -28.5,0 0,-42 20.5,0 c 3.1,3.1 4.9,4.9 8,8 l 0,34 z"
           stroke-miterlimit="10" /><text
           style="font-style:normal;font-variant:normal;font-weight:600;font-stretch:normal;font-size:25px;font-family:'Concourse T4';-inkscape-font-specification:'Concourse T4 Semi-Bold';text-align:center;text-anchor:middle;fill:#0588cb"
           id="text4382"
           font-size="25"
           x="509.24609"
           y="154.21211">A</text>
</g><g
         transform="translate(7.5795387,396.566)"
         id="g4384-4-4"
         style="display:inline"><g
           id="g4388-9-4"
           style="fill:#ffffff;fill-opacity:1"><path
             stroke-miterlimit="10"
             d="M 478.33211,299 496,299 l 0,-34.5 c -3,-3.1 -4.1,-4.5 -7.2,-7.5 l -9.00991,0"
             id="path4390-9-8"
             inkscape:connector-curvature="0"
             style="fill:#ffffff;fill-opacity:1;stroke:#0588cb;stroke-width:4;stroke-miterlimit:10"
             sodipodi:nodetypes="ccccc" /><path
             id="polyline4394-2-7"
             style="fill:#ffffff;fill-opacity:1;stroke:#8dd8f8;stroke-width:4;stroke-miterlimit:10;stroke-opacity:1"
             d="m 468,257 0,42 10.33211,0 9.46789,-24 -10.6,4.5 8.8,-22.5 z"
             inkscape:connector-curvature="0"
             sodipodi:nodetypes="ccccccc" /></g></g><path
         sodipodi:nodetypes="ccccccccccc"
         inkscape:connector-curvature="0"
         id="path5551-1-3"
         d="m 483.02105,647.00642 2.26837,14.34852 2.11653,-11.29592 2.05166,12.1539 2.20101,-11.88922 2.04484,10.32664 1.67608,-9.58434 1.87635,7.45859 1.64599,-7.56981 1.30819,4.82218 1.36927,-7.18395"
         style="color:#000000;clip-rule:nonzero;display:inline;overflow:visible;visibility:visible;opacity:1;isolation:auto;mix-blend-mode:normal;color-interpolation:sRGB;color-interpolation-filters:linearRGB;solid-color:#000000;solid-opacity:1;fill:#ffffff;fill-opacity:1;fill-rule:nonzero;stroke:#0588cb;stroke-width:1.5;stroke-linecap:butt;stroke-linejoin:miter;stroke-miterlimit:10;stroke-dasharray:none;stroke-dashoffset:0;stroke-opacity:1;marker:none;marker-start:none;marker-mid:none;marker-end:none;color-rendering:auto;image-rendering:auto;shape-rendering:auto;text-rendering:auto;enable-background:accumulate" /><path
         id="path5632"
         d="m 468.12759,621.82059 c -0.34566,1.52485 8.85198,28.80628 15.53125,29.69727 5.4672,0.72931 16.3045,0.30766 19.71875,3.13867 l 12.04492,-18.50391 c -0.21332,-0.004 -0.41313,-0.0215 -0.63086,-0.0215 -1.41422,0 -3.4929,-0.0547 -6.20117,-0.34766 -2.70828,-0.29292 -6.0473,-0.82307 -9.98242,-1.77343 -1.96757,-0.47518 -4.08404,-1.05579 -6.34571,-1.76367 -2.26167,-0.70789 -4.66746,-1.54315 -7.21484,-2.5293 -2.54738,-0.98615 -5.23586,-2.12361 -8.06055,-3.4336 -2.81799,-1.30687 -5.77374,-2.78842 -8.85937,-4.46289 z"
         style="color:#000000;clip-rule:nonzero;display:inline;overflow:visible;visibility:visible;opacity:1;isolation:auto;mix-blend-mode:normal;color-interpolation:sRGB;color-interpolation-filters:linearRGB;solid-color:#000000;solid-opacity:1;fill:#8dd8f8;fill-opacity:1;fill-rule:evenodd;stroke:none;stroke-width:1;stroke-linecap:butt;stroke-linejoin:miter;stroke-miterlimit:4;stroke-dasharray:none;stroke-dashoffset:0;stroke-opacity:1;marker:none;marker-start:none;marker-mid:none;marker-end:none;color-rendering:auto;image-rendering:auto;shape-rendering:auto;text-rendering:auto;enable-background:accumulate"
         inkscape:connector-curvature="0" /><path
         sodipodi:nodetypes="ccc"
         inkscape:connector-curvature="0"
         id="path5547"
         d="m 500.19883,634.37903 c 3.30698,11.24081 13.91037,9.80688 17.28353,1.8749 -6.47139,0.0234 -13.46531,-1.06915 -17.28353,-1.8749 z"
         style="color:#000000;clip-rule:nonzero;display:inline;overflow:visible;visibility:visible;opacity:1;isolation:auto;mix-blend-mode:normal;color-interpolation:sRGB;color-interpolation-filters:linearRGB;solid-color:#000000;solid-opacity:1;fill:#ffffff;fill-opacity:1;fill-rule:nonzero;stroke:none;stroke-width:2;stroke-linecap:round;stroke-linejoin:round;stroke-miterlimit:10;stroke-dasharray:none;stroke-dashoffset:0;stroke-opacity:1;marker:none;marker-start:none;marker-mid:none;marker-end:none;color-rendering:auto;image-rendering:auto;shape-rendering:auto;text-rendering:auto;enable-background:accumulate" /><ellipse
         transform="matrix(0.99463354,0.10346071,-0.10346071,0.99463354,0,0)"
         ry="1.1490486"
         rx="1.8561553"
         cy="583.87573"
         cx="570.39343"
         id="path5598"
         style="color:#000000;clip-rule:nonzero;display:inline;overflow:visible;visibility:visible;opacity:1;isolation:auto;mix-blend-mode:normal;color-interpolation:sRGB;color-interpolation-filters:linearRGB;solid-color:#000000;solid-opacity:1;fill:#0062b0;fill-opacity:1;fill-rule:evenodd;stroke:none;stroke-width:0.99999994;stroke-linecap:butt;stroke-linejoin:miter;stroke-miterlimit:4;stroke-dasharray:none;stroke-dashoffset:0;stroke-opacity:1;marker:none;marker-start:none;marker-mid:none;marker-end:none;color-rendering:auto;image-rendering:auto;shape-rendering:auto;text-rendering:auto;enable-background:accumulate" /></g></g></svg>