<svg xmlns="http://www.w3.org/2000/svg" width="7412" height="1088" fill="none" viewBox="0 0 7412 1088"><path fill="#c3fae8" d="M1450.19 534.98a2.66 2.66 0 1 0 .001-5.319 2.66 2.66 0 0 0-.001 5.319M1457.15 674.63a2.66 2.66 0 1 0 .001-5.319 2.66 2.66 0 0 0-.001 5.319M5575.42 773.22a2.66 2.66 0 1 0 .001-5.319 2.66 2.66 0 0 0-.001 5.319M4896.77 631.33a2.66 2.66 0 1 0 .001-5.319 2.66 2.66 0 0 0-.001 5.319M4410.58 567.97a2.66 2.66 0 1 0 .001-5.319 2.66 2.66 0 0 0-.001 5.319M4752.97 471.25a2.66 2.66 0 1 0 .001-5.319 2.66 2.66 0 0 0-.001 5.319M5024.2 186.35a2.66 2.66 0 1 0 .001-5.319 2.66 2.66 0 0 0-.001 5.319M5952.38 138.41a2.66 2.66 0 1 0 .001-5.319 2.66 2.66 0 0 0-.001 5.319M5407.57 112.83a2.66 2.66 0 1 0 .001-5.319 2.66 2.66 0 0 0-.001 5.319M5675.85 327.17a2.66 2.66 0 1 0 .001-5.319 2.66 2.66 0 0 0-.001 5.319M6312.62 302.78a2.66 2.66 0 1 0 .001-5.319 2.66 2.66 0 0 0-.001 5.319M6389.74 253.66a2.66 2.66 0 1 0 .001-5.319 2.66 2.66 0 0 0-.001 5.319M6936.64 88.4a2.66 2.66 0 1 0 .001-5.319 2.66 2.66 0 0 0-.001 5.319M4755.63 245.19a2.66 2.66 0 1 0 .001-5.319 2.66 2.66 0 0 0-.001 5.319M4632.34 103.55a2.66 2.66 0 1 0 .001-5.319 2.66 2.66 0 0 0-.001 5.319M5508.35 577.66a2.66 2.66 0 1 0 .001-5.319 2.66 2.66 0 0 0-.001 5.319M4944.5 565.25a2.66 2.66 0 1 0 .001-5.319 2.66 2.66 0 0 0-.001 5.319M4989.02 737.46a2.66 2.66 0 1 0 .001-5.319 2.66 2.66 0 0 0-.001 5.319M1516.77 262.12a2.66 2.66 0 1 0 .001-5.319 2.66 2.66 0 0 0-.001 5.319M7238.03 498.36a2.66 2.66 0 1 0 .001-5.319 2.66 2.66 0 0 0-.001 5.319M6272.22 527.14a2.66 2.66 0 1 0 .001-5.319 2.66 2.66 0 0 0-.001 5.319M6156.55 689.75a2.66 2.66 0 1 0 .001-5.319 2.66 2.66 0 0 0-.001 5.319M5830.15 753.4a2.66 2.66 0 1 0 .001-5.319 2.66 2.66 0 0 0-.001 5.319M5677.58 848.19a2.66 2.66 0 1 0 .001-5.319 2.66 2.66 0 0 0-.001 5.319"/><path fill="#c3fae8" d="M4896.77 631.33a2.66 2.66 0 1 0 .001-5.319 2.66 2.66 0 0 0-.001 5.319M6391.02 338.07a2.66 2.66 0 1 0 .001-5.319 2.66 2.66 0 0 0-.001 5.319M6049.29 212.46a2.66 2.66 0 1 0 .001-5.319 2.66 2.66 0 0 0-.001 5.319M5991.35 320.46a2.66 2.66 0 1 0 .001-5.319 2.66 2.66 0 0 0-.001 5.319M7310.07 600.57a2.66 2.66 0 1 0 .001-5.319 2.66 2.66 0 0 0-.001 5.319M7353.37 560.2a2.66 2.66 0 1 0 .001-5.319 2.66 2.66 0 0 0-.001 5.319M6752.59 613.96a2.66 2.66 0 1 0 .001-5.319 2.66 2.66 0 0 0-.001 5.319M6309.23 695.07a2.66 2.66 0 1 0 .001-5.319 2.66 2.66 0 0 0-.001 5.319M5425.77 412.75a2.66 2.66 0 1 0 .001-5.319 2.66 2.66 0 0 0-.001 5.319M5251.57 395.22a2.66 2.66 0 1 0 .001-5.319 2.66 2.66 0 0 0-.001 5.319M5114.68 429.31a2.66 2.66 0 1 0 .001-5.319 2.66 2.66 0 0 0-.001 5.319M1567.97 568.77a2.66 2.66 0 1 0 .001-5.319 2.66 2.66 0 0 0-.001 5.319M6966.43 516.3a2.66 2.66 0 1 0 .001-5.319 2.66 2.66 0 0 0-.001 5.319M7257.03 199.78a2.66 2.66 0 1 0 .001-5.319 2.66 2.66 0 0 0-.001 5.319M6807.53 204.95a2.66 2.66 0 1 0 .001-5.319 2.66 2.66 0 0 0-.001 5.319M5851.77 351.04a2.66 2.66 0 1 0 .001-5.319 2.66 2.66 0 0 0-.001 5.319M5247.95 632.6a2.66 2.66 0 1 0 .001-5.319 2.66 2.66 0 0 0-.001 5.319M1525.19 571.43a2.66 2.66 0 1 0 .001-5.319 2.66 2.66 0 0 0-.001 5.319M5768.93 346.76a2.66 2.66 0 1 0 .001-5.319 2.66 2.66 0 0 0-.001 5.319M1516.68 653.47a2.66 2.66 0 1 0 .001-5.319 2.66 2.66 0 0 0-.001 5.319M1491.44 596.49a2.66 2.66 0 1 0 .001-5.319 2.66 2.66 0 0 0-.001 5.319M1542.51 404.08a2.66 2.66 0 1 0 .001-5.319 2.66 2.66 0 0 0-.001 5.319M1527.96 177.96a2.66 2.66 0 1 0 .001-5.319 2.66 2.66 0 0 0-.001 5.319M1468.12 582.08a2.66 2.66 0 1 0 .001-5.319 2.66 2.66 0 0 0-.001 5.319M1584.19 668.59a2.66 2.66 0 1 0 .001-5.319 2.66 2.66 0 0 0-.001 5.319M1567.57 253.78a2.66 2.66 0 1 0 .001-5.319 2.66 2.66 0 0 0-.001 5.319M1610.02 161.01a2.66 2.66 0 1 0 .001-5.319 2.66 2.66 0 0 0-.001 5.319M6521.63 850.85a2.66 2.66 0 1 0 .001-5.319 2.66 2.66 0 0 0-.001 5.319M794.37 806.61a2.66 2.66 0 1 0 0-5.32 2.66 2.66 0 0 0 0 5.32M243.15 219.74a2.66 2.66 0 1 0 0-5.32 2.66 2.66 0 0 0 0 5.32M1084.95 100.5a2.66 2.66 0 1 0 .001-5.319 2.66 2.66 0 0 0-.001 5.319M626.51 146.21a2.66 2.66 0 1 0 0-5.32 2.66 2.66 0 0 0 0 5.32M904.16 131.77a2.66 2.66 0 1 0 0-5.32 2.66 2.66 0 0 0 0 5.32M727.29 611.05a2.66 2.66 0 1 0 0-5.32 2.66 2.66 0 0 0 0 5.32M163.44 598.64a2.66 2.66 0 1 0 0-5.32 2.66 2.66 0 0 0 0 5.32M296.03 777.75a2.66 2.66 0 1 0 0-5.32 2.66 2.66 0 0 0 0 5.32M1194.49 665.16a2.66 2.66 0 1 0 .001-5.319 2.66 2.66 0 0 0-.001 5.319M727.29 917.05a2.66 2.66 0 1 0 0-5.32 2.66 2.66 0 0 0 0 5.32M1181.86 174.55a2.66 2.66 0 1 0 .001-5.319 2.66 2.66 0 0 0-.001 5.319M1123.92 282.55a2.66 2.66 0 1 0 .001-5.319 2.66 2.66 0 0 0-.001 5.319M716.94 415.52a2.66 2.66 0 1 0 0-5.32 2.66 2.66 0 0 0 0 5.32M472.23 393.02a2.66 2.66 0 1 0 0-5.32 2.66 2.66 0 0 0 0 5.32M333.62 462.69a2.66 2.66 0 1 0 0-5.32 2.66 2.66 0 0 0 0 5.32M1019.85 306.18a2.66 2.66 0 1 0 .001-5.319 2.66 2.66 0 0 0-.001 5.319M466.9 665.99a2.66 2.66 0 1 0 0-5.32 2.66 2.66 0 0 0 0 5.32M901.5 308.84a2.66 2.66 0 1 0 0-5.32 2.66 2.66 0 0 0 0 5.32M5892.67 96.82l-.33-.21 4.29-6.53v-.02h.4v12.73h-.4v-12l-3.95 6.02zM5910.6 93.71l.65 1.37.02.11v2.22l-.02.08-.86 2.44-.05.08-1.51 1.78-.08.05-1.56.94-.13.03h-3.28l-.11-.03-1.72-.92-.1-.06-1.48-1.77-.03-.08-.92-2.44v-2.37l.97-2.39 1.48-1.69.08-.05 1.69-.97.14-.03 3.27-.02.13.05 1.59.96.05.06 1.23 1.53.38.75.18.38zm-.32.25-.18-.4-.59-1.02-1.02-1.26-1.55-.91h-3.09l-1.69.92-1.48 1.67-.89 2.23v2.17l.91 2.39 1.47 1.72 1.64.89h3.2l1.48-.86 1.5-1.75.86-2.42v-2.15l-.57-1.23zM5913.67 102.79v-1.19h.64v1.19zM5919.44 96.82l-.33-.21 4.29-6.53v-.02h.4v12.73h-.4v-12l-3.95 6.02zM5937.36 93.71l.65 1.37.02.11v2.22l-.02.08-.86 2.44-.05.08-1.51 1.78-.08.05-1.56.94-.13.03h-3.28l-.11-.03-1.72-.92-.1-.06-1.48-1.77-.03-.08-.92-2.44v-2.37l.97-2.39 1.48-1.69.08-.05 1.69-.97.14-.03 3.27-.02.13.05 1.59.96.05.06 1.23 1.53.38.75.17.38zm-.32.25-.18-.4-.59-1.02-1.02-1.26-1.55-.91h-3.09l-1.69.92-1.48 1.67-.89 2.23v2.17l.91 2.39 1.47 1.72 1.64.89h3.2l1.48-.86 1.5-1.75.86-2.42v-2.15l-.57-1.23zM5940.43 102.79v-1.19h.64v1.19zM5948.45 95.54v-.41h1.37l1.1-.75.37-.97v-1.24l-.53-.97-.88-.78h-1.74l-.84.64-.51.89v.86h-.38v-.86l.51-1 .03-.06 1-.8.14-.05h1.83l.14.05 1 .88.03.08.57 1.08v1.43l-.41 1.07-1.04.68.89.49.05.05.72.92.03.08.45 1.34.02.06v1.23l-.02.06-.45 1.29-.03.06-.76 1.12-.05.06-1.04.67-.14.05h-1.91l-.13-.05-.99-.59-.06-.06-.78-1.04-.03-.05-.45-1.16v-1.67h.41v1.64l.41 1.1.72.94.92.56h1.82l.99-.64.75-1.08v-.02l.41-1.19v-1.24l-.4-1.23-.02-.02-.7-.89-1.02-.56h-1.4zM5955.17 102.79l-.33-.21 2.64-4.41h-3.51v-.4l4.65-7.74.33.21-4.51 7.54h3.27l1.86-3.09.33.21-1.74 2.88h3.36v.4h-3.6l-2.77 4.62zM5963.95 102.79v-1.19h.64v1.19zM5971.96 95.54v-.41h1.37l1.1-.75.37-.97v-1.24l-.52-.97-.88-.78h-1.74l-.84.64-.51.89v.86h-.38v-.86l.51-1 .03-.06 1-.8.14-.05h1.83l.14.05 1 .88.03.08.57 1.08v1.43l-.41 1.07-1.04.68.89.49.05.05.72.92.03.08.45 1.34.02.06v1.23l-.02.06-.45 1.29-.03.06-.76 1.12-.05.06-1.04.67-.14.05h-1.91l-.13-.05-.99-.59-.06-.06-.78-1.04-.03-.05-.45-1.16v-1.67h.41v1.64l.41 1.1.72.94.92.56h1.82l.99-.64.75-1.08v-.02l.41-1.19v-1.24l-.4-1.23-.02-.02-.7-.89-1.02-.56h-1.4zM5978.68 102.79l-.33-.21 2.65-4.41h-3.51v-.4l4.65-7.74.33.21-4.51 7.54h3.27l1.86-3.09.33.21-1.74 2.88h3.36v.4h-3.6l-2.77 4.62zM1427.75 298.04l-.33-.21 4.29-6.53v-.02h.4v12.73h-.4v-12l-3.95 6.02zM1441.86 293.74l-.62-1.19-.02-.02-1.04-.88h-1.58l-1.02.85-.56 1.29v1.82l2.44-2.37.26.27-2.39 2.34h1.4l.14.05.88.61.05.05.76 1.05.03.06.51 1.55v1.34l-.51 1.61-.03.05-.76 1.11-.06.06-.88.59-.13.05h-1.67l-.14-.05-.81-.59-.05-.06-.76-1.11-.03-.06-.45-1.51-.02-.06v-1.39l.02-.06.45-1.43.03-.08.76-1.05.05-.05.51-.49v-2.28l.59-1.4.03-.06 1.23-.99h1.88l1.27 1.12.62 1.31.02.06v1.24h-.4v-1.3m-4.73 9.89h1.58l.81-.56.7-1.02.48-1.55v-1.29l-.48-1.45-.73-.99-.8-.56h-1.58l-.75.57-.76 1.02-.4 1.34v1.4l.41 1.42v.02l.75 1.08.76.56zM1444.03 304.01l-.37-.21 4.51-7.44h-2.49v-.4h2.72l2.6-4.3-7.42.02v-.4l7.9-.02v.4l-2.6 4.3h2.31v.4h-2.55l-4.62 7.65zM1453.89 304.01v-1.19h.64v1.19zM1459.01 303.61l4.73-7.71.33.21-4.6 7.5zm.33.21-.33-.21v.4h7.73v-.4h-7.26l-.13.21zm3.73-4.41h1l.14-.05.81-.61.05-.05.76-1.05.03-.08.45-1.43.02-.06v-1.39l-.02-.06-.45-1.51-.03-.06-.76-1.11-.05-.06-.81-.59-.14-.05h-1.67l-.13.05-.88.59-.06.06-.76 1.11-.03.05-.51 1.61v1.21h.41v-1.18l.48-1.55.7-1.02.81-.56h1.58l.76.56.75 1.08v.02l.41 1.42v1.4l-.4 1.32-.02.02-.75 1.02-.75.57h-.96v.38zM1471.22 296.76v-.41h1.37l1.1-.75.37-.97v-1.24l-.53-.97-.88-.78h-1.74l-.84.64-.51.89v.86h-.38v-.86l.51-1 .03-.06 1-.8.14-.05h1.83l.14.05 1 .88.03.08.57 1.08v1.43l-.41 1.07-1.04.68.89.49.05.05.72.92.03.08.45 1.34.02.06v1.23l-.02.06-.45 1.29-.03.06-.76 1.12-.05.06-1.04.67-.14.05h-1.91l-.13-.05-.99-.59-.06-.06-.78-1.04-.03-.05-.45-1.16v-1.67h.41v1.64l.41 1.1.72.94.92.56h1.82l.99-.64.75-1.08v-.02l.41-1.19v-1.24l-.4-1.23-.02-.02-.7-.89-1.02-.56h-1.4zM1479.65 296.76v-.41h1.37l1.1-.75.37-.97v-1.24l-.53-.97-.88-.78h-1.74l-.84.64-.51.89v.86h-.38v-.86l.51-1 .03-.06 1-.8.14-.05h1.83l.14.05 1 .88.03.08.57 1.08v1.43l-.41 1.07-1.04.68.89.49.05.05.72.92.03.08.45 1.34.02.06v1.23l-.02.06-.45 1.29-.03.06-.76 1.12-.05.06-1.04.67-.14.05h-1.91l-.13-.05-.99-.59-.06-.06-.78-1.04-.03-.05-.45-1.16v-1.67h.41v1.64l.41 1.1.72.94.92.56h1.82l.99-.64.75-1.08v-.02l.41-1.19v-1.24l-.4-1.23-.02-.02-.7-.89-1.02-.56h-1.4zM1486.31 304.01v-1.19h.64v1.19zM1492.08 298.04l-.33-.21 4.29-6.53v-.02h.4v12.73h-.4v-12l-3.95 6.02zM1500.33 304.01l-.33-.21 2.64-4.41h-3.51v-.4l4.65-7.74.33.21-4.51 7.54h3.27l1.86-3.09.33.21-1.74 2.88h3.36v.4h-3.6l-2.77 4.62zM1509.11 304.01v-1.19h.64v1.19zM1514.87 298.04l-.33-.21 4.29-6.53v-.02h.4v12.73h-.4v-12l-3.95 6.02zM1523.13 304.01l-.33-.21 2.64-4.41h-3.51v-.4l4.65-7.74.33.21-4.51 7.54h3.27l1.86-3.09.33.21-1.74 2.88h3.36v.4h-3.6l-2.77 4.62zM5379.02 372.9l-.33-.21 4.29-6.53v-.02h.4v12.73h-.4v-12l-3.95 6.02zM5386.07 374.26h.41v1.47l.48 1.18.7 1.02.81.56h1.58l.76-.56.75-1.08v-.02l.41-1.42v-1.4l-.4-1.32-.76-1.04-.75-.57h-2.36v-4.94h4.73v.4h-4.33v4.16h2.09l.92.7.76 1.05.03.08.46 1.5v1.39l-.02.06-.48 1.58-.81 1.18-.81.59-.15.05h-1.67l-.13-.05-.88-.59-.06-.06-.8-1.16-.51-1.24v-1.5zM5398.99 366.02l1.12.84.68 1.43v1.74l-.64 1.4-.03.06-.49.4-.03 4.48h.02l-.02.03v.02l-.62 1.35-.03.06-1.23.99h-1.88l-1.28-1.12-.62-1.31-.02-.06v-1.34h.4v1.35l.62 1.19.02.02 1.04.88h1.58l1.02-.84.6-1.29.03-4.09-.33.27h-1.88l-1.28-1.12-.62-1.31-.02-.06v-1.62l.02-.06.73-1.39.03-.06 1.16-.84.14-.05h1.67l.13.05zm.26 3.58h.4l-.02 1.77.14-.11.6-1.29v-1.64l-.65-1.29-.89-.69h-1.58l-1.05.73-.7 1.29v1.64l.62 1.19.02.02 1.04.88h1.58l.48-.4.02-2.1zM5403.38 378.88v-1.19h.64v1.19zM5408.49 378.48l4.73-7.71.33.21-4.6 7.5zm.33.2-.33-.21v.4h7.73v-.4h-7.26l-.13.21zm3.73-4.41h1l.14-.05.81-.61.05-.05.76-1.05.03-.08.45-1.43.02-.06v-1.39l-.02-.06-.45-1.51-.03-.06-.76-1.11-.05-.06-.81-.59-.14-.05h-1.67l-.13.05-.88.59-.06.06-.76 1.11-.03.05-.51 1.61v1.21h.42v-1.18l.48-1.55.7-1.02.81-.56h1.58l.76.56.75 1.08v.02l.41 1.42v1.4l-.4 1.32-.02.02-.75 1.02-.75.57h-.96v.38zM5417.81 374.26h.41v1.47l.48 1.18.7 1.02.81.56h1.58l.76-.56.75-1.08v-.02l.41-1.42v-1.4l-.4-1.32-.76-1.04-.75-.57h-2.36v-4.94h4.73v.4h-4.33v4.16h2.09l.92.7.76 1.05.03.08.46 1.5v1.39l-.02.06-.48 1.58-.81 1.18-.81.59-.14.05h-1.67l-.13-.05-.88-.59-.06-.06-.8-1.16-.51-1.24v-1.5zM5425.77 374.26h.41v1.47l.48 1.18.7 1.02.81.56h1.58l.76-.56.75-1.08v-.02l.41-1.42v-1.4l-.4-1.32-.76-1.04-.75-.57h-2.36v-4.94h4.73v.4h-4.33v4.16h2.09l.92.7.76 1.05.03.08.46 1.5v1.39l-.02.06-.48 1.58-.81 1.18-.81.59-.14.05h-1.67l-.13-.05-.88-.59-.06-.06-.8-1.16-.51-1.24v-1.5zM5434.87 378.88v-1.19h.64v1.19zM5439.98 378.48l4.73-7.71.33.21-4.6 7.5zm.34.2-.33-.21v.4h7.73v-.4h-7.26l-.13.21zm3.73-4.41h1l.14-.05.81-.61.05-.05.76-1.05.03-.08.45-1.43.02-.06v-1.39l-.02-.06-.45-1.51-.03-.06-.76-1.11-.05-.06-.81-.59-.14-.05h-1.67l-.13.05-.88.59-.06.06-.76 1.11-.03.05-.51 1.61v1.21h.41v-1.18l.48-1.55.7-1.02.81-.56h1.58l.76.56.75 1.08v.02l.41 1.42v1.4l-.4 1.32-.02.02-.75 1.02-.75.57h-.95v.38zM5456.36 368.6l-.62-1.19-.02-.02-1.03-.88h-1.58l-1.02.85-.56 1.29v1.82l2.44-2.37.25.27-2.39 2.34h1.4l.14.05.88.61.05.05.76 1.05.03.06.51 1.55v1.34l-.51 1.61-.03.05-.76 1.11-.06.06-.88.59-.13.05h-1.67l-.14-.05-.81-.59-.05-.06-.76-1.11-.03-.06-.45-1.51-.02-.06v-1.39l.02-.06.45-1.43.03-.08.76-1.05.05-.05.51-.49v-2.28l.59-1.4.03-.06 1.23-.99h1.88l1.27 1.12.62 1.31.02.06v1.24h-.4v-1.3m-4.73 9.89h1.58l.81-.56.7-1.02.48-1.55v-1.29l-.48-1.45-.73-.99-.8-.56h-1.58l-.75.57-.76 1.02-.4 1.34v1.4l.41 1.42v.02l.75 1.08.76.56zM5459.37 378.88v-1.19h.64v1.19zM5471.54 368.6l-.62-1.19-.02-.02-1.04-.88h-1.58l-1.02.85-.56 1.29v1.82l2.44-2.37.26.27-2.39 2.34h1.4l.14.05.88.61.05.05.76 1.05.03.06.51 1.55v1.34l-.51 1.61-.03.05-.76 1.11-.06.06-.88.59-.13.05h-1.67l-.14-.05-.81-.59-.05-.06-.76-1.11-.03-.06-.45-1.51-.02-.06v-1.39l.02-.06.45-1.43.03-.08.76-1.05.05-.05.51-.49v-2.28l.59-1.4.03-.06 1.23-.99h1.88l1.28 1.12.62 1.31.02.06v1.24h-.4v-1.26zm-4.73 9.89h1.58l.81-.56.7-1.02.48-1.55v-1.29l-.48-1.45-.73-.99-.8-.56h-1.58l-.75.57-.76 1.02-.4 1.34v1.4l.41 1.42v.02l.75 1.08.76.56zM5478.37 366.02l1.12.84.69 1.43v1.74l-.64 1.4-.03.06-.49.4-.03 4.48h.02l-.02.03v.02l-.62 1.35-.03.06-1.23.99h-1.88l-1.27-1.12-.62-1.31-.02-.06v-1.34h.4v1.35l.62 1.19.02.02 1.04.88h1.58l1.02-.84.61-1.29.03-4.09-.33.27h-1.88l-1.27-1.12-.62-1.31-.02-.06v-1.62l.02-.06.73-1.39.03-.06 1.16-.84.14-.05h1.67l.13.05zm.26 3.58h.4l-.02 1.77.14-.11.61-1.29v-1.64l-.65-1.29-.89-.69h-1.58l-1.05.73-.7 1.29v1.64l.62 1.19.02.02 1.04.88h1.58l.48-.4.02-2.1zM4603.57 138.94l-.33-.21 4.29-6.53v-.02h.4v12.73h-.4v-12l-3.95 6.02zM4621.49 135.84l.65 1.37.02.11v2.22l-.02.08-.86 2.44-.05.08-1.51 1.78-.08.05-1.56.94-.13.03h-3.28l-.11-.03-1.72-.92-.1-.06-1.48-1.77-.03-.08-.92-2.44v-2.37l.97-2.39 1.48-1.69.08-.05 1.69-.97.14-.03 3.27-.02.13.05 1.59.96.05.06 1.23 1.53.38.75.17.38zm-.31.25-.18-.4-.59-1.02-1.02-1.26-1.55-.91h-3.09l-1.69.92-1.48 1.67-.89 2.23v2.17l.91 2.39 1.47 1.72 1.64.89h3.2l1.48-.86 1.5-1.75.86-2.42v-2.15l-.57-1.23zM4624.57 144.92v-1.19h.64v1.19zM4630.33 138.94l-.33-.21 4.29-6.53v-.02h.4v12.73h-.4v-12l-3.95 6.02zM4648.26 135.84l.65 1.37.02.11v2.22l-.02.08-.86 2.44-.05.08-1.51 1.78-.08.05-1.56.94-.13.03h-3.28l-.11-.03-1.72-.92-.09-.06-1.48-1.77-.03-.08-.92-2.44v-2.37l.97-2.39 1.48-1.69.08-.05 1.69-.97.14-.03 3.27-.02.13.05 1.59.96.05.06 1.23 1.53.38.75.18.38zm-.32.25-.18-.4-.59-1.02-1.02-1.26-1.55-.91h-3.09l-1.69.92-1.48 1.67-.89 2.23v2.17l.91 2.39 1.47 1.72 1.64.89h3.2l1.48-.86 1.5-1.75.86-2.42v-2.15l-.57-1.23zM4651.33 144.92v-1.19h.64v1.19zM4659.34 137.67v-.41h1.37l1.1-.75.37-.97v-1.24l-.52-.97-.88-.78h-1.74l-.84.64-.51.89v.86h-.38v-.86l.51-1 .03-.06 1-.8.14-.05h1.83l.14.05 1 .88.03.08.57 1.08v1.43l-.41 1.07-1.04.68.89.49.05.05.72.92.03.08.45 1.34.02.06v1.23l-.02.06-.45 1.29-.03.06-.76 1.12-.05.06-1.04.67-.14.05h-1.91l-.13-.05-.99-.59-.06-.06-.78-1.04-.03-.05-.45-1.16v-1.67h.41v1.64l.41 1.1.72.94.92.56h1.82l.99-.64.75-1.08v-.02l.41-1.19v-1.24l-.4-1.23-.02-.02-.7-.89-1.02-.56h-1.4zM4666.07 144.92l-.33-.21 2.65-4.41h-3.51v-.4l4.65-7.74.33.21-4.51 7.54h3.27l1.86-3.09.33.21-1.74 2.88h3.36v.4h-3.6l-2.77 4.62zM4674.85 144.92v-1.19h.64v1.19zM4682.86 137.67v-.41h1.37l1.1-.75.37-.97v-1.24l-.52-.97-.88-.78h-1.74l-.84.64-.51.89v.86h-.38v-.86l.51-1 .03-.06 1-.8.14-.05h1.83l.14.05 1 .88.03.08.57 1.08v1.43l-.41 1.07-1.04.68.89.49.05.05.72.92.03.08.45 1.34.02.06v1.23l-.02.06-.45 1.29-.03.06-.76 1.12-.05.06-1.04.67-.14.05h-1.91l-.13-.05-.99-.59-.06-.06-.78-1.04-.03-.05-.45-1.16v-1.67h.41v1.64l.41 1.1.72.94.92.56h1.82l.99-.64.75-1.08v-.02l.41-1.19v-1.24l-.4-1.23-.02-.02-.7-.89-1.02-.56h-1.4zM4688.39 140.3h.41v1.47l.48 1.18.7 1.02.81.56h1.58l.76-.56.75-1.08v-.02l.41-1.42v-1.4l-.4-1.32-.76-1.04-.75-.57h-2.36v-4.94h4.73v.4h-4.33v4.16h2.09l.92.7.76 1.05.03.08.46 1.5v1.39l-.02.06-.48 1.58-.81 1.18-.81.59-.14.05h-1.67l-.13-.05-.88-.59-.06-.06-.8-1.16-.51-1.24v-1.5zM6893.46 118.42l-.33-.21 4.29-6.53v-.02h.4v12.73h-.4v-12l-3.95 6.02zM6906.12 112.56l.03.08.57 1.08v1.23l-.41 1.28-1.04.68.89.49.05.05.72.92.03.08.45 1.34.02.06v1.23l-.02.06-.45 1.29-.03.06-.76 1.12-.05.06-.92.67-.14.05h-2.02l-.13-.05-.99-.59-.06-.06-.78-1.24-.03-.05-.45-1.37v-1.29l.49-1.29.03-.08.72-.92.05-.05.99-.56-1.02-.67-.42-1.27v-1.29l.53-1.07.03-.06 1-.8.14-.05h1.83l.14.05 1 .88zm-5.11 7.6v.85l.41 1.31.72 1.15.92.56h1.93l.88-.64.75-1.08v-.02l.41-1.19v-1.24l-.4-1.23-.02-.02-.7-.89-1.02-.57h-1.74l-1.02.57-.7.89-.02.02-.41 1.18v.37zm4.95-4.18.37-1.18v-1.04l-.52-.97-.88-.78h-1.74l-.84.64-.51 1.04v1.07l.37 1.18 1.18.81h1.48l1.1-.76zM6914.71 112.56l.03.08.57 1.08v1.23l-.41 1.28-1.04.68.89.49.05.05.72.92.03.08.45 1.34.02.06v1.23l-.02.06-.45 1.29-.03.06-.76 1.12-.05.06-.92.67-.14.05h-2.02l-.13-.05-.99-.59-.06-.06-.78-1.24-.03-.05-.45-1.37v-1.29l.49-1.29.03-.08.72-.92.05-.05.99-.56-1.02-.67-.41-1.27v-1.29l.53-1.07.03-.06 1-.8.14-.05h1.83l.14.05zm-5.12 7.6v.85l.41 1.31.72 1.15.92.56h1.93l.88-.64.75-1.08v-.02l.41-1.19v-1.24l-.4-1.23-.02-.02-.7-.89-1.02-.57h-1.74l-1.02.57-.7.89-.02.02-.41 1.18v.37zm4.96-4.18.37-1.18v-1.04l-.53-.97-.88-.78h-1.74l-.84.64-.51 1.04v1.07l.37 1.18 1.18.81h1.48l1.1-.76zM6918.82 124.39v-1.19h.64v1.19zM6924.59 118.42l-.33-.21 4.29-6.53v-.02h.4v12.73h-.4v-12l-3.95 6.02zM6932.3 118.42l-.33-.21 4.29-6.53v-.02h.4v12.73h-.4v-12l-3.95 6.02zM6940.55 124.39l-.33-.21 2.64-4.41h-3.51v-.4l4.65-7.74.33.21-4.51 7.54h3.27l1.86-3.09.33.21-1.74 2.88h3.36v.4h-3.6l-2.77 4.62zM6949.33 124.39v-1.19h.64v1.19zM6959.39 111.54l1.12.84.68 1.43v1.74l-.64 1.4-.03.06-.49.4-.03 4.48h.02l-.02.03v.02l-.62 1.35-.03.06-1.23.99h-1.88l-1.28-1.12-.62-1.31-.02-.06v-1.34h.4v1.35l.62 1.19.02.02 1.04.88h1.58l1.02-.84.61-1.29.03-4.09-.33.27h-1.88l-1.28-1.12-.62-1.31-.02-.06v-1.62l.02-.06.73-1.39.03-.06 1.16-.84.14-.05h1.67zm.26 3.58h.4l-.02 1.77.14-.11.61-1.29v-1.64l-.65-1.29-.89-.69h-1.58l-1.05.73-.7 1.29v1.64l.62 1.19.02.02 1.04.88h1.58l.48-.4.02-2.1zM6962.93 124.39l-.37-.21 4.51-7.44h-2.49v-.4h2.72l2.6-4.3-7.42.02v-.4l7.9-.02v.4l-2.6 4.3h2.31v.4h-2.55l-4.62 7.65zM6972.79 124.39v-1.19h.64v1.19zM6977.9 119.78h.41v1.47l.48 1.18.7 1.02.81.56h1.58l.76-.56.75-1.08v-.02l.41-1.42v-1.4l-.4-1.32-.76-1.04-.75-.57h-2.36v-4.94h4.73v.4h-4.33v4.16h2.09l.92.7.76 1.05.03.08.46 1.5v1.39l-.02.06-.48 1.58-.81 1.18-.81.59-.14.05h-1.67l-.13-.05-.88-.59-.06-.06-.8-1.16-.51-1.24v-1.5zM6690.13 637.33l4.73-7.71.33.21-4.6 7.5zm.34.21-.33-.21v.4h7.73v-.4h-7.26l-.13.21zm3.73-4.41h1l.14-.05.81-.61.05-.05.76-1.05.03-.08.45-1.43.02-.06v-1.39l-.02-.06-.45-1.51-.03-.06-.76-1.11-.05-.06-.81-.59-.14-.05h-1.67l-.13.05-.88.59-.06.06-.76 1.11-.03.05-.51 1.61v1.21h.41v-1.18l.48-1.55.7-1.02.81-.56h1.58l.76.56.75 1.08v.02l.41 1.42v1.4l-.4 1.32-.02.02-.75 1.02-.75.57h-.95v.38zM6710.32 628.65l.65 1.37.02.11v2.22l-.02.08-.86 2.44-.05.08-1.51 1.78-.08.05-1.56.94-.13.03h-3.28l-.11-.03-1.72-.92-.1-.06-1.48-1.77-.03-.08-.92-2.44v-2.37l.97-2.39 1.48-1.69.08-.05 1.69-.97.14-.03 3.27-.02.13.05 1.59.96.05.06 1.23 1.53.38.75.18.38zm-.32.25-.18-.4-.59-1.02-1.02-1.26-1.55-.91h-3.09l-1.69.92-1.48 1.67-.89 2.23v2.17l.91 2.39 1.47 1.72 1.64.89h3.2l1.48-.86 1.5-1.75.86-2.42v-2.15l-.57-1.23zM6712.26 637.33l4.73-7.71.33.21-4.6 7.5zm.33.21-.33-.21v.4h7.73v-.4h-7.26l-.13.21zm3.73-4.41h1l.14-.05.81-.61.05-.05.76-1.05.03-.08.45-1.43.02-.06v-1.39l-.02-.06-.45-1.51-.03-.06-.76-1.11-.05-.06-.81-.59-.14-.05h-1.67l-.13.05-.88.59-.06.06-.76 1.11-.03.05-.51 1.61v1.21h.41v-1.18l.48-1.55.7-1.02.81-.56h1.58l.76.56.75 1.08v.02l.41 1.42v1.4l-.4 1.32-.02.02-.75 1.02-.75.57h-.95v.38zM6722.71 637.73v-1.19h.64v1.19zM6728.48 631.76l-.33-.21 4.29-6.53V625h.4v12.73h-.4v-12l-3.95 6.02zM6742.59 627.46l-.62-1.19-.02-.02-1.04-.88h-1.58l-1.02.85-.56 1.29v1.82l2.44-2.37.26.27-2.39 2.34h1.4l.14.05.88.61.05.05.76 1.05.03.06.51 1.55v1.34l-.51 1.61-.03.05-.76 1.11-.06.06-.88.59-.13.05h-1.67l-.14-.05-.81-.59-.05-.06-.76-1.11-.03-.06-.45-1.51-.02-.06v-1.39l.02-.06.45-1.43.03-.08.76-1.05.05-.05.51-.49v-2.28l.59-1.4.03-.06 1.23-.99h1.88l1.28 1.12.62 1.31.02.06v1.24h-.4v-1.26zm-4.73 9.89h1.58l.81-.56.7-1.02.48-1.55v-1.29l-.48-1.45-.73-.99-.8-.56h-1.58l-.75.57-.76 1.02-.4 1.34v1.4l.41 1.42v.02l.75 1.08.76.56zM6745.67 637.73l-.33-.21 2.65-4.41h-3.51v-.4l4.65-7.74.33.21-4.51 7.54h3.27l1.86-3.09.33.21-1.74 2.88h3.36v.4h-3.6l-2.77 4.62zM6754.44 637.73v-1.19h.64v1.19zM6759.56 633.11h.41v1.47l.48 1.18.7 1.02.81.56h1.58l.76-.56.75-1.08v-.02l.41-1.42v-1.4l-.4-1.32-.76-1.04-.75-.57h-2.36v-4.94h4.73v.4h-4.33v4.16h2.09l.92.7.76 1.05.03.08.46 1.5v1.39l-.02.06-.48 1.58-.81 1.18-.81.59-.15.05h-1.67l-.13-.05-.88-.59-.06-.06-.8-1.16-.51-1.24v-1.5zM6768.18 631.76l-.33-.21 4.29-6.53V625h.4v12.73h-.4v-12l-3.95 6.02zM6776.37 637.73v-1.19h.64v1.19zM6781.48 637.33l4.73-7.71.33.21-4.6 7.5zm.33.21-.33-.21v.4h7.73v-.4h-7.26l-.13.21zm3.73-4.41h1l.14-.05.81-.61.05-.05.76-1.05.03-.08.45-1.43.02-.06v-1.39l-.02-.06-.45-1.51-.03-.06-.76-1.11-.05-.06-.81-.59-.14-.05h-1.67l-.13.05-.88.59-.06.06-.76 1.11-.03.05-.51 1.61v1.21h.41v-1.18l.48-1.55.7-1.02.81-.56h1.58l.76.56.75 1.08v.02l.41 1.42v1.4l-.4 1.32-.02.02-.75 1.02-.75.57h-.95v.38zM6790.8 633.11h.41v1.47l.48 1.18.7 1.02.81.56h1.58l.76-.56.75-1.08v-.02l.41-1.42v-1.4l-.4-1.32-.76-1.04-.75-.57h-2.36v-4.94h4.73v.4h-4.33v4.16h2.09l.92.7.76 1.05.03.08.46 1.5v1.39l-.02.06-.48 1.58-.81 1.18-.81.59-.15.05h-1.67l-.13-.05-.88-.59-.06-.06-.8-1.16-.51-1.24v-1.5zM6288.42 375.64l4.73-7.71.33.21-4.6 7.5zm.34.21-.33-.21v.4h7.73v-.4h-7.26l-.13.21zm3.72-4.41h1l.14-.05.81-.61.05-.05.76-1.05.03-.08.45-1.43.02-.06v-1.39l-.02-.06-.45-1.51-.03-.06-.76-1.11-.05-.06-.81-.59-.14-.05h-1.67l-.13.05-.88.59-.06.06-.76 1.11-.03.05-.51 1.61v1.21h.42v-1.18l.48-1.55.7-1.02.81-.56h1.58l.76.56.75 1.08v.02l.41 1.42v1.4l-.4 1.32-.02.02-.75 1.02-.75.57h-.96v.38zM6308.61 366.96l.65 1.37.02.11v2.22l-.02.08-.86 2.44-.05.08-1.51 1.78-.08.05-1.56.94-.13.03h-3.28l-.11-.03-1.72-.92-.09-.06-1.48-1.77-.03-.08-.92-2.44v-2.37l.97-2.39 1.48-1.69.08-.05 1.69-.97.14-.03 3.27-.02.13.05 1.59.96.05.06 1.23 1.53.38.75.18.38zm-.32.25-.18-.4-.59-1.02-1.02-1.26-1.55-.91h-3.09l-1.69.92-1.48 1.67-.89 2.23v2.17l.91 2.39 1.47 1.72 1.64.89h3.2l1.48-.86 1.5-1.75.86-2.42v-2.15l-.57-1.23zM6310.55 375.64l4.73-7.71.33.21-4.6 7.5zm.33.21-.33-.21v.4h7.73v-.4h-7.26l-.13.21zm3.73-4.41h1l.14-.05.81-.61.05-.05.76-1.05.03-.08.45-1.43.02-.06v-1.39l-.02-.06-.45-1.51-.03-.06-.76-1.11-.05-.06-.81-.59-.14-.05h-1.67l-.13.05-.88.59-.06.06-.76 1.11-.03.05-.51 1.61v1.21h.42v-1.18l.48-1.55.7-1.02.81-.56h1.58l.76.56.75 1.08v.02l.41 1.42v1.4l-.4 1.32-.02.02-.75 1.02-.75.57h-.96v.38zM6321 376.04v-1.19h.64v1.19zM6331.72 364.2l.03.08.57 1.08v1.23l-.41 1.28-1.04.68.89.49.05.05.72.92.03.08.45 1.34.02.06v1.23l-.02.06-.45 1.29-.03.06-.76 1.12-.05.06-.92.67-.14.05h-2.02l-.13-.05-.99-.59-.06-.06-.78-1.24-.03-.05-.45-1.37v-1.29l.49-1.29.03-.08.72-.92.05-.05.99-.56-1.02-.67-.42-1.27v-1.29l.53-1.07.03-.06 1-.8.15-.05h1.83l.15.05 1 .88zm-5.11 7.6v.85l.41 1.31.72 1.15.92.56h1.93l.88-.64.75-1.08v-.02l.41-1.19v-1.24l-.4-1.23-.02-.02-.7-.89-1.02-.57h-1.74l-1.02.57-.7.89-.02.02-.41 1.18v.37zm4.95-4.17.37-1.18v-1.04l-.53-.97-.88-.78h-1.74l-.84.64-.51 1.04v1.07l.37 1.18 1.18.81h1.48l1.1-.76zM6339.65 363.18l1.12.84.69 1.43v1.74l-.64 1.4-.03.06-.49.4-.03 4.48h.02l-.02.03v.02l-.62 1.35-.03.06-1.23.99h-1.88l-1.27-1.12-.62-1.31-.02-.06v-1.34h.4v1.35l.62 1.19.02.02 1.04.88h1.58l1.02-.84.61-1.29.03-4.09-.33.27h-1.88l-1.27-1.12-.62-1.31-.02-.06v-1.62l.02-.06.73-1.39.03-.06 1.16-.84.14-.05h1.67l.13.05zm.26 3.59h.4l-.02 1.77.14-.11.61-1.29v-1.64l-.65-1.29-.89-.69h-1.58l-1.05.73-.7 1.29v1.64l.62 1.19.02.02 1.04.88h1.58l.48-.4.02-2.1zM6344.04 376.04v-1.19h.64v1.19zM6349.8 370.07l-.33-.21 4.29-6.53v-.02h.4v12.73h-.4v-12l-3.95 6.02zM6357.51 370.07l-.33-.21 4.29-6.53v-.02h.4v12.73h-.4v-12l-3.95 6.02zM6364.86 376.04l-.37-.21 4.51-7.44h-2.49v-.4h2.72l2.6-4.3-7.42.02v-.4l7.9-.02v.4l-2.6 4.3h2.31v.4h-2.55l-4.62 7.65zM6374.72 376.04v-1.19h.64v1.19zM6386.89 365.77l-.62-1.19-.02-.02-1.04-.88h-1.58l-1.02.85-.56 1.29v1.82l2.44-2.37.25.27-2.39 2.34h1.4l.14.05.88.61.05.05.76 1.05.03.06.51 1.55v1.34l-.51 1.61-.03.05-.76 1.11-.06.06-.88.59-.13.05h-1.67l-.14-.05-.81-.59-.05-.06-.76-1.11-.03-.06-.45-1.51-.02-.06v-1.39l.02-.06.45-1.43.03-.08.76-1.05.05-.05.51-.49v-2.28l.59-1.4.03-.06 1.23-.99h1.88l1.27 1.12.62 1.31.02.06v1.24h-.4v-1.26zm-4.73 9.89h1.58l.81-.56.7-1.02.48-1.55v-1.29l-.48-1.45-.73-.99-.8-.56h-1.58l-.75.57-.76 1.02-.4 1.34v1.4l.41 1.42v.02l.75 1.08.76.56zM6389.96 376.04l-.33-.21 2.64-4.41h-3.51v-.4l4.65-7.74.33.21-4.51 7.54h3.27l1.86-3.09.33.21-1.74 2.88h3.36v.4h-3.6l-2.77 4.62zM5200.19 681.1l-.33-.21 4.29-6.53v-.02h.4v12.73h-.4v-12l-3.95 6.02zM5218.12 677.99l.65 1.37.02.11v2.22l-.02.08-.86 2.44-.05.08-1.51 1.78-.08.05-1.56.94-.13.03h-3.28l-.11-.03-1.72-.92-.09-.06-1.48-1.77-.03-.08-.92-2.44v-2.37l.97-2.39 1.48-1.69.08-.05 1.69-.97.14-.03 3.27-.02.13.05 1.59.96.05.06 1.23 1.53.38.75.17.38zm-.32.25-.17-.4-.59-1.02-1.02-1.26-1.55-.91h-3.09l-1.69.92-1.48 1.67-.89 2.23v2.17l.91 2.39 1.47 1.72 1.64.89h3.2l1.48-.86 1.5-1.75.86-2.42v-2.15l-.57-1.23zM5221.19 687.07v-1.19h.64v1.19zM5226.96 681.1l-.33-.21 4.29-6.53v-.02h.4v12.73h-.4v-12l-3.95 6.02zM5244.88 677.99l.65 1.37.02.11v2.22l-.02.08-.86 2.44-.05.08-1.51 1.78-.08.05-1.56.94-.13.03h-3.28l-.11-.03-1.72-.92-.09-.06-1.48-1.77-.03-.08-.92-2.44v-2.37l.97-2.39 1.48-1.69.08-.05 1.69-.97.14-.03 3.27-.02.13.05 1.59.96.05.06 1.23 1.53.38.75.18.38zm-.32.25-.18-.4-.59-1.02-1.02-1.26-1.55-.91h-3.09l-1.69.92-1.48 1.67-.89 2.23v2.17l.91 2.39 1.47 1.72 1.64.89h3.2l1.48-.86 1.5-1.75.86-2.42v-2.15l-.57-1.23zM5247.95 687.07v-1.19h.64v1.19zM5255.97 679.82v-.41h1.37l1.1-.75.37-.97v-1.24l-.52-.97-.88-.78h-1.74l-.84.64-.51.89v.86h-.38v-.86l.51-1 .03-.06 1-.8.14-.05h1.83l.14.05 1 .88.03.08.57 1.08v1.43l-.41 1.07-1.04.68.89.49.05.05.72.92.03.08.45 1.34.02.06v1.23l-.02.06-.45 1.29-.03.06-.76 1.12-.05.06-1.04.67-.14.05h-1.91l-.13-.05-.99-.59-.06-.06-.78-1.04-.03-.05-.45-1.16v-1.67h.41v1.64l.41 1.1.72.94.92.56h1.82l.99-.64.75-1.08v-.02l.41-1.19v-1.24l-.4-1.23-.02-.02-.7-.89-1.02-.56h-1.4zM5262.69 687.07l-.33-.21 2.65-4.41h-3.51v-.4l4.65-7.74.33.21-4.51 7.54h3.27l1.86-3.09.33.21-1.74 2.88h3.36v.4h-3.6l-2.77 4.62zM5271.47 687.07v-1.19h.64v1.19zM5279.48 679.82v-.41h1.37l1.1-.75.37-.97v-1.24l-.53-.97-.88-.78h-1.74l-.84.64-.51.89v.86h-.38v-.86l.51-1 .03-.06 1-.8.14-.05h1.83l.14.05 1 .88.03.08.57 1.08v1.43l-.41 1.07-1.04.68.89.49.05.05.72.92.03.08.45 1.34.02.06v1.23l-.02.06-.45 1.29-.03.06-.76 1.12-.05.06-1.04.67-.14.05H5279l-.13-.05-.99-.59-.06-.06-.78-1.04-.03-.05-.45-1.16v-1.67h.41v1.64l.41 1.1.72.94.92.56h1.82l.99-.64.75-1.08v-.02l.41-1.19v-1.24l-.4-1.23-.02-.02-.7-.89-1.02-.56h-1.4zM5285.01 682.45h.41v1.47l.48 1.18.7 1.02.81.56h1.58l.76-.56.75-1.08v-.02l.41-1.42v-1.4l-.4-1.32-.76-1.04-.75-.57h-2.36v-4.94h4.73v.4h-4.33v4.16h2.09l.92.7.76 1.05.03.08.46 1.5v1.39l-.02.06-.48 1.58-.81 1.18-.81.59-.14.05h-1.67l-.13-.05-.88-.59-.06-.06-.8-1.16-.51-1.24v-1.5zM4746.1 514.43l4.73-7.71.33.21-4.6 7.5zm.33.21-.33-.21v.4h7.73v-.4h-7.26l-.13.21zm3.73-4.41h1l.14-.05.81-.61.05-.05.76-1.05.03-.08.45-1.43.02-.06v-1.39l-.02-.06-.45-1.51-.03-.06-.76-1.11-.05-.06-.81-.59-.14-.05h-1.67l-.13.05-.88.59-.06.06-.76 1.11-.03.05-.51 1.61v1.21h.42v-1.18l.48-1.55.7-1.02.81-.56h1.58l.76.56.75 1.08v.02l.41 1.42v1.4l-.4 1.32-.02.02-.75 1.02-.75.57h-.96v.38zM4756.07 508.86l-.33-.21 4.29-6.53v-.02h.4v12.73h-.4v-12l-3.95 6.02zM4763.42 514.83l-.37-.21 4.51-7.44h-2.48v-.4h2.72l2.6-4.3-7.42.02v-.4l7.9-.02v.4l-2.6 4.3h2.31v.4h-2.55zM4773.28 514.83v-1.19h.64v1.19zM4779.04 508.86l-.33-.21 4.29-6.53v-.02h.4v12.73h-.4v-12l-3.95 6.02zM4787.3 514.83l-.33-.21 2.65-4.41h-3.51v-.4l4.65-7.74.33.21-4.51 7.54h3.27l1.86-3.09.33.21-1.74 2.88h3.36v.4h-3.6l-2.77 4.62zM4800.55 503l.03.08.57 1.08v1.23l-.41 1.28-1.04.68.89.49.05.05.72.92.03.08.45 1.34.02.06v1.23l-.02.06-.45 1.29-.03.06-.76 1.12-.05.06-.92.67-.14.05h-2.02l-.13-.05-.99-.59-.06-.06-.78-1.24-.03-.05-.45-1.37v-1.29l.49-1.29.03-.08.72-.92.05-.05.99-.56-1.02-.67-.42-1.27v-1.29l.53-1.07.03-.06 1-.8.14-.05h1.83l.14.05 1 .88zm-5.11 7.59v.85l.41 1.31.72 1.15.92.56h1.93l.88-.64.75-1.08v-.02l.41-1.19v-1.24l-.4-1.23-.02-.02-.7-.89-1.02-.57h-1.74l-1.02.57-.7.89-.02.02-.41 1.18v.37zm4.95-4.17.37-1.18v-1.04l-.52-.97-.88-.78h-1.74l-.84.64-.51 1.04v1.07l.37 1.18 1.18.81h1.48l1.1-.76zM4804.66 514.83v-1.19h.64v1.19zM4809.77 510.21h.41v1.47l.48 1.18.7 1.02.81.56h1.58l.76-.56.75-1.08v-.02l.41-1.42v-1.4l-.4-1.32-.76-1.04-.75-.57h-2.36v-4.94h4.73v.4h-4.33v4.16h2.09l.92.7.76 1.05.03.08.46 1.5v1.39l-.02.06-.48 1.58-.81 1.18-.81.59-.14.05h-1.67l-.13-.05-.88-.59-.06-.06-.8-1.16-.51-1.24v-1.5zM4818.93 514.83l-.33-.21 2.65-4.41h-3.51v-.4l4.65-7.74.33.21-4.51 7.54h3.27l1.86-3.09.33.21-1.74 2.88h3.36v.4h-3.6l-2.77 4.62zM4827.71 514.83v-1.19h.64v1.19zM4833.48 508.86l-.33-.21 4.29-6.53v-.02h.4v12.73h-.4v-12l-3.95 6.02zM4840.82 514.83l-.37-.21 4.51-7.44h-2.48v-.4h2.72l2.6-4.3-7.42.02v-.4l7.9-.02v.4l-2.6 4.3h2.31v.4h-2.55zM4850.21 508.86l-.33-.21 4.29-6.53v-.02h.4v12.73h-.4v-12l-3.95 6.02zM6117.14 728.81l-.33-.21 4.29-6.53v-.02h.4v12.73h-.4v-12l-3.95 6.02zM6135.06 725.7l.65 1.37.02.11v2.22l-.02.08-.86 2.44-.05.08-1.51 1.78-.08.05-1.56.94-.13.03h-3.28l-.11-.03-1.72-.92-.1-.06-1.48-1.77-.03-.08-.92-2.44v-2.37l.97-2.39 1.48-1.69.08-.05 1.69-.97.14-.03 3.27-.02.13.05 1.59.96.05.06 1.23 1.53.38.75.18.38zm-.32.26-.18-.4-.59-1.02-1.02-1.26-1.55-.91h-3.09l-1.69.92-1.48 1.67-.89 2.23v2.17l.91 2.39 1.47 1.72 1.64.89h3.2l1.48-.86 1.5-1.75.86-2.42v-2.15l-.57-1.23zM6138.13 734.78v-1.19h.64v1.19zM6143.9 728.81l-.33-.21 4.29-6.53v-.02h.4v12.73h-.4v-12l-3.95 6.02zM6161.82 725.7l.65 1.37.02.11v2.22l-.02.08-.86 2.44-.05.08-1.51 1.78-.08.05-1.56.94-.13.03H6155l-.11-.03-1.72-.92-.1-.06-1.48-1.77-.03-.08-.92-2.44v-2.37l.97-2.39 1.48-1.69.08-.05 1.69-.97.14-.03 3.27-.02.13.05 1.59.96.05.06 1.23 1.53.38.75.17.38zm-.32.26-.18-.4-.59-1.02-1.02-1.26-1.55-.91h-3.09l-1.69.92-1.48 1.67-.89 2.23v2.17l.91 2.39 1.47 1.72 1.64.89h3.2l1.48-.86 1.5-1.75.86-2.42v-2.15l-.57-1.23zM6164.9 734.78v-1.19h.64v1.19zM6172.91 727.53v-.41h1.37l1.1-.75.37-.97v-1.24l-.53-.97-.88-.78h-1.74l-.84.64-.51.89v.86h-.38v-.86l.51-1 .03-.06 1-.8.14-.05h1.83l.14.05 1 .88.03.08.57 1.08v1.43l-.41 1.07-1.04.68.89.49.05.05.72.92.03.08.45 1.34.02.06v1.23l-.02.06-.45 1.29-.03.06-.76 1.12-.05.06-1.04.67-.14.05h-1.91l-.13-.05-.99-.59-.06-.06-.78-1.04-.03-.05-.45-1.16v-1.67h.41v1.64l.41 1.1.72.94.92.56h1.82l.99-.64.75-1.08v-.02l.41-1.19v-1.24l-.4-1.23-.02-.02-.7-.89-1.02-.56h-1.4zM6179.63 734.78l-.33-.21 2.64-4.41h-3.51v-.4l4.65-7.74.33.21-4.51 7.54h3.27l1.86-3.09.33.21-1.74 2.88h3.36v.4h-3.6l-2.77 4.62zM6188.41 734.78v-1.19h.64v1.19zM6196.42 727.53v-.41h1.37l1.1-.75.37-.97v-1.24l-.52-.97-.88-.78h-1.74l-.84.64-.51.89v.86h-.38v-.86l.51-1 .03-.06 1-.8.14-.05h1.83l.14.05 1 .88.03.08.57 1.08v1.43l-.41 1.07-1.04.68.89.49.05.05.72.92.03.08.45 1.34.02.06v1.23l-.02.06-.45 1.29-.03.06-.76 1.12-.05.06-1.04.67-.14.05h-1.91l-.13-.05-.99-.59-.06-.06-.78-1.04-.03-.05-.45-1.16v-1.67h.41v1.64l.41 1.1.72.94.92.56h1.82l.99-.64.75-1.08v-.02l.41-1.19v-1.24l-.4-1.23-.02-.02-.7-.89-1.02-.56h-1.4zM6201.95 730.16h.41v1.47l.48 1.18.7 1.02.81.56h1.58l.76-.56.75-1.08v-.02l.41-1.42v-1.4l-.4-1.32-.76-1.04-.75-.57h-2.36v-4.94h4.73v.4h-4.33v4.16h2.09l.92.7.76 1.05.03.08.46 1.5v1.39l-.02.06-.48 1.58-.81 1.18-.81.59-.14.05h-1.67l-.13-.05-.88-.59-.06-.06-.8-1.16-.51-1.24v-1.5zM6000.89 268.81l-.33-.21 4.29-6.53v-.02h.4v12.73h-.4v-12l-3.95 6.02zM6018.81 265.7l.65 1.37.02.11v2.22l-.02.08-.86 2.44-.05.08-1.51 1.78-.08.05-1.56.94-.13.03h-3.28l-.11-.03-1.72-.92-.1-.06-1.48-1.77-.03-.08-.92-2.44v-2.37l.97-2.39 1.48-1.69.08-.05 1.69-.97.14-.03 3.27-.02.13.05 1.59.96.05.06 1.23 1.53.38.75.18.38zm-.32.25-.18-.4-.59-1.02-1.02-1.26-1.55-.91h-3.09l-1.69.92-1.48 1.67-.89 2.23v2.17l.91 2.39 1.47 1.72 1.64.89h3.2l1.48-.86 1.5-1.75.86-2.42v-2.15l-.57-1.23zM6021.89 274.78v-1.19h.64v1.19zM6027.65 268.81l-.33-.21 4.29-6.53v-.02h.4v12.73h-.4v-12l-3.95 6.02zM6045.57 265.7l.65 1.37.02.11v2.22l-.02.08-.86 2.44-.05.08-1.51 1.78-.08.05-1.56.94-.13.03h-3.28l-.11-.03-1.72-.92-.1-.06-1.48-1.77-.03-.08-.92-2.44v-2.37l.97-2.39 1.48-1.69.08-.05 1.69-.97.14-.03 3.27-.02.13.05 1.59.96.05.06 1.23 1.53.38.75.17.38zm-.31.25-.18-.4-.59-1.02-1.02-1.26-1.55-.91h-3.09l-1.69.92-1.48 1.67-.89 2.23v2.17l.91 2.39 1.47 1.72 1.64.89h3.2l1.48-.86 1.5-1.75.86-2.42v-2.15l-.57-1.23zM6048.65 274.78v-1.19h.64v1.19zM6056.66 267.53v-.41h1.37l1.1-.75.37-.97v-1.24l-.53-.97-.88-.78h-1.74l-.84.64-.51.89v.86h-.38v-.86l.51-1 .03-.06 1-.8.14-.05h1.83l.14.05 1 .88.03.08.57 1.08v1.43l-.41 1.07-1.04.68.89.49.05.05.72.92.03.08.45 1.34.02.06v1.23l-.02.06-.45 1.29-.03.06-.76 1.12-.05.06-1.04.67-.14.05h-1.91l-.13-.05-.99-.59-.06-.06-.78-1.04-.03-.05-.45-1.16v-1.67h.41v1.64l.41 1.1.72.94.92.56h1.82l.99-.64.75-1.08v-.02l.41-1.19v-1.24l-.4-1.23-.02-.02-.7-.89-1.02-.56h-1.4zM6063.38 274.78l-.33-.21 2.64-4.41h-3.51v-.4l4.65-7.74.33.21-4.51 7.54h3.27l1.86-3.09.33.21-1.74 2.88h3.36v.4h-3.6l-2.77 4.62zM6072.16 274.78v-1.19h.64v1.19zM6080.18 267.53v-.41h1.37l1.1-.75.37-.97v-1.24l-.52-.97-.88-.78h-1.74l-.84.64-.51.89v.86h-.38v-.86l.51-1 .03-.06 1-.8.14-.05h1.83l.14.05 1 .88.03.08.57 1.08v1.43l-.41 1.07-1.04.68.89.49.05.05.72.92.03.08.45 1.34.02.06v1.23l-.02.06-.45 1.29-.03.06-.76 1.12-.05.06-1.04.67-.14.05h-1.91l-.13-.05-.99-.59-.06-.06-.78-1.04-.03-.05-.45-1.16v-1.67h.41v1.64l.41 1.1.72.94.92.56h1.82l.99-.64.75-1.08v-.02l.41-1.19v-1.24l-.4-1.23-.02-.02-.7-.89-1.02-.56h-1.4zM6085.7 270.16h.41v1.47l.48 1.18.7 1.02.81.56h1.58l.76-.56.75-1.08v-.02l.41-1.42v-1.4l-.4-1.32-.76-1.04-.75-.57h-2.36v-4.94h4.73v.4h-4.33v4.16h2.09l.92.7.76 1.05.03.08.46 1.5v1.39l-.02.06-.48 1.58-.81 1.18-.81.59-.14.05h-1.67l-.13-.05-.88-.59-.06-.06-.8-1.16-.51-1.24v-1.5zM1393.98 703.73v-.41h1.37l1.1-.75.37-.97v-1.24l-.53-.97-.88-.78h-1.74l-.84.64-.51.89v.86h-.38v-.86l.51-1 .03-.06 1-.8.14-.05h1.83l.14.05 1 .88.03.08.57 1.08v1.43l-.41 1.07-1.04.68.89.49.05.05.72.92.03.08.45 1.34.02.06v1.23l-.02.06-.45 1.29-.03.06-.76 1.12-.05.06-1.04.67-.14.05h-1.91l-.13-.05-.99-.59-.06-.06-.78-1.04-.03-.05-.45-1.16v-1.67h.41V708l.41 1.1.72.94.92.56h1.82l.99-.64.75-1.08v-.02l.41-1.19v-1.24l-.4-1.23-.02-.02-.7-.89-1.02-.56h-1.4zM1400.7 710.97l-.33-.21 2.64-4.41h-3.51v-.4l4.65-7.74.33.21-4.51 7.54h3.27l1.86-3.09.33.21-1.74 2.88h3.36v.4h-3.6l-2.77 4.62zM1409.48 710.97v-1.19h.64v1.19zM1414.59 706.36h.41v1.47l.48 1.18.7 1.02.81.56h1.58l.76-.56.75-1.08v-.02l.41-1.42v-1.4l-.4-1.32-.76-1.04-.75-.57h-2.36v-4.94h4.73v.4h-4.33v4.16h2.09l.92.7.76 1.05.03.08.46 1.5v1.39l-.02.06-.48 1.58-.81 1.18-.81.59-.14.05h-1.67l-.13-.05-.88-.59-.06-.06-.8-1.16-.51-1.24v-1.5zM1427.51 698.12l1.12.84.69 1.43v1.74l-.64 1.4-.03.06-.49.4-.03 4.48h.02l-.02.03v.02l-.62 1.35-.03.06-1.23.99h-1.88l-1.27-1.12-.62-1.31-.02-.06v-1.34h.4v1.35l.62 1.19.02.02 1.04.88h1.58l1.02-.84.61-1.29.03-4.09-.33.27h-1.88l-1.27-1.12-.62-1.31-.02-.06v-1.62l.02-.06.73-1.39.03-.06 1.16-.84.14-.05h1.67l.13.05zm.26 3.58h.4l-.02 1.77.14-.11.61-1.29v-1.64l-.65-1.29-.89-.69h-1.58l-1.05.73-.7 1.29v1.64l.62 1.19.02.02 1.04.88h1.58l.48-.4.02-2.1zM1431.89 710.97v-1.19h.64v1.19zM1437.01 706.36h.41v1.47l.48 1.18.7 1.02.81.56h1.58l.76-.56.75-1.08v-.02l.41-1.42v-1.4l-.4-1.32-.76-1.04-.75-.57h-2.36v-4.94h4.73v.4h-4.33v4.16h2.09l.92.7.76 1.05.03.08.46 1.5v1.39l-.02.06-.48 1.58-.81 1.18-.81.59-.14.05h-1.67l-.13-.05-.88-.59-.06-.06-.8-1.16-.51-1.24v-1.5zM1452.03 700.7l-.62-1.19-.02-.02-1.04-.88h-1.58l-1.02.85-.56 1.29v1.82l2.44-2.37.26.27-2.39 2.34h1.4l.14.05.88.61.05.05.76 1.05.03.06.51 1.55v1.34l-.51 1.61-.03.05-.76 1.11-.06.06-.88.59-.13.05h-1.67l-.14-.05-.81-.59-.05-.06-.76-1.11-.03-.06-.45-1.51-.02-.06v-1.39l.02-.06.45-1.43.03-.08.76-1.05.05-.05.51-.49v-2.28l.59-1.4.03-.06 1.23-.99h1.88l1.27 1.12.62 1.31.02.06V702h-.4v-1.3m-4.73 9.89h1.58l.81-.56.7-1.02.48-1.55v-1.29l-.48-1.45-.73-.99-.8-.56h-1.58l-.75.57-.76 1.02-.4 1.34v1.4l.41 1.42v.02l.75 1.08.76.56zM1455.04 710.97v-1.19h.64v1.19zM1471.02 701.89l.65 1.37.02.11v2.22l-.02.08-.86 2.44-.05.08-1.51 1.78-.08.05-1.56.94-.13.03h-3.28l-.11-.03-1.72-.92-.1-.06-1.48-1.77-.03-.08-.92-2.44v-2.37l.97-2.39 1.48-1.69.08-.05 1.69-.97.14-.03 3.27-.02.13.05 1.59.96.05.06 1.23 1.53.38.75.17.38zm-.32.26-.18-.4-.59-1.02-1.02-1.26-1.55-.91h-3.09l-1.69.92-1.48 1.67-.89 2.23v2.17l.91 2.39 1.47 1.72 1.64.89h3.2l1.48-.86 1.5-1.75.86-2.42v-2.15l-.57-1.23zM1473.25 710.97l-.37-.21 4.51-7.44h-2.49v-.4h2.72l2.6-4.3-7.42.02v-.4l7.9-.02v.4l-2.6 4.3h2.31v.4h-2.55l-4.62 7.65zM7207.09 169.14l-.33-.21 4.29-6.53v-.02h.4v12.73h-.4v-12l-3.95 6.02zM7214.15 170.49h.41v1.47l.48 1.18.7 1.02.81.56h1.58l.76-.56.75-1.08v-.02l.41-1.42v-1.4l-.4-1.32-.76-1.04-.75-.57h-2.36v-4.94h4.73v.4h-4.33v4.16h2.09l.92.7.76 1.05.03.08.46 1.5v1.39l-.02.06-.48 1.58-.81 1.18-.81.59-.14.05h-1.67l-.13-.05-.88-.59-.06-.06-.8-1.16-.51-1.24v-1.5zM7227.06 162.25l1.12.84.69 1.43v1.74l-.64 1.4-.03.06-.49.4-.03 4.48h.02l-.02.03v.02l-.62 1.35-.03.06-1.23.99h-1.88l-1.27-1.12-.62-1.31-.02-.06v-1.34h.4v1.35l.62 1.19.02.02 1.04.88h1.58l1.02-.84.61-1.29.03-4.09-.33.27h-1.88l-1.27-1.12-.62-1.31-.02-.06v-1.62l.02-.06.73-1.39.03-.06 1.16-.84.14-.05h1.67l.13.05zm.26 3.59h.4l-.02 1.77.14-.11.61-1.29v-1.64l-.65-1.29-.89-.69h-1.58l-1.05.73-.7 1.29v1.64l.62 1.19.02.02 1.04.88h1.58l.48-.4.02-2.1zM7231.45 175.11v-1.19h.64v1.19zM7236.56 174.71l4.73-7.71.33.21-4.6 7.5zm.33.21-.33-.21v.4h7.73v-.4h-7.26l-.13.21zm3.73-4.41h1l.14-.05.81-.61.05-.05.76-1.05.03-.08.45-1.43.02-.06v-1.39l-.02-.06-.45-1.51-.03-.06-.76-1.11-.05-.06-.81-.59-.14-.05h-1.67l-.13.05-.88.59-.06.06-.76 1.11-.03.05-.51 1.61v1.21h.42v-1.18l.48-1.55.7-1.02.81-.56h1.58l.76.56.75 1.08v.02l.41 1.42v1.4l-.4 1.32-.02.02-.75 1.02-.75.57h-.96v.38zM7245.88 170.49h.41v1.47l.48 1.18.7 1.02.81.56h1.58l.76-.56.75-1.08v-.02l.41-1.42v-1.4l-.4-1.32-.76-1.04-.75-.57h-2.36v-4.94h4.73v.4h-4.33v4.16h2.09l.92.7.76 1.05.03.08.46 1.5v1.39l-.02.06-.48 1.58-.81 1.18-.81.59-.14.05h-1.67l-.13-.05-.88-.59-.06-.06-.8-1.16-.51-1.24v-1.5zM7253.84 170.49h.41v1.47l.48 1.18.7 1.02.81.56h1.58l.76-.56.75-1.08v-.02l.41-1.42v-1.4l-.4-1.32-.76-1.04-.75-.57h-2.36v-4.94h4.73v.4h-4.33v4.16h2.09l.92.7.76 1.05.03.08.46 1.5v1.39l-.02.06-.48 1.58-.81 1.18-.81.59-.14.05h-1.67l-.13-.05-.88-.59-.06-.06-.8-1.16-.51-1.24v-1.5zM7262.94 175.11v-1.19h.64v1.19zM7268.05 174.71l4.73-7.71.33.21-4.6 7.5zm.34.21-.33-.21v.4h7.73v-.4h-7.26l-.13.21zm3.73-4.41h1l.14-.05.81-.61.05-.05.76-1.05.03-.08.45-1.43.02-.06v-1.39l-.02-.06-.45-1.51-.03-.06-.76-1.11-.05-.06-.81-.59-.14-.05h-1.67l-.13.05-.88.59-.06.06-.76 1.11-.03.05-.51 1.61v1.21h.41v-1.18l.48-1.55.7-1.02.81-.56h1.58l.76.56.75 1.08v.02l.41 1.42v1.4l-.4 1.32-.02.02-.75 1.02-.75.57h-.96v.38zM7284.43 164.83l-.62-1.19-.02-.02-1.04-.88h-1.58l-1.02.85-.56 1.29v1.82l2.44-2.37.26.27-2.39 2.34h1.4l.14.05.88.61.05.05.76 1.05.03.06.51 1.55v1.34l-.51 1.61-.03.05-.76 1.11-.06.06-.88.59-.13.05h-1.67l-.14-.05-.81-.59-.05-.06-.76-1.11-.03-.06-.45-1.51-.02-.06v-1.39l.02-.06.45-1.43.03-.08.76-1.05.05-.05.51-.49v-2.28l.59-1.4.03-.06 1.23-.99h1.88l1.27 1.12.62 1.31.02.06v1.24h-.4v-1.3m-4.73 9.9h1.58l.81-.56.7-1.02.48-1.55v-1.29l-.48-1.45-.73-.99-.8-.56h-1.58l-.75.57-.76 1.02-.4 1.34v1.4l.41 1.42v.02l.75 1.08.76.56zM7287.44 175.11v-1.19h.64v1.19zM7299.61 164.83l-.62-1.19-.02-.02-1.04-.88h-1.58l-1.02.85-.56 1.29v1.82l2.44-2.37.25.27-2.39 2.34h1.4l.14.05.88.61.05.05.76 1.05.03.06.51 1.55v1.34l-.51 1.61-.03.05-.76 1.11-.06.06-.88.59-.13.05h-1.67l-.14-.05-.81-.59-.05-.06-.76-1.11-.03-.06-.45-1.51-.02-.06v-1.39l.02-.06.45-1.43.03-.08.76-1.05.05-.05.51-.49v-2.28l.59-1.4.03-.06 1.23-.99h1.88l1.28 1.12.62 1.31.02.06v1.24h-.4v-1.3m-4.73 9.9h1.58l.81-.56.7-1.02.48-1.55v-1.29l-.48-1.45-.73-.99-.8-.56h-1.58l-.75.57-.76 1.02-.4 1.34v1.4l.41 1.42v.02l.75 1.08.76.56zM7306.45 162.25l1.12.84.69 1.43v1.74l-.64 1.4-.03.06-.49.4-.03 4.48h.02l-.02.03v.02l-.62 1.35-.03.06-1.23.99h-1.88l-1.27-1.12-.62-1.31-.02-.06v-1.34h.4v1.35l.62 1.19.02.02 1.04.88h1.58l1.02-.84.61-1.29.03-4.09-.33.27h-1.88l-1.27-1.12-.62-1.31-.02-.06v-1.62l.02-.06.73-1.39.03-.06 1.16-.84.14-.05h1.67l.13.05zm.25 3.59h.4l-.02 1.77.14-.11.61-1.29v-1.64l-.65-1.29-.89-.69h-1.58l-1.05.73-.7 1.29v1.64l.62 1.19.02.02 1.04.88h1.58l.48-.4.02-2.1zM5715.92 391.37v-.41h1.37l1.1-.75.37-.97V388l-.53-.97-.88-.78h-1.74l-.84.64-.51.89v.86h-.38v-.86l.51-1 .03-.06 1-.8.14-.05h1.83l.14.05 1 .88.03.08.57 1.08v1.43l-.41 1.07-1.04.68.89.49.05.05.72.92.03.08.45 1.34.02.06v1.23l-.02.06-.45 1.29-.03.06-.76 1.12-.05.06-1.04.67-.14.05h-1.91l-.13-.05-.99-.59-.06-.06-.78-1.04-.03-.05-.45-1.16V394h.41v1.64l.41 1.1.72.94.92.56h1.82l.99-.64.75-1.08v-.02l.41-1.19v-1.24l-.4-1.23-.02-.02-.7-.89-1.02-.56h-1.4zM5722.64 398.62l-.33-.21 2.64-4.41h-3.51v-.4l4.65-7.74.33.21-4.51 7.54h3.27l1.86-3.09.33.21-1.74 2.88h3.36v.4h-3.6l-2.77 4.62zM5731.42 398.62v-1.19h.64v1.19zM5736.53 394h.41v1.47l.48 1.18.7 1.02.81.56h1.58l.76-.56.75-1.08v-.02l.41-1.42v-1.4l-.4-1.32-.76-1.04-.75-.57h-2.36v-4.94h4.73v.4h-4.33v4.16h2.09l.92.7.76 1.05.03.08.46 1.5v1.39l-.02.06-.48 1.58-.81 1.18-.81.59-.14.05h-1.67l-.13-.05-.88-.59-.06-.06-.8-1.16-.51-1.24v-1.5zM5749.45 385.77l1.12.84.69 1.43v1.74l-.64 1.4-.03.06-.49.4-.03 4.48h.02l-.02.03v.02l-.62 1.35-.03.06-1.23.99h-1.88l-1.27-1.12-.62-1.31-.02-.06v-1.34h.4v1.35l.62 1.19.02.02 1.04.88h1.58l1.02-.84.61-1.29.03-4.09-.33.27h-1.88l-1.27-1.12-.62-1.31-.02-.06v-1.62l.02-.06.73-1.39.03-.06 1.16-.84.14-.05h1.67l.13.05zm.25 3.58h.4l-.02 1.77.14-.11.61-1.29v-1.64l-.65-1.29-.89-.69h-1.58l-1.05.73-.7 1.29v1.64l.62 1.19.02.02 1.04.88h1.58l.48-.4.02-2.1zM5753.83 398.62v-1.19h.64v1.19zM5758.94 394h.41v1.47l.48 1.18.7 1.02.81.56h1.58l.76-.56.75-1.08v-.02l.41-1.42v-1.4l-.4-1.32-.76-1.04-.75-.57h-2.36v-4.94h4.73v.4h-4.33v4.16h2.09l.92.7.76 1.05.03.08.46 1.5v1.39l-.02.06-.48 1.58-.81 1.18-.81.59-.14.05h-1.67l-.13-.05-.88-.59-.06-.06-.8-1.16-.51-1.24v-1.5zM5773.97 388.35l-.62-1.19-.02-.02-1.04-.88h-1.58l-1.02.85-.56 1.29v1.82l2.44-2.37.26.27-2.39 2.34h1.4l.14.05.88.61.05.05.76 1.05.03.06.51 1.55v1.34l-.51 1.61-.03.05-.76 1.11-.06.06-.88.59-.13.05h-1.67l-.14-.05-.81-.59-.05-.06-.76-1.11-.03-.06-.45-1.51-.02-.06v-1.39l.02-.06.45-1.43.03-.08.76-1.05.05-.05.51-.49v-2.28l.59-1.4.03-.06 1.23-.99h1.88l1.28 1.12.62 1.31.02.06v1.24h-.4v-1.26zm-4.73 9.89h1.58l.81-.56.7-1.02.48-1.55v-1.29l-.48-1.45-.73-.99-.8-.56h-1.58l-.75.57-.76 1.02-.4 1.34v1.4l.41 1.42v.02l.75 1.08.76.56zM5776.98 398.62v-1.19h.64v1.19zM5792.96 389.54l.65 1.37.02.11v2.22l-.02.08-.86 2.44-.05.08-1.51 1.78-.08.05-1.56.94-.13.03h-3.28l-.11-.03-1.72-.92-.1-.06-1.48-1.77-.03-.08-.92-2.44v-2.37l.97-2.39 1.48-1.69.08-.05 1.69-.97.14-.03 3.27-.02.13.05 1.59.96.05.06 1.23 1.53.38.75.17.38zm-.32.26-.18-.4-.59-1.02-1.02-1.26-1.55-.91h-3.09l-1.69.92-1.48 1.67-.89 2.23v2.17l.91 2.39 1.47 1.72 1.64.89h3.2l1.48-.86 1.5-1.75.86-2.42v-2.15l-.57-1.23zM5795.19 398.62l-.37-.21 4.51-7.44h-2.49v-.4h2.72l2.6-4.3-7.42.02v-.4l7.9-.02v.4l-2.6 4.3h2.31v.4h-2.55l-4.62 7.65zM4750.65 279.53l-.33-.21 4.29-6.53v-.02h.4v12.73h-.4v-12l-3.95 6.02zM4763.31 273.67l.03.08.57 1.08v1.23l-.41 1.28-1.04.68.89.49.05.05.72.92.03.08.45 1.34.02.06v1.23l-.02.06-.45 1.29-.03.06-.76 1.12-.05.06-.92.67-.14.05h-2.02l-.13-.05-.99-.59-.06-.06-.78-1.24-.03-.05-.45-1.37v-1.29l.49-1.29.03-.08.72-.92.05-.05.99-.56-1.02-.67-.42-1.27v-1.29l.53-1.07.03-.06 1-.8.15-.05h1.83l.15.05 1 .88zm-5.11 7.6v.85l.41 1.31.72 1.15.92.56h1.93l.88-.64.75-1.08v-.02l.41-1.19v-1.24l-.4-1.23-.02-.02-.7-.89-1.02-.57h-1.74l-1.02.57-.7.89-.02.02-.41 1.18v.37zm4.95-4.18.37-1.18v-1.04l-.53-.97-.88-.78h-1.74l-.84.64-.51 1.04v1.07l.37 1.18 1.18.81h1.48l1.1-.76zM4771.9 273.67l.03.08.57 1.08v1.23l-.41 1.28-1.04.68.89.49.05.05.72.92.03.08.45 1.34.02.06v1.23l-.02.06-.45 1.29-.03.06-.76 1.12-.05.06-.92.67-.15.05h-2.02l-.13-.05-.99-.59-.06-.06-.78-1.24-.03-.05-.45-1.37v-1.29l.49-1.29.03-.08.72-.92.05-.05.99-.56-1.02-.67-.41-1.27v-1.29l.53-1.07.03-.06 1-.8.14-.05h1.83l.14.05 1 .88zm-5.11 7.6v.85l.41 1.31.72 1.15.92.56h1.93l.88-.64.75-1.08v-.02l.41-1.19v-1.24l-.4-1.23-.02-.02-.7-.89-1.02-.57h-1.74l-1.02.57-.7.89-.02.02-.41 1.18v.37zm4.95-4.18.37-1.18v-1.04l-.53-.97-.88-.78h-1.74l-.84.64-.51 1.04v1.07l.37 1.18 1.18.81h1.48l1.1-.76zM4776.01 285.5v-1.19h.64v1.19zM4781.78 279.53l-.33-.21 4.29-6.53v-.02h.4v12.73h-.4v-12l-3.95 6.02zM4789.49 279.53l-.33-.21 4.29-6.53v-.02h.4v12.73h-.4v-12l-3.95 6.02zM4797.74 285.5l-.33-.21 2.64-4.41h-3.51v-.4l4.65-7.74.33.21-4.51 7.54h3.27l1.86-3.09.33.21-1.74 2.88h3.36v.4h-3.6l-2.77 4.62zM4806.52 285.5v-1.19h.64v1.19zM4816.58 272.65l1.12.84.69 1.43v1.74l-.64 1.4-.03.06-.49.4-.03 4.48h.02l-.02.03v.02l-.62 1.35-.03.06-1.23.99h-1.88l-1.27-1.12-.62-1.31-.02-.06v-1.34h.4v1.35l.62 1.19.02.02 1.04.88h1.58l1.02-.84.61-1.29.03-4.09-.33.27h-1.88l-1.27-1.12-.62-1.31-.02-.06V275l.02-.06.73-1.39.03-.06 1.16-.84.14-.05h1.67l.13.05zm.26 3.58h.4l-.02 1.77.14-.11.61-1.29v-1.64l-.65-1.29-.89-.69h-1.58l-1.05.73-.7 1.29v1.64l.62 1.19.02.02 1.04.88h1.58l.48-.4.02-2.1zM4826.89 275.23l-.62-1.19-.02-.02-1.04-.88h-1.58l-1.02.85-.56 1.29v1.82l2.44-2.37.26.27-2.39 2.34h1.4l.14.05.88.61.05.05.76 1.05.03.06.51 1.55v1.34l-.51 1.61-.03.05-.76 1.11-.06.06-.88.59-.13.05h-1.67l-.14-.05-.81-.59-.05-.06-.76-1.11-.03-.06-.45-1.51-.02-.06v-1.39l.02-.06.45-1.43.03-.08.76-1.05.05-.05.51-.49v-2.28l.59-1.4.03-.06 1.23-.99h1.88l1.28 1.12.62 1.31.02.06v1.24h-.4v-1.26zm-4.73 9.89h1.58l.81-.56.7-1.02.48-1.55v-1.29l-.48-1.45-.73-.99-.8-.56h-1.58l-.75.57-.76 1.02-.4 1.34v1.4l.41 1.42v.02l.75 1.08.76.56zM4829.9 285.5v-1.19h.64v1.19zM4835.02 280.89h.41v1.47l.48 1.18.7 1.02.81.56h1.58l.76-.56.75-1.08v-.02l.41-1.42v-1.4l-.4-1.32-.76-1.04-.75-.57h-2.36v-4.94h4.73v.4h-4.33v4.16h2.09l.92.7.76 1.05.03.08.46 1.5v1.39l-.02.06-.48 1.58-.81 1.18-.81.59-.14.05h-1.67l-.13-.05-.88-.59-.06-.06-.8-1.16-.51-1.24v-1.5zM6766.78 239.04l-.33-.21 4.29-6.53v-.02h.4v12.73h-.4v-12l-3.95 6.02zM6778.8 232.16l1.12.84.68 1.43v1.74l-.64 1.4-.03.06-.49.4-.03 4.48h.02l-.02.03v.02l-.62 1.35-.03.06-1.23.99h-1.88l-1.28-1.12-.62-1.31-.02-.06v-1.34h.4v1.35l.62 1.19.02.02 1.04.88h1.58l1.02-.84.61-1.29.03-4.09-.33.27h-1.88l-1.28-1.12-.62-1.31-.02-.06v-1.62l.02-.06.73-1.39.03-.06 1.16-.84.14-.05h1.67zm.25 3.58h.4l-.02 1.77.14-.11.61-1.29v-1.64l-.65-1.29-.89-.69h-1.58l-1.05.73-.7 1.29v1.64l.62 1.19.02.02 1.04.88h1.58l.48-.4.02-2.1zM6782.04 240.39h.41v1.47l.48 1.18.7 1.02.81.56h1.58l.76-.56.75-1.08v-.02l.41-1.42v-1.4l-.4-1.32-.76-1.04-.75-.57h-2.36v-4.94h4.73v.4h-4.33v4.16h2.09l.92.7.76 1.05.03.08.46 1.5v1.39l-.02.06-.48 1.58-.81 1.18-.81.59-.14.05h-1.67l-.13-.05-.88-.59-.06-.06-.8-1.16-.51-1.24v-1.5zM6791.14 245.01v-1.19h.64v1.19zM6796.91 239.04l-.33-.21 4.29-6.53v-.02h.4v12.73h-.4v-12l-3.95 6.02zM6809.57 233.18l.03.08.57 1.08v1.23l-.41 1.28-1.04.68.89.49.05.05.72.92.03.08.45 1.34.02.06v1.23l-.02.06-.45 1.29-.03.06-.76 1.12-.05.06-.92.67-.14.05h-2.02l-.13-.05-.99-.59-.06-.06-.78-1.24-.03-.05-.45-1.37v-1.29l.49-1.29.03-.08.72-.92.05-.05.99-.56-1.02-.67-.41-1.27v-1.29l.53-1.07.03-.06 1-.8.14-.05h1.83l.14.05zm-5.11 7.6v.85l.41 1.31.72 1.15.92.56h1.93l.88-.64.75-1.08v-.02l.41-1.19v-1.24l-.4-1.23-.02-.02-.7-.89-1.02-.57h-1.74l-1.02.57-.7.89-.02.02-.41 1.18v.37zm4.95-4.18.37-1.18v-1.04l-.53-.97-.88-.78h-1.74l-.84.64-.51 1.04v1.07l.37 1.18 1.18.81h1.48l1.1-.76zM6812.84 245.01l-.37-.21 4.51-7.44h-2.48v-.4h2.72l2.6-4.3-7.42.02v-.4l7.9-.02v.4l-2.6 4.3h2.31v.4h-2.55zM6822.7 245.01v-1.19h.64v1.19zM6834.87 234.74l-.62-1.19-.02-.02-1.04-.88h-1.58l-1.02.85-.56 1.29v1.82l2.44-2.37.26.27-2.39 2.34h1.4l.14.05.88.61.05.05.76 1.05.03.06.51 1.55v1.34l-.51 1.61-.03.05-.76 1.11-.06.06-.88.59-.13.05h-1.67l-.14-.05-.81-.59-.05-.06-.76-1.11-.03-.06-.45-1.51-.02-.06v-1.39l.02-.06.45-1.43.03-.08.76-1.05.05-.05.51-.49v-2.28l.59-1.4.03-.06 1.23-.99h1.88l1.27 1.12.62 1.31.02.06v1.24h-.4v-1.3m-4.73 9.89h1.58l.81-.56.7-1.02.48-1.55v-1.29l-.48-1.45-.73-.99-.8-.56h-1.58l-.75.57-.76 1.02-.4 1.34v1.4l.41 1.42v.02l.75 1.08.76.56zM6837.88 245.01v-1.19h.64v1.19zM6845.89 237.77v-.41h1.37l1.1-.75.37-.97v-1.24l-.52-.97-.88-.78h-1.74l-.84.64-.51.89v.86h-.38v-.86l.51-1 .03-.06 1-.8.14-.05h1.83l.14.05 1 .88.03.08.57 1.08v1.43l-.41 1.07-1.04.68.89.49.05.05.72.92.03.08.45 1.34.02.06v1.23l-.02.06-.45 1.29-.03.06-.76 1.12-.05.06-1.04.67-.14.05h-1.91l-.13-.05-.99-.59-.06-.06-.78-1.04-.03-.05-.45-1.16v-1.67h.41v1.64l.41 1.1.72.94.92.56h1.82l.99-.64.75-1.08v-.02l.41-1.19v-1.24l-.4-1.23-.02-.02-.7-.89-1.02-.56h-1.4zM6854.32 237.77v-.41h1.37l1.1-.75.37-.97v-1.24l-.53-.97-.88-.78h-1.74l-.84.64-.51.89v.86h-.38v-.86l.51-1 .03-.06 1-.8.14-.05h1.83l.14.05 1 .88.03.08.57 1.08v1.43l-.41 1.07-1.04.68.89.49.05.05.72.92.03.08.45 1.34.02.06v1.23l-.02.06-.45 1.29-.03.06-.76 1.12-.05.06-1.04.67-.14.05h-1.91l-.13-.05-.99-.59-.06-.06-.78-1.04-.03-.05-.45-1.16v-1.67h.41v1.64l.41 1.1.72.94.92.56h1.82l.99-.64.75-1.08v-.02l.41-1.19v-1.24l-.4-1.23-.02-.02-.7-.89-1.02-.56h-1.4zM6954.66 560.41l-.33-.21 4.29-6.53v-.02h.4v12.73h-.4v-12l-3.95 6.02zM6961.72 561.77h.41v1.47l.48 1.18.7 1.02.81.56h1.58l.76-.56.75-1.08v-.02l.41-1.42v-1.4l-.4-1.32-.76-1.04-.75-.57h-2.36v-4.94h4.73v.4h-4.33v4.16h2.09l.92.7.76 1.05.03.08.46 1.5v1.39l-.02.06-.48 1.58-.81 1.18-.81.59-.15.05h-1.67l-.13-.05-.88-.59-.06-.06-.8-1.16-.51-1.24v-1.5zM6974.64 553.53l1.12.84.68 1.43v1.74l-.64 1.4-.03.06-.49.4-.03 4.48h.02l-.02.03v.02l-.62 1.35-.03.06-1.23.99h-1.88l-1.28-1.12-.62-1.31-.02-.06v-1.34h.4v1.35l.62 1.19.02.02 1.04.88h1.58l1.02-.84.6-1.29.03-4.09-.33.27h-1.88l-1.28-1.12-.62-1.31-.02-.06v-1.62l.02-.06.73-1.39.03-.06 1.16-.84.14-.05h1.67l.13.05zm.25 3.58h.4l-.02 1.77.14-.11.6-1.29v-1.64l-.65-1.29-.89-.69h-1.58l-1.05.73-.7 1.29v1.64l.62 1.19.02.02 1.04.88h1.58l.48-.4.02-2.1zM6979.02 566.39v-1.19h.64v1.19zM6984.13 565.99l4.73-7.71.33.21-4.6 7.5zm.34.21-.33-.21v.4h7.73v-.4h-7.26l-.13.21zm3.73-4.42h1l.14-.05.81-.61.05-.05.76-1.05.03-.08.45-1.43.02-.06v-1.39l-.02-.06-.45-1.51-.03-.06-.76-1.11-.05-.06-.81-.59-.14-.05h-1.67l-.13.05-.88.59-.06.06-.76 1.11-.03.05-.51 1.61v1.21h.42v-1.18l.48-1.55.7-1.02.81-.56h1.58l.76.56.75 1.08v.02l.41 1.42v1.4l-.4 1.32-.02.02-.75 1.02-.75.57h-.96v.38zM6993.45 561.77h.41v1.47l.48 1.18.7 1.02.81.56h1.58l.76-.56.75-1.08v-.02l.41-1.42v-1.4l-.4-1.32-.76-1.04-.75-.57h-2.36v-4.94h4.73v.4h-4.33v4.16h2.09l.92.7.76 1.05.03.08.46 1.5v1.39l-.02.06-.48 1.58-.81 1.18-.81.59-.14.05h-1.67l-.13-.05-.88-.59-.06-.06-.8-1.16-.51-1.24v-1.5zM7001.42 561.77h.41v1.47l.48 1.18.7 1.02.81.56h1.58l.76-.56.75-1.08v-.02l.41-1.42v-1.4l-.4-1.32-.76-1.04-.75-.57h-2.36v-4.94h4.73v.4h-4.33v4.16h2.09l.92.7.76 1.05.03.08.46 1.5v1.39l-.02.06-.48 1.58-.81 1.18-.81.59-.14.05h-1.67l-.13-.05-.88-.59-.06-.06-.8-1.16-.51-1.24v-1.5zM7010.52 566.39v-1.19h.64v1.19zM7015.63 565.99l4.73-7.71.33.21-4.6 7.5zm.33.21-.33-.21v.4h7.73v-.4h-7.26l-.13.21zm3.73-4.42h1l.14-.05.81-.61.05-.05.76-1.05.03-.08.45-1.43.02-.06v-1.39l-.02-.06-.45-1.51-.03-.06-.76-1.11-.05-.06-.81-.59-.14-.05h-1.67l-.13.05-.88.59-.06.06-.76 1.11-.03.05-.51 1.61v1.21h.41v-1.18l.48-1.55.7-1.02.81-.56h1.58l.76.56.75 1.08v.02l.41 1.42v1.4l-.4 1.32-.02.02-.75 1.02-.75.57h-.95v.38zM7032.01 556.11l-.62-1.19-.02-.02-1.03-.88h-1.58l-1.02.85-.56 1.29v1.82l2.44-2.37.25.27-2.39 2.34h1.4l.14.05.88.61.05.05.76 1.05.03.06.51 1.55v1.34l-.51 1.61-.03.05-.76 1.11-.06.06-.88.59-.13.05h-1.67l-.14-.05-.81-.59-.05-.06-.76-1.11-.03-.06-.45-1.51-.02-.06v-1.39l.02-.06.45-1.43.03-.08.76-1.05.05-.05.51-.49v-2.28l.59-1.4.03-.06 1.23-.99h1.88l1.27 1.12.62 1.31.02.06v1.24h-.4v-1.3m-4.74 9.89h1.58l.81-.56.7-1.02.48-1.55v-1.29l-.48-1.45-.73-.99-.8-.56h-1.58l-.75.57-.76 1.02-.4 1.34v1.4l.41 1.42v.02l.75 1.08.76.56zM7035.02 566.39v-1.19h.64v1.19zM7047.19 556.11l-.62-1.19-.02-.02-1.04-.88h-1.58l-1.02.85-.56 1.29v1.82l2.44-2.37.26.27-2.39 2.34h1.4l.14.05.88.61.05.05.76 1.05.03.06.51 1.55v1.34l-.51 1.61-.03.05-.76 1.11-.06.06-.88.59-.13.05h-1.67l-.14-.05-.81-.59-.05-.06-.76-1.11-.03-.06-.45-1.51-.02-.06v-1.39l.02-.06.45-1.43.03-.08.76-1.05.05-.05.51-.49v-2.28l.59-1.4.03-.06 1.23-.99h1.88l1.28 1.12.62 1.31.02.06v1.24h-.4v-1.26zm-4.74 9.89h1.58l.81-.56.7-1.02.48-1.55v-1.29l-.48-1.45-.73-.99-.8-.56h-1.58l-.75.57-.76 1.02-.4 1.34v1.4l.41 1.42v.02l.75 1.08.76.56zM7054.02 553.53l1.12.84.69 1.43v1.74l-.64 1.4-.03.06-.49.4-.03 4.48h.02l-.02.03v.02l-.62 1.35-.03.06-1.23.99h-1.88l-1.27-1.12-.62-1.31-.02-.06v-1.34h.4v1.35l.62 1.19.02.02 1.04.88h1.58l1.02-.84.61-1.29.03-4.09-.33.27h-1.88l-1.27-1.12-.62-1.31-.02-.06v-1.62l.02-.06.73-1.39.03-.06 1.16-.84.14-.05h1.67l.13.05zm.26 3.58h.4l-.02 1.77.14-.11.61-1.29v-1.64l-.65-1.29-.89-.69h-1.58l-1.05.73-.7 1.29v1.64l.62 1.19.02.02 1.04.88h1.58l.48-.4.02-2.1zM5621.73 892.75l-.33-.21 4.29-6.53v-.02h.4v12.73h-.4v-12l-3.95 6.02zM5628.79 894.1h.41v1.47l.48 1.18.7 1.02.81.56h1.58l.76-.56.75-1.08v-.02l.41-1.42v-1.4l-.4-1.32-.76-1.04-.75-.57h-2.36v-4.94h4.73v.4h-4.33v4.16h2.09l.92.7.76 1.05.03.08.46 1.5v1.39l-.02.06-.48 1.58-.81 1.18-.81.59-.15.05h-1.67l-.13-.05-.88-.59-.06-.06-.8-1.16-.51-1.24v-1.5zM5641.71 885.87l1.12.84.68 1.43v1.74l-.64 1.4-.03.06-.49.4-.03 4.48h.02l-.02.03v.02l-.62 1.35-.03.06-1.23.99h-1.88l-1.28-1.12-.62-1.31-.02-.06v-1.34h.4v1.35l.62 1.19.02.02 1.04.88h1.58l1.02-.84.6-1.29.03-4.09-.33.27h-1.88l-1.28-1.12-.62-1.31-.02-.06v-1.62l.02-.06.73-1.39.03-.06 1.16-.84.14-.05h1.67l.13.05zm.25 3.58h.4l-.02 1.77.14-.11.6-1.29v-1.64l-.65-1.29-.89-.69h-1.58l-1.05.73-.7 1.29v1.64l.62 1.19.02.02 1.04.88h1.58l.48-.4.02-2.1zM5646.09 898.72v-1.19h.64v1.19zM5651.2 898.32l4.73-7.71.33.21-4.6 7.5zm.34.21-.33-.21v.4h7.73v-.4h-7.26l-.13.21zm3.72-4.41h1l.14-.05.81-.61.05-.05.76-1.05.03-.08.45-1.43.02-.06v-1.39l-.02-.06-.45-1.51-.03-.06-.76-1.11-.05-.06-.81-.59-.14-.05h-1.67l-.13.05-.88.59-.06.06-.76 1.11-.03.05-.51 1.61v1.21h.42v-1.18l.48-1.55.7-1.02.81-.56h1.58l.76.56.75 1.08v.02l.41 1.42v1.4l-.4 1.32-.02.02-.75 1.02-.75.57h-.96v.38zM5660.52 894.1h.41v1.47l.48 1.18.7 1.02.81.56h1.58l.76-.56.75-1.08v-.02l.41-1.42v-1.4l-.4-1.32-.76-1.04-.75-.57h-2.36v-4.94h4.73v.4h-4.33v4.16h2.09l.92.7.76 1.05.03.08.46 1.5v1.39l-.02.06-.48 1.58-.81 1.18-.81.59-.14.05h-1.67l-.13-.05-.88-.59-.06-.06-.8-1.16-.51-1.24v-1.5zM5668.49 894.1h.41v1.47l.48 1.18.7 1.02.81.56h1.58l.76-.56.75-1.08v-.02l.41-1.42v-1.4l-.4-1.32-.76-1.04-.75-.57h-2.36v-4.94h4.73v.4h-4.33v4.16h2.09l.92.7.76 1.05.03.08.46 1.5v1.39l-.02.06-.48 1.58-.81 1.18-.81.59-.14.05h-1.67l-.13-.05-.88-.59-.06-.06-.8-1.16-.51-1.24v-1.5zM5677.58 898.72v-1.19h.64v1.19zM5682.7 898.32l4.73-7.71.33.21-4.6 7.5zm.33.21-.33-.21v.4h7.73v-.4h-7.26l-.13.21zm3.73-4.41h1l.14-.05.81-.61.05-.05.76-1.05.03-.08.45-1.43.02-.06v-1.39l-.02-.06-.45-1.51-.03-.06-.76-1.11-.05-.06-.81-.59-.14-.05h-1.67l-.13.05-.88.59-.06.06-.76 1.11-.03.05-.51 1.61v1.21h.41v-1.18l.48-1.55.7-1.02.81-.56h1.58l.76.56.75 1.08v.02l.41 1.42v1.4l-.4 1.32-.02.02-.75 1.02-.75.57h-.95v.38zM5699.07 888.45l-.62-1.19-.02-.02-1.03-.88h-1.58l-1.02.85-.56 1.29v1.82l2.44-2.37.25.27-2.39 2.34h1.4l.14.05.88.61.05.05.76 1.05.03.06.51 1.55v1.34l-.51 1.61-.03.05-.76 1.11-.06.06-.88.59-.13.05h-1.67l-.14-.05-.81-.59-.05-.06-.76-1.11-.03-.06-.45-1.51-.02-.06v-1.39l.02-.06.45-1.43.03-.08.76-1.05.05-.05.51-.49v-2.28l.59-1.4.03-.06 1.23-.99h1.88l1.27 1.12.62 1.31.02.06v1.24h-.4v-1.3m-4.73 9.89h1.58l.81-.56.7-1.02.48-1.55v-1.29l-.48-1.45-.73-.99-.8-.56h-1.58l-.75.57-.76 1.02-.4 1.34v1.4l.41 1.42v.02l.75 1.08.76.56zM5702.08 898.72v-1.19h.64v1.19zM5714.25 888.45l-.62-1.19-.02-.02-1.04-.88h-1.58l-1.02.85-.56 1.29v1.82l2.44-2.37.26.27-2.39 2.34h1.4l.14.05.88.61.05.05.76 1.05.03.06.51 1.55v1.34l-.51 1.61-.03.05-.76 1.11-.06.06-.88.59-.13.05h-1.67l-.14-.05-.81-.59-.05-.06-.76-1.11-.03-.06-.45-1.51-.02-.06v-1.39l.02-.06.45-1.43.03-.08.76-1.05.05-.05.51-.49v-2.28l.59-1.4.03-.06 1.23-.99h1.88l1.28 1.12.62 1.31.02.06v1.24h-.4v-1.26zm-4.73 9.89h1.58l.81-.56.7-1.02.48-1.55v-1.29l-.48-1.45-.73-.99-.8-.56h-1.58l-.75.57-.76 1.02-.4 1.34v1.4l.41 1.42v.02l.75 1.08.76.56zM5721.09 885.87l1.12.84.69 1.43v1.74l-.64 1.4-.03.06-.49.4-.03 4.48h.02l-.02.03v.02l-.62 1.35-.03.06-1.23.99h-1.88l-1.27-1.12-.62-1.31-.02-.06v-1.34h.4v1.35l.62 1.19.02.02 1.04.88h1.58l1.02-.84.61-1.29.03-4.09-.33.27h-1.88l-1.27-1.12-.62-1.31-.02-.06v-1.62l.02-.06.73-1.39.03-.06 1.16-.84.14-.05h1.67l.13.05zm.25 3.58h.4l-.02 1.77.14-.11.61-1.29v-1.64l-.65-1.29-.89-.69h-1.58l-1.05.73-.7 1.29v1.64l.62 1.19.02.02 1.04.88h1.58l.48-.4.02-2.1zM6272.81 663.8l4.73-7.71.33.21-4.6 7.5zm.34.2-.33-.21v.4h7.73v-.4h-7.27zm3.72-4.41h1l.14-.05.81-.61.05-.05.76-1.05.03-.08.45-1.43.02-.06v-1.39l-.02-.06-.45-1.51-.03-.06-.76-1.11-.05-.06-.81-.59-.14-.05h-1.67l-.13.05-.88.59-.06.06-.76 1.11-.03.05-.51 1.61v1.21h.42v-1.18l.48-1.55.7-1.02.81-.56h1.58l.76.56.75 1.08v.02l.41 1.42v1.4l-.4 1.32-.02.02-.75 1.02-.75.57h-.96v.38zM6282.79 658.22l-.33-.21 4.29-6.53v-.02h.4v12.73h-.4v-12l-3.95 6.02zM6290.13 664.19l-.37-.21 4.51-7.44h-2.48v-.4h2.72l2.6-4.3-7.42.02v-.4l7.9-.02v.4l-2.6 4.3h2.31v.4h-2.55zM6299.99 664.19V663h.64v1.19zM6305.76 658.22l-.33-.21 4.29-6.53v-.02h.4v12.73h-.4v-12l-3.95 6.02zM6314.01 664.19l-.33-.21 2.65-4.41h-3.51v-.4l4.65-7.74.33.21-4.51 7.54h3.27l1.86-3.09.33.21-1.74 2.88h3.36v.4h-3.6l-2.77 4.62zM6327.26 652.36l.03.08.57 1.08v1.23l-.41 1.28-1.04.68.89.49.05.05.72.92.03.08.45 1.34.02.06v1.23l-.02.06-.45 1.29-.03.06-.76 1.12-.05.06-.92.67-.14.05h-2.02l-.13-.05-.99-.59-.06-.06-.78-1.24-.03-.05-.45-1.37v-1.29l.49-1.29.03-.08.72-.92.05-.05.99-.56-1.02-.67-.41-1.27v-1.29l.52-1.07.03-.06 1-.8.14-.05h1.83l.14.05 1 .88zm-5.11 7.6v.85l.41 1.31.72 1.15.92.56h1.93l.88-.64.75-1.08v-.02l.41-1.19v-1.24l-.4-1.23-.02-.02-.7-.89-1.02-.57h-1.74l-1.02.57-.7.89-.02.02-.41 1.18v.37zm4.95-4.18.37-1.18v-1.04l-.52-.97-.88-.78h-1.74l-.84.64-.51 1.04v1.07l.37 1.18 1.18.81h1.48l1.1-.76zM6331.37 664.19V663h.64v1.19zM6336.49 659.58h.41v1.47l.48 1.18.7 1.02.81.56h1.58l.76-.56.75-1.08v-.02l.41-1.42v-1.4l-.4-1.32-.76-1.04-.75-.57h-2.36v-4.94h4.73v.4h-4.33v4.16h2.09l.92.7.76 1.05.03.08.46 1.5v1.39l-.02.06-.48 1.58-.81 1.18-.81.59-.15.05h-1.67l-.13-.05-.88-.59-.06-.06-.8-1.16-.51-1.24v-1.5zM6345.65 664.19l-.33-.21 2.64-4.41h-3.51v-.4l4.65-7.74.33.21-4.51 7.54h3.27l1.86-3.09.33.21-1.74 2.88h3.36v.4h-3.6l-2.77 4.62zM6354.43 664.19V663h.64v1.19zM6360.19 658.22l-.33-.21 4.29-6.53v-.02h.4v12.73h-.4v-12l-3.95 6.02zM6367.54 664.19l-.37-.21 4.51-7.44h-2.48v-.4h2.72l2.6-4.3-7.42.02v-.4l7.9-.02v.4l-2.6 4.3h2.31v.4h-2.55zM6376.92 658.22l-.33-.21 4.29-6.53v-.02h.4v12.73h-.4v-12l-3.95 6.02zM6489.73 885.01v-.41h1.37l1.1-.75.37-.97v-1.24l-.52-.97-.88-.78h-1.74l-.84.64-.51.89v.86h-.38v-.86l.51-1 .03-.06 1-.8.14-.05h1.83l.14.05 1 .88.03.08.57 1.08v1.43l-.41 1.07-1.04.68.89.49.05.05.72.92.03.08.45 1.34.02.06v1.23l-.02.06-.45 1.29-.03.06-.76 1.12-.05.06-1.04.67-.14.05h-1.91l-.13-.05-.99-.59-.06-.06-.78-1.04-.03-.05-.45-1.16v-1.67h.41v1.64l.41 1.1.72.94.92.56h1.82l.99-.64.75-1.08v-.02l.41-1.19v-1.24l-.4-1.23-.02-.02-.7-.89-1.02-.56h-1.4zM6496.45 892.26l-.33-.21 2.65-4.41h-3.51v-.4l4.65-7.74.33.21-4.51 7.54h3.27l1.86-3.09.33.21-1.74 2.88h3.36v.4h-3.6l-2.77 4.62zM6505.23 892.26v-1.19h.64v1.19zM6510.34 887.64h.41v1.47l.48 1.18.7 1.02.81.56h1.58l.76-.56.75-1.08v-.02l.41-1.42v-1.4l-.4-1.32-.76-1.04-.75-.57h-2.36v-4.94h4.73v.4h-4.33v4.16h2.09l.92.7.76 1.05.03.08.46 1.5v1.39l-.02.06-.48 1.58-.81 1.18-.81.59-.15.05h-1.67l-.13-.05-.88-.59-.06-.06-.8-1.16-.51-1.24v-1.5zM6523.26 879.41l1.12.84.68 1.43v1.74l-.64 1.4-.03.06-.49.4-.03 4.48h.02l-.02.03v.02l-.62 1.35-.03.06-1.23.99h-1.88l-1.28-1.12-.62-1.31-.02-.06v-1.34h.4v1.35l.62 1.19.02.02 1.04.88h1.58l1.02-.84.6-1.29.03-4.09-.33.27h-1.88l-1.28-1.12-.62-1.31-.02-.06v-1.62l.02-.06.73-1.39.03-.06 1.16-.84.14-.05h1.67l.13.05zm.26 3.58h.4l-.02 1.77.14-.11.6-1.29v-1.64l-.65-1.29-.89-.69h-1.58l-1.05.73-.7 1.29v1.64l.62 1.19.02.02 1.04.88h1.58l.48-.4.02-2.1zM6527.64 892.26v-1.19h.64v1.19zM6532.76 887.64h.41v1.47l.48 1.18.7 1.02.81.56h1.58l.76-.56.75-1.08v-.02l.41-1.42v-1.4l-.4-1.32-.76-1.04-.75-.57h-2.36v-4.94h4.73v.4h-4.33v4.16h2.09l.92.7.76 1.05.03.08.46 1.5v1.39l-.02.06-.48 1.58-.81 1.18-.81.59-.14.05h-1.67l-.13-.05-.88-.59-.06-.06-.8-1.16-.51-1.24v-1.5zM6547.78 881.99l-.62-1.19-.02-.02-1.03-.88h-1.58l-1.02.85-.56 1.29v1.82l2.44-2.37.25.27-2.39 2.34h1.4l.14.05.88.61.05.05.76 1.05.03.06.51 1.55v1.34l-.51 1.61-.03.05-.76 1.11-.06.06-.88.59-.13.05h-1.67l-.14-.05-.81-.59-.05-.06-.76-1.11-.03-.06-.45-1.51-.02-.06v-1.39l.02-.06.45-1.43.03-.08.76-1.05.05-.05.51-.49v-2.28l.59-1.4.03-.06 1.23-.99h1.88l1.27 1.12.62 1.31.02.06v1.24h-.4v-1.3m-4.73 9.89h1.58l.81-.56.7-1.02.48-1.55v-1.29l-.48-1.45-.73-.99-.8-.56h-1.58l-.75.57-.76 1.02-.4 1.34v1.4l.41 1.42v.02l.75 1.08.76.56zM6550.79 892.26v-1.19h.64v1.19zM6566.77 883.18l.65 1.37.02.11v2.22l-.02.08-.86 2.44-.05.08-1.51 1.78-.08.05-1.56.94-.13.03h-3.28l-.11-.03-1.72-.92-.09-.06-1.48-1.77-.03-.08-.92-2.44v-2.37l.97-2.39 1.48-1.69.08-.05 1.69-.97.14-.03 3.27-.02.13.05 1.59.96.05.06 1.23 1.53.38.75.18.38zm-.32.26-.18-.4-.59-1.02-1.02-1.26-1.55-.91h-3.09l-1.69.92-1.48 1.67-.89 2.23v2.17l.91 2.39 1.47 1.72 1.64.89h3.2l1.48-.86 1.5-1.75.86-2.42v-2.15l-.57-1.23zM6569 892.26l-.37-.21 4.51-7.44h-2.48v-.4h2.72l2.6-4.3-7.42.02v-.4l7.9-.02v.4l-2.6 4.3h2.31v.4h-2.55zM862.72 92.64l-.33-.21 4.29-6.53v-.02h.4v12.73h-.4v-12l-3.95 6.02zM880.64 89.54l.65 1.37.02.11v2.22l-.02.08-.86 2.44-.05.08-1.51 1.78-.08.05-1.56.94-.13.03h-3.28l-.11-.03-1.72-.92-.1-.06-1.48-1.77-.03-.08-.92-2.44v-2.37l.97-2.39 1.48-1.69.08-.05 1.69-.97.14-.03 3.27-.02.13.05 1.59.96.05.06 1.23 1.53.38.75.18.38zm-.31.25-.18-.4-.59-1.02-1.02-1.26-1.55-.91h-3.09l-1.69.92-1.48 1.67-.89 2.23v2.17l.91 2.39 1.47 1.72 1.64.89h3.2l1.48-.86 1.5-1.75.86-2.42v-2.15l-.57-1.23zM883.72 98.62v-1.19h.64v1.19zM889.49 92.64l-.33-.21 4.29-6.53v-.02h.4v12.73h-.4v-12l-3.95 6.02zM907.41 89.54l.65 1.37.02.11v2.22l-.02.08-.86 2.44-.05.08-1.51 1.78-.08.05-1.56.94-.13.03h-3.28l-.11-.03-1.72-.92-.1-.06-1.48-1.77-.03-.08-.92-2.44v-2.37l.97-2.39 1.48-1.69.08-.05 1.69-.97.14-.03 3.27-.02.13.05 1.59.96.05.06 1.23 1.53.38.75.17.38zm-.32.25-.18-.4-.59-1.02-1.02-1.26-1.55-.91h-3.09l-1.69.92-1.48 1.67-.89 2.23v2.17l.91 2.39 1.47 1.72 1.64.89h3.2l1.48-.86 1.5-1.75.86-2.42v-2.15l-.57-1.23zM910.48 98.62v-1.19h.64v1.19zM918.5 91.37v-.41h1.37l1.1-.75.37-.97V88l-.53-.97-.88-.78h-1.74l-.84.64-.51.89v.86h-.38v-.86l.51-1 .03-.06 1-.8.14-.05h1.83l.14.05 1 .88.03.08.57 1.08v1.43l-.41 1.07-1.04.68.89.49.05.05.72.92.03.08.45 1.34.02.06v1.23l-.02.06-.45 1.29-.03.06-.76 1.12-.05.06-1.04.67-.14.05h-1.91l-.13-.05-.99-.59-.06-.06-.78-1.04-.03-.05-.45-1.16V94h.41v1.64l.41 1.1.72.94.92.56h1.82l.99-.64.75-1.08v-.02l.41-1.19v-1.24l-.4-1.23-.02-.02-.7-.89-1.02-.56h-1.4zM925.22 98.62l-.33-.21 2.64-4.41h-3.51v-.4l4.65-7.74.33.21-4.51 7.54h3.27l1.86-3.09.33.21-1.74 2.88h3.36v.4h-3.6l-2.77 4.62zM934 98.62v-1.19h.64v1.19zM942.01 91.37v-.41h1.37l1.1-.75.37-.97V88l-.52-.97-.88-.78h-1.74l-.84.64-.51.89v.86h-.38v-.86l.51-1 .03-.06 1-.8.14-.05h1.83l.14.05 1 .88.03.08.57 1.08v1.43l-.41 1.07-1.04.68.89.49.05.05.72.92.03.08.45 1.34.02.06v1.23l-.02.06-.45 1.29-.03.06-.76 1.12-.05.06-1.04.67-.14.05h-1.91l-.13-.05-.99-.59-.06-.06-.78-1.04-.03-.05-.45-1.16V94h.41v1.64l.41 1.1.72.94.92.56h1.82l.99-.64.75-1.08v-.02l.41-1.19v-1.24l-.4-1.23-.02-.02-.7-.89-1.02-.56h-1.4zM948.73 98.62l-.33-.21 2.65-4.41h-3.51v-.4l4.65-7.74.33.21-4.51 7.54h3.27l1.86-3.09.33.21-1.74 2.88h3.36v.4h-3.6l-2.77 4.62zM435.44 440.03l-.33-.21 4.29-6.53v-.02h.4V446h-.4v-12l-3.95 6.02zM442.49 441.38h.41v1.47l.48 1.18.7 1.02.81.56h1.58l.76-.56.75-1.08v-.02l.41-1.42v-1.4l-.4-1.32-.76-1.04-.75-.57h-2.36v-4.94h4.73v.4h-4.33v4.16h2.09l.92.7.76 1.05.03.08.46 1.5v1.39l-.02.06-.48 1.58-.81 1.18-.81.59-.15.05h-1.67l-.13-.05-.88-.59-.06-.06-.8-1.16-.51-1.24v-1.5zM455.41 433.14l1.12.84.68 1.43v1.74l-.64 1.4-.03.06-.49.4-.03 4.48h.02l-.02.03v.02l-.62 1.35-.03.06-1.23.99h-1.88l-1.28-1.12-.62-1.31-.02-.06v-1.34h.4v1.35l.62 1.19.02.02 1.04.88H454l1.02-.84.6-1.29.03-4.09-.33.27h-1.88l-1.28-1.12-.62-1.31-.02-.06v-1.62l.02-.06.73-1.39.03-.06 1.16-.84.14-.05h1.67l.13.05zm.26 3.59h.4l-.02 1.77.14-.11.6-1.29v-1.64l-.65-1.29-.89-.69h-1.58l-1.05.73-.7 1.29v1.64l.62 1.19.02.02 1.04.88h1.58l.48-.4.02-2.1zM459.79 446v-1.19h.64V446zM464.91 445.6l4.73-7.71.33.21-4.6 7.5zm.33.21-.33-.21v.4h7.73v-.4h-7.26l-.13.21zm3.73-4.41h1l.14-.05.81-.61.05-.05.76-1.05.03-.08.45-1.43.02-.06v-1.39l-.02-.06-.45-1.51-.03-.06-.76-1.11-.05-.06-.81-.59-.14-.05h-1.67l-.13.05-.88.59-.06.06-.76 1.11-.03.05-.51 1.61v1.21h.42v-1.18l.48-1.55.7-1.02.81-.56h1.58l.76.56.75 1.08v.02l.41 1.42v1.4l-.4 1.32-.02.02-.75 1.02-.75.57h-.96v.38zM474.23 441.38h.41v1.47l.48 1.18.7 1.02.81.56h1.58l.76-.56.75-1.08v-.02l.41-1.42v-1.4l-.4-1.32-.76-1.04-.75-.57h-2.36v-4.94h4.73v.4h-4.33v4.16h2.09l.92.7.76 1.05.03.08.46 1.5v1.39l-.02.06-.48 1.58-.81 1.18-.81.59-.14.05h-1.67l-.13-.05-.88-.59-.06-.06-.8-1.16-.51-1.24v-1.5zM482.19 441.38h.41v1.47l.48 1.18.7 1.02.81.56h1.58l.76-.56.75-1.08v-.02l.41-1.42v-1.4l-.4-1.32-.76-1.04-.75-.57h-2.36v-4.94h4.73v.4h-4.33v4.16h2.09l.92.7.76 1.05.03.08.46 1.5v1.39l-.02.06-.48 1.58-.81 1.18-.81.59-.14.05h-1.67l-.13-.05-.88-.59-.06-.06-.8-1.16-.51-1.24v-1.5zM491.29 446v-1.19h.64V446zM496.4 445.6l4.73-7.71.33.21-4.6 7.5zm.34.21-.33-.21v.4h7.73v-.4h-7.26l-.13.21zm3.73-4.41h1l.14-.05.81-.61.05-.05.76-1.05.03-.08.45-1.43.02-.06v-1.39l-.02-.06-.45-1.51-.03-.06-.76-1.11-.05-.06-.81-.59-.14-.05h-1.67l-.13.05-.88.59-.06.06-.76 1.11-.03.05-.51 1.61v1.21h.41v-1.18l.48-1.55.7-1.02.81-.56h1.58l.76.56.75 1.08v.02l.41 1.42v1.4l-.4 1.32-.02.02-.75 1.02-.75.57h-.95v.38zM512.78 435.73l-.62-1.19-.02-.02-1.03-.88h-1.58l-1.02.85-.56 1.29v1.82l2.44-2.37.25.27-2.39 2.34h1.4l.14.05.88.61.05.05.76 1.05.03.06.51 1.55v1.34l-.51 1.61-.03.05-.76 1.11-.06.06-.88.59-.13.05h-1.67l-.14-.05-.81-.59-.05-.06-.76-1.11-.03-.06-.45-1.51-.02-.06v-1.39l.02-.06.45-1.43.03-.08.76-1.05.05-.05.51-.49v-2.28l.59-1.4.03-.06 1.23-.99h1.88l1.27 1.12.62 1.31.02.06v1.24h-.4v-1.3m-4.73 9.89h1.58l.81-.56.7-1.02.48-1.55v-1.29l-.48-1.45-.73-.99-.8-.56h-1.58l-.75.57-.76 1.02-.4 1.34v1.4l.41 1.42v.02l.75 1.08.76.56zM515.79 446v-1.19h.64V446zM527.96 435.73l-.62-1.19-.02-.02-1.04-.88h-1.58l-1.02.85-.56 1.29v1.82l2.44-2.37.26.27-2.39 2.34h1.4l.14.05.88.61.05.05.76 1.05.03.06.51 1.55v1.34l-.51 1.61-.03.05-.76 1.11-.06.06-.88.59-.13.05h-1.67l-.14-.05-.81-.59-.05-.06-.76-1.11-.03-.06-.45-1.51-.02-.06v-1.39l.02-.06.45-1.43.03-.08.76-1.05.05-.05.51-.49v-2.28l.59-1.4.03-.06 1.23-.99h1.88l1.28 1.12.62 1.31.02.06v1.24h-.4v-1.26zm-4.73 9.89h1.58l.81-.56.7-1.02.48-1.55v-1.29l-.48-1.45-.73-.99-.8-.56h-1.58l-.75.57-.76 1.02-.4 1.34v1.4l.41 1.42v.02l.75 1.08.76.56zM534.79 433.14l1.12.84.69 1.43v1.74l-.64 1.4-.03.06-.49.4-.03 4.48h.02l-.02.03v.02l-.62 1.35-.03.06-1.23.99h-1.88l-1.27-1.12-.62-1.31-.02-.06v-1.34h.4v1.35l.62 1.19.02.02 1.04.88h1.58l1.02-.84.61-1.29.03-4.09-.33.27h-1.88l-1.27-1.12-.62-1.31-.02-.06v-1.62l.02-.06.73-1.39.03-.06 1.16-.84.14-.05h1.67l.13.05zm.26 3.59h.4l-.02 1.77.14-.11.61-1.29v-1.64l-.65-1.29-.89-.69h-1.58l-1.05.73-.7 1.29v1.64l.62 1.19.02.02 1.04.88h1.58l.48-.4.02-2.1zM256.61 748.22l-.33-.21 4.29-6.53v-.02h.4v12.73h-.4v-12l-3.95 6.02zM274.53 745.12l.65 1.37.02.11v2.22l-.02.08-.86 2.44-.05.08-1.51 1.78-.08.05-1.56.94-.13.03h-3.28l-.11-.03-1.72-.92-.09-.06-1.48-1.77-.03-.08-.92-2.44v-2.37l.97-2.39 1.48-1.69.08-.05 1.69-.97.14-.03 3.27-.02.13.05 1.59.96.05.06 1.23 1.53.38.75.17.38zm-.31.25-.17-.4-.59-1.02-1.02-1.26-1.55-.91h-3.09l-1.69.92-1.48 1.67-.89 2.23v2.17l.91 2.39 1.47 1.72 1.64.89h3.2l1.48-.86 1.5-1.75.86-2.42v-2.15l-.57-1.23zM277.61 754.2v-1.19h.64v1.19zM283.38 748.22l-.33-.21 4.29-6.53v-.02h.4v12.73h-.4v-12l-3.95 6.02zM301.3 745.12l.65 1.37.02.11v2.22l-.02.08-.86 2.44-.05.08-1.51 1.78-.08.05-1.56.94-.13.03h-3.28l-.11-.03-1.72-.92-.09-.06-1.48-1.77-.03-.08-.92-2.44v-2.37l.97-2.39 1.48-1.69.08-.05 1.69-.97.14-.03 3.27-.02.13.05 1.59.96.05.06 1.23 1.53.38.75.18.38zm-.32.25-.18-.4-.59-1.02-1.02-1.26-1.55-.91h-3.09l-1.69.92-1.48 1.67-.89 2.23v2.17l.91 2.39 1.47 1.72 1.64.89h3.2l1.48-.86 1.5-1.75.86-2.42v-2.15l-.57-1.23zM304.37 754.2v-1.19h.64v1.19zM312.39 746.95v-.41h1.37l1.1-.75.37-.97v-1.24l-.52-.97-.88-.78h-1.74l-.84.64-.51.89v.86h-.38v-.86l.51-1 .03-.06 1-.8.14-.05h1.83l.14.05 1 .88.03.08.57 1.08v1.43l-.41 1.07-1.04.68.89.49.05.05.72.92.03.08.45 1.34.02.06v1.23l-.02.06-.45 1.29-.03.06-.76 1.12-.05.06-1.04.67-.14.05h-1.91l-.13-.05-.99-.59-.06-.06-.78-1.04-.03-.05-.45-1.16v-1.67h.41v1.64l.41 1.1.72.94.92.56h1.82l.99-.64.75-1.08v-.02l.41-1.19v-1.24l-.4-1.23-.02-.02-.7-.89-1.02-.56h-1.4zM319.11 754.2l-.33-.21 2.65-4.41h-3.51v-.4l4.65-7.74.33.21-4.51 7.54h3.27l1.86-3.09.33.21-1.74 2.88h3.36v.4h-3.6l-2.77 4.62zM327.89 754.2v-1.19h.64v1.19zM335.9 746.95v-.41h1.37l1.1-.75.37-.97v-1.24l-.53-.97-.88-.78h-1.74l-.84.64-.51.89v.86h-.38v-.86l.51-1 .03-.06 1-.8.14-.05h1.83l.14.05 1 .88.03.08.57 1.08v1.43l-.41 1.07-1.04.68.89.49.05.05.72.92.03.08.45 1.34.02.06v1.23l-.02.06-.45 1.29-.03.06-.76 1.12-.05.06-1.04.67-.14.05h-1.91l-.13-.05-.99-.59-.06-.06-.78-1.04-.03-.05-.45-1.16v-1.67h.41v1.64l.41 1.1.72.94.92.56h1.82l.99-.64.75-1.08v-.02l.41-1.19v-1.24l-.4-1.23-.02-.02-.7-.89-1.02-.56h-1.4zM341.43 749.58h.41v1.47l.48 1.18.7 1.02.81.56h1.58l.76-.56.75-1.08v-.02l.41-1.42v-1.4l-.4-1.32-.76-1.04-.75-.57h-2.36v-4.94h4.73v.4h-4.33v4.16h2.09l.92.7.76 1.05.03.08.46 1.5v1.39l-.02.06-.48 1.58-.81 1.18-.81.59-.14.05h-1.67l-.13-.05-.88-.59-.06-.06-.8-1.16-.51-1.24v-1.5zM970.94 264.63l-.33-.21 4.29-6.53v-.02h.4v12.73h-.4v-12l-3.95 6.02zM988.86 261.53l.65 1.37.02.11v2.22l-.02.08-.86 2.44-.05.08-1.51 1.78-.08.05-1.56.94-.13.03h-3.28l-.11-.03-1.72-.92-.1-.06-1.48-1.77-.03-.08-.92-2.44v-2.37l.97-2.39 1.48-1.69.08-.05 1.69-.97.14-.03 3.27-.02.13.05 1.59.96.05.06 1.23 1.53.38.75.18.38zm-.32.25-.18-.4-.59-1.02-1.02-1.26-1.55-.91h-3.09l-1.69.92-1.48 1.67-.89 2.23v2.17l.91 2.39 1.47 1.72 1.64.89h3.2l1.48-.86 1.5-1.75.86-2.42V263l-.57-1.23zM991.93 270.61v-1.19h.64v1.19zM997.7 264.63l-.33-.21 4.29-6.53v-.02h.4v12.73h-.4v-12l-3.95 6.02zM1015.62 261.53l.65 1.37.02.11v2.22l-.02.08-.86 2.44-.05.08-1.51 1.78-.08.05-1.56.94-.13.03h-3.28l-.11-.03-1.72-.92-.1-.06-1.48-1.77-.03-.08-.92-2.44v-2.37l.97-2.39 1.48-1.69.08-.05 1.69-.97.14-.03 3.27-.02.13.05 1.59.96.05.06 1.23 1.53.38.75.17.38zm-.32.25-.18-.4-.59-1.02-1.02-1.26-1.55-.91h-3.09l-1.69.92-1.48 1.67-.89 2.23v2.17l.91 2.39 1.47 1.72 1.64.89h3.2l1.48-.86 1.5-1.75.86-2.42V263l-.57-1.23zM1018.7 270.61v-1.19h.64v1.19zM1026.71 263.36v-.41h1.37l1.1-.75.37-.97v-1.24l-.53-.97-.88-.78h-1.74l-.84.64-.51.89v.86h-.38v-.86l.51-1 .03-.06 1-.8.14-.05h1.83l.14.05 1 .88.03.08.57 1.08v1.43l-.41 1.07-1.04.68.89.49.05.05.72.92.03.08.45 1.34.02.06v1.23l-.02.06-.45 1.29-.03.06-.76 1.12-.05.06-1.04.67-.14.05h-1.91l-.13-.05-.99-.59-.06-.06-.78-1.04-.03-.05-.45-1.16v-1.67h.41v1.64l.41 1.1.72.94.92.56h1.82l.99-.64.75-1.08v-.02l.41-1.19v-1.24l-.4-1.23-.02-.02-.7-.89-1.02-.56h-1.4zM1033.43 270.61l-.33-.21 2.64-4.41h-3.51v-.4l4.65-7.74.33.21-4.51 7.54h3.27l1.86-3.09.33.21-1.74 2.88h3.36v.4h-3.6l-2.77 4.62zM1042.21 270.61v-1.19h.64v1.19zM1050.22 263.36v-.41h1.37l1.1-.75.37-.97v-1.24l-.52-.97-.88-.78h-1.74l-.84.64-.51.89v.86h-.38v-.86l.51-1 .03-.06 1-.8.14-.05h1.83l.14.05 1 .88.03.08.57 1.08v1.43l-.41 1.07-1.04.68.89.49.05.05.72.92.03.08.45 1.34.02.06v1.23l-.02.06-.45 1.29-.03.06-.76 1.12-.05.06-1.04.67-.14.05h-1.91l-.13-.05-.99-.59-.06-.06-.78-1.04-.03-.05-.45-1.16v-1.67h.41v1.64l.41 1.1.72.94.92.56h1.82l.99-.64.75-1.08v-.02l.41-1.19v-1.24l-.4-1.23-.02-.02-.7-.89-1.02-.56h-1.4zM1055.75 265.99h.41v1.47l.48 1.18.7 1.02.81.56h1.58l.76-.56.75-1.08v-.02l.41-1.42v-1.4l-.4-1.32-.76-1.04-.75-.57h-2.36v-4.94h4.73v.4h-4.33v4.16h2.09l.92.7.76 1.05.03.08.46 1.5v1.39l-.02.06-.48 1.58-.81 1.18-.81.59-.14.05h-1.67l-.13-.05-.88-.59-.06-.06-.8-1.16-.51-1.24v-1.5zM685.96 387.2v-.41h1.37l1.1-.75.37-.97v-1.24l-.53-.97-.88-.78h-1.74l-.84.64-.51.89v.86h-.38v-.86l.51-1 .03-.06 1-.8.14-.05h1.83l.14.05 1 .88.03.08.57 1.08v1.43l-.41 1.07-1.04.68.89.49.05.05.72.92.03.08.45 1.34.02.06v1.23l-.02.06-.45 1.29-.03.06-.76 1.12-.05.06-1.04.67-.14.05h-1.91l-.13-.05-.99-.59-.06-.06-.78-1.04-.03-.05-.45-1.16v-1.67h.41v1.64l.41 1.1.72.94.92.56h1.82l.99-.64.75-1.08v-.02l.41-1.19v-1.24l-.4-1.23-.02-.02-.7-.89-1.02-.56h-1.4zM692.69 394.45l-.33-.21 2.64-4.41h-3.51v-.4l4.65-7.74.33.21-4.51 7.54h3.27l1.86-3.09.33.21-1.74 2.88h3.36v.4h-3.6l-2.77 4.62zM701.47 394.45v-1.19h.64v1.19zM706.58 389.83h.41v1.47l.48 1.18.7 1.02.81.56h1.58l.76-.56.75-1.08v-.02l.41-1.42v-1.4l-.4-1.32-.76-1.04-.75-.57h-2.36v-4.94h4.73v.4h-4.33v4.16h2.09l.92.7.76 1.05.03.08.46 1.5v1.39l-.02.06-.48 1.58-.81 1.18-.81.59-.14.05h-1.67l-.13-.05-.88-.59-.06-.06-.8-1.16-.51-1.24v-1.5zM719.5 381.59l1.12.84.69 1.43v1.74l-.64 1.4-.03.06-.49.4-.03 4.48h.02l-.02.03v.02l-.62 1.35-.03.06-1.23.99h-1.88l-1.27-1.12-.62-1.31-.02-.06v-1.34h.4v1.35l.62 1.19.02.02 1.04.88h1.58l1.02-.84.61-1.29.03-4.09-.33.27h-1.88l-1.27-1.12-.62-1.31-.02-.06v-1.62l.02-.06.73-1.39.03-.06 1.16-.84.14-.05h1.67l.13.05zm.25 3.59h.4l-.02 1.77.14-.11.61-1.29v-1.64l-.65-1.29-.89-.69h-1.58l-1.05.73-.7 1.29v1.64l.62 1.19.02.02 1.04.88h1.58l.48-.4.02-2.1zM723.88 394.45v-1.19h.64v1.19zM728.99 389.83h.41v1.47l.48 1.18.7 1.02.81.56h1.58l.76-.56.75-1.08v-.02l.41-1.42v-1.4l-.4-1.32-.76-1.04-.75-.57h-2.36v-4.94h4.73v.4h-4.33v4.16h2.09l.92.7.76 1.05.03.08.46 1.5v1.39l-.02.06-.48 1.58-.81 1.18-.81.59-.14.05h-1.67l-.13-.05-.88-.59-.06-.06-.8-1.16-.51-1.24v-1.5zM744.02 384.17l-.62-1.19-.02-.02-1.04-.88h-1.58l-1.02.85-.56 1.29v1.82l2.44-2.37.26.27-2.39 2.34h1.4l.14.05.88.61.05.05.76 1.05.03.06.51 1.55v1.34l-.51 1.61-.03.05-.76 1.11-.06.06-.88.59-.13.05h-1.67l-.14-.05-.81-.59-.05-.06-.76-1.11-.03-.06-.45-1.51-.02-.06v-1.39l.02-.06.45-1.43.03-.08.76-1.05.05-.05.51-.49v-2.28l.59-1.4.03-.06 1.23-.99h1.88l1.28 1.12.62 1.31.02.06v1.24h-.4v-1.26zm-4.74 9.9h1.58l.81-.56.7-1.02.48-1.55v-1.29l-.48-1.45-.73-.99-.8-.56h-1.58l-.75.57-.76 1.02-.4 1.34v1.4l.41 1.42v.02l.75 1.08.76.56zM747.03 394.45v-1.19h.64v1.19zM763 385.37l.65 1.37.02.11v2.22l-.02.08-.86 2.44-.05.08-1.51 1.78-.08.05-1.56.94-.13.03h-3.28l-.11-.03-1.72-.92-.1-.06-1.48-1.77-.03-.08-.92-2.44v-2.37l.97-2.39 1.48-1.69.08-.05 1.69-.97.14-.03 3.27-.02.13.05 1.59.96.05.06 1.23 1.53.38.75.17.38zm-.31.25-.18-.4-.59-1.02-1.02-1.26-1.55-.91h-3.09l-1.69.92-1.48 1.67-.89 2.23v2.17l.91 2.39 1.47 1.72 1.64.89h3.2l1.48-.86 1.5-1.75.86-2.42v-2.15l-.57-1.23zM765.23 394.45l-.37-.21 4.51-7.44h-2.49v-.4h2.72l2.6-4.3-7.42.02v-.4l7.9-.02v.4l-2.6 4.3h2.31v.4h-2.55l-4.62 7.65zM678.15 959.87l-.33-.21 4.29-6.53v-.02h.4v12.73h-.4v-12l-3.95 6.02zM685.21 961.23h.41v1.47l.48 1.18.7 1.02.81.56h1.58l.76-.56.75-1.08v-.02l.41-1.42v-1.4l-.4-1.32-.76-1.04-.75-.57h-2.36v-4.94h4.73v.4h-4.33v4.16h2.09l.92.7.76 1.05.03.08.46 1.5v1.39l-.02.06-.48 1.58-.81 1.18-.81.59-.15.05h-1.67l-.13-.05-.88-.59-.06-.06-.8-1.16-.51-1.24v-1.5zM698.13 952.99l1.12.84.68 1.43V957l-.64 1.4-.03.06-.49.4-.03 4.48h.02l-.02.03v.02l-.62 1.35-.03.06-1.23.99h-1.88l-1.28-1.12-.62-1.31-.02-.06v-1.34h.4v1.35l.62 1.19.02.02 1.04.88h1.58l1.02-.84.6-1.29.03-4.09-.33.27h-1.88l-1.28-1.12-.62-1.31-.02-.06v-1.62l.02-.06.73-1.39.03-.06 1.16-.84.14-.05h1.67l.13.05zm.25 3.59h.4l-.02 1.77.14-.11.6-1.29v-1.64l-.65-1.29-.89-.69h-1.58l-1.05.73-.7 1.29v1.64l.62 1.19.02.02 1.04.88h1.58l.48-.4.02-2.1zM702.51 965.85v-1.19h.64v1.19zM707.62 965.45l4.73-7.71.33.21-4.6 7.5zm.33.21-.33-.21v.4h7.73v-.4h-7.26l-.13.21zm3.73-4.42h1l.14-.05.81-.61.05-.05.76-1.05.03-.08.45-1.43.02-.06v-1.39l-.02-.06-.45-1.51-.03-.06-.76-1.11-.05-.06-.81-.59-.14-.05h-1.67l-.13.05-.88.59-.06.06-.76 1.11-.03.05-.51 1.61v1.21h.42v-1.18l.48-1.55.7-1.02.81-.56h1.58l.76.56.75 1.08v.02l.41 1.42v1.4l-.4 1.32-.02.02-.75 1.02-.75.57h-.96v.38zM716.94 961.23h.41v1.47l.48 1.18.7 1.02.81.56h1.58l.76-.56.75-1.08v-.02l.41-1.42v-1.4l-.4-1.32-.76-1.04-.75-.57h-2.36v-4.94h4.73v.4h-4.33v4.16h2.09l.92.7.76 1.05.03.08.46 1.5v1.39l-.02.06-.48 1.58-.81 1.18-.81.59-.14.05h-1.67l-.13-.05-.88-.59-.06-.06-.8-1.16-.51-1.24v-1.5zM724.9 961.23h.41v1.47l.48 1.18.7 1.02.81.56h1.58l.76-.56.75-1.08v-.02l.41-1.42v-1.4l-.4-1.32-.76-1.04-.75-.57h-2.36v-4.94h4.73v.4h-4.33v4.16h2.09l.92.7.76 1.05.03.08.46 1.5v1.39l-.02.06-.48 1.58-.81 1.18-.81.59-.14.05h-1.67l-.13-.05-.88-.59-.06-.06-.8-1.16-.51-1.24v-1.5zM734 965.85v-1.19h.64v1.19zM739.12 965.45l4.73-7.71.33.21-4.6 7.5zm.33.21-.33-.21v.4h7.73v-.4h-7.26l-.13.21zm3.73-4.42h1l.14-.05.81-.61.05-.05.76-1.05.03-.08.45-1.43.02-.06v-1.39l-.02-.06-.45-1.51-.03-.06-.76-1.11-.05-.06-.81-.59-.14-.05h-1.67l-.13.05-.88.59-.06.06-.76 1.11-.03.05-.51 1.61v1.21h.41v-1.18l.48-1.55.7-1.02.81-.56h1.58l.76.56.75 1.08v.02l.41 1.42v1.4l-.4 1.32-.02.02-.75 1.02-.75.57h-.95v.38zM755.49 955.57l-.62-1.19-.02-.02-1.03-.88h-1.58l-1.02.85-.56 1.29v1.82l2.44-2.37.25.27-2.39 2.34h1.4l.14.05.88.61.05.05.76 1.05.03.06.51 1.55v1.34l-.51 1.61-.03.05-.76 1.11-.06.06-.88.59-.13.05h-1.67l-.14-.05-.81-.59-.05-.06-.76-1.11-.03-.06-.45-1.51-.02-.06v-1.39l.02-.06.45-1.43.03-.08.76-1.05.05-.05.51-.49v-2.28l.59-1.4.03-.06 1.23-.99h1.88l1.27 1.12.62 1.31.02.06v1.24h-.4v-1.3m-4.73 9.89h1.58l.81-.56.7-1.02.48-1.55v-1.29l-.48-1.45-.73-.99-.8-.56h-1.58l-.75.57-.76 1.02-.4 1.34v1.4l.41 1.42v.02l.75 1.08.76.56zM758.5 965.85v-1.19h.64v1.19zM770.67 955.57l-.62-1.19-.02-.02-1.04-.88h-1.58l-1.02.85-.56 1.29v1.82l2.44-2.37.26.27-2.39 2.34h1.4l.14.05.88.61.05.05.76 1.05.03.06.51 1.55v1.34l-.51 1.61-.03.05-.76 1.11-.06.06-.88.59-.13.05h-1.67l-.14-.05-.81-.59-.05-.06-.76-1.11-.03-.06-.45-1.51-.02-.06v-1.39l.02-.06.45-1.43.03-.08.76-1.05.05-.05.51-.49v-2.28l.59-1.4.03-.06 1.23-.99h1.88l1.28 1.12.62 1.31.02.06v1.24h-.4v-1.26zm-4.73 9.89h1.58l.81-.56.7-1.02.48-1.55v-1.29l-.48-1.45-.73-.99-.8-.56h-1.58l-.75.57-.76 1.02-.4 1.34v1.4l.41 1.42v.02l.75 1.08.76.56zM777.51 952.99l1.12.84.69 1.43V957l-.64 1.4-.03.06-.49.4-.03 4.48h.02l-.02.03v.02l-.62 1.35-.03.06-1.23.99h-1.88l-1.27-1.12-.62-1.31-.02-.06v-1.34h.4v1.35l.62 1.19.02.02 1.04.88h1.58l1.02-.84.61-1.29.03-4.09-.33.27h-1.88l-1.27-1.12-.62-1.31-.02-.06v-1.62l.02-.06.73-1.39.03-.06 1.16-.84.14-.05h1.67l.13.05zm.25 3.59h.4l-.02 1.77.14-.11.61-1.29v-1.64l-.65-1.29-.89-.69h-1.58l-1.05.73-.7 1.29v1.64l.62 1.19.02.02 1.04.88h1.58l.48-.4.02-2.1zM4357.51 606.19l-.33-.21 4.29-6.53v-.02h.4v12.73h-.4v-12l-3.95 6.02zM4364.56 607.55h.41v1.47l.48 1.18.7 1.02.81.56h1.58l.76-.56.75-1.08v-.02l.41-1.42v-1.4l-.4-1.32-.76-1.04-.75-.57h-2.36v-4.94h4.73v.4h-4.33v4.16h2.09l.92.7.76 1.05.03.08.46 1.5v1.39l-.02.06-.48 1.58-.81 1.18-.81.59-.15.05h-1.67l-.13-.05-.88-.59-.06-.06-.8-1.16-.51-1.24v-1.5zM4377.48 599.31l1.12.84.68 1.43v1.74l-.64 1.4-.03.06-.49.4-.03 4.48h.02l-.02.03v.02l-.62 1.35-.03.06-1.23.99h-1.88l-1.28-1.12-.62-1.31-.02-.06v-1.34h.4v1.35l.62 1.19.02.02 1.04.88h1.58l1.02-.84.6-1.29.03-4.09-.33.27h-1.88l-1.28-1.12-.62-1.31-.02-.06v-1.62l.02-.06.73-1.39.03-.06 1.16-.84.14-.05h1.67l.13.05zm.26 3.58h.4l-.02 1.77.14-.11.6-1.29v-1.64l-.65-1.29-.89-.69h-1.58l-1.05.73-.7 1.29v1.64l.62 1.19.02.02 1.04.88h1.58l.48-.4.02-2.1zM4381.86 612.17v-1.19h.64v1.19zM4386.98 611.77l4.73-7.71.33.21-4.6 7.5zm.33.2-.33-.21v.4h7.73v-.4h-7.26l-.13.21zm3.73-4.41h1l.14-.05.81-.61.05-.05.76-1.05.03-.08.45-1.43.02-.06v-1.39l-.02-.06-.45-1.51-.03-.06-.76-1.11-.05-.06-.81-.59-.14-.05h-1.67l-.13.05-.88.59-.06.06-.76 1.11-.03.05-.51 1.61v1.21h.42v-1.18l.48-1.55.7-1.02.81-.56h1.58l.76.56.75 1.08v.02l.41 1.42v1.4l-.4 1.32-.02.02-.75 1.02-.75.57h-.96v.38zM4396.3 607.55h.41v1.47l.48 1.18.7 1.02.81.56h1.58l.76-.56.75-1.08v-.02l.41-1.42v-1.4l-.4-1.32-.76-1.04-.75-.57h-2.36v-4.94h4.73v.4h-4.33v4.16h2.09l.92.7.76 1.05.03.08.46 1.5v1.39l-.02.06-.48 1.58-.81 1.18-.81.59-.14.05h-1.67l-.13-.05-.88-.59-.06-.06-.8-1.16-.51-1.24v-1.5zM4404.26 607.55h.41v1.47l.48 1.18.7 1.02.81.56h1.58l.76-.56.75-1.08v-.02l.41-1.42v-1.4l-.4-1.32-.76-1.04-.75-.57h-2.36v-4.94h4.73v.4h-4.33v4.16h2.09l.92.7.76 1.05.03.08.46 1.5v1.39l-.02.06-.48 1.58-.81 1.18-.81.59-.14.05h-1.67l-.13-.05-.88-.59-.06-.06-.8-1.16-.51-1.24v-1.5zM4413.36 612.17v-1.19h.64v1.19zM4418.47 611.77l4.73-7.71.33.21-4.6 7.5zm.34.2-.33-.21v.4h7.73v-.4h-7.26l-.13.21zm3.72-4.41h1l.14-.05.81-.61.05-.05.76-1.05.03-.08.45-1.43.02-.06v-1.39l-.02-.06-.45-1.51-.03-.06-.76-1.11-.05-.06-.81-.59-.14-.05h-1.67l-.13.05-.88.59-.06.06-.76 1.11-.03.05-.51 1.61v1.21h.41v-1.18l.48-1.55.7-1.02.81-.56h1.58l.76.56.75 1.08v.02l.41 1.42v1.4l-.4 1.32-.02.02-.75 1.02-.75.57h-.95v.38zM4434.85 601.89l-.62-1.19-.02-.02-1.03-.88h-1.58l-1.02.85-.56 1.29v1.82l2.44-2.37.25.27-2.39 2.34h1.4l.14.05.88.61.05.05.76 1.05.03.06.51 1.55v1.34l-.51 1.61-.03.05-.76 1.11-.06.06-.88.59-.13.05h-1.67l-.14-.05-.81-.59-.05-.06-.76-1.11-.03-.06-.45-1.51-.02-.06v-1.39l.02-.06.45-1.43.03-.08.76-1.05.05-.05.51-.49v-2.28l.59-1.4.03-.06 1.23-.99h1.88l1.27 1.12.62 1.31.02.06v1.24h-.4v-1.3m-4.73 9.89h1.58l.81-.56.7-1.02.48-1.55v-1.29l-.48-1.45-.73-.99-.8-.56h-1.58l-.75.57-.76 1.02-.4 1.34v1.4l.41 1.42v.02l.75 1.08.76.56zM4437.86 612.17v-1.19h.64v1.19zM4450.03 601.89l-.62-1.19-.02-.02-1.04-.88h-1.58l-1.02.85-.56 1.29v1.82l2.44-2.37.26.27-2.39 2.34h1.4l.14.05.88.61.05.05.76 1.05.03.06.51 1.55v1.34l-.51 1.61-.03.05-.76 1.11-.06.06-.88.59-.13.05h-1.67l-.14-.05-.81-.59-.05-.06-.76-1.11-.03-.06-.45-1.51-.02-.06v-1.39l.02-.06.45-1.43.03-.08.76-1.05.05-.05.51-.49v-2.28l.59-1.4.03-.06 1.23-.99h1.88l1.28 1.12.62 1.31.02.06v1.24h-.4v-1.26zm-4.73 9.89h1.58l.81-.56.7-1.02.48-1.55v-1.29l-.48-1.45-.73-.99-.8-.56h-1.58l-.75.57-.76 1.02-.4 1.34v1.4l.41 1.42v.02l.75 1.08.76.56zM4456.86 599.31l1.12.84.69 1.43v1.74l-.64 1.4-.03.06-.49.4-.03 4.48h.02l-.02.03v.02l-.62 1.35-.03.06-1.23.99h-1.88l-1.27-1.12-.62-1.31-.02-.06v-1.34h.4v1.35l.62 1.19.02.02 1.04.88h1.58l1.02-.84.61-1.29.03-4.09-.33.27h-1.88l-1.27-1.12-.62-1.31-.02-.06v-1.62l.02-.06.73-1.39.03-.06 1.16-.84.14-.05h1.67l.13.05zm.26 3.58h.4l-.02 1.77.14-.11.61-1.29v-1.64l-.65-1.29-.89-.69h-1.58l-1.05.73-.7 1.29v1.64l.62 1.19.02.02 1.04.88h1.58l.48-.4.02-2.1z"/></svg>