<svg xmlns="http://www.w3.org/2000/svg" width="1416" height="250" fill="none" viewBox="0 0 1416 250"><path fill="#15ffab" d="M117.61 1.17h36.79c6.38 0 10.96 1.37 13.72 4.1 2.77 2.73 4.15 7.17 4.15 13.32V39c0 6-1.58 10.63-4.73 13.9s-7.54 4.9-13.15 4.9h-21.22v35.63H117.6V1.17zm31.48 41.63c2.77 0 4.73-.56 5.88-1.67s1.73-2.98 1.73-5.59V23.2c0-2.69-.5-4.53-1.5-5.54q-1.5-1.5-5.88-1.5h-16.15V42.8h15.92M186.11 1.17h36.79c6.38 0 10.96 1.37 13.72 4.1 2.77 2.73 4.15 7.17 4.15 13.32v17.3c0 3.46-.94 6.3-2.82 8.53-1.89 2.23-4.48 3.69-7.78 4.38 3.3 1 5.9 2.54 7.78 4.61 1.88 2.08 2.82 4.73 2.82 7.96v32.06H225.2V64.02c0-2.69-.5-4.54-1.5-5.54q-1.5-1.5-5.88-1.5h-16.15v36.44H186.1V1.16zm31.48 41.63c2.77 0 4.73-.56 5.88-1.67s1.73-2.98 1.73-5.59V23.2c0-2.69-.5-4.53-1.5-5.54q-1.5-1.5-5.88-1.5h-16.15V42.8h15.92M262.68 89.39c-4.23-3.46-6.34-9.11-6.34-16.95V22.16c0-7.84 2.11-13.49 6.34-16.95S273.9.02 283.67.02s16.76 1.73 20.99 5.19S311 14.32 311 22.16v50.28c0 7.84-2.12 13.49-6.34 16.95-4.23 3.46-11.23 5.19-20.99 5.19s-16.76-1.73-20.99-5.19m10.09-13.26c.58 1.08 1.69 1.83 3.34 2.25s4.17.63 7.55.63 5.9-.21 7.55-.63 2.77-1.17 3.34-2.25c.58-1.07.86-2.69.86-4.84V23.32c0-2.15-.29-3.77-.86-4.84-.58-1.08-1.69-1.83-3.34-2.25s-4.17-.63-7.55-.63-5.9.21-7.55.63-2.77 1.17-3.34 2.25-.87 2.69-.87 4.84v47.97c0 2.15.29 3.77.87 4.84M337.75 16.17h-19.26V1.18h54.08v14.99h-19.26v77.26h-15.57V16.17zM381.8 1.17h47.63v14.99h-32.06v23.18h23.87v14.99h-23.87v24.1h32.06v14.99H381.8V1.16zM451.97 92.33c-3.96-1.5-6.79-3.84-8.48-7.04-1.69-3.19-2.54-7.48-2.54-12.86V22.15c0-5.38.84-9.67 2.54-12.86 1.69-3.19 4.52-5.54 8.48-7.04Q457.91 0 468.29 0t16.32 2.25c3.96 1.5 6.78 3.85 8.48 7.04 1.69 3.19 2.54 7.48 2.54 12.86v9.69h-15.57v-8.53c0-2.31-.23-3.96-.69-4.96s-1.5-1.71-3.11-2.13-4.27-.63-7.96-.63-6.34.21-7.96.63c-1.61.42-2.65 1.14-3.11 2.13-.46 1-.69 2.65-.69 4.96v47.97c0 2.31.23 3.96.69 4.96s1.5 1.71 3.11 2.13 4.27.63 7.96.63 6.34-.21 7.96-.63 2.65-1.13 3.11-2.13.69-2.65.69-4.96V59.4h15.57v13.03c0 5.38-.85 9.67-2.54 12.86s-4.52 5.54-8.48 7.04q-5.94 2.25-16.32 2.25t-16.32-2.25M521.34 16.17h-19.26V1.18h54.08v14.99H536.9v77.26h-15.57V16.17zM597.68 89.39c-4.23-3.46-6.34-9.11-6.34-16.95V22.16c0-7.84 2.11-13.49 6.34-16.95S608.9.02 618.67.02s16.76 1.73 20.99 5.19S646 14.32 646 22.16v50.28c0 7.84-2.12 13.49-6.34 16.95-4.23 3.46-11.23 5.19-20.99 5.19s-16.76-1.73-20.99-5.19m10.09-13.26c.58 1.08 1.69 1.83 3.34 2.25s4.17.63 7.55.63 5.9-.21 7.55-.63 2.77-1.17 3.34-2.25c.58-1.07.86-2.69.86-4.84V23.32c0-2.15-.29-3.77-.86-4.84-.58-1.08-1.69-1.83-3.34-2.25s-4.17-.63-7.55-.63-5.9.21-7.55.63-2.77 1.17-3.34 2.25-.87 2.69-.87 4.84v47.97c0 2.15.29 3.77.87 4.84M668.02 88.59c-4.23-3.99-6.34-10.07-6.34-18.22V1.18h15.57v68.15c0 3.54.75 6.08 2.25 7.61q2.25 2.31 8.94 2.31t8.94-2.31c1.5-1.54 2.25-4.07 2.25-7.61V1.18h15.57v69.19c0 8.15-2.12 14.23-6.34 18.22-4.23 4-11.03 6-20.41 6s-16.18-2-20.41-6zM732.6 1.17h36.79c6.38 0 10.96 1.37 13.72 4.1 2.77 2.73 4.15 7.17 4.15 13.32v17.3c0 3.46-.94 6.3-2.82 8.53-1.89 2.23-4.48 3.69-7.78 4.38 3.3 1 5.9 2.54 7.78 4.61 1.88 2.08 2.82 4.73 2.82 7.96v32.06h-15.57V64.02c0-2.69-.5-4.54-1.5-5.54q-1.5-1.5-5.88-1.5h-16.15v36.44h-15.57V1.16zm31.48 41.63c2.77 0 4.73-.56 5.88-1.67s1.73-2.98 1.73-5.59V23.2c0-2.69-.5-4.53-1.5-5.54q-1.5-1.5-5.88-1.5h-16.15V42.8h15.92M832.23 1.17h15.57v92.26h-15.57zM866.25 1.17h21.33l18.91 50.74V1.17h14.41v92.26h-16.72l-23.53-59.04v59.04h-14.42V1.17zM949.39 16.17h-19.26V1.18h54.08v14.99h-19.26v77.26h-15.57V16.17zM993.44 1.17h47.63v14.99h-32.06v23.18h23.87v14.99h-23.87v24.1h32.06v14.99h-47.63V1.16zM1054.33 1.17h36.79c6.38 0 10.96 1.37 13.72 4.1 2.77 2.73 4.15 7.17 4.15 13.32v17.3c0 3.46-.94 6.3-2.82 8.53-1.89 2.23-4.48 3.69-7.78 4.38 3.3 1 5.9 2.54 7.78 4.61 1.88 2.08 2.82 4.73 2.82 7.96v32.06h-15.57V64.02c0-2.69-.5-4.54-1.5-5.54q-1.5-1.5-5.88-1.5h-16.15v36.44h-15.57V1.16zm31.48 41.63c2.77 0 4.73-.56 5.88-1.67s1.73-2.98 1.73-5.59V23.2c0-2.69-.5-4.53-1.5-5.54q-1.5-1.5-5.88-1.5h-16.15V42.8h15.92M1126.29 1.17h21.33l18.91 50.74V1.17h14.41v92.26h-16.72l-23.53-59.04v59.04h-14.42V1.17zM1199.4 1.17h47.63v14.99h-32.06v23.18h23.87v14.99h-23.87v24.1h32.06v14.99h-47.63V1.16zM1270.32 16.17h-19.26V1.18h54.08v14.99h-19.26v77.26h-15.57V16.17zM32.56 207.96l2.31-2.45 8.51 5.62 3.6-2.45 3.03-5.33 3.03 1.87-3.03 5.04-.29.43-3.17 2.6 4.76 3.17h33.73l12.83-7.64v-.14h.14l10.24-14.42v-.14l7.93-20.18v-19.32l-8.22-21.19v-.15l-.14-.14-11.1-16.43-15.42-8.22H52.47l-14.85 8.07-1.73-3.03 15.57-8.36 1.15-.29h29.41l1.15.29 16.43 8.79 12.4 17.73 7.78 22.63v20.04l-.14.72-7.78 20.32-.58.87-11.39 15.71-12.68 7.93-1.01.29H50.45l-6.77-4.61-1.73 1.3-8.65 3.17-.58.14H20.47l-.58-.14-9.23-4.18-6.77-6.63-.29-.43L0 198.73l1.3-9.23 2.45-5.04 3.17 1.58-2.16 4.76-1.01 7.78 3.17 8.79 5.62 5.48 8.07 3.89h11.96l6.63-2.59 1.15-.86-7.78-5.33zm-8.65 1.16-2.88-1.73 45.84-91.82 3.31 1.59-46.27 91.97zM134.48 203.78l-.29-.43-4.61-13.84V177.4l4.61-13.98.29-.58 6.92-9.51.43-.43 7.93-5.48 1.3-.43h15.14l1.3.43 7.35 5.48.43.43 6.92 9.51.29.72 4.04 12.97.14.58v12.54l-.14.58-4.04 12.97-.29.58-6.92 10.09-.43.58-7.35 5.33-1.3.43h-15.14l-1.15-.43-7.93-5.33-.58-.58zm38.05 7.93 6.77-9.8v-.15l3.75-12.11v-12.68l-3.6-11.97-.14-.14-6.77-9.23-6.77-5.19H151.5l-7.21 5.04-6.63 8.94-4.32 13.12v11.68l4.32 13.26 6.34 9.23 7.35 5.04h14.27l6.92-5.04zM252.39 211.86l7.06-10.24 2.88 2.02-7.21 10.38-.58.43-7.93 5.33-1.15.43h-15.28l-1.3-.43-7.06-4.9-.43-.43-7.21-10.24-.29-.72-2.74-7.93-12.4 25.23-3.03-1.44 14.13-29.12v-12.69l.14-.58 3.6-13.41.29-.72 7.21-9.66.43-.43 7.35-5.33 1.3-.43h15.14l1.15.43 8.07 5.33.58.43 7.21 10.09-2.88 2.02-7.35-10.09v-.15l-7.21-4.61h-14.13l-6.77 4.9-.14.14-6.63 9.51-3.75 12.4v12.83l3.75 12.25 6.92 9.66 6.49 4.61h14.27l7.35-4.76.14-.14zM334.12 202.49l4.32-13.69V147h3.6v73.23h-3.6v-19.6l-1.15 3.17-6.92 10.09-.58.58-7.93 5.33-1.15.43h-12.83l-1.3-.43-7.21-5.33-.43-.43-7.06-10.09-.29-.72-2.74-9.66-13.69 27.1-3.03-1.44 15.42-30.85v-41.37h3.6v41.95l3.75 13.26 6.63 9.51 6.92 5.04h11.68l7.78-5.19 6.2-9.08zM381.83 154.34l-.29.43-4.18 5.77v59.68h-3.6V166.6l-10.52 17.15-3.17-1.88 13.69-22.34v-12.54h3.6v7.5l2.02-2.88.43-.43 5.62-3.75 1.3-.43h15.57l1.3.43 5.77 3.75.43.43 4.33 5.62 4.32-5.91 5.62-3.89 1.3-.43h13.69l1.3.43 6.05 4.32 5.19 6.92.29.72 3.03 9.95v50.89h-3.6v-51.17l-2.59-8.36-5.19-6.77-5.05-3.46h-12.54l-5.33 3.6-4.76 6.63v59.53h-3.6v-53.34l-10.38 16.87-3.03-1.88 13.12-21.62-5.19-6.63-4.9-3.17h-14.7l-5.33 3.89zM518.92 202.05l3.03 1.87-6.77 10.24-.72.72-8.07 5.04-1.15.29h-15.28l-1.3-.43-7.78-5.77-7.06-9.95-.29-.72-4.18-14.13v-11.96l.14-.58 4.33-13.7 7.5-10.09 7.35-5.48 1.3-.43h15.28l1.3.43 8.36 5.91 6.92 9.66.43.87 3.17 12.25v3.46h-52.47v9.66l3.75 12.69 6.77 9.8 6.92 5.04h14.56l7.35-5.04 6.63-9.66zm-35.46-46.41-6.77 9.37-3.46 11.1h48.15l-2.74-11.39-6.77-9.37-7.06-4.9H490.4l-6.92 5.19zM594.74 158.81l.43.58 3.32 7.93.14.86v52.04h-3.6v-51.89l-3.31-7.64-5.62-6.34-7.06-3.89h-11.39l-7.64 3.89-6.05 6.92-2.74 3.89v55.06h-3.6v-49.88l-9.08 13.12-3.31-1.87 12.4-17.88v-16.72h3.6v11.53l6.2-6.63.58-.43 8.36-4.18 1.01-.29h11.96l1.01.29 7.78 4.18.58.43 6.05 6.92zM631.78 150.59v69.62h-3.6v-69.62h-12.25v-3.6h12.11v-33.15h3.6v33.15h24.94v3.6h-24.8M806.35 101.29l4.33 7.64 1.58 11.68-2.02 5.91 6.49 8.36-2.74 2.16-5.04-6.49-2.74 8.36-7.78 7.64-.72.29-12.68 3.6-12.69-2.16.58-3.46 12.25 2.02 11.68-3.46 6.05-6.34 3.46-9.8-1.15-1.44-6.2-8.22-14.56-8.94h-28.69l-14.27 7.93-13.26 14.85-8.36 19.32v21.05l7.64 21.05 13.12 15.71 12.97 7.93h30.27l13.69-7.93 12.97-14.85 2.74 2.16-13.69 16-14.13 8.07-1.3.29h-31.43l-1.15-.29-13.26-8.36-14.27-17.3-7.93-21.62v-22.63l9.08-21.05 12.83-14.85 16.43-9.22h30.42l16 9.37 6.92 8.94 1.01-2.88-1.44-10.24-3.89-6.92zM879.43 202.05l3.03 1.87-6.77 10.24-.72.72-8.07 5.04-1.15.29h-15.28l-1.3-.43-7.78-5.77-7.06-9.95-.29-.72-4.18-14.13v-11.96l.14-.58 4.33-13.7 7.5-10.09 7.35-5.48 1.3-.43h15.28l1.3.43 8.36 5.91 6.92 9.66.43.87 3.17 12.25v3.46h-52.47v9.66l3.75 12.69 6.77 9.8 6.92 5.04h14.56l7.35-5.04 6.63-9.66zm-35.46-46.41-6.77 9.37-3.46 11.1h48.15l-2.74-11.39-6.77-9.37-7.06-4.9h-14.41l-6.92 5.19zM955.25 158.81l.43.58 3.32 7.93.14.86v52.04h-3.6v-51.89l-3.31-7.64-5.62-6.34-7.06-3.89h-11.39l-7.64 3.89-6.05 6.92-2.74 3.89v55.06h-3.6v-49.88l-9.08 13.12-3.31-1.87 12.4-17.88v-16.72h3.6v11.53l6.2-6.63.58-.43 8.36-4.18 1.01-.29h11.96l1.01.29 7.78 4.18.58.43 6.05 6.92zM1019.25 209.69l-.43.72-6.34 6.34-5.77 3.17-1.3.29h-12.4l-1.01-.29-6.34-3.17-.58-.43-5.62-5.91-.58-.72-3.17-7.78 3.6-1.16 2.74 7.35 5.91 6.05 5.19 2.74h11.96l5.33-2.88 2.88-3.17 2.59-2.88 3.03-6.77v-7.5l-3.17-6.77-5.04-5.33h-.14l-6.2-2.02h-14.13l-1.3-.43-4.61-2.02-.87-.58-3.6-5.62-.43-.72v-6.34l.14-.87 2.31-6.92.43-.58 5.04-4.9.72-.43 5.62-2.88 1.01-.29h10.81l1.3.29 5.19 2.88.72.43 5.05 4.9.43.72 3.46 8.07-3.46 1.44-3.75-8.36-4.76-4.47-4.61-2.59h-9.8l-5.33 2.45-4.61 4.61-2.16 6.77v5.04l2.74 4.76 5.48 2.31h13.41l1.3.29 6.34 2.16.43.43 5.91 5.62.43.72 3.17 7.5v8.94l-3.17 7.78zM1041.45 203.78l-.29-.43-4.61-13.84V177.4l4.61-13.98.29-.58 6.92-9.51.43-.43 7.93-5.48 1.3-.43h15.14l1.3.43 7.35 5.48.43.43 6.92 9.51.29.72 4.04 12.97.14.58v12.54l-.14.58-4.04 12.97-.29.58-6.92 10.09-.43.58-7.35 5.33-1.3.43h-15.14l-1.15-.43-7.93-5.33-.58-.58zm38.05 7.93 6.77-9.8v-.15l3.75-12.11v-12.68l-3.6-11.97-.14-.14-6.77-9.23-6.77-5.19h-14.27l-7.21 5.04-6.63 8.94-4.32 13.12v11.68l4.32 13.26 6.34 9.23 7.35 5.04h14.27l6.92-5.04zM1112.08 181.87l-2.6-2.16 11.1-15.71v-17.01h3.6v11.82l3.75-5.33.43-.58 3.17-2.31.72-.43 5.62-2.88 1.01-.29h10.81l1.3.29 5.19 2.88.72.43 5.05 4.9.43.72 2.88 7.06-3.46 1.44-3.17-7.35-4.76-4.47-4.61-2.59h-9.8l-5.33 2.45-2.74 2.02-7.21 10.09v55.35h-3.6V169.9l-8.5 11.96zM1216.73 209.69l-.43.72-6.34 6.34-5.77 3.17-1.3.29h-12.4l-1.01-.29-6.34-3.17-.58-.43-5.62-5.91-.58-.72-3.17-7.78 3.6-1.16 2.74 7.35 5.91 6.05 5.19 2.74h11.96l5.33-2.88 2.88-3.17 2.59-2.88 3.03-6.77v-7.5l-3.17-6.77-5.04-5.33h-.14l-6.2-2.02h-14.13l-1.3-.43-4.61-2.02-.87-.58-3.6-5.62-.43-.72v-6.34l.14-.87 2.31-6.92.43-.58 5.04-4.9.72-.43 5.62-2.88 1.01-.29h10.81l1.3.29 5.19 2.88.72.43 5.05 4.9.43.72 3.46 8.07-3.46 1.44-3.75-8.36-4.76-4.47-4.61-2.59h-9.8l-5.33 2.45-4.61 4.61-2.16 6.77v5.04l2.74 4.76 5.48 2.31h13.41l1.3.29 6.34 2.16.43.43 5.91 5.62.43.72 3.17 7.5v8.94l-3.17 7.78zM1247.72 165.15v55.06h-3.75v-49.44l-8.07 12.69-3.03-2.16 10.96-16.72v-50.74h3.75v45.41l4.32-6.05 8.22-5.77 1.3-.43h15.14l1.3.43 7.64 5.77 7.06 9.37.43 1.3v56.36h-3.6v-55.78l-6.49-8.94-6.77-5.04h-14.27l-7.21 4.9-6.92 9.8zM1328.88 146.99v73.23h-3.46v-69.48h-13.98v-3.75zm0-13.55h-3.6V119.6h3.6zM1415.08 188.94l-.14.58-4.04 13.69-.29.58-6.92 10.09-.43.58-7.35 5.33-1.3.43h-15.14l-1.15-.43-7.93-5.33-.58-.58-6.92-10.09-.29-.43-1.15-3.46v49.15h-3.6V146.99h3.6v19.17l1.15-2.88.29-.58 6.92-9.37.43-.43 7.93-5.48 1.3-.43h15.14l1.3.43 7.35 5.48.43.43 6.92 9.37.29.72 4.04 12.39.14.58v12.55m-7.21-24.08-.14-.15-6.77-9.08-6.77-5.19h-14.27l-7.21 5.04-6.63 8.79-4.61 13.26v10.09l4.61 14.85 6.34 9.23 7.35 5.04h14.27l6.92-5.04 6.77-9.8v-.15l3.75-12.83v-12.68l-3.6-11.39z"/></svg>