<svg xmlns="http://www.w3.org/2000/svg" width="1381" height="1067" fill="none" viewBox="0 0 1381 1067"><path fill="#5c7cfa" d="M357.623 1069.05c-2.02-10.02-4.65-20.09-4.06-30.42-4.48 1.21-10.22 2.84-14.82 2.94-24.31.52-40.17-5.89-60.17-18.74-30.19-19.39-57.38-49.7-53.84-88.13 1.76-19.16 17.07-32.87 23.31-50.21-16.13-.05-25.37 16.19-37.06 25.32-13.55 10.58-22.09 15.65-39.39 9.01-47.39-18.2-94.77-70.79-84.61-124.84 4.28-22.79 20.18-25.41 34.25-37.77 11.8-10.37-7.05-11.29-14.7-10.64-7.74.66-22.97 8.7-27.15 7.9-6.75-1.29-18.89-15.31-22.5-21.19-9.23-15.04-19.23-55.01-16.58-72.19 2.84-18.39 22.41-13.68 35.59-21.21 4.24-2.42 12.85-12.43 6.02-14.79-10.89-3.78-22.73 1.91-33.99.52-44-5.43-57.59-69.51-41.23-103.56 4.6-9.58 14.7-12.64 17.62-19.91 4.41-10.94-.34-10.75-4.73-18.58-9.55-17.02-14.66-40.31-10.52-59.53 1.97-9.12 10.06-23.84 10.65-32.03.6-8.4-2.97-19.86-1.71-31.04 2.56-22.68 17.14-55.37 36.26-68.43.19-8.13-1.89-15.61-.77-23.87 1.69-12.42 10.86-27.39 20.56-35.23 2.84-2.3 11.27-6.17 12.41-7.37.92-.97 6.08-14.74 7.84-18.03 5.14-9.61 15.46-24.09 23.85-30.92 3.84-3.12 9.82-5.33 12.73-8.58 3.53-3.93 3.38-8.62 5.7-12.56 2.91-4.96 38.51-30.49 44.21-31.87 2.6-.63 6.48.33 8.75-1.15.6-.39 4.99-9.53 7.37-12.15 9.68-10.7 48.1-33.79 61.89-35.5 20.3-2.51 38.14-16.01 58.24-20.89 10.66-2.59 14.51.61 26.04-4.39 11.78-5.11 19.26-13.19 29.43-19.26 6.08-3.63 8.29-1.27 7.69 5.57l-136.93 258.55 89.15 466.72 636.23 108.45 85.987-36.87c98.81 51.19 189.79 116.23 273.94 188.7 17.81 15.34 35.36 31.36 51.73 48.19H357.613z"/><path fill="#c3fae8" d="M326.163 52.88c-4.39-.45-.37 3.06.53 5.06 4.27 9.55 7.06 19.84 11.19 29.42.69 1.61-.08 2.48 2.49 2.02zm-36.51 57.8-23.92-33.39-3.48-2.1c7.85 9.68 14.44 20.38 21.9 30.33.66.88 4.26 6.44 5.5 5.15zm-144.07 54.77c.56.48 12.49 0 14.71 0 2.44 0 11.69-2.66 14.72-3.54 10.95-3.18 31.16-11.84 30.95-25.37-.03-1.74-1.75-5.37-1.54-5.57.38-.35 7.79 3.02 9.05 3.63 10.65 5.21 20.52 12.33 30.85 17.84 1.49.8 3.02 1.96 4.75 1.84-1.42-2.13-4.54-3.51-6.78-4.88-7.48-4.59-15.22-9.45-22.96-13.56-5.71-3.03-19.79-10.41-25.52-11-.77-.08-3.72-.29-2.05 1.05 13.76 1.73 17.12 12.84 7.1 22.32-9.84 9.31-32.33 15.41-45.66 16.27-2.67.17-4.01-.76-6.12-1.05-2.12-.29-1.98 1.6-1.49 2.01zm60.87 28.39c-.24-1.53-1.89-1.91-3.03-2.55-7.14-4-16.18-8.53-23.66-11.84-14.86-6.57-33.24-11.87-49.4-8.93l8.17 1.46c9.58 5.15 4.23 18.94-.24 26.24-5.77 9.43-14.58 17.01-24.95 20.74-1.64.59-2.75-.59-2.25 2.26 14.33-3.69 27.17-16.35 32.23-30.14 2.05-5.59 3.23-9.81.74-15.5-1.75-3.99-5.55-4.84 3.06-4.07 20.18 1.8 37.4 12.27 54.93 21.16 1.47.75 2.61 1.49 4.4 1.17m-10.15 78.1c.53-2.26-1.24-2.27-2.33-3.24-11.05-9.87-24.13-19.47-36.9-27-14.35-8.46-38.99-20.63-55.66-19.48-1.82.12-3.28-.24-4.52 1.56 1.3.98 3.57.34 5.36.73 4.27.92 8.36 3.77 11.38 6.88l-1-3.06-5.59-4.03c6.69-.15 13.35 2.03 19.55 4.29 25.98 9.48 48.32 26.38 69.73 43.37zm-104.49 11.15c.66.63 13.39-6.33 15.14-7.68 11.2-8.61 19.35-27.5 13.26-41-1.94-.2-.79 2.03-.55 3.09.68 3.06 1.77 5.12 1.52 8.47-1.31 17.43-12.33 28.03-27.34 34.63-.77.34-3.74.84-2.02 2.49zm105.51 54.76c1.13-1.1-4.69-5.35-5.58-6.08-18.8-15.47-41.7-30.1-64.42-39.05-24.95-9.82-50.24-11.91-72.03 6.09 1.02 1.7 2.24-.47 3.1-.96 10.11-5.65 23.72-13.13 35.76-10.51 7.56 1.64 5.31 11.37 4.74 16.51-.12 1.03-.65 3.85 1.03 3.57.84-4.57 1.67-10.03.99-14.67-.68-4.59-6.76-6.47 1.48-5.53 11.05 1.26 23.63 6.28 33.75 10.88 22.45 10.2 41.94 24.62 61.18 39.75m-173.49 39.56c.7 1.74 4.17 3.51 5.78 3.85 19.57 4.12 41.98-16.72 52.47-31.32 4.52-6.29 9.41-14.58 10.73-22.23-1.75.28-1.79 2-2.3 3.27-1.32 3.31-2.21 6-3.96 9.22-8.61 15.81-35.15 43.63-54.89 40.01-2.99-.55-4.78-3.02-7.83-2.81zm140.01 4.05c-.57-2.02-3.12-2.3-4.84-2.76-3.22-.87-7.62-1.65-10.98-2.21-35.78-6-72.52-4.28-105.92 10.57-.97.43-11.6 5.42-10.16 6.58 1.04.83 7.41-2.68 9.7-2.98 30.34-4 43.81 34.82 42.07 59.29-1.24 17.49-11.23 40.91-31.04 43l-9.57-.43c2.31 1.88 6.69 2.38 9.59 2.59 9.37.66 22.06-.6 31.41-2.17 20.19-3.38 40.27-11.73 60.47-15.62l4.05-2.04c-.66-1.34-2.79-.05-3.82.24-13.47 3.73-27.05 7.74-40.58 11.15-14.35 3.62-28.92 7.23-43.86 6.35l7.6-5.07c26.79-21.34 21.55-84.92-12.9-97.64l-10.94-2.75c6.6-1.65 12.73-4.73 19.26-6.61 29.05-8.38 58.13-7.83 87.65-2.4 4.33.8 8.48 2.19 12.8 2.92zM33.983 619.79c-2.01 2.08 5.95 4.97 7.57 5.11 11.67 1.05 15.21-12.71 16.7-21.92 3.34-20.72-1.78-49.52-10.21-68.74-4.12-9.4-16.86-33.56-29.8-23.98-.94.7-5.52 5.02-4.56 6.09l6.73-5.94c7.39-4.13 16.4 6.36 20.1 12.08 13.06 20.2 21.1 62.03 15.33 85.18-1.46 5.85-5.32 15.69-12.28 16.19-3.93.28-9.22-4.45-9.58-4.07m51.74 128.79c2.7-1.51 3.81-6.22 4.57-9.12 4.41-16.69 1.92-36.97-3.52-53.29-4.23-12.68-17.14-39.2-33.86-34.78-1.02.27-3.1 2.22-.22 1.81 10.45-4.03 19.56 7.48 24.33 15.33 12.03 19.8 17.72 50.61 11.25 72.95-.74 2.55-2.19 4.58-2.54 7.09zm223.2 98.37c-6.98-1.68-14.78-5.31-20.98-8.94-28.89-16.86-55.25-56.8-38.05-90.13 3.36-6.51 7.41-10.21 11.86-15.52.68-.81 2.68-2.02 1.01-3.04-20.49 18.29-25.13 42.5-13.89 67.63 15.28 34.19 52.92 56.1 89.93 58.16 28.54 1.6 51.17-21.98 49.28-50.27-.7-10.42-7.21-29.44-14.15-37.34-.43-.49-2.43-1.72-3.11-1.18 20.16 23.83 23.45 66.39-8.09 82.19-13.69 6.86-35.83 4.83-49.44-1.37-27.36-12.46-49.6-44.67-42.63-75.45 2.76-12.18 9.16-20.29 18.98-27.68-1.37-1.16-4.56 1.71-5.58 2.54-28.16 23.05-15.48 68.43 9.13 89.24l15.72 11.15zm-115.66 65.92c5.75-.14 10.45-8.77 11.1-13.74 2.78-21.25-14.41-52.5-27.34-68.9-14.66-18.59-48.87-50.58-74.32-46.91-1.96.28-14.63 4.92-11.91 7.86.37.4 3.72-3.34 4.69-3.92 7.75-4.64 20.8-1.85 28.78 1.39 27.66 11.25 57.6 45.28 69.87 72.14 5.42 11.87 14.15 35.18 5.22 46.52-1.85 2.35-4.54 3.23-6.09 5.57zm542.8-44.11c.61-5.94-.44-12.72 0-18.76l2.78 7.86c9.3 49.13-11.35 90.76-51.15 118.73-34.13 23.98-70.06 27.01-106.54 5.43-43.96-26-25.34-90.72-15.27-131.24 2.54-10.21 5.33-21.16 8.34-31.22 1.73-5.78 4.32-11.33 5.59-17.23-3.31 2.75-3.94 8.35-5.59 12.16l-15.71 58.83c3.54-25.65-7.04-54.27-26.89-70.98-5.65-4.76-13.7-10.27-20.79-12.17l15.15 9.7c26.14 18.7 40.75 58.58 25.63 88.36-5.4 10.62-11.11 15.43-20.55 22.05-15.45 10.83-24.49 13.99-43.83 10.47-41.87-7.61-71.4-43.16-64.59-86.39.97-6.16 3.39-11.86 4.99-17.82-2.65 1.49-3.85 6.24-4.6 9.09-11.03 41.98 11.73 80.92 52.52 93.61 2.55.79 12.7 3.78 14.48 3.78h14.71c.24 1.44-1.76 1.43-2.82 1.74-42.29 12.39-81.08-14.77-95.62-53.94-8.03-21.65-9.46-45.93-4.56-68.51 1.35-6.22 4.17-12.17 5.48-17.86.45-1.96-.36-1.4-1.9-1.39-2.45 9.95-5.7 19.77-7.03 29.99-8.57 65.63 38.88 135.38 111.05 111 21.51-7.27 36.36-18.34 45.63-39.58l3.55-10.14c-1.06 9.39-3.74 18.6-4.99 27.96-2.5 18.75-3.05 39.44 4.49 57.22 8.57 20.2 33.97 31.21 54.04 36.24 52.56 13.17 109.88-33.55 125.79-81.62 8.2-24.78 4.32-58.89-4.59-83.18-.59-1.62.61-2.75-2.26-2.26 13.45 45.51-9.79 100.77-49.79 125.17-58.61 35.75-106.03-12.75-97.25-73.88 2.94-20.44 11.89-39.71 23.84-56.29 1.14-1.59 4.64-3.58 2.98-5.14-24.66 27.36-37.14 73.64-23.61 108.79 15.06 39.12 54.01 49.52 90.09 30.68 30.57-15.96 55.33-55.1 58.82-89.27zm27.4-34.99c-2.78-.47-1.73.52-2.27 2.24-15.34 48.45-21.1 102.99.05 150.57 11.16 25.11 46.41 61.12 75.81 59.16 53.35-3.56 80.9-65.32 84.72-112.06.53-6.52-.69-13.2.99-19.8-2.75-.4-1.98.44-2.03 2.52-.4 17.07-1.55 32.89-6.36 49.42-8.88 30.5-29.28 66.12-61.6 75.33-26.32 7.5-42.69-1.1-61.93-18.24-36.29-32.34-43.68-75.71-41.6-122.76l3.07-22.79c1.76-.24.99 2.32 1.01 3.54.14 6.98-.48 14.47-.03 21.33 2.33 35.02 25.28 68.43 54.89 86.1s56.88 5.31 76.45-19.78c20.06-25.71 29.8-56.86 26.98-89.7-.31-3.64-2.99-16.95-4.57-19.77-.8-1.42-1.89-1.57-1.55.53.46 2.8 2.12 6.24 2.77 9.41 6.79 33.4-2.06 67.02-21.61 94.45-26.33 36.96-59.14 42.24-93.79 11.77-41.5-36.49-43.89-81.34-32.18-132.62.67-2.93 1.91-5.99 2.78-8.88zm271.897 99.38c6.19-20.91 7.41-42.8 8.15-64.42l-2.06-13.66c-1.76-.25-1.08 2.38-.94 3.47.18 1.35.89 2.6.97 4.11.44 7.96.46 18.47 0 26.42-.33 5.67-1.29 13.41-2.13 19.17-1.08 7.39-3.46 14.49-4.76 21.61-.2 1.09-1.08 3.53.77 3.31zm-57.827-67.94c-3.14-3.7-1.01 5.13-.98 5.54.18 2.52-.18 5.11-.03 7.63 1.76.24.99-2.32 1.01-3.54.03-1.57.31-9.27 0-9.64zm-2.03 36.51c-1.14-1.34-1.94-.15-2.03 1.51-.27 5.4-.44 9.53-1.29 14.95-2.58 16.35-8.18 40.54-14.16 55.82-.56 1.43-4.13 7.52-3.83 7.83 1.7 1.74 2.13-1.34 2.5-2.01 7.3-13.21 13.75-43.13 16.5-58.6.49-2.74 3.06-18.6 2.3-19.5zm-696 108.51c2.81 3.09 7.44 5.61 11.14 7.63 27.98 15.24 78.07 21.74 74.11-24.38-3.59-41.74-66.34-92.14-107.83-84.42-13.81 2.57-24.84 12.35-24.08 27.14l3.83-11.88c19.08-27.87 60.38-10.24 82.32 5.38 22.14 15.76 54.91 54.1 41.55 82.94-10.65 23-46.08 16-64.15 6.58l-16.88-8.98zm922.257-70.99c-.38-.44-2.8-.28-2.03 1.51 1.16 14.6-2.86 28.73-4.05 43.11 1.41.22 1.54-2.75 1.75-3.82 1.21-6.29 2.53-13.77 3.24-20.08.27-2.38-.15-4.74.05-7.05.2-2.43 2.17-12.33 1.04-13.66zm-185.68 42.59c2.03-7.5 8.13-14.49 8.12-22.31l-10.14 21.81 2.01.5zm182.64 43.61c3.55-3.41 5.7-9.56 7.6-14.2 5.75-14.05 11.77-32.6 13.23-47.67.17-1.78 1.13-2.56-1.05-4.04l-1.78 13.43c-2.44 9.56-4.68 19.15-8.09 28.42l-9.91 24.07zm-647.307 43.61c-.83-7.78-2.77-14.86-5.89-22-17.86-40.9-77.29-77.76-121.95-64.72-38.99 11.38-34.11 53.32-14.62 80.55 1.4 1.95 4.45 7.21 6.51 5.67-15.52-18.69-28.36-46.63-13.64-69.41 10.75-16.64 35.43-19.99 53.64-17.22 41.65 6.34 86.76 41.8 93.97 84.58.31 1.83-1.1 3.02 1.98 2.56zm687.887-23.33c1.63-.39 2.25-2.33 2.9-3.69 5.39-11.19 11.31-26.18 14.62-38.13 1.74-6.29 4.08-13.63 2.76-20.05l-4.79 22.08c-1.82 5.24-3.6 10.53-5.58 15.72-3.09 8.09-7.26 15.8-9.91 24.07m-208.5-47.66c-5.22-.62-11.4.45-16.74 0 1.31 3.63 4.15 1.08 6.57.99 39.51-1.49 68.62 36.58 86.25 66.98.73 1.27 1.13 3.2 3.06 3.03.74-.6-.93-3.05-1.33-3.74-15.88-27.56-43.68-63.23-77.8-67.25zm150.67 23.32c2.28-1.24 3.51-4.78 4.55-7.11 2.04-4.56 4.64-10.28 4.57-15.2zm-206.977 47.67c.48-.56 0-12.49 0-14.71 0-2.52 2.65-12.61 3.54-15.73 3.71-13.06 10.09-23.12 19.79-32.44-1.88-.41-2.41 1.02-3.55 2.02-16.1 14.25-21.19 38.61-21.81 59.34-.78 1.8 1.66 1.94 2.03 1.51zm-43.64-40.57c.12-.15.06-1.2.57-1.93 2.95-4.31 6.68-8.64 9.2-13.17.77-1.39 1.92-2.17 1.4-4.17l-13.18 18.76c-.12.88 1.95.58 2.01.5zm234.377 22.31c2.24.51 2.27-1.2 3.24-2.33 2.49-2.89 5.88-6.91 5.88-10.85l-9.13 13.18zm18.26 4.06c-1.7-1.85-2.12 1.46-2.48 2.03-1.89 3.06-4.85 5.64-5.63 9.12l3.48-3.11c.54-1.49 5.52-7.08 4.63-8.04m45.66 6.09c-1.64-1.77-3.08 3.38-4.02 3.58-2.83 3.09-4.51 7.43.16 2.19.84-.94 4.71-4.85 3.86-5.77"/><path fill="#c3fae8" d="M736.063 868.76c-3.49 34.17-28.25 73.3-58.82 89.27-36.08 18.84-75.03 8.45-90.09-30.68-13.53-35.14-1.05-81.43 23.61-108.79 1.67 1.56-1.83 3.55-2.98 5.14-11.94 16.58-20.9 35.85-23.84 56.29-8.78 61.13 38.65 109.63 97.25 73.88 40-24.4 63.24-79.67 49.79-125.17 2.87-.5 1.66.64 2.26 2.26 8.91 24.29 12.79 58.41 4.59 83.18-15.9 48.06-73.22 94.79-125.79 81.62-20.07-5.03-45.47-16.04-54.04-36.24-7.55-17.78-7-38.47-4.49-57.22 1.25-9.36 3.93-18.57 4.99-27.96l-3.55 10.14c-9.27 21.24-24.12 32.31-45.63 39.58-72.16 24.38-119.62-45.37-111.05-111 1.33-10.22 4.58-20.05 7.03-29.99 1.55-.01 2.35-.57 1.9 1.39-1.31 5.69-4.13 11.63-5.48 17.86-4.9 22.58-3.47 46.86 4.56 68.51 14.54 39.17 53.33 66.33 95.62 53.94 1.05-.31 3.05-.3 2.82-1.74h-14.71c-1.78 0-11.93-2.99-14.48-3.78-40.79-12.69-63.55-51.63-52.52-93.61.75-2.85 1.95-7.6 4.6-9.09-1.6 5.96-4.02 11.66-4.99 17.82-6.81 43.23 22.72 78.78 64.59 86.39 19.34 3.52 28.38.35 43.83-10.47 9.44-6.62 15.16-11.43 20.55-22.05 15.12-29.78.52-69.65-25.63-88.36l-15.15-9.7c7.09 1.9 15.14 7.41 20.79 12.17 19.85 16.72 30.43 45.34 26.89 70.98l15.71-58.83c1.65-3.8 2.28-9.41 5.59-12.16-1.27 5.9-3.86 11.45-5.59 17.23-3.01 10.06-5.8 21-8.34 31.22-10.07 40.52-28.69 105.25 15.27 131.24 36.48 21.58 72.41 18.55 106.54-5.43 39.8-27.97 60.45-69.6 51.15-118.73l-2.78-7.86c-.44 6.05.61 12.82 0 18.76zM763.463 833.77c-.88 2.88-2.11 5.95-2.78 8.88-11.71 51.27-9.32 96.13 32.18 132.62 34.65 30.47 67.46 25.19 93.79-11.77 19.54-27.43 28.4-61.04 21.61-94.45-.65-3.17-2.31-6.61-2.77-9.41-.34-2.1.75-1.95 1.55-.53 1.58 2.82 4.26 16.12 4.57 19.77 2.82 32.83-6.92 63.99-26.98 89.7-19.57 25.08-46.9 37.42-76.45 19.78s-52.56-51.08-54.89-86.1c-.46-6.86.16-14.35.03-21.33-.02-1.22.75-3.78-1.01-3.54l-3.07 22.79c-2.08 47.05 5.31 90.43 41.6 122.76 19.23 17.14 35.61 25.74 61.93 18.24 32.32-9.21 52.73-44.84 61.6-75.33 4.81-16.53 5.96-32.36 6.36-49.42.05-2.08-.73-2.93 2.03-2.52-1.68 6.6-.45 13.28-.99 19.8-3.81 46.74-31.36 108.5-84.72 112.06-29.39 1.96-64.65-34.05-75.81-59.16-21.15-47.58-15.39-102.13-.05-150.57.55-1.73-.51-2.71 2.27-2.24zM214.573 573.14c.93.83-17.22 15.06-18.77 16.22-5.08 3.78-10.85 8-16.41 10.98-18.42 9.88-41.83 9.62-56.12 27.06l10.64-2.42c26.75 3.02 44.59 32.77 52.29 56.13 7.01 21.27 11.25 59.55-4.58 77.64l-8.64 7.07c29.81 2.58 49.48-22.68 70.51-39.55 15.5-12.43 33.28-24.65 51.55-32.65 1.69-.74 4.09-1.84 5.73-2.38 1.04-.34 3.24-1.4 3.08.54-24.29 9.46-45.43 24.2-65.44 40.57-14.62 11.96-33 32.69-52.74 34.5-19.6 1.8-35.07 1.53-49.78-13.16-23.27-23.25-36.58-70.82-28.4-102.51 3.51-13.6 9.99-22.15 20.91-30.82 14.87-11.82 31.58-11.92 47.32-19.64 9.6-4.71 20.72-13.75 29.21-20.49 1.12-.89 1.92-2.16 3.04-3.04 1.01-.79 5.85-4.71 6.59-4.05zm-84.5 53.97c-22.78 3.95-25.1 40.41-23.08 58.11 2.88 25.23 15.63 55.64 35.51 72 16.92 13.92 35.55 11.16 44.15-9.66 10.39-25.13 2.12-62.57-10.46-85.88-8.32-15.43-26.29-38.02-46.13-34.57zM308.923 846.95l-15.72-11.15c-24.61-20.81-37.29-66.19-9.13-89.24 1.02-.83 4.21-3.7 5.58-2.54-9.82 7.39-16.22 15.5-18.98 27.68-6.97 30.78 15.27 62.99 42.63 75.45 13.61 6.2 35.74 8.22 49.44 1.37 31.54-15.79 28.25-58.35 8.09-82.19.68-.54 2.68.69 3.11 1.18 6.94 7.9 13.46 26.92 14.15 37.34 1.89 28.3-20.74 51.87-49.28 50.27-37.02-2.07-74.65-23.97-89.93-58.16-11.23-25.14-6.6-49.34 13.89-67.63 1.66 1.02-.34 2.24-1.01 3.04-4.45 5.31-8.51 9.02-11.86 15.52-17.2 33.34 9.17 73.27 38.05 90.13 6.21 3.62 14 7.26 20.98 8.94zM195.293 484.91c3.64 3.1-4.13 1.12-4.63 1.07-24.54-2.28-46.32-3.64-70.7 2.23-4.83 1.16-10.77 2.78-14.97 5.32l7.01 2.11c29.62 19.75 29.48 86.16 9.21 111.46-16.86 21.06-35.22 7.98-43.39-12.4-8.97-22.37-9.17-56.9.59-79.06 7.56-17.17 17.71-21.88 34.92-26.96 26.65-7.87 49.22-6.81 76.34-3.76 1.34.15 5.27-.31 5.6-.02zm-95.68 10.33c-6.5 1.4-13.3 9.41-16.45 14.99-12.54 22.2-13.49 54.92-5.85 78.91 4.81 15.1 19.48 36.72 36.84 23.06 24.79-19.51 24.81-83.14 6.5-106.95-4.94-6.43-12.48-11.86-21.04-10.01M163.843 381.46c-4.32-.73-8.47-2.12-12.8-2.92-29.52-5.43-58.6-5.97-87.65 2.4-6.54 1.88-12.66 4.96-19.26 6.61l10.94 2.75c34.45 12.72 39.69 76.3 12.9 97.64l-7.6 5.07c14.93.88 29.51-2.74 43.86-6.35 13.53-3.41 27.12-7.42 40.58-11.15 1.03-.29 3.17-1.58 3.82-.24l-4.05 2.04c-20.2 3.89-40.28 12.24-60.47 15.62-9.34 1.56-22.04 2.83-31.41 2.17-2.9-.21-7.27-.71-9.59-2.59l9.57.43c19.81-2.09 29.8-25.51 31.04-43 1.74-24.47-11.73-63.29-42.07-59.29-2.28.3-8.66 3.81-9.7 2.98-1.44-1.16 9.19-6.15 10.16-6.58 33.41-14.84 70.14-16.56 105.92-10.57 3.36.56 7.76 1.34 10.98 2.21 1.71.46 4.27.74 4.84 2.76zM279.503 1010.23l16.88 8.98c18.08 9.42 53.5 16.42 64.15-6.58 13.36-28.85-19.42-67.19-41.55-82.94-21.94-15.62-63.24-33.25-82.32-5.38l-3.83 11.88c-.76-14.79 10.27-24.57 24.08-27.14 41.5-7.73 104.25 42.68 107.83 84.42 3.96 46.13-46.13 39.62-74.11 24.38-3.7-2.01-8.33-4.54-11.14-7.63zM551.413 1069.05c-3.09.46-1.67-.73-1.98-2.56-7.22-42.77-52.32-78.24-93.97-84.58-18.21-2.77-42.89.58-53.64 17.22-14.73 22.79-1.89 50.72 13.64 69.41-2.05 1.54-5.11-3.72-6.51-5.67-19.5-27.23-24.38-69.17 14.62-80.55 44.67-13.04 104.09 23.82 121.95 64.72 3.12 7.14 5.06 14.22 5.89 22zM193.263 912.87c1.56-2.33 4.25-3.22 6.09-5.57 8.93-11.33.2-34.65-5.22-46.52-12.26-26.86-42.21-60.89-69.87-72.14-7.98-3.24-21.03-6.03-28.78-1.39-.98.59-4.32 4.33-4.69 3.92-2.72-2.95 9.95-7.58 11.91-7.86 25.45-3.67 59.66 28.32 74.32 46.91 12.93 16.4 30.12 47.65 27.34 68.9-.65 4.97-5.36 13.6-11.1 13.74zM197.323 337.85c-19.24-15.13-38.73-29.55-61.18-39.75-10.12-4.6-22.7-9.63-33.75-10.88-8.23-.94-2.15.94-1.48 5.53.68 4.64-.15 10.1-.99 14.67-1.68.28-1.15-2.53-1.03-3.57.57-5.15 2.82-14.87-4.74-16.51-12.04-2.62-25.65 4.85-35.76 10.51-.87.48-2.09 2.65-3.1.96 21.79-18 47.08-15.91 72.03-6.09 22.72 8.95 45.63 23.57 64.42 39.05.89.73 6.71 4.98 5.58 6.08M33.983 619.79c.37-.38 5.65 4.35 9.58 4.07 6.96-.5 10.82-10.34 12.28-16.19 5.77-23.16-2.27-64.98-15.33-85.18-3.7-5.72-12.71-16.22-20.1-12.08l-6.73 5.94c-.96-1.07 3.61-5.39 4.56-6.09 12.94-9.58 25.67 14.58 29.8 23.98 8.43 19.22 13.55 48.02 10.21 68.74-1.48 9.22-5.03 22.97-16.7 21.92-1.62-.15-9.59-3.03-7.57-5.11M206.453 193.84c-1.79.31-2.93-.43-4.4-1.17-17.52-8.88-34.75-19.36-54.93-21.16-8.61-.77-4.8.08-3.06 4.07 2.49 5.69 1.31 9.91-.74 15.5-5.06 13.79-17.91 26.46-32.23 30.14-.5-2.86.62-1.67 2.25-2.26 10.37-3.73 19.18-11.31 24.95-20.74 4.47-7.3 9.82-21.09.24-26.24l-8.17-1.46c16.16-2.94 34.54 2.35 49.4 8.93 7.48 3.31 16.52 7.84 23.66 11.84 1.13.63 2.79 1.01 3.03 2.55M145.583 165.45c-.49-.41-.63-2.3 1.49-2.01 2.11.29 3.45 1.22 6.12 1.05 13.33-.86 35.82-6.96 45.66-16.27 10.02-9.49 6.66-20.6-7.1-22.32-1.67-1.34 1.28-1.12 2.05-1.05 5.74.59 19.81 7.97 25.52 11 7.74 4.11 15.48 8.96 22.96 13.56 2.24 1.37 5.36 2.75 6.78 4.88-1.73.12-3.26-1.04-4.75-1.84-10.33-5.51-20.2-12.63-30.85-17.84-1.25-.61-8.66-3.98-9.05-3.63-.21.19 1.51 3.83 1.54 5.57.21 13.53-20 22.19-30.95 25.37-3.03.88-12.29 3.54-14.72 3.54-2.22 0-14.15.48-14.71 0zM196.303 271.94c-21.4-17-43.75-33.89-69.73-43.37-6.2-2.26-12.85-4.43-19.55-4.29l5.59 4.03 1 3.06c-3.02-3.11-7.12-5.96-11.38-6.88-1.79-.38-4.05.25-5.36-.73 1.24-1.8 2.71-1.43 4.52-1.56 16.67-1.14 41.32 11.02 55.66 19.48 12.78 7.54 25.85 17.13 36.9 27 1.09.97 2.86.98 2.33 3.24zM1030.8 998.06c34.13 4.02 61.92 39.69 77.8 67.25.4.7 2.07 3.14 1.33 3.74-1.93.17-2.32-1.76-3.06-3.03-17.63-30.4-46.74-68.47-86.25-66.98-2.42.09-5.25 2.64-6.57-.99 5.34.45 11.52-.62 16.74 0zM85.723 748.58c.35-2.51 1.8-4.54 2.54-7.09 6.47-22.35.78-53.15-11.25-72.95-4.77-7.85-13.88-19.36-24.33-15.33-2.88.41-.8-1.54.22-1.81 16.72-4.42 29.63 22.1 33.86 34.78 5.44 16.32 7.93 36.6 3.52 53.29-.76 2.89-1.87 7.61-4.57 9.12zM23.833 377.41c3.05-.21 4.85 2.26 7.83 2.81 19.74 3.62 46.28-24.2 54.89-40.01 1.76-3.22 2.64-5.92 3.96-9.22.51-1.27.55-2.99 2.3-3.27-1.32 7.65-6.22 15.94-10.73 22.23-10.5 14.61-32.9 35.44-52.47 31.32-1.61-.34-5.08-2.11-5.78-3.85zM975.503 901.72c.76.9-1.82 16.76-2.3 19.5-2.75 15.48-9.2 45.39-16.5 58.6-.37.67-.8 3.76-2.5 2.01-.3-.31 3.27-6.4 3.83-7.83 5.98-15.29 11.58-39.48 14.16-55.82.85-5.42 1.02-9.55 1.29-14.95.08-1.66.89-2.85 2.03-1.51zM1035.36 933.15c-1.85.22-.97-2.22-.77-3.31 1.3-7.12 3.68-14.22 4.76-21.61.84-5.75 1.8-13.5 2.13-19.17.46-7.95.44-18.46 0-26.42-.08-1.5-.79-2.76-.97-4.11-.14-1.09-.83-3.72.94-3.47l2.06 13.66c-.74 21.62-1.96 43.51-8.15 64.42zM974.493 1069.05c-.37.43-2.81.29-2.03-1.51.62-20.73 5.71-45.09 21.81-59.34 1.14-1.01 1.67-2.43 3.55-2.02-9.71 9.32-16.09 19.38-19.79 32.44-.89 3.12-3.54 13.21-3.54 15.73 0 2.22.48 14.14 0 14.71zM1198.72 1025.44l9.91-24.07c3.42-9.27 5.65-18.86 8.09-28.42l1.78-13.43c2.18 1.49 1.22 2.27 1.05 4.04-1.46 15.07-7.47 33.61-13.23 47.67-1.9 4.64-4.05 10.79-7.6 14.2zM1239.3 1045.72c2.64-8.27 6.82-15.97 9.91-24.07 1.98-5.18 3.76-10.47 5.58-15.72l4.79-22.08c1.32 6.42-1.02 13.76-2.76 20.05-3.31 11.94-9.23 26.94-14.62 38.13-.65 1.35-1.27 3.29-2.9 3.69"/><path fill="#c3fae8" d="M91.813 283.09c-1.72-1.65 1.25-2.15 2.02-2.49 15.01-6.6 26.04-17.19 27.34-34.63.25-3.35-.84-5.41-1.52-8.47-.24-1.06-1.38-3.28.55-3.09 6.1 13.5-2.06 32.39-13.26 41-1.75 1.35-14.49 8.31-15.14 7.68zM1201.76 939.24c1.13 1.33-.83 11.23-1.04 13.66-.19 2.32.22 4.68-.05 7.05-.71 6.31-2.03 13.8-3.24 20.08-.21 1.08-.34 4.04-1.75 3.82 1.19-14.38 5.21-28.51 4.05-43.11-.78-1.79 1.65-1.95 2.03-1.51zM289.653 110.68c-1.23 1.29-4.84-4.27-5.5-5.15-7.46-9.96-14.05-20.65-21.9-30.33l3.48 2.1 23.92 33.39zM326.163 52.88l14.21 36.5c-2.58.46-1.8-.41-2.49-2.02-4.13-9.58-6.92-19.88-11.19-29.42-.9-2-4.92-5.51-.53-5.06M1016.08 981.83l-2.01-.5 10.14-21.81c.01 7.82-6.09 14.81-8.12 22.31zM1181.47 1021.38l9.12-22.31c.07 4.92-2.53 10.64-4.57 15.2-1.04 2.33-2.27 5.87-4.55 7.11M930.853 1028.48c-.06.08-2.14.38-2.01-.5l13.18-18.76c.51 2-.63 2.78-1.4 4.17-2.52 4.52-6.24 8.86-9.2 13.17-.5.73-.45 1.78-.57 1.93zM1165.23 1050.79l9.13-13.18c0 3.94-3.39 7.96-5.88 10.85-.98 1.13-1 2.84-3.24 2.33zM1183.49 1054.85c.89.96-4.1 6.55-4.63 8.04l-3.48 3.11c.78-3.48 3.74-6.06 5.63-9.12.36-.58.77-3.88 2.48-2.03M977.533 865.21c.31.37.03 8.07 0 9.64-.02 1.22.75 3.78-1.01 3.54-.16-2.52.2-5.11.03-7.63-.03-.42-2.16-9.24.98-5.54zM1229.15 1060.94c.85.92-3.02 4.83-3.86 5.77-4.68 5.24-2.99.89-.16-2.19.94-.2 2.38-5.35 4.02-3.58"/><path stroke="#c3fae8" stroke-miterlimit="10" stroke-width=".5" d="m563.623 495.27 99.59-245.1 55.88-152.39-25.4 224.77 92.7-95.88-67.3-128.89-105.4-66.03-53.97-9.84 53.97 123.31-185.4-55.71-47.6-58.08 155.79-27.84M654.103 128.34l64.99-30.56"/><path stroke="#c3fae8" stroke-miterlimit="10" stroke-width=".5" d="m843.513 184.89-50.98 87.05-22.81 62.63-25.96 11.01 12.58 14.94-17.3 25.96-19.95-4.69 8.94 22.79-23.6 25.95-21.24-13.37-4.72 22.03-114.85 56.08 130.07-172.72-80-177.33V31.75M471.583 362.1l-84.17 80.23-32.25-16.52zM335.503 373.26l19.66 52.55-24.75 139.58-15.37-245.14z"/><path stroke="#c3fae8" stroke-miterlimit="10" stroke-width=".5" d="m335.503 373.26 136.08-11.16 35.4-103.33-52.59-93.11-41.02 142.16-81.11-92.82-17.22 105.25 156.54 41.85"/><path stroke="#c3fae8" stroke-miterlimit="10" stroke-width=".5" d="m413.373 307.82 58.21 54.28-40.67-115.07 46.97 69.44 44.05-31.19-14.95-26.51-35.4-28.83-40.67 17.09M653.923 234.4l-182.34 127.7 165.04-46.5M453.363 428.98l183.26-113.38M274.773 234.4l196.81-131.88M319.163 150.59l93.68-8.71 172.5 57.16"/><path stroke="#c3fae8" stroke-miterlimit="10" stroke-width=".5" d="m549.883 290.33-95.49-124.67 95.49 93.11"/><path stroke="#c3fae8" stroke-miterlimit="10" stroke-width=".5" d="m581.763 260.72-127.37-95.06 161.03 93.11-31.88-122.61M454.393 165.66l-92.15 51.99M686.593 793.27l60.85-70.22-448.55-128.11 168.76 30.01"/><path stroke="#c3fae8" stroke-miterlimit="10" stroke-width=".5" d="m467.653 782.97 279.79-59.92-423.04-4.5"/><path stroke="#c3fae8" stroke-miterlimit="10" stroke-width=".5" d="m309.673 641.42 437.77 81.63 230.24 141.26"/><path stroke="#c3fae8" stroke-miterlimit="10" stroke-width=".5" d="M1054.65 832.16 747.443 723.05l-279.79-98.1-80.24-182.62 125.64 52.94h50.57l228.91-223.33 250.977-113.2M265.823 251.3l64.59 314.09"/><path stroke="#c3fae8" stroke-miterlimit="10" stroke-width=".5" d="m901.623 262.53-108.08 8.5 112.53 250.89"/><path stroke="#c3fae8" stroke-miterlimit="10" stroke-width=".5" d="m904.723 304.3-110.74-33.06-9.52 185.48"/><path stroke="#c3fae8" stroke-miterlimit="10" stroke-width=".5" d="m906.073 170.21-112.53 100.82 118.86 139.35M894.993 659.28l-147.55 63.77 45.09 60.57"/><path stroke="#c3fae8" stroke-miterlimit="10" stroke-width=".5" d="m647.003 591.84 100.44 131.21 38.37-81.63"/><path fill="#15ffab" d="M793.813 274.82a3.58 3.58 0 1 0 0-7.16 3.58 3.58 0 0 0 0 7.16M784.463 462.57c-1.98 0-3.58-1.6-3.58-3.58s1.6-3.58 3.58-3.58 3.58 1.6 3.58 3.58-1.6 3.58-3.58 3.58M906.073 525.5c-1.98 0-3.58-1.6-3.58-3.58s1.6-3.58 3.58-3.58 3.58 1.6 3.58 3.58-1.6 3.58-3.58 3.58M912.403 415.2a3.58 3.58 0 1 0 0-7.16 3.58 3.58 0 0 0 0 7.16M904.723 307.88c-1.98 0-3.58-1.6-3.58-3.58s1.6-3.58 3.58-3.58 3.58 1.6 3.58 3.58-1.6 3.58-3.58 3.58M901.623 266.11c-1.98 0-3.58-1.6-3.58-3.58s1.6-3.58 3.58-3.58 3.58 1.6 3.58 3.58-1.6 3.58-3.58 3.58M1044.63 161.12c-1.98 0-3.58-1.6-3.58-3.58s1.6-3.58 3.58-3.58 3.58 1.6 3.58 3.58-1.6 3.58-3.58 3.58M906.073 173.79a3.58 3.58 0 1 0 0-7.16 3.58 3.58 0 0 0 0 7.16M843.513 186.42c-1.98 0-3.58-1.6-3.58-3.58s1.6-3.58 3.58-3.58 3.58 1.6 3.58 3.58-1.6 3.58-3.58 3.58M786.393 230.25a3.58 3.58 0 1 0 0-7.16 3.58 3.58 0 0 0 0 7.16M719.093 101.36a3.58 3.58 0 1 0 0-7.16 3.58 3.58 0 0 0 0 7.16M654.103 131.92a3.58 3.58 0 1 0 0-7.16 3.58 3.58 0 0 0 0 7.16M615.423 35.33a3.58 3.58 0 1 0 0-7.16 3.58 3.58 0 0 0 0 7.16M559.723 25.49c-1.98 0-3.58-1.6-3.58-3.58s1.6-3.58 3.58-3.58 3.58 1.6 3.58 3.58-1.6 3.58-3.58 3.58M538.483 7.16c-1.98 0-3.58-1.6-3.58-3.58s1.6-3.58 3.58-3.58 3.58 1.6 3.58 3.58-1.6 3.58-3.58 3.58M646.033 593.58a3.58 3.58 0 1 0 0-7.16 3.58 3.58 0 0 0 0 7.16M785.813 644.19a3.58 3.58 0 1 0 0-7.16 3.58 3.58 0 0 0 0 7.16M895.463 662.86c-1.98 0-3.58-1.6-3.58-3.58s1.6-3.58 3.58-3.58 3.58 1.6 3.58 3.58-1.6 3.58-3.58 3.58M747.443 726.63c-1.98 0-3.58-1.6-3.58-3.58s1.6-3.58 3.58-3.58 3.58 1.6 3.58 3.58-1.6 3.58-3.58 3.58M792.533 787.2c-1.98 0-3.58-1.6-3.58-3.58s1.6-3.58 3.58-3.58 3.58 1.6 3.58 3.58-1.6 3.58-3.58 3.58M686.593 796.85a3.58 3.58 0 1 0 0-7.16 3.58 3.58 0 0 0 0 7.16M467.653 628.53a3.58 3.58 0 1 0 0-7.16 3.58 3.58 0 0 0 0 7.16M298.893 598.52c-1.98 0-3.58-1.6-3.58-3.58s1.6-3.58 3.58-3.58 3.58 1.6 3.58 3.58-1.6 3.58-3.58 3.58M330.413 568.96c-1.98 0-3.58-1.6-3.58-3.58s1.6-3.58 3.58-3.58 3.58 1.6 3.58 3.58-1.6 3.58-3.58 3.58M563.623 498.85c-1.98 0-3.58-1.6-3.58-3.58s1.6-3.58 3.58-3.58 3.58 1.6 3.58 3.58-1.6 3.58-3.58 3.58M513.053 498.85c-1.98 0-3.58-1.6-3.58-3.58s1.6-3.58 3.58-3.58 3.58 1.6 3.58 3.58-1.6 3.58-3.58 3.58M615.423 262.34c-1.98 0-3.58-1.6-3.58-3.58s1.6-3.58 3.58-3.58 3.58 1.6 3.58 3.58-1.6 3.58-3.58 3.58M454.393 169.24a3.58 3.58 0 1 0 0-7.16 3.58 3.58 0 0 0 0 7.16"/><path fill="#15ffab" d="M912.403 415.2a3.58 3.58 0 1 0 0-7.16 3.58 3.58 0 0 0 0 7.16M613.693 148.8a3.58 3.58 0 1 0 0-7.16 3.58 3.58 0 0 0 0 7.16M430.913 250.61a3.58 3.58 0 1 0 0-7.16 3.58 3.58 0 0 0 0 7.16M362.243 221.23c-1.98 0-3.58-1.6-3.58-3.58s1.6-3.58 3.58-3.58 3.58 1.6 3.58 3.58-1.6 3.58-3.58 3.58M471.583 233.52a3.58 3.58 0 1 0 0-7.16 3.58 3.58 0 0 0 0 7.16M471.583 365.68a3.58 3.58 0 1 0 0-7.16 3.58 3.58 0 0 0 0 7.16M476.213 320.25a3.58 3.58 0 1 0 0-7.16 3.58 3.58 0 0 0 0 7.16M521.163 288.53a3.58 3.58 0 1 0 0-7.16 3.58 3.58 0 0 0 0 7.16M506.243 262.72a3.58 3.58 0 1 0 0-7.16 3.58 3.58 0 0 0 0 7.16M413.373 311.4c-1.98 0-3.58-1.6-3.58-3.58s1.6-3.58 3.58-3.58 3.58 1.6 3.58 3.58-1.6 3.58-3.58 3.58M315.043 323.83c-1.98 0-3.58-1.6-3.58-3.58s1.6-3.58 3.58-3.58 3.58 1.6 3.58 3.58-1.6 3.58-3.58 3.58M335.503 376.83c-1.98 0-3.58-1.6-3.58-3.58s1.6-3.58 3.58-3.58 3.58 1.6 3.58 3.58-1.6 3.58-3.58 3.58M355.163 429.39a3.58 3.58 0 1 0 0-7.16 3.58 3.58 0 0 0 0 7.16M387.413 445.91a3.58 3.58 0 1 0 0-7.16 3.58 3.58 0 0 0 0 7.16M453.363 432.56a3.58 3.58 0 1 0 0-7.16 3.58 3.58 0 0 0 0 7.16M635.483 320.25a3.58 3.58 0 1 0 0-7.16 3.58 3.58 0 0 0 0 7.16M412.843 145.46a3.58 3.58 0 1 0 0-7.16 3.58 3.58 0 0 0 0 7.16M471.583 106.1c-1.98 0-3.58-1.6-3.58-3.58s1.6-3.58 3.58-3.58 3.58 1.6 3.58 3.58-1.6 3.58-3.58 3.58M427.333 93.09c-1.98 0-3.58-1.6-3.58-3.58s1.6-3.58 3.58-3.58 3.58 1.6 3.58 3.58-1.6 3.58-3.58 3.58M585.343 202.62a3.58 3.58 0 1 0 0-7.16 3.58 3.58 0 0 0 0 7.16M581.763 264.3a3.58 3.58 0 1 0 0-7.16 3.58 3.58 0 0 0 0 7.16M549.883 262.34c-1.98 0-3.58-1.6-3.58-3.58s1.6-3.58 3.58-3.58 3.58 1.6 3.58 3.58-1.6 3.58-3.58 3.58M549.883 293.91a3.58 3.58 0 1 0 0-7.16 3.58 3.58 0 0 0 0 7.16M332.263 218.58a3.58 3.58 0 1 0 0-7.16 3.58 3.58 0 0 0 0 7.16M653.923 237.98c-1.98 0-3.58-1.6-3.58-3.58s1.6-3.58 3.58-3.58 3.58 1.6 3.58 3.58-1.6 3.58-3.58 3.58M692.983 323.83c-1.98 0-3.58-1.6-3.58-3.58s1.6-3.58 3.58-3.58 3.58 1.6 3.58 3.58-1.6 3.58-3.58 3.58M661.253 256.59a3.58 3.58 0 1 0 0-7.16 3.58 3.58 0 0 0 0 7.16M704.433 434.11c-1.98 0-3.58-1.6-3.58-3.58s1.6-3.58 3.58-3.58 3.58 1.6 3.58 3.58-1.6 3.58-3.58 3.58M728.033 408.16a3.58 3.58 0 1 0 0-7.16 3.58 3.58 0 0 0 0 7.16M739.043 390.06a3.58 3.58 0 1 0 0-7.16 3.58 3.58 0 0 0 0 7.16M756.343 364.1c-1.98 0-3.58-1.6-3.58-3.58s1.6-3.58 3.58-3.58 3.58 1.6 3.58 3.58-1.6 3.58-3.58 3.58M769.723 338.15a3.58 3.58 0 1 0 0-7.16 3.58 3.58 0 0 0 0 7.16M681.653 420.25c-1.98 0-3.58-1.6-3.58-3.58s1.6-3.58 3.58-3.58 3.58 1.6 3.58 3.58-1.6 3.58-3.58 3.58M719.093 385.37a3.58 3.58 0 1 0 0-7.16 3.58 3.58 0 0 0 0 7.16M743.763 349.16a3.58 3.58 0 1 0 0-7.16 3.58 3.58 0 0 0 0 7.16M490.293 311.4c-1.98 0-3.58-1.6-3.58-3.58s1.6-3.58 3.58-3.58 3.58 1.6 3.58 3.58-1.6 3.58-3.58 3.58"/><path fill="#c3fae8" d="m990.323 125.21-.33-.21 4.29-6.53v-.02h.4v12.73h-.4v-12l-3.95 6.02zM1008.25 122.1l.65 1.37.02.11v2.22l-.02.08-.86 2.44-.05.08-1.51 1.78-.08.05-1.56.94-.13.03h-3.28l-.11-.03-1.717-.92-.1-.06-1.48-1.77-.03-.08-.92-2.44v-2.37l.97-2.39 1.48-1.69.08-.05 1.687-.97.14-.03 3.27-.02.13.05 1.59.96.05.06 1.23 1.53.38.75.17.38zm-.32.25-.18-.4-.59-1.02-1.02-1.26-1.55-.91h-3.09l-1.687.92-1.48 1.67-.89 2.23v2.17l.91 2.39 1.47 1.72 1.637.89h3.2l1.48-.86 1.5-1.75.86-2.42v-2.15l-.57-1.23zM1011.32 131.18v-1.19h.64v1.19zM1017.09 125.21l-.33-.21 4.29-6.53v-.02h.4v12.73h-.4v-12l-3.95 6.02zM1035.01 122.1l.65 1.37.02.11v2.22l-.02.08-.86 2.44-.05.08-1.51 1.78-.08.05-1.56.94-.13.03h-3.28l-.11-.03-1.72-.92-.09-.06-1.48-1.77-.03-.08-.92-2.44v-2.37l.97-2.39 1.48-1.69.08-.05 1.69-.97.14-.03 3.27-.02.13.05 1.59.96.05.06 1.23 1.53.38.75.18.38zm-.32.25-.18-.4-.59-1.02-1.02-1.26-1.55-.91h-3.09l-1.69.92-1.48 1.67-.89 2.23v2.17l.91 2.39 1.47 1.72 1.64.89h3.2l1.48-.86 1.5-1.75.86-2.42v-2.15l-.57-1.23zM1038.08 131.18v-1.19h.64v1.19zM1046.1 123.93v-.41h1.37l1.1-.75.37-.97v-1.24l-.52-.97-.88-.78h-1.74l-.84.64-.51.89v.86h-.38v-.86l.51-1 .03-.06 1-.8.14-.05h1.83l.14.05 1 .88.03.08.57 1.08v1.43l-.41 1.07-1.04.68.89.49.05.05.72.92.03.08.45 1.34.02.06v1.23l-.02.06-.45 1.29-.03.06-.76 1.12-.05.06-1.04.67-.14.05h-1.91l-.13-.05-.99-.59-.06-.06-.78-1.04-.03-.05-.45-1.16v-1.67h.41v1.64l.41 1.1.72.94.92.56h1.82l.99-.64.75-1.08v-.02l.41-1.19v-1.24l-.4-1.23-.02-.02-.7-.89-1.02-.56h-1.4zM1052.82 131.18l-.33-.21 2.65-4.41h-3.51v-.4l4.65-7.74.33.21-4.51 7.54h3.27l1.86-3.09.33.21-1.74 2.88h3.36v.4h-3.6l-2.77 4.62zM1061.6 131.18v-1.19h.64v1.19zM1069.61 123.93v-.41h1.37l1.1-.75.37-.97v-1.24l-.52-.97-.88-.78h-1.74l-.84.64-.51.89v.86h-.38v-.86l.51-1 .03-.06 1-.8.14-.05h1.83l.14.05 1 .88.03.08.57 1.08v1.43l-.41 1.07-1.04.68.89.49.05.05.72.92.03.08.45 1.34.02.06v1.23l-.02.06-.45 1.29-.03.06-.76 1.12-.05.06-1.04.67-.14.05h-1.91l-.13-.05-.99-.59-.06-.06-.78-1.04-.03-.05-.45-1.16v-1.67h.41v1.64l.41 1.1.72.94.92.56h1.82l.99-.64.75-1.08v-.02l.41-1.19v-1.24l-.4-1.23-.02-.02-.7-.89-1.02-.56h-1.4zM1075.14 126.56h.41v1.47l.48 1.18.7 1.02.81.56h1.58l.76-.56.75-1.08v-.02l.41-1.42v-1.4l-.4-1.32-.76-1.04-.75-.57h-2.36v-4.94h4.73v.4h-4.33V123h2.09l.92.7.76 1.05.03.08.46 1.5v1.39l-.02.06-.48 1.58-.81 1.18-.81.59-.14.05h-1.67l-.13-.05-.88-.59-.06-.06-.8-1.16-.51-1.24v-1.5zM903.713 644.61l-.33-.21 4.29-6.53v-.02h.4v12.73h-.4v-12l-3.95 6.02zM921.633 641.5l.65 1.37.02.11v2.22l-.02.08-.86 2.44-.05.08-1.51 1.78-.08.05-1.56.94-.13.03h-3.28l-.11-.03-1.72-.92-.09-.06-1.48-1.77-.03-.08-.92-2.44v-2.37l.97-2.39 1.48-1.69.08-.05 1.69-.97.14-.03 3.27-.02.13.05 1.59.96.05.06 1.23 1.53.38.75.17.38zm-.32.25-.17-.4-.59-1.02-1.02-1.26-1.55-.91h-3.09l-1.69.92-1.48 1.67-.89 2.23v2.17l.91 2.39 1.47 1.72 1.64.89h3.2l1.48-.86 1.5-1.75.86-2.42v-2.15l-.57-1.23zM924.713 650.58v-1.19h.64v1.19zM930.473 644.61l-.33-.21 4.29-6.53v-.02h.4v12.73h-.4v-12l-3.95 6.02zM948.393 641.5l.65 1.37.02.11v2.22l-.02.08-.86 2.44-.05.08-1.51 1.78-.08.05-1.56.94-.13.03h-3.28l-.11-.03-1.72-.92-.09-.06-1.48-1.77-.03-.08-.92-2.44v-2.37l.97-2.39 1.48-1.69.08-.05 1.69-.97.14-.03 3.27-.02.13.05 1.59.96.05.06 1.23 1.53.38.75.18.38zm-.31.25-.18-.4-.59-1.02-1.02-1.26-1.55-.91h-3.09l-1.69.92-1.48 1.67-.89 2.23v2.17l.91 2.39 1.47 1.72 1.64.89h3.2l1.48-.86 1.5-1.75.86-2.42v-2.15l-.57-1.23zM951.473 650.58v-1.19h.64v1.19zM959.483 643.33v-.41h1.37l1.1-.75.37-.97v-1.24l-.52-.97-.88-.78h-1.74l-.84.64-.51.89v.86h-.38v-.86l.51-1 .03-.06 1-.8.14-.05h1.83l.14.05 1 .88.03.08.57 1.08v1.43l-.41 1.07-1.04.68.89.49.05.05.72.92.03.08.45 1.34.02.06v1.23l-.02.06-.45 1.29-.03.06-.76 1.12-.05.06-1.04.67-.14.05h-1.91l-.13-.05-.99-.59-.06-.06-.78-1.04-.03-.05-.45-1.16v-1.67h.41v1.64l.41 1.1.72.94.92.56h1.82l.99-.64.75-1.08v-.02l.41-1.19v-1.24l-.4-1.23-.02-.02-.7-.89-1.02-.56h-1.4zM966.203 650.58l-.33-.21 2.65-4.41h-3.51v-.4l4.65-7.74.33.21-4.51 7.54h3.27l1.86-3.09.33.21-1.74 2.88h3.36v.4h-3.6l-2.77 4.62zM974.983 650.58v-1.19h.64v1.19zM983.003 643.33v-.41h1.37l1.1-.75.37-.97v-1.24l-.53-.97-.88-.78h-1.74l-.84.64-.51.89v.86h-.38v-.86l.51-1 .03-.06 1-.8.14-.05h1.83l.14.05 1 .88.03.08.57 1.08v1.43l-.41 1.07-1.04.68.89.49.05.05.72.92.03.08.45 1.34.02.06v1.23l-.02.06-.45 1.29-.03.06-.76 1.12-.05.06-1.04.67-.14.05h-1.91l-.13-.05-.99-.59-.06-.06-.78-1.04-.03-.05-.45-1.16v-1.67h.41v1.64l.41 1.1.72.94.92.56h1.82l.99-.64.75-1.08v-.02l.41-1.19v-1.24l-.4-1.23-.02-.02-.7-.89-1.02-.56h-1.4zM988.523 645.96h.41v1.47l.48 1.18.7 1.02.81.56h1.58l.76-.56.75-1.08v-.02l.41-1.42v-1.4l-.4-1.32-.76-1.04-.75-.57h-2.36v-4.94h4.73v.4h-4.33v4.16h2.09l.92.7.76 1.05.03.08.46 1.5v1.39l-.02.06-.48 1.58-.81 1.18-.81.59-.14.05h-1.67l-.13-.05-.88-.59-.06-.06-.8-1.16-.51-1.24v-1.5zM634.003 571.02l4.73-7.71.33.21-4.6 7.5zm.33.21-.33-.21v.4h7.73v-.4h-7.26l-.13.21zm3.73-4.41h1l.14-.05.81-.61.05-.05.76-1.05.03-.08.45-1.43.02-.06v-1.39l-.02-.06-.45-1.51-.03-.06-.76-1.11-.05-.06-.81-.59-.14-.05h-1.67l-.13.05-.88.59-.06.06-.76 1.11-.03.05-.51 1.61v1.21h.42v-1.18l.48-1.55.7-1.02.81-.56h1.58l.76.56.75 1.08v.02l.41 1.42v1.4l-.4 1.32-.02.02-.75 1.02-.75.57h-.96v.38zM643.973 565.45l-.33-.21 4.29-6.53v-.02h.4v12.73h-.4v-12l-3.95 6.02zM651.323 571.42l-.37-.21 4.51-7.44h-2.48v-.4h2.72l2.6-4.3-7.42.02v-.4l7.9-.02v.4l-2.6 4.3h2.31v.4h-2.55zM661.183 571.42v-1.19h.64v1.19zM666.943 565.45l-.33-.21 4.29-6.53v-.02h.4v12.73h-.4v-12l-3.95 6.02zM675.203 571.42l-.33-.21 2.65-4.41h-3.51v-.4l4.65-7.74.33.21-4.51 7.54h3.27l1.86-3.09.33.21-1.74 2.88h3.36v.4h-3.6l-2.77 4.62zM688.453 559.58l.03.08.57 1.08v1.23l-.41 1.28-1.04.68.89.49.05.05.72.92.03.08.45 1.34.02.06v1.23l-.02.06-.45 1.29-.03.06-.76 1.12-.05.06-.92.67-.14.05h-2.02l-.13-.05-.99-.59-.06-.06-.78-1.24-.03-.05-.45-1.37v-1.29l.49-1.29.03-.08.72-.92.05-.05.99-.56-1.02-.67-.42-1.27v-1.29l.53-1.07.03-.06 1-.8.14-.05h1.83l.14.05 1 .88zm-5.11 7.6v.85l.41 1.31.72 1.15.92.56h1.93l.88-.64.75-1.08v-.02l.41-1.19v-1.24l-.4-1.23-.02-.02-.7-.89-1.02-.57h-1.74l-1.02.57-.7.89-.02.02-.41 1.18v.37zm4.95-4.17.37-1.18v-1.04l-.52-.97-.88-.78h-1.74l-.84.64-.51 1.04v1.07l.37 1.18 1.18.81h1.48l1.1-.76zM692.563 571.42v-1.19h.64v1.19zM697.673 566.8h.41v1.47l.48 1.18.7 1.02.81.56h1.58l.76-.56.75-1.08v-.02l.41-1.42v-1.4l-.4-1.32-.76-1.04-.75-.57h-2.36v-4.94h4.73v.4h-4.33v4.16h2.09l.92.7.76 1.05.03.08.46 1.5v1.39l-.02.06-.48 1.58-.81 1.18-.81.59-.14.05h-1.67l-.13-.05-.88-.59-.06-.06-.8-1.16-.51-1.24v-1.5zM706.833 571.42l-.33-.21 2.65-4.41h-3.51v-.4l4.65-7.74.33.21-4.51 7.54h3.27l1.86-3.09.33.21-1.74 2.88h3.36v.4h-3.6l-2.77 4.62zM715.613 571.42v-1.19h.64v1.19zM721.383 565.45l-.33-.21 4.29-6.53v-.02h.4v12.73h-.4v-12l-3.95 6.02zM728.723 571.42l-.37-.21 4.51-7.44h-2.48v-.4h2.72l2.6-4.3-7.42.02v-.4l7.9-.02v.4l-2.6 4.3h2.31v.4h-2.55zM738.113 565.45l-.33-.21 4.29-6.53v-.02h.4v12.73h-.4v-12l-3.95 6.02zM944.793 417.15l-.33-.21 4.29-6.53v-.02h.4v12.73h-.4v-12l-3.95 6.02zM957.453 411.29l.03.08.57 1.08v1.23l-.41 1.28-1.04.68.89.49.05.05.72.92.03.08.45 1.34.02.06v1.23l-.02.06-.45 1.29-.03.06-.76 1.12-.05.06-.92.67-.14.05h-2.02l-.13-.05-.99-.59-.06-.06-.78-1.24-.03-.05-.45-1.37v-1.29l.49-1.29.03-.08.72-.92.05-.05.99-.56-1.02-.67-.42-1.27v-1.29l.53-1.07.03-.06 1-.8.15-.05h1.83l.15.05 1 .88zm-5.11 7.6v.85l.41 1.31.72 1.15.92.56h1.93l.88-.64.75-1.08v-.02l.41-1.19v-1.24l-.4-1.23-.02-.02-.7-.89-1.02-.57h-1.74l-1.02.57-.7.89-.02.02-.41 1.18v.37zm4.95-4.17.37-1.18v-1.04l-.53-.97-.88-.78h-1.74l-.84.64-.51 1.04v1.07l.37 1.18 1.18.81h1.48l1.1-.76zM966.043 411.29l.03.08.57 1.08v1.23l-.41 1.28-1.04.68.89.49.05.05.72.92.03.08.45 1.34.02.06v1.23l-.02.06-.45 1.29-.03.06-.76 1.12-.05.06-.92.67-.15.05h-2.02l-.13-.05-.99-.59-.06-.06-.78-1.24-.03-.05-.45-1.37v-1.29l.49-1.29.03-.08.72-.92.05-.05.99-.56-1.02-.67-.41-1.27v-1.29l.53-1.07.03-.06 1-.8.14-.05h1.83l.14.05 1 .88zm-5.12 7.6v.85l.41 1.31.72 1.15.92.56h1.93l.88-.64.75-1.08v-.02l.41-1.19v-1.24l-.4-1.23-.02-.02-.7-.89-1.02-.57h-1.74l-1.02.57-.7.89-.02.02-.41 1.18v.37zm4.96-4.17.37-1.18v-1.04l-.53-.97-.88-.78h-1.74l-.84.64-.51 1.04v1.07l.37 1.18 1.18.81h1.48l1.1-.76zM970.153 423.13v-1.19h.64v1.19zM975.923 417.15l-.33-.21 4.29-6.53v-.02h.4v12.73h-.4v-12l-3.95 6.02zM983.633 417.15l-.33-.21 4.29-6.53v-.02h.4v12.73h-.4v-12l-3.95 6.02zM991.883 423.13l-.33-.21 2.64-4.41h-3.51v-.4l4.65-7.74.33.21-4.51 7.54h3.27l1.86-3.09.33.21-1.74 2.88h3.36v.4h-3.6l-2.77 4.62zM1000.66 423.13v-1.19h.64v1.19zM1010.72 410.27l1.12.84.69 1.43v1.74l-.64 1.4-.03.06-.49.4-.03 4.48h.02l-.02.03v.02l-.62 1.35-.03.06-1.23.99h-1.88l-1.27-1.12-.62-1.31-.02-.06v-1.34h.4v1.35l.62 1.19.02.02 1.04.88h1.58l1.02-.84.61-1.29.03-4.09-.33.27h-1.88l-1.27-1.12-.62-1.31-.02-.06v-1.62l.02-.06.73-1.39.03-.06 1.16-.84.14-.05h1.67l.13.05zm.26 3.59h.4l-.02 1.77.14-.11.61-1.29v-1.64l-.65-1.29-.89-.69h-1.58l-1.05.73-.7 1.29v1.64l.62 1.19.02.02 1.04.88h1.58l.48-.4.02-2.1zM1021.03 412.85l-.62-1.19-.02-.02-1.04-.88h-1.58l-1.02.85-.56 1.29v1.82l2.44-2.37.26.27-2.39 2.34h1.4l.14.05.88.61.05.05.76 1.05.03.06.51 1.55v1.34l-.51 1.61-.03.05-.76 1.11-.06.06-.88.59-.13.05h-1.67l-.14-.05-.81-.59-.05-.06-.76-1.11-.03-.06-.45-1.51-.02-.06v-1.39l.02-.06.45-1.43.03-.08.76-1.05.05-.05.51-.49v-2.28l.59-1.4.03-.06 1.23-.99h1.88l1.28 1.12.62 1.31.02.06v1.24h-.4v-1.26zm-4.73 9.9h1.58l.81-.56.7-1.02.48-1.55v-1.29l-.48-1.45-.73-.99-.8-.56h-1.58l-.75.57-.76 1.02-.4 1.34v1.4l.41 1.42v.02l.75 1.08.76.56zM1024.04 423.13v-1.19h.64v1.19zM1029.15 418.51h.41v1.47l.48 1.18.7 1.02.81.56h1.58l.76-.56.75-1.08v-.02l.41-1.42v-1.4l-.4-1.32-.76-1.04-.75-.57h-2.36v-4.94h4.73v.4h-4.33v4.16h2.09l.92.7.76 1.05.03.08.46 1.5v1.39l-.02.06-.48 1.58-.81 1.18-.81.59-.14.05h-1.67l-.13-.05-.88-.59-.06-.06-.8-1.16-.51-1.24v-1.5z"/></svg>