<?xml version="1.0" encoding="utf-8"?>
<!-- Generator: Adobe Illustrator 20.0.0, SVG Export Plug-In . SVG Version: 6.00 Build 0)  -->
<svg version="1.1" id="Layer_1" xmlns="http://www.w3.org/2000/svg" xmlns:xlink="http://www.w3.org/1999/xlink" x="0px" y="0px"
	 viewBox="0 0 675.9 300" style="enable-background:new 0 0 675.9 300;" xml:space="preserve">
<style type="text/css">
	.st0{fill:#C1282E;}
	.st1{fill:#D56535;}
	.st2{fill:#C4372F;}
	.st3{fill:#D05B33;}
	.st4{fill:#E18139;}
	.st5{fill:#F09F3E;}
	.st6{fill:#C12C2E;}
	.st7{fill:#DC7737;}
	.st8{fill:#D25F34;}
	.st9{fill:#DE7B38;}
	.st10{fill:#E9913C;}
	.st11{fill:#D86D36;}
	.st12{fill:#E88F3B;}
	.st13{fill:#F4A63F;}
	.st14{fill:#CB4B31;}
	.st15{fill:#CA4931;}
	.st16{fill:#CF5833;}
	.st17{fill:#DB7537;}
	.st18{fill:#E78D3B;}
	.st19{fill:#D76B36;}
	.st20{fill:#E68B3B;}
	.st21{fill:#F9AD40;}
	.st22{fill:#C94631;}
	.st23{fill:#C4352F;}
	.st24{fill:#C84430;}
	.st25{fill:#D15D34;}
	.st26{fill:#DD7938;}
	.st27{fill:#E5893A;}
	.st28{fill:#D66935;}
	.st29{fill:#E4873A;}
	.st30{fill:#F3A33E;}
	.st31{fill:#C74130;}
	.st32{fill:#C0252E;}
	.st33{fill:#C73F30;}
	.st34{fill:#CF5633;}
	.st35{fill:#DA7337;}
	.st36{fill:#E3853A;}
	.st37{fill:#D56735;}
	.st38{fill:#E28339;}
	.st39{fill:#F8AB3F;}
	.st40{fill:#C63C30;}
	.st41{fill:#C3322F;}
	.st42{fill:#C53A2F;}
	.st43{fill:#DF7D38;}
	.st44{fill:#D36134;}
	.st45{fill:#CE5432;}
	.st46{fill:#DA7137;}
	.st47{fill:#CD5232;}
	.st48{fill:#C22F2E;}
	.st49{fill:#EE9A3D;}
	.st50{fill:#F6A83F;}
	.st51{fill:#EC983D;}
	.st52{fill:#E07F39;}
	.st53{fill:#D46334;}
	.st54{fill:#CC5032;}
	.st55{fill:#D96F36;}
	.st56{fill:#CB4D32;}
	.st57{fill:#BF222D;}
	.st58{fill:#EB963C;}
	.st59{fill:#F1A13E;}
	.st60{fill:#EA933C;}
	.st61{fill:#BE1E2D;}
	.st62{fill:#FBB040;}
	.st63{fill:#EF9C3D;}
</style>
<g>
	<g>
		<g>
			<path class="st0" d="M35.3,293.9v-19.6h1.4v19.6H35.3z"/>
			<path class="st0" d="M41.1,293.9v-19.6H43l12.4,17.9v-17.9h1.4v19.6h-1.9l-12.4-17.7v17.7H41.1z"/>
			<path class="st0" d="M66.2,293.9v-18.3h-7v-1.3h15.6v1.3h-7.1v18.3H66.2z"/>
			<path class="st0" d="M77.1,293.9v-19.6h13.4v1.3h-12v7.5h11v1.2h-11v8.3h12v1.3H77.1z"/>
			<path class="st0" d="M93.1,293.9v-19.6h9.8c1.4,0,2.6,0.5,3.6,1.5c1,1,1.5,2.2,1.5,3.6c0,1.3-0.3,2.3-0.9,3.3
				c-0.6,0.9-1.4,1.5-2.3,1.6c0.9,0.2,1.6,0.9,2.1,2.1c0.5,1.2,0.8,2.6,0.8,4.2c0,0.9,0,1.6,0.1,2.1c0,0.5,0.1,0.9,0.3,1.2h-1.4
				c-0.2-0.3-0.4-0.7-0.5-1.5l-0.1-2.8c0-1.3-0.3-2.5-1-3.4c-0.6-0.9-1.4-1.4-2.4-1.4h-8.2v9H93.1z M102.7,283.6
				c1.1,0,2-0.4,2.8-1.2c0.8-0.8,1.1-1.7,1.1-2.8c0-1.1-0.4-2-1.1-2.8c-0.8-0.8-1.7-1.2-2.8-1.2h-8.2v8H102.7z"/>
			<path class="st0" d="M111.7,293.9v-19.6h1.9l12.4,17.9v-17.9h1.4v19.6h-1.9l-12.4-17.7v17.7H111.7z"/>
			<path class="st0" d="M131.9,293.9v-19.6h13.4v1.3h-12v7.5h11v1.2h-11v8.3h12v1.3H131.9z"/>
			<path class="st0" d="M152.9,293.9v-18.3h-7v-1.3h15.6v1.3h-7.1v18.3H152.9z"/>
			<path class="st0" d="M176.3,291.4c-1.7-1.8-2.5-4.2-2.5-7.3c0-3.1,0.8-5.6,2.5-7.5s3.9-2.8,6.7-2.8c2.8,0,5,0.9,6.7,2.8
				c1.7,1.9,2.5,4.4,2.5,7.5c0,3-0.8,5.4-2.5,7.3c-1.7,1.8-3.9,2.7-6.7,2.7C180.1,294.1,177.9,293.2,176.3,291.4z M188.6,290.5
				c1.4-1.6,2.1-3.7,2.1-6.4c0-2.7-0.7-4.9-2.1-6.6c-1.4-1.6-3.3-2.5-5.7-2.5c-2.4,0-4.2,0.8-5.7,2.5c-1.4,1.6-2.1,3.8-2.1,6.6
				c0,2.7,0.7,4.8,2.1,6.4c1.4,1.6,3.3,2.4,5.7,2.4C185.3,292.9,187.2,292.1,188.6,290.5z"/>
			<path class="st0" d="M197.3,292.4c-1.5-1.3-2.3-2.9-2.3-4.8v-13.3h1.4v13.3c0,1.5,0.6,2.8,1.9,3.9c1.2,1.1,2.7,1.6,4.5,1.6
				c1.7,0,3.1-0.5,4.3-1.6c1.2-1.1,1.8-2.4,1.8-3.9v-13.3h1.4v13.3c0,1.9-0.7,3.5-2.2,4.8c-1.5,1.3-3.2,2-5.3,2
				C200.7,294.4,198.9,293.7,197.3,292.4z"/>
			<path class="st0" d="M219.3,293.9v-18.3h-7v-1.3h15.6v1.3h-7.1v18.3H219.3z"/>
			<path class="st0" d="M228.3,293.9l8.2-19.6h1.7l8.1,19.6h-1.6l-2.6-6.3h-9.5l-2.6,6.3H228.3z M241.5,286.4l-4.2-10.5l-4.3,10.5
				H241.5z"/>
			<path class="st0" d="M250.4,291.4c-1.9-2-2.8-4.4-2.8-7.3c0-2.8,1-5.3,2.8-7.3c1.9-2,4.2-3,6.9-3c2,0,3.8,0.6,5.4,1.7
				c1.6,1.1,2.5,2.5,2.8,4.3h-1.4c-0.3-1.4-1-2.5-2.3-3.4c-1.3-0.9-2.8-1.4-4.5-1.4c-2.3,0-4.3,0.9-5.9,2.6
				c-1.6,1.8-2.5,3.9-2.5,6.4s0.8,4.6,2.5,6.4c1.6,1.8,3.6,2.6,5.9,2.6c2,0,3.6-0.7,5-2.1c1.4-1.4,2.1-3.1,2.1-5.1v-0.5h-7.1v-1.3
				h8.2v9.8h-1.1v-4c-0.5,1.4-1.4,2.5-2.7,3.3c-1.3,0.8-2.8,1.3-4.4,1.3C254.6,294.4,252.3,293.4,250.4,291.4z"/>
			<path class="st0" d="M269.1,293.9v-19.6h13.4v1.3h-12v7.5h11v1.2h-11v8.3h12v1.3H269.1z"/>
			<path class="st0" d="M296.2,274.3h8.2c2.2,0,4,0.9,5.6,2.8c1.5,1.8,2.3,4.1,2.3,6.7c0,2.8-0.8,5.1-2.3,7.1
				c-1.6,2-3.4,2.9-5.6,2.9h-8.2V274.3z M304.4,292.6c1.8,0,3.3-0.9,4.6-2.6c1.3-1.7,1.9-3.8,1.9-6.2c0-2.3-0.6-4.2-1.9-5.8
				c-1.3-1.6-2.8-2.4-4.6-2.4h-6.8v17H304.4z"/>
			<path class="st0" d="M315.5,293.9v-19.6H329v1.3h-12v7.5h11v1.2h-11v8.3h12v1.3H315.5z"/>
			<path class="st0" d="M336.5,293.9v-18.3h-7v-1.3H345v1.3h-7.1v18.3H336.5z"/>
			<path class="st0" d="M347.4,293.9v-19.6h13.4v1.3h-12v7.5h11v1.2h-11v8.3h12v1.3H347.4z"/>
			<path class="st0" d="M365,291.4c-1.9-2-2.8-4.4-2.8-7.3c0-2.8,0.9-5.3,2.8-7.3c1.8-2,4-3,6.7-3c2.2,0,4,0.5,5.5,1.6
				c1.5,1.1,2.4,2.5,2.7,4.4h-1.4c-0.3-1.4-1-2.5-2.3-3.4c-1.3-0.9-2.8-1.4-4.5-1.4c-2.2,0-4.1,0.9-5.7,2.6
				c-1.6,1.8-2.4,3.9-2.4,6.4s0.8,4.6,2.4,6.4c1.6,1.8,3.5,2.6,5.7,2.6c1.9,0,3.5-0.5,4.7-1.6c1.2-1.1,2-2.5,2.1-4.2h1.4
				c-0.2,2.1-1,3.8-2.5,5.1c-1.5,1.3-3.4,1.9-5.7,1.9C369.1,294.4,366.9,293.4,365,291.4z"/>
			<path class="st0" d="M387.7,293.9v-18.3h-7v-1.3h15.6v1.3h-7.1v18.3H387.7z"/>
			<path class="st0" d="M398.6,293.9v-19.6h1.4v19.6H398.6z"/>
			<path class="st0" d="M405.8,291.4c-1.7-1.8-2.5-4.2-2.5-7.3c0-3.1,0.8-5.6,2.5-7.5c1.7-1.9,3.9-2.8,6.7-2.8c2.8,0,5,0.9,6.7,2.8
				c1.7,1.9,2.5,4.4,2.5,7.5c0,3-0.8,5.4-2.5,7.3c-1.7,1.8-3.9,2.7-6.7,2.7C409.7,294.1,407.5,293.2,405.8,291.4z M418.2,290.5
				c1.4-1.6,2.1-3.7,2.1-6.4c0-2.7-0.7-4.9-2.1-6.6c-1.4-1.6-3.3-2.5-5.7-2.5c-2.4,0-4.2,0.8-5.7,2.5c-1.4,1.6-2.1,3.8-2.1,6.6
				c0,2.7,0.7,4.8,2.1,6.4c1.4,1.6,3.3,2.4,5.7,2.4C414.9,292.9,416.8,292.1,418.2,290.5z"/>
			<path class="st0" d="M425,293.9v-19.6h1.9l12.4,17.9v-17.9h1.4v19.6h-1.9l-12.4-17.7v17.7H425z"/>
			<path class="st0" d="M454.4,293.9l8.2-19.6h1.7l8.1,19.6h-1.6l-2.6-6.3h-9.5l-2.6,6.3H454.4z M467.6,286.4l-4.2-10.5l-4.3,10.5
				H467.6z"/>
			<path class="st0" d="M474.8,293.9v-19.6h1.9l12.4,17.9v-17.9h1.4v19.6h-1.9l-12.4-17.7v17.7H474.8z"/>
			<path class="st0" d="M495,274.3h8.2c2.2,0,4,0.9,5.6,2.8c1.5,1.8,2.3,4.1,2.3,6.7c0,2.8-0.8,5.1-2.3,7.1c-1.6,2-3.4,2.9-5.6,2.9
				H495V274.3z M503.1,292.6c1.8,0,3.3-0.9,4.6-2.6c1.3-1.7,1.9-3.8,1.9-6.2c0-2.3-0.6-4.2-1.9-5.8c-1.3-1.6-2.8-2.4-4.6-2.4h-6.8
				v17H503.1z"/>
			<path class="st0" d="M523.5,293.9l8.2-19.6h1.7l8.1,19.6h-1.6l-2.6-6.3h-9.5l-2.6,6.3H523.5z M536.7,286.4l-4.2-10.5l-4.3,10.5
				H536.7z"/>
			<path class="st0" d="M543.9,293.9v-19.6h1.9l12.4,17.9v-17.9h1.4v19.6h-1.9l-12.4-17.7v17.7H543.9z"/>
			<path class="st0" d="M562.2,293.9l8.2-19.6h1.7l8.1,19.6h-1.6l-2.6-6.3h-9.5l-2.6,6.3H562.2z M575.4,286.4l-4.2-10.5l-4.3,10.5
				H575.4z"/>
			<path class="st0" d="M582.7,274.3h1.4v18.3h11.1v1.3h-12.5V274.3z"/>
			<path class="st0" d="M603.3,293.9v-8.5l-7.9-11h2l6.7,9.5l6.5-9.5h2l-7.6,11v8.5H603.3z"/>
			<path class="st0" d="M615.7,292.5c-1.4-1.3-2.1-2.8-2.1-4.6h1.4c0,1.5,0.6,2.7,1.7,3.7c1.1,1,2.5,1.6,4.1,1.6
				c1.7,0,3.2-0.4,4.5-1.3c1.2-0.9,1.8-1.9,1.8-3.2c0-1.1-0.5-2-1.6-2.7c-1.1-0.7-2.5-1.2-4.3-1.3c-2.2-0.2-4-0.8-5.3-1.8
				c-1.3-1-2-2.3-2-3.7c0-1.5,0.7-2.7,2-3.7c1.3-1,3-1.6,4.9-1.6c2,0,3.8,0.5,5.2,1.6c1.4,1.1,2.2,2.4,2.2,3.9h-1.4
				c0-1.2-0.6-2.2-1.8-3c-1.2-0.8-2.6-1.3-4.2-1.3c-1.5,0-2.8,0.4-3.9,1.2c-1.1,0.8-1.6,1.7-1.6,2.8c0,1.1,0.6,2,1.7,2.8
				c1.1,0.7,2.6,1.2,4.5,1.4c2.1,0.2,3.8,0.8,5.1,1.7c1.3,1,1.9,2.2,1.9,3.7c0,1.6-0.8,2.9-2.3,4.1c-1.5,1.1-3.3,1.7-5.5,1.7
				C618.7,294.4,617.1,293.8,615.7,292.5z"/>
			<path class="st0" d="M631.5,293.9v-19.6h1.4v19.6H631.5z"/>
			<path class="st0" d="M638.1,292.5c-1.4-1.3-2.1-2.8-2.1-4.6h1.4c0,1.5,0.6,2.7,1.7,3.7c1.1,1,2.5,1.6,4.1,1.6
				c1.7,0,3.2-0.4,4.5-1.3c1.2-0.9,1.8-1.9,1.8-3.2c0-1.1-0.5-2-1.6-2.7c-1.1-0.7-2.5-1.2-4.3-1.3c-2.2-0.2-4-0.8-5.3-1.8
				c-1.3-1-2-2.3-2-3.7c0-1.5,0.7-2.7,2-3.7c1.3-1,3-1.6,4.9-1.6c2,0,3.8,0.5,5.2,1.6c1.4,1.1,2.2,2.4,2.2,3.9h-1.4
				c0-1.2-0.6-2.2-1.8-3c-1.2-0.8-2.6-1.3-4.2-1.3c-1.5,0-2.8,0.4-3.9,1.2c-1.1,0.8-1.6,1.7-1.6,2.8c0,1.1,0.6,2,1.7,2.8
				c1.1,0.7,2.6,1.2,4.5,1.4c2.1,0.2,3.8,0.8,5.1,1.7c1.3,1,1.9,2.2,1.9,3.7c0,1.6-0.8,2.9-2.3,4.1c-1.5,1.1-3.3,1.7-5.5,1.7
				C641.2,294.4,639.5,293.8,638.1,292.5z"/>
		</g>
	</g>
	<g>
		<polygon class="st1" points="0,140.7 23.6,127 47.1,113.4 47.1,140.7 47.1,167.9 23.6,154.3 		"/>
		<polygon class="st2" points="0,195.1 23.6,181.5 47.1,167.9 47.1,195.1 47.1,222.3 23.6,208.7 		"/>
		<polygon class="st3" points="47.1,167.9 23.6,181.5 0,195.1 0,167.9 0,140.7 23.6,154.3 		"/>
		<polygon class="st4" points="0,86.2 23.6,72.6 47.1,59 47.1,86.2 47.1,113.4 23.6,99.8 		"/>
		<polygon class="st5" points="47.1,59 23.6,72.6 0,86.2 0,59 0,31.8 23.6,45.4 		"/>
		<polygon class="st6" points="47.1,222.3 23.6,235.9 0,249.5 0,222.3 0,195.1 23.6,208.7 		"/>
		<polygon class="st7" points="47.1,113.4 23.6,127 0,140.7 0,113.4 0,86.2 23.6,99.8 		"/>
		<polygon class="st8" points="115.7,167.9 92.1,181.5 68.5,195.1 68.5,167.9 68.5,140.7 92.1,154.3 		"/>
		<polygon class="st9" points="115.7,113.4 92.1,127 68.5,140.7 68.5,113.4 68.5,86.2 92.1,99.8 		"/>
		<polygon class="st10" points="162.7,86.2 139.1,99.8 115.5,113.4 115.5,86.2 115.5,59 139.1,72.6 		"/>
		<polygon class="st11" points="68.5,140.7 92.1,127 115.7,113.4 115.7,140.7 115.7,167.9 92.1,154.3 		"/>
		<polygon class="st12" points="68.5,86.2 92.1,72.6 115.7,59 115.7,86.2 115.7,113.4 92.1,99.8 		"/>
		<polygon class="st13" points="115.5,59 139.1,45.4 162.7,31.8 162.7,59 162.7,86.2 139.1,72.6 		"/>
		<polygon class="st14" points="162.7,195.1 139.1,208.7 115.5,222.3 115.5,195.1 115.5,167.9 139.1,181.5 		"/>
		<polygon class="st0" points="115.5,222.3 139.1,208.7 162.7,195.1 162.7,222.3 162.7,249.5 139.1,235.9 		"/>
		<polygon class="st15" points="68.5,195.1 92.1,181.5 115.7,167.9 115.7,195.1 115.7,222.3 92.1,208.7 		"/>
		<polygon class="st16" points="209.6,167.9 233.1,181.5 256.7,195.1 256.7,167.9 256.7,140.7 233.1,154.3 		"/>
		<polygon class="st17" points="209.6,113.4 233.1,127 256.7,140.7 256.7,113.4 256.7,86.2 233.1,99.8 		"/>
		<polygon class="st18" points="162.5,86.2 186.1,99.8 209.7,113.4 209.7,86.2 209.7,59 186.1,72.6 		"/>
		<polygon class="st19" points="256.7,140.7 233.1,127 209.6,113.4 209.6,140.7 209.6,167.9 233.1,154.3 		"/>
		<polygon class="st20" points="256.7,86.2 233.1,72.6 209.6,59 209.6,86.2 209.6,113.4 233.1,99.8 		"/>
		<polygon class="st21" points="209.7,59 186.1,45.4 162.5,31.8 162.5,59 162.5,86.2 186.1,72.6 		"/>
		<polygon class="st22" points="162.5,195.1 186.1,208.7 209.7,222.3 209.7,195.1 209.7,167.9 186.1,181.5 		"/>
		<polygon class="st23" points="209.7,222.3 186.1,208.7 162.5,195.1 162.5,222.3 162.5,249.5 186.1,235.9 		"/>
		<polygon class="st24" points="256.7,195.1 233.1,181.5 209.6,167.9 209.6,195.1 209.6,222.3 233.1,208.7 		"/>
		<polygon class="st25" points="534.8,167.9 511.3,181.5 487.7,195.1 487.7,167.9 487.7,140.7 511.3,154.3 		"/>
		<polygon class="st26" points="534.8,113.4 511.3,127 487.7,140.7 487.7,113.4 487.7,86.2 511.3,99.8 		"/>
		<polygon class="st27" points="581.8,86.2 558.3,99.8 534.7,113.4 534.7,86.2 534.7,59 558.3,72.6 		"/>
		<polygon class="st28" points="487.7,140.7 511.3,127 534.8,113.4 534.8,140.7 534.8,167.9 511.3,154.3 		"/>
		<polygon class="st29" points="487.7,86.2 511.3,72.6 534.8,59 534.8,86.2 534.8,113.4 511.3,99.8 		"/>
		<polygon class="st30" points="534.7,59 558.3,45.4 581.8,31.8 581.8,59 581.8,86.2 558.3,72.6 		"/>
		<polygon class="st31" points="581.8,195.1 558.3,208.7 534.7,222.3 534.7,195.1 534.7,167.9 558.3,181.5 		"/>
		<polygon class="st32" points="534.7,222.3 558.3,208.7 581.8,195.1 581.8,222.3 581.8,249.5 558.3,235.9 		"/>
		<polygon class="st33" points="487.7,195.1 511.3,181.5 534.8,167.9 534.8,195.1 534.8,222.3 511.3,208.7 		"/>
		<polygon class="st34" points="628.7,167.9 652.3,181.5 675.9,195.1 675.9,167.9 675.9,140.7 652.3,154.3 		"/>
		<polygon class="st35" points="628.7,113.4 652.3,127 675.9,140.7 675.9,113.4 675.9,86.2 652.3,99.8 		"/>
		<polygon class="st36" points="581.7,86.2 605.3,99.8 628.8,113.4 628.8,86.2 628.8,59 605.3,72.6 		"/>
		<polygon class="st37" points="675.9,140.7 652.3,127 628.7,113.4 628.7,140.7 628.7,167.9 652.3,154.3 		"/>
		<polygon class="st38" points="675.9,86.2 652.3,72.6 628.7,59 628.7,86.2 628.7,113.4 652.3,99.8 		"/>
		<polygon class="st39" points="628.8,59 605.3,45.4 581.7,31.8 581.7,59 581.7,86.2 605.3,72.6 		"/>
		<polygon class="st40" points="581.7,195.1 605.3,208.7 628.8,222.3 628.8,195.1 628.8,167.9 605.3,181.5 		"/>
		<polygon class="st41" points="628.8,222.3 605.3,208.7 581.7,195.1 581.7,222.3 581.7,249.5 605.3,235.9 		"/>
		<polygon class="st42" points="675.9,195.1 652.3,181.5 628.7,167.9 628.7,195.1 628.7,222.3 652.3,208.7 		"/>
		<polygon class="st43" points="419.2,113.4 442.7,99.8 466.3,86.2 466.3,113.4 466.3,140.7 442.7,127 		"/>
		<polygon class="st44" points="419.2,167.9 442.7,154.3 466.3,140.7 466.3,167.9 466.3,195.1 442.7,181.5 		"/>
		<polygon class="st45" points="372.2,195.1 395.7,181.5 419.3,167.9 419.3,195.1 419.3,222.3 395.7,208.7 		"/>
		<polygon class="st46" points="466.3,140.7 442.7,154.3 419.2,167.9 419.2,140.7 419.2,113.4 442.7,127 		"/>
		<polygon class="st47" points="466.3,195.1 442.7,208.7 419.2,222.3 419.2,195.1 419.2,167.9 442.7,181.5 		"/>
		<polygon class="st48" points="419.3,222.3 395.7,235.9 372.2,249.5 372.2,222.3 372.2,195.1 395.7,208.7 		"/>
		<polygon class="st49" points="372.2,86.2 395.7,72.6 419.3,59 419.3,86.2 419.3,113.4 395.7,99.8 		"/>
		<polygon class="st50" points="419.3,59 395.7,72.6 372.2,86.2 372.2,59 372.2,31.8 395.7,45.4 		"/>
		<polygon class="st51" points="466.3,86.2 442.7,99.8 419.2,113.4 419.2,86.2 419.2,59 442.7,72.6 		"/>
		<polygon class="st52" points="325.3,113.4 301.7,99.8 278.1,86.2 278.1,113.4 278.1,140.7 301.7,127 		"/>
		<polygon class="st53" points="325.3,167.9 301.7,154.3 278.1,140.7 278.1,167.9 278.1,195.1 301.7,181.5 		"/>
		<polygon class="st54" points="372.3,195.1 348.7,181.5 325.2,167.9 325.2,195.1 325.2,222.3 348.7,208.7 		"/>
		<polygon class="st55" points="278.1,140.7 301.7,154.3 325.3,167.9 325.3,140.7 325.3,113.4 301.7,127 		"/>
		<polygon class="st56" points="278.1,195.1 301.7,208.7 325.3,222.3 325.3,195.1 325.3,167.9 301.7,181.5 		"/>
		<polygon class="st57" points="325.2,222.3 348.7,235.9 372.3,249.5 372.3,222.3 372.3,195.1 348.7,208.7 		"/>
		<polygon class="st58" points="372.3,86.2 348.7,72.6 325.2,59 325.2,86.2 325.2,113.4 348.7,99.8 		"/>
		<polygon class="st59" points="325.2,59 348.7,72.6 372.3,86.2 372.3,59 372.3,31.8 348.7,45.4 		"/>
		<polygon class="st60" points="278.1,86.2 301.7,99.8 325.3,113.4 325.3,86.2 325.3,59 301.7,72.6 		"/>
		<polygon class="st61" points="628.7,222.3 652.2,208.7 675.8,195.1 675.8,222.3 675.8,249.5 652.2,235.9 		"/>
		<polygon class="st62" points="466.2,31.8 442.7,45.4 419.1,59 419.1,31.8 419.1,4.6 442.7,18.2 		"/>
		<polygon class="st63" points="419.1,59 442.7,45.4 466.2,31.8 466.2,59 466.2,86.2 442.7,72.6 		"/>
	</g>
</g>
</svg>
